<svg width="348" height="438" viewBox="0 0 348 438" fill="none" xmlns="http://www.w3.org/2000/svg">
<path d="M15.9737 420.6L13.3337 413.07L10.6937 420.6H15.9737ZM17.5337 425.07H9.13371L7.78371 429H1.51371L10.1237 406.38H16.5437L25.1537 429H18.8837L17.5337 425.07ZM32.9687 404.1V429H27.5387V404.1H32.9687ZM47.9293 419.07C47.7493 418.31 47.3793 417.7 46.8193 417.24C46.2593 416.78 45.5793 416.55 44.7793 416.55C43.9393 416.55 43.2493 416.77 42.7093 417.21C42.1893 417.65 41.8593 418.27 41.7193 419.07H47.9293ZM41.5693 422.22C41.5693 424.56 42.6693 425.73 44.8693 425.73C46.0493 425.73 46.9393 425.25 47.5393 424.29H52.7893C51.7293 427.81 49.0793 429.57 44.8393 429.57C43.5393 429.57 42.3493 429.38 41.2693 429C40.1893 428.6 39.2593 428.04 38.4793 427.32C37.7193 426.6 37.1293 425.74 36.7093 424.74C36.2893 423.74 36.0793 422.62 36.0793 421.38C36.0793 420.1 36.2793 418.95 36.6793 417.93C37.0793 416.89 37.6493 416.01 38.3893 415.29C39.1293 414.57 40.0193 414.02 41.0593 413.64C42.1193 413.24 43.3093 413.04 44.6293 413.04C45.9293 413.04 47.0993 413.24 48.1393 413.64C49.1793 414.02 50.0593 414.58 50.7793 415.32C51.4993 416.06 52.0493 416.97 52.4293 418.05C52.8093 419.11 52.9993 420.31 52.9993 421.65V422.22H41.5693ZM56.1032 413.61H61.5332V416.13C62.1132 415.21 62.8232 414.51 63.6632 414.03C64.5032 413.53 65.4832 413.28 66.6032 413.28C66.7432 413.28 66.8932 413.28 67.0532 413.28C67.2332 413.28 67.4332 413.3 67.6532 413.34V418.53C66.9332 418.17 66.1532 417.99 65.3132 417.99C64.0532 417.99 63.1032 418.37 62.4632 419.13C61.8432 419.87 61.5332 420.96 61.5332 422.4V429H56.1032V413.61ZM76.6944 418.14V429H71.2644V418.14H69.4644V413.61H71.2644V408.99H76.6944V413.61H79.7844V418.14H76.6944ZM92.1723 417.57C91.1723 417.05 90.1923 416.79 89.2323 416.79C88.7323 416.79 88.3223 416.89 88.0023 417.09C87.7023 417.29 87.5523 417.56 87.5523 417.9C87.5523 418.08 87.5723 418.23 87.6123 418.35C87.6723 418.45 87.7823 418.55 87.9423 418.65C88.1223 418.75 88.3723 418.84 88.6923 418.92C89.0323 419 89.4723 419.1 90.0123 419.22C91.5123 419.52 92.6323 420.06 93.3723 420.84C94.1123 421.6 94.4823 422.58 94.4823 423.78C94.4823 424.68 94.3023 425.49 93.9423 426.21C93.5823 426.93 93.0823 427.54 92.4423 428.04C91.8023 428.52 91.0323 428.89 90.1323 429.15C89.2323 429.43 88.2423 429.57 87.1623 429.57C85.0823 429.57 83.0323 428.98 81.0123 427.8L82.9923 423.96C84.5123 425 85.9523 425.52 87.3123 425.52C87.8123 425.52 88.2223 425.41 88.5423 425.19C88.8623 424.97 89.0223 424.69 89.0223 424.35C89.0223 424.15 88.9923 423.99 88.9323 423.87C88.8923 423.73 88.7923 423.61 88.6323 423.51C88.4723 423.39 88.2323 423.29 87.9123 423.21C87.6123 423.11 87.2123 423.01 86.7123 422.91C85.0323 422.57 83.8523 422.07 83.1723 421.41C82.5123 420.73 82.1823 419.8 82.1823 418.62C82.1823 417.76 82.3423 416.99 82.6623 416.31C82.9823 415.61 83.4423 415.02 84.0423 414.54C84.6423 414.06 85.3623 413.69 86.2023 413.43C87.0623 413.17 88.0123 413.04 89.0523 413.04C90.7523 413.04 92.4023 413.37 94.0023 414.03L92.1723 417.57ZM117.571 414.63C118.971 413.79 119.671 412.85 119.671 411.81C119.671 411.25 119.481 410.77 119.101 410.37C118.741 409.95 118.271 409.74 117.691 409.74C117.151 409.74 116.701 409.92 116.341 410.28C115.981 410.64 115.801 411.09 115.801 411.63C115.801 412.35 116.391 413.35 117.571 414.63ZM115.141 419.55C113.721 420.43 113.011 421.31 113.011 422.19C113.011 422.51 113.081 422.81 113.221 423.09C113.361 423.35 113.551 423.58 113.791 423.78C114.031 423.96 114.301 424.11 114.601 424.23C114.921 424.33 115.261 424.38 115.621 424.38C116.621 424.38 117.651 424.05 118.711 423.39L115.141 419.55ZM123.001 420.36C124.201 419.22 125.181 418.14 125.941 417.12L129.271 420.33C128.931 420.79 128.541 421.26 128.101 421.74C127.681 422.2 127.191 422.69 126.631 423.21L126.181 423.63L131.221 429H123.901L121.921 426.93C119.221 428.73 116.631 429.63 114.151 429.63C113.091 429.63 112.121 429.47 111.241 429.15C110.361 428.83 109.601 428.38 108.961 427.8C108.321 427.22 107.821 426.54 107.461 425.76C107.101 424.96 106.921 424.09 106.921 423.15C106.921 422.31 107.031 421.57 107.251 420.93C107.491 420.27 107.891 419.64 108.451 419.04C108.871 418.58 109.331 418.19 109.831 417.87C110.351 417.53 110.981 417.19 111.721 416.85L112.351 416.55L111.961 416.1C110.801 414.64 110.221 413.25 110.221 411.93C110.221 411.05 110.401 410.23 110.761 409.47C111.121 408.71 111.611 408.06 112.231 407.52C112.871 406.96 113.621 406.53 114.481 406.23C115.341 405.91 116.271 405.75 117.271 405.75C118.291 405.75 119.231 405.91 120.091 406.23C120.951 406.53 121.691 406.96 122.311 407.52C122.951 408.08 123.441 408.74 123.781 409.5C124.141 410.24 124.321 411.05 124.321 411.93C124.321 412.53 124.251 413.08 124.111 413.58C123.971 414.06 123.731 414.52 123.391 414.96C123.071 415.38 122.641 415.79 122.101 416.19C121.581 416.57 120.931 416.96 120.151 417.36L123.001 420.36ZM143.801 429V406.38H149.681L160.541 420.21V406.38H166.391V429H160.541L149.681 415.17V429H143.801ZM175.989 421.23C175.989 421.75 176.079 422.23 176.259 422.67C176.459 423.09 176.709 423.46 177.009 423.78C177.329 424.1 177.699 424.35 178.119 424.53C178.559 424.71 179.019 424.8 179.499 424.8C179.979 424.8 180.429 424.71 180.849 424.53C181.289 424.35 181.659 424.1 181.959 423.78C182.279 423.46 182.529 423.09 182.709 422.67C182.909 422.23 183.009 421.76 183.009 421.26C183.009 420.78 182.909 420.33 182.709 419.91C182.529 419.47 182.279 419.09 181.959 418.77C181.659 418.45 181.289 418.2 180.849 418.02C180.429 417.84 179.979 417.75 179.499 417.75C179.019 417.75 178.559 417.84 178.119 418.02C177.699 418.2 177.329 418.45 177.009 418.77C176.709 419.09 176.459 419.46 176.259 419.88C176.079 420.3 175.989 420.75 175.989 421.23ZM170.259 421.17C170.259 420.03 170.489 418.97 170.949 417.99C171.409 416.99 172.049 416.13 172.869 415.41C173.689 414.67 174.659 414.09 175.779 413.67C176.919 413.25 178.159 413.04 179.499 413.04C180.819 413.04 182.039 413.25 183.159 413.67C184.299 414.07 185.279 414.64 186.099 415.38C186.939 416.1 187.589 416.97 188.049 417.99C188.509 418.99 188.739 420.1 188.739 421.32C188.739 422.54 188.499 423.66 188.019 424.68C187.559 425.68 186.919 426.55 186.099 427.29C185.279 428.01 184.289 428.57 183.129 428.97C181.989 429.37 180.749 429.57 179.409 429.57C178.089 429.57 176.869 429.37 175.749 428.97C174.629 428.57 173.659 428 172.839 427.26C172.039 426.52 171.409 425.64 170.949 424.62C170.489 423.58 170.259 422.43 170.259 421.17ZM198.013 418.14V429H192.583V418.14H190.783V413.61H192.583V408.99H198.013V413.61H201.103V418.14H198.013ZM208.984 413.61V429H203.554V413.61H208.984ZM203.194 407.7C203.194 407.28 203.274 406.89 203.434 406.53C203.594 406.15 203.814 405.82 204.094 405.54C204.374 405.26 204.694 405.04 205.054 404.88C205.434 404.72 205.834 404.64 206.254 404.64C206.674 404.64 207.064 404.72 207.424 404.88C207.804 405.04 208.134 405.26 208.414 405.54C208.694 405.82 208.914 406.15 209.074 406.53C209.234 406.89 209.314 407.28 209.314 407.7C209.314 408.12 209.234 408.52 209.074 408.9C208.914 409.26 208.694 409.58 208.414 409.86C208.134 410.14 207.804 410.36 207.424 410.52C207.064 410.68 206.674 410.76 206.254 410.76C205.834 410.76 205.434 410.68 205.054 410.52C204.694 410.36 204.374 410.14 204.094 409.86C203.814 409.58 203.594 409.26 203.434 408.9C203.274 408.52 203.194 408.12 203.194 407.7ZM213.145 413.61V410.76C213.145 409.76 213.355 408.82 213.775 407.94C214.215 407.04 214.795 406.26 215.515 405.6C216.255 404.94 217.105 404.42 218.065 404.04C219.045 403.64 220.075 403.44 221.155 403.44C222.235 403.44 223.255 403.63 224.215 404.01C225.195 404.39 226.045 404.91 226.765 405.57C227.505 406.23 228.085 407.01 228.505 407.91C228.945 408.79 229.165 409.74 229.165 410.76V411.45H223.735V410.76C223.735 410.4 223.665 410.06 223.525 409.74C223.405 409.4 223.225 409.1 222.985 408.84C222.765 408.58 222.495 408.37 222.175 408.21C221.875 408.05 221.535 407.97 221.155 407.97C220.415 407.97 219.795 408.25 219.295 408.81C218.815 409.37 218.575 410.02 218.575 410.76V413.61H221.695V418.14H218.575V429H213.145V418.14H211.195V413.61H213.145ZM229.165 429H223.735V413.61H229.165V429ZM244.491 418.59C243.551 417.95 242.601 417.63 241.641 417.63C241.121 417.63 240.631 417.72 240.171 417.9C239.731 418.08 239.341 418.34 239.001 418.68C238.661 419 238.391 419.39 238.191 419.85C238.011 420.29 237.921 420.79 237.921 421.35C237.921 421.89 238.011 422.39 238.191 422.85C238.391 423.29 238.651 423.68 238.971 424.02C239.311 424.34 239.711 424.59 240.171 424.77C240.631 424.95 241.121 425.04 241.641 425.04C242.661 425.04 243.611 424.69 244.491 423.99V428.61C243.151 429.19 241.881 429.48 240.681 429.48C239.561 429.48 238.491 429.29 237.471 428.91C236.471 428.53 235.581 427.99 234.801 427.29C234.041 426.57 233.431 425.72 232.971 424.74C232.511 423.74 232.281 422.63 232.281 421.41C232.281 420.19 232.501 419.08 232.941 418.08C233.381 417.06 233.981 416.19 234.741 415.47C235.501 414.73 236.401 414.16 237.441 413.76C238.501 413.34 239.631 413.13 240.831 413.13C242.151 413.13 243.371 413.41 244.491 413.97V418.59ZM252.628 421.26C252.628 421.76 252.718 422.23 252.898 422.67C253.078 423.09 253.318 423.46 253.618 423.78C253.938 424.1 254.308 424.35 254.728 424.53C255.168 424.71 255.638 424.8 256.138 424.8C256.618 424.8 257.068 424.71 257.488 424.53C257.928 424.35 258.298 424.1 258.598 423.78C258.918 423.46 259.168 423.09 259.348 422.67C259.548 422.25 259.648 421.8 259.648 421.32C259.648 420.84 259.548 420.39 259.348 419.97C259.168 419.53 258.918 419.15 258.598 418.83C258.298 418.51 257.928 418.26 257.488 418.08C257.068 417.9 256.618 417.81 256.138 417.81C255.638 417.81 255.168 417.9 254.728 418.08C254.308 418.26 253.938 418.51 253.618 418.83C253.318 419.15 253.078 419.52 252.898 419.94C252.718 420.34 252.628 420.78 252.628 421.26ZM259.468 413.61H264.928V429H259.468V427.29C258.308 428.75 256.738 429.48 254.758 429.48C253.638 429.48 252.608 429.28 251.668 428.88C250.728 428.46 249.908 427.88 249.208 427.14C248.508 426.4 247.958 425.53 247.558 424.53C247.178 423.53 246.988 422.44 246.988 421.26C246.988 420.16 247.178 419.12 247.558 418.14C247.938 417.14 248.468 416.27 249.148 415.53C249.828 414.79 250.638 414.21 251.578 413.79C252.518 413.35 253.558 413.13 254.698 413.13C256.618 413.13 258.208 413.8 259.468 415.14V413.61ZM274.683 418.14V429H269.253V418.14H267.453V413.61H269.253V408.99H274.683V413.61H277.773V418.14H274.683ZM285.654 413.61V429H280.224V413.61H285.654ZM279.864 407.7C279.864 407.28 279.944 406.89 280.104 406.53C280.264 406.15 280.484 405.82 280.764 405.54C281.044 405.26 281.364 405.04 281.724 404.88C282.104 404.72 282.504 404.64 282.924 404.64C283.344 404.64 283.734 404.72 284.094 404.88C284.474 405.04 284.804 405.26 285.084 405.54C285.364 405.82 285.584 406.15 285.744 406.53C285.904 406.89 285.984 407.28 285.984 407.7C285.984 408.12 285.904 408.52 285.744 408.9C285.584 409.26 285.364 409.58 285.084 409.86C284.804 410.14 284.474 410.36 284.094 410.52C283.734 410.68 283.344 410.76 282.924 410.76C282.504 410.76 282.104 410.68 281.724 410.52C281.364 410.36 281.044 410.14 280.764 409.86C280.484 409.58 280.264 409.26 280.104 408.9C279.944 408.52 279.864 408.12 279.864 407.7ZM294.495 421.23C294.495 421.75 294.585 422.23 294.765 422.67C294.965 423.09 295.215 423.46 295.515 423.78C295.835 424.1 296.205 424.35 296.625 424.53C297.065 424.71 297.525 424.8 298.005 424.8C298.485 424.8 298.935 424.71 299.355 424.53C299.795 424.35 300.165 424.1 300.465 423.78C300.785 423.46 301.035 423.09 301.215 422.67C301.415 422.23 301.515 421.76 301.515 421.26C301.515 420.78 301.415 420.33 301.215 419.91C301.035 419.47 300.785 419.09 300.465 418.77C300.165 418.45 299.795 418.2 299.355 418.02C298.935 417.84 298.485 417.75 298.005 417.75C297.525 417.75 297.065 417.84 296.625 418.02C296.205 418.2 295.835 418.45 295.515 418.77C295.215 419.09 294.965 419.46 294.765 419.88C294.585 420.3 294.495 420.75 294.495 421.23ZM288.765 421.17C288.765 420.03 288.995 418.97 289.455 417.99C289.915 416.99 290.555 416.13 291.375 415.41C292.195 414.67 293.165 414.09 294.285 413.67C295.425 413.25 296.665 413.04 298.005 413.04C299.325 413.04 300.545 413.25 301.665 413.67C302.805 414.07 303.785 414.64 304.605 415.38C305.445 416.1 306.095 416.97 306.555 417.99C307.015 418.99 307.245 420.1 307.245 421.32C307.245 422.54 307.005 423.66 306.525 424.68C306.065 425.68 305.425 426.55 304.605 427.29C303.785 428.01 302.795 428.57 301.635 428.97C300.495 429.37 299.255 429.57 297.915 429.57C296.595 429.57 295.375 429.37 294.255 428.97C293.135 428.57 292.165 428 291.345 427.26C290.545 426.52 289.915 425.64 289.455 424.62C288.995 423.58 288.765 422.43 288.765 421.17ZM310.371 413.61H315.801V415.56C316.541 414.66 317.291 414.06 318.051 413.76C318.811 413.44 319.701 413.28 320.721 413.28C321.801 413.28 322.721 413.46 323.481 413.82C324.261 414.16 324.921 414.65 325.461 415.29C325.901 415.81 326.201 416.39 326.361 417.03C326.521 417.67 326.601 418.4 326.601 419.22V429H321.171V421.23C321.171 420.47 321.111 419.86 320.991 419.4C320.891 418.92 320.701 418.54 320.421 418.26C320.181 418.02 319.911 417.85 319.611 417.75C319.311 417.65 318.991 417.6 318.651 417.6C317.731 417.6 317.021 417.88 316.521 418.44C316.041 418.98 315.801 419.76 315.801 420.78V429H310.371V413.61ZM340.493 417.57C339.493 417.05 338.513 416.79 337.553 416.79C337.053 416.79 336.643 416.89 336.323 417.09C336.023 417.29 335.873 417.56 335.873 417.9C335.873 418.08 335.893 418.23 335.933 418.35C335.993 418.45 336.103 418.55 336.263 418.65C336.443 418.75 336.693 418.84 337.013 418.92C337.353 419 337.793 419.1 338.333 419.22C339.833 419.52 340.953 420.06 341.693 420.84C342.433 421.6 342.803 422.58 342.803 423.78C342.803 424.68 342.623 425.49 342.263 426.21C341.903 426.93 341.403 427.54 340.763 428.04C340.123 428.52 339.353 428.89 338.453 429.15C337.553 429.43 336.563 429.57 335.483 429.57C333.403 429.57 331.353 428.98 329.333 427.8L331.313 423.96C332.833 425 334.273 425.52 335.633 425.52C336.133 425.52 336.543 425.41 336.863 425.19C337.183 424.97 337.343 424.69 337.343 424.35C337.343 424.15 337.313 423.99 337.253 423.87C337.213 423.73 337.113 423.61 336.953 423.51C336.793 423.39 336.553 423.29 336.233 423.21C335.933 423.11 335.533 423.01 335.033 422.91C333.353 422.57 332.173 422.07 331.493 421.41C330.833 420.73 330.503 419.8 330.503 418.62C330.503 417.76 330.663 416.99 330.983 416.31C331.303 415.61 331.763 415.02 332.363 414.54C332.963 414.06 333.683 413.69 334.523 413.43C335.383 413.17 336.333 413.04 337.373 413.04C339.073 413.04 340.723 413.37 342.323 414.03L340.493 417.57Z" fill="#333333"/>
<path d="M180.987 182.975H190.531C190.531 182.975 187.472 176.104 195.492 173.055C203.511 170.006 203.125 176.49 203.125 176.49C203.125 176.49 201.6 165.413 212.67 165.799C223.739 166.185 223.362 178.343 223.362 178.343C223.362 178.343 225.65 171.087 230.61 174.339C235.57 177.59 232.907 182.926 232.907 182.926H243.599" stroke="#F4F4F4" stroke-width="2" stroke-miterlimit="10" stroke-linecap="round"/>
<path d="M25.9913 118C25.9913 118 -6.50782 118.499 1.17536 160.418C8.85854 202.337 26.609 326.847 112.591 359.616C185.5 395.463 306.398 304.975 306.398 304.975C306.398 304.975 345.799 271.371 343.936 239.974C342.073 208.578 334.718 155.33 283.436 144.74C232.153 134.149 25.9913 118 25.9913 118Z" fill="#FFDFDF"/>
<path d="M25.9913 118C25.9913 118 -6.50782 118.499 1.17536 160.418C8.85854 202.337 26.609 326.847 112.591 359.616C185.5 395.463 306.398 304.975 306.398 304.975C306.398 304.975 345.799 271.371 343.936 239.974C342.073 208.578 334.718 155.33 283.436 144.74C232.153 134.149 25.9913 118 25.9913 118Z" fill="url(#paint0_linear)" fill-opacity="0.85"/>
<g filter="url(#filter0_d)">
<path d="M120.834 208.881C115.372 208.881 111.772 207.559 110.112 204.934C107.41 200.669 110.431 194.04 110.778 193.297L110.855 193.152L124.936 169.164C125.375 168.426 125.605 167.582 125.602 166.723V139.541C125.602 121.623 144.97 111.877 150.896 109.32C153.134 108.355 153.791 104.071 153.791 102.942C153.791 102.43 153.994 101.939 154.356 101.577C154.718 101.215 155.209 101.012 155.721 101.012H166.269C166.781 101.012 167.272 101.215 167.634 101.577C167.996 101.939 168.199 102.43 168.199 102.942C168.199 104.071 168.903 108.355 171.094 109.32C177.029 111.877 196.388 121.623 196.388 139.541V166.723C196.389 167.582 196.619 168.424 197.054 169.164L211.24 193.21C211.269 193.252 211.291 193.298 211.308 193.345C211.665 194.088 214.676 200.727 211.983 204.982C210.324 207.607 206.714 208.929 201.262 208.929L120.834 208.881Z" fill="white"/>
</g>
<g filter="url(#filter1_d)">
<path d="M34.4624 335.058C33.7133 335.058 32.9887 334.791 32.4191 334.305C31.8495 333.818 31.4721 333.144 31.3549 332.405L22.2062 276.7C22.1386 276.29 22.1524 275.872 22.2469 275.468C22.3413 275.064 22.5145 274.682 22.7565 274.345C22.9985 274.008 23.3046 273.722 23.6573 273.504C24.01 273.285 24.4023 273.138 24.8119 273.071L139.277 254.371C140.102 254.24 140.945 254.441 141.623 254.929C142.301 255.417 142.758 256.153 142.896 256.977L152.006 312.711C152.14 313.537 151.941 314.383 151.452 315.063C150.964 315.743 150.226 316.201 149.4 316.339L34.9353 335.058C34.7779 335.07 34.6198 335.07 34.4624 335.058Z" fill="white"/>
</g>
<path d="M139.788 255.777C140.192 255.779 140.582 255.923 140.889 256.184C141.197 256.446 141.401 256.808 141.468 257.206L150.578 312.94C150.617 313.161 150.61 313.388 150.559 313.607C150.508 313.826 150.412 314.032 150.279 314.213C150.149 314.397 149.984 314.553 149.793 314.672C149.603 314.791 149.39 314.871 149.169 314.908L34.7037 333.599C34.6107 333.608 34.5169 333.608 34.4238 333.599C34.0184 333.599 33.6263 333.454 33.3183 333.19C33.0103 332.927 32.8069 332.561 32.7447 332.161L23.6345 276.427C23.5704 275.985 23.682 275.535 23.9453 275.175C24.2087 274.814 24.6029 274.571 25.0435 274.497L139.509 255.797C139.602 255.787 139.695 255.787 139.788 255.797V255.777ZM139.788 252.902C139.54 252.902 139.291 252.922 139.045 252.96L24.5803 271.641C23.9832 271.738 23.4112 271.952 22.8969 272.271C22.3826 272.589 21.9362 273.006 21.583 273.497C21.2299 273.988 20.977 274.544 20.8389 275.133C20.7008 275.721 20.6801 276.332 20.778 276.929L29.8784 332.653C30.0566 333.73 30.6112 334.709 31.4435 335.416C32.2758 336.123 33.3319 336.511 34.4238 336.513C34.6727 336.512 34.9211 336.493 35.1669 336.455L149.632 317.755C150.229 317.657 150.801 317.443 151.315 317.125C151.83 316.806 152.276 316.39 152.629 315.899C152.982 315.408 153.235 314.852 153.373 314.263C153.511 313.674 153.532 313.064 153.434 312.467L144.334 256.733C144.156 255.656 143.601 254.677 142.769 253.97C141.936 253.263 140.88 252.874 139.788 252.873V252.902Z" fill="#333333"/>
<path d="M96.4184 282.012L38.5871 291.46C37.8191 291.586 37.2983 292.31 37.4238 293.078L37.8144 295.469C37.9399 296.237 38.6643 296.757 39.4322 296.632L97.2636 287.184C98.0315 287.058 98.5524 286.334 98.4269 285.566L98.0362 283.175C97.9107 282.407 97.1864 281.887 96.4184 282.012Z" fill="#333333"/>
<path d="M134.479 288.631L40.6271 303.964C39.8591 304.09 39.3383 304.814 39.4638 305.582L39.8545 307.973C39.98 308.74 40.7043 309.261 41.4723 309.136L135.324 293.803C136.092 293.677 136.613 292.953 136.488 292.185L136.097 289.794C135.972 289.026 135.247 288.506 134.479 288.631Z" fill="#333333"/>
<path d="M136.518 301.137L42.6659 316.47C41.898 316.596 41.3771 317.32 41.5026 318.088L41.8933 320.478C42.0188 321.246 42.7431 321.767 43.5111 321.642L137.363 306.309C138.131 306.183 138.652 305.459 138.526 304.691L138.136 302.3C138.01 301.532 137.286 301.011 136.518 301.137Z" fill="#333333"/>
<path d="M120.834 266.113C122.857 266.102 124.81 266.856 126.3 268.224C127.791 269.591 128.71 271.472 128.872 273.488C129.034 275.504 128.428 277.507 127.176 279.096C125.923 280.684 124.117 281.741 122.118 282.054C121.687 282.122 121.251 282.158 120.815 282.16C118.792 282.171 116.839 281.417 115.349 280.049C113.858 278.682 112.94 276.801 112.777 274.785C112.615 272.769 113.221 270.765 114.473 269.177C115.726 267.588 117.533 266.532 119.531 266.219C119.962 266.146 120.398 266.11 120.834 266.113ZM120.834 263.218C118.599 263.219 116.418 263.906 114.585 265.187C112.753 266.467 111.358 268.279 110.589 270.378C109.82 272.477 109.715 274.761 110.286 276.922C110.858 279.082 112.079 281.016 113.785 282.46C115.491 283.904 117.599 284.79 119.825 284.998C122.051 285.205 124.286 284.724 126.23 283.62C128.174 282.516 129.731 280.842 130.692 278.824C131.654 276.806 131.972 274.541 131.604 272.337C131.177 269.786 129.861 267.468 127.891 265.793C125.92 264.117 123.421 263.192 120.834 263.18V263.218Z" fill="#333333"/>
<g filter="url(#filter2_d)">
<path d="M219.868 298.214L223.729 295.666C224.201 295.353 224.565 294.901 224.771 294.372C224.976 293.843 225.014 293.264 224.877 292.714L224.24 290.176C224.1 289.612 223.784 289.107 223.339 288.734C222.893 288.361 222.34 288.139 221.76 288.101L216.568 287.773C215.846 287.726 215.172 287.395 214.692 286.853C214.213 286.311 213.968 285.601 214.011 284.878L214.213 281.81C214.255 281.135 214.546 280.499 215.029 280.025C215.512 279.552 216.153 279.273 216.829 279.243L221.036 279.079C221.675 279.055 222.284 278.808 222.76 278.382C223.236 277.955 223.548 277.376 223.642 276.744L224.076 273.849C224.151 273.35 224.087 272.839 223.889 272.374C223.692 271.909 223.369 271.508 222.957 271.215L217.166 267.066C216.633 266.681 216.255 266.119 216.101 265.48C215.947 264.841 216.027 264.168 216.327 263.583L217.205 261.894C217.464 261.39 217.873 260.979 218.377 260.717C218.88 260.456 219.452 260.358 220.013 260.437L226.769 261.402C227.272 261.471 227.784 261.399 228.249 261.195C228.714 260.991 229.114 260.661 229.403 260.244L231.227 257.59C231.579 257.079 231.746 256.462 231.7 255.843C231.654 255.224 231.399 254.639 230.976 254.184L227.29 250.141C227.034 249.866 226.837 249.54 226.713 249.185C226.589 248.83 226.539 248.454 226.567 248.078C226.595 247.703 226.7 247.338 226.876 247.006C227.052 246.673 227.295 246.381 227.589 246.146L229.837 244.342C230.35 243.932 230.992 243.72 231.648 243.745C232.304 243.769 232.928 244.029 233.408 244.477L237.268 248.076C237.717 248.494 238.293 248.749 238.904 248.8C239.515 248.85 240.125 248.694 240.636 248.356L242.624 247.044C243.113 246.724 243.486 246.257 243.689 245.71C243.892 245.163 243.915 244.565 243.753 244.004L242.238 238.697C242.045 238.022 242.118 237.297 242.443 236.674C242.768 236.051 243.32 235.577 243.985 235.349L247.305 234.21C247.904 234.008 248.555 234.019 249.147 234.24C249.74 234.462 250.237 234.88 250.557 235.426L253.452 240.444C253.729 240.911 254.138 241.286 254.627 241.521C255.117 241.756 255.665 241.841 256.203 241.766L259.773 241.264C260.399 241.18 260.977 240.881 261.406 240.418C261.836 239.955 262.091 239.357 262.128 238.726L262.418 234.22C262.465 233.498 262.796 232.824 263.338 232.345C263.88 231.866 264.59 231.621 265.313 231.663L268.44 231.856C269.129 231.902 269.775 232.205 270.251 232.706C270.726 233.206 270.996 233.867 271.007 234.558L271.074 239.527C271.082 240.119 271.282 240.692 271.644 241.16C272.006 241.628 272.511 241.966 273.081 242.123L276.469 243.088C277.055 243.25 277.678 243.213 278.241 242.982C278.803 242.752 279.273 242.341 279.576 241.814L281.265 238.919C281.635 238.299 282.235 237.849 282.934 237.668C283.633 237.488 284.376 237.59 285 237.954L288.271 239.816C288.851 240.148 289.29 240.681 289.505 241.313C289.72 241.946 289.697 242.635 289.439 243.252L288.059 246.581C287.835 247.12 287.788 247.717 287.927 248.285C288.066 248.853 288.383 249.361 288.831 249.736L290.829 251.415C291.289 251.801 291.863 252.025 292.463 252.053C293.062 252.08 293.655 251.911 294.149 251.569L297.372 249.35C297.959 248.947 298.678 248.788 299.38 248.905C300.082 249.022 300.711 249.406 301.136 249.977L303.191 252.766C303.411 253.055 303.571 253.384 303.662 253.735C303.753 254.086 303.774 254.451 303.722 254.811C303.671 255.17 303.549 255.515 303.364 255.826C303.178 256.138 302.932 256.41 302.641 256.625L300.035 258.555C299.525 258.942 299.166 259.495 299.019 260.119C298.873 260.743 298.949 261.398 299.234 261.971L301.02 265.503C301.261 265.984 301.639 266.383 302.106 266.65C302.572 266.918 303.108 267.043 303.645 267.008L309.174 266.651C309.533 266.629 309.891 266.677 310.231 266.794C310.57 266.91 310.883 267.092 311.152 267.33C311.421 267.567 311.64 267.855 311.798 268.178C311.955 268.5 312.048 268.85 312.07 269.208L312.292 272.749C312.328 273.363 312.158 273.971 311.808 274.477C311.458 274.982 310.949 275.356 310.362 275.538L306.183 276.879C305.621 277.053 305.13 277.403 304.782 277.878C304.435 278.352 304.249 278.925 304.253 279.513V282.717C304.259 283.371 304.499 284.002 304.929 284.495C305.359 284.989 305.95 285.313 306.598 285.409L310.352 285.959C311.035 286.057 311.655 286.411 312.089 286.948C312.522 287.485 312.736 288.166 312.687 288.854L312.407 293.254C312.382 293.648 312.272 294.033 312.084 294.38C311.895 294.728 311.634 295.031 311.317 295.267C311.001 295.504 310.637 295.669 310.25 295.751C309.863 295.834 309.464 295.831 309.078 295.744L304.677 294.576C304.037 294.432 303.367 294.522 302.788 294.83C302.209 295.138 301.76 295.644 301.522 296.255L300.335 299.352C300.148 299.842 300.106 300.374 300.212 300.887C300.318 301.4 300.568 301.872 300.933 302.247L304.629 305.972C305.096 306.445 305.376 307.071 305.417 307.735C305.457 308.398 305.256 309.054 304.851 309.581L302.564 312.543C302.153 313.075 301.561 313.437 300.901 313.56C300.24 313.682 299.558 313.557 298.984 313.209L294.158 310.314C293.67 310.022 293.104 309.889 292.537 309.932C291.97 309.975 291.431 310.193 290.993 310.555C290.713 310.783 290.482 311.064 290.312 311.382C290.141 311.699 290.035 312.048 290 312.407C289.965 312.765 290.002 313.128 290.108 313.472C290.213 313.817 290.386 314.137 290.617 314.415L293.174 317.57C293.625 318.125 293.841 318.834 293.776 319.547C293.711 320.259 293.37 320.917 292.826 321.382L290.501 323.369C289.951 323.843 289.236 324.08 288.513 324.027C287.789 323.975 287.116 323.637 286.64 323.089L282.684 318.593C282.319 318.178 281.837 317.883 281.301 317.747C280.765 317.611 280.201 317.64 279.682 317.831L277.115 318.796C276.57 318.994 276.102 319.361 275.779 319.843C275.456 320.326 275.296 320.898 275.32 321.478L275.6 328.416C275.616 328.798 275.551 329.179 275.41 329.535C275.27 329.89 275.056 330.212 274.783 330.48C274.511 330.749 274.185 330.957 273.827 331.091C273.469 331.226 273.087 331.284 272.705 331.262L267.822 330.944C267.1 330.897 266.426 330.566 265.946 330.024C265.467 329.481 265.222 328.772 265.265 328.049L265.487 324.643C265.509 324.257 265.449 323.871 265.312 323.509C265.174 323.148 264.962 322.82 264.688 322.546C264.415 322.273 264.087 322.06 263.725 321.923C263.364 321.785 262.977 321.726 262.591 321.748L260.237 321.883C259.71 321.915 259.203 322.097 258.777 322.408C258.351 322.72 258.023 323.147 257.834 323.639L256.164 327.991C255.929 328.599 255.485 329.103 254.912 329.414C254.34 329.725 253.675 329.823 253.037 329.69L247.681 328.541C247.298 328.46 246.936 328.298 246.62 328.064C246.305 327.831 246.044 327.532 245.854 327.189C245.665 326.846 245.551 326.466 245.522 326.075C245.493 325.684 245.548 325.291 245.684 324.923L247.614 319.568C247.846 318.934 247.837 318.238 247.587 317.611C247.338 316.984 246.866 316.472 246.263 316.171L244.825 315.457C244.318 315.208 243.748 315.121 243.19 315.207C242.632 315.293 242.115 315.549 241.708 315.939L236.882 320.629C236.372 321.121 235.69 321.395 234.981 321.395C234.272 321.395 233.591 321.121 233.08 320.629L230.368 317.898C230.105 317.654 229.894 317.36 229.745 317.033C229.596 316.706 229.514 316.353 229.502 315.994C229.49 315.636 229.55 315.278 229.677 314.942C229.804 314.607 229.996 314.3 230.243 314.038L234.74 309.069C234.992 308.793 235.184 308.467 235.305 308.114C235.426 307.76 235.473 307.385 235.443 307.012C235.413 306.64 235.307 306.277 235.131 305.947C234.956 305.617 234.714 305.326 234.421 305.094L233.157 304.071C232.707 303.713 232.156 303.505 231.582 303.476C231.007 303.446 230.438 303.597 229.953 303.907L224.954 307.139C224.626 307.351 224.256 307.49 223.869 307.547C223.483 307.604 223.088 307.578 222.713 307.47C222.337 307.362 221.989 307.175 221.691 306.922C221.394 306.669 221.154 306.354 220.988 306.001L218.932 301.62C218.662 301.033 218.607 300.369 218.778 299.746C218.95 299.123 219.336 298.58 219.868 298.214Z" fill="white"/>
<path d="M219.868 298.214L223.729 295.666C224.201 295.353 224.565 294.901 224.771 294.372C224.976 293.843 225.014 293.264 224.877 292.714L224.24 290.176C224.1 289.612 223.784 289.107 223.339 288.734C222.893 288.361 222.34 288.139 221.76 288.101L216.568 287.773C215.846 287.726 215.172 287.395 214.692 286.853C214.213 286.311 213.968 285.601 214.011 284.878L214.213 281.81C214.255 281.135 214.546 280.499 215.029 280.025C215.512 279.552 216.153 279.273 216.829 279.243L221.036 279.079C221.675 279.055 222.284 278.808 222.76 278.382C223.236 277.955 223.548 277.376 223.642 276.744L224.076 273.849C224.151 273.35 224.087 272.839 223.889 272.374C223.692 271.909 223.369 271.508 222.957 271.215L217.166 267.066C216.633 266.681 216.255 266.119 216.101 265.48C215.947 264.841 216.027 264.168 216.327 263.583L217.205 261.894C217.464 261.39 217.873 260.979 218.377 260.717C218.88 260.456 219.452 260.358 220.013 260.437L226.769 261.402C227.272 261.471 227.784 261.399 228.249 261.195C228.714 260.991 229.114 260.661 229.403 260.244L231.227 257.59C231.579 257.079 231.746 256.462 231.7 255.843C231.654 255.224 231.399 254.639 230.976 254.184L227.29 250.141C227.034 249.866 226.837 249.54 226.713 249.185C226.589 248.83 226.539 248.454 226.567 248.078C226.595 247.703 226.7 247.338 226.876 247.006C227.052 246.673 227.295 246.381 227.589 246.146L229.837 244.342C230.35 243.932 230.992 243.72 231.648 243.745C232.304 243.769 232.928 244.029 233.408 244.477L237.268 248.076C237.717 248.494 238.293 248.749 238.904 248.8C239.515 248.85 240.125 248.694 240.636 248.356L242.624 247.044C243.113 246.724 243.486 246.257 243.689 245.71C243.892 245.163 243.915 244.565 243.753 244.004L242.238 238.697C242.045 238.022 242.118 237.297 242.443 236.674C242.768 236.051 243.32 235.577 243.985 235.349L247.305 234.21C247.904 234.008 248.555 234.019 249.147 234.24C249.74 234.462 250.237 234.88 250.557 235.426L253.452 240.444C253.729 240.911 254.138 241.286 254.627 241.521C255.117 241.756 255.665 241.841 256.203 241.766L259.773 241.264C260.399 241.18 260.977 240.881 261.406 240.418C261.836 239.955 262.091 239.357 262.128 238.726L262.418 234.22C262.465 233.498 262.796 232.824 263.338 232.345C263.88 231.866 264.59 231.621 265.313 231.663L268.44 231.856C269.129 231.902 269.775 232.205 270.251 232.706C270.726 233.206 270.996 233.867 271.007 234.558L271.074 239.527C271.082 240.119 271.282 240.692 271.644 241.16C272.006 241.628 272.511 241.966 273.081 242.123L276.469 243.088C277.055 243.25 277.678 243.213 278.241 242.982C278.803 242.752 279.273 242.341 279.576 241.814L281.265 238.919C281.635 238.299 282.235 237.849 282.934 237.668C283.633 237.488 284.376 237.59 285 237.954L288.271 239.816C288.851 240.148 289.29 240.681 289.505 241.313C289.72 241.946 289.697 242.635 289.439 243.252L288.059 246.581C287.835 247.12 287.788 247.717 287.927 248.285C288.066 248.853 288.383 249.361 288.831 249.736L290.829 251.415C291.289 251.801 291.863 252.025 292.463 252.053C293.062 252.08 293.655 251.911 294.149 251.569L297.372 249.35C297.959 248.947 298.678 248.788 299.38 248.905C300.082 249.022 300.711 249.406 301.136 249.977L303.191 252.766C303.411 253.055 303.571 253.384 303.662 253.735C303.753 254.086 303.774 254.451 303.722 254.811C303.671 255.17 303.549 255.515 303.364 255.826C303.178 256.138 302.932 256.41 302.641 256.625L300.035 258.555C299.525 258.942 299.166 259.495 299.019 260.119C298.873 260.743 298.949 261.398 299.234 261.971L301.02 265.503C301.261 265.984 301.639 266.383 302.106 266.65C302.572 266.918 303.108 267.043 303.645 267.008L309.174 266.651C309.533 266.629 309.891 266.677 310.231 266.794C310.57 266.91 310.883 267.092 311.152 267.33C311.421 267.567 311.64 267.855 311.798 268.178C311.955 268.5 312.048 268.85 312.07 269.208L312.292 272.749C312.328 273.363 312.158 273.971 311.808 274.477C311.458 274.982 310.949 275.356 310.362 275.538L306.183 276.879C305.621 277.053 305.13 277.403 304.782 277.878C304.435 278.352 304.249 278.925 304.253 279.513V282.717C304.259 283.371 304.499 284.002 304.929 284.495C305.359 284.989 305.95 285.313 306.598 285.409L310.352 285.959C311.035 286.057 311.655 286.411 312.089 286.948C312.522 287.485 312.736 288.166 312.687 288.854L312.407 293.254C312.382 293.648 312.272 294.033 312.084 294.38C311.895 294.728 311.634 295.031 311.317 295.267C311.001 295.504 310.637 295.669 310.25 295.751C309.863 295.834 309.464 295.831 309.078 295.744L304.677 294.576C304.037 294.432 303.367 294.522 302.788 294.83C302.209 295.138 301.76 295.644 301.522 296.255L300.335 299.352C300.148 299.842 300.106 300.374 300.212 300.887C300.318 301.4 300.568 301.872 300.933 302.247L304.629 305.972C305.096 306.445 305.376 307.071 305.417 307.735C305.457 308.398 305.256 309.054 304.851 309.581L302.564 312.543C302.153 313.075 301.561 313.437 300.901 313.56C300.24 313.682 299.558 313.557 298.984 313.209L294.158 310.314C293.67 310.022 293.104 309.889 292.537 309.932C291.97 309.975 291.431 310.193 290.993 310.555C290.713 310.783 290.482 311.064 290.312 311.382C290.141 311.699 290.035 312.048 290 312.407C289.965 312.765 290.002 313.128 290.108 313.472C290.213 313.817 290.386 314.137 290.617 314.415L293.174 317.57C293.625 318.125 293.841 318.834 293.776 319.547C293.711 320.259 293.37 320.917 292.826 321.382L290.501 323.369C289.951 323.843 289.236 324.08 288.513 324.027C287.789 323.975 287.116 323.637 286.64 323.089L282.684 318.593C282.319 318.178 281.837 317.883 281.301 317.747C280.765 317.611 280.201 317.64 279.682 317.831L277.115 318.796C276.57 318.994 276.102 319.361 275.779 319.843C275.456 320.326 275.296 320.898 275.32 321.478L275.6 328.416C275.616 328.798 275.551 329.179 275.41 329.535C275.27 329.89 275.056 330.212 274.783 330.48C274.511 330.749 274.185 330.957 273.827 331.091C273.469 331.226 273.087 331.284 272.705 331.262L267.822 330.944C267.1 330.897 266.426 330.566 265.946 330.024C265.467 329.481 265.222 328.772 265.265 328.049L265.487 324.643C265.509 324.257 265.449 323.871 265.312 323.509C265.174 323.148 264.962 322.82 264.688 322.546C264.415 322.273 264.087 322.06 263.725 321.923C263.364 321.785 262.977 321.726 262.591 321.748L260.237 321.883C259.71 321.915 259.203 322.097 258.777 322.408C258.351 322.72 258.023 323.147 257.834 323.639L256.164 327.991C255.929 328.599 255.485 329.103 254.912 329.414C254.34 329.725 253.675 329.823 253.037 329.69L247.681 328.541C247.298 328.46 246.936 328.298 246.62 328.064C246.305 327.831 246.044 327.532 245.854 327.189C245.665 326.846 245.551 326.466 245.522 326.075C245.493 325.684 245.548 325.291 245.684 324.923L247.614 319.568C247.846 318.934 247.837 318.238 247.587 317.611C247.338 316.984 246.866 316.472 246.263 316.171L244.825 315.457C244.318 315.208 243.748 315.121 243.19 315.207C242.632 315.293 242.115 315.549 241.708 315.939L236.882 320.629C236.372 321.121 235.69 321.395 234.981 321.395C234.272 321.395 233.591 321.121 233.08 320.629L230.368 317.898C230.105 317.654 229.894 317.36 229.745 317.033C229.596 316.706 229.514 316.353 229.502 315.994C229.49 315.636 229.55 315.278 229.677 314.942C229.804 314.607 229.996 314.3 230.243 314.038L234.74 309.069C234.992 308.793 235.184 308.467 235.305 308.114C235.426 307.76 235.473 307.385 235.443 307.012C235.413 306.64 235.307 306.277 235.131 305.947C234.956 305.617 234.714 305.326 234.421 305.094L233.157 304.071C232.707 303.713 232.156 303.505 231.582 303.476C231.007 303.446 230.438 303.597 229.953 303.907L224.954 307.139C224.626 307.351 224.256 307.49 223.869 307.547C223.483 307.604 223.088 307.578 222.713 307.47C222.337 307.362 221.989 307.175 221.691 306.922C221.394 306.669 221.154 306.354 220.988 306.001L218.932 301.62C218.662 301.033 218.607 300.369 218.778 299.746C218.95 299.123 219.336 298.58 219.868 298.214Z" stroke="#333333" stroke-width="3" stroke-linejoin="round"/>
</g>
<path d="M263.817 296.623C272.409 296.623 279.374 289.659 279.374 281.068C279.374 272.478 272.409 265.514 263.817 265.514C255.225 265.514 248.26 272.478 248.26 281.068C248.26 289.659 255.225 296.623 263.817 296.623Z" fill="#FFDFDF" stroke="#333333" stroke-width="3" stroke-miterlimit="10"/>
<g filter="url(#filter3_d)">
<path d="M289.032 229.189L291.098 227.478C291.349 227.267 291.529 226.983 291.611 226.665C291.694 226.347 291.675 226.012 291.559 225.705L291.029 224.276C290.909 223.962 290.694 223.694 290.413 223.509C290.132 223.324 289.8 223.232 289.465 223.247L286.446 223.404C286.026 223.422 285.616 223.273 285.304 222.992C284.993 222.71 284.804 222.316 284.78 221.897L284.688 220.119C284.667 219.726 284.793 219.34 285.04 219.034C285.288 218.728 285.64 218.525 286.029 218.464L288.44 218.093C288.805 218.034 289.138 217.85 289.383 217.573C289.629 217.296 289.77 216.943 289.785 216.573L289.839 214.87C289.852 214.579 289.784 214.289 289.64 214.035C289.497 213.78 289.286 213.571 289.03 213.43L285.419 211.424C285.077 211.244 284.813 210.946 284.675 210.586C284.536 210.226 284.534 209.828 284.667 209.466L285.055 208.431C285.173 208.125 285.382 207.863 285.655 207.68C285.927 207.497 286.249 207.402 286.577 207.408L290.539 207.502C290.83 207.512 291.119 207.442 291.373 207.3C291.627 207.157 291.837 206.946 291.979 206.692L292.853 205.042C293.031 204.721 293.092 204.348 293.026 203.987C292.961 203.625 292.772 203.298 292.493 203.06L290.084 200.984C289.919 200.841 289.786 200.666 289.692 200.47C289.598 200.274 289.545 200.06 289.536 199.843C289.528 199.625 289.564 199.409 289.643 199.206C289.722 199.003 289.841 198.818 289.994 198.663L291.176 197.475C291.444 197.205 291.8 197.04 292.18 197.011C292.559 196.982 292.937 197.091 293.242 197.318L295.709 199.138C295.997 199.341 296.344 199.443 296.697 199.43C297.049 199.417 297.387 199.289 297.659 199.065L298.726 198.213C298.987 197.998 299.171 197.704 299.252 197.376C299.332 197.047 299.305 196.701 299.173 196.39L297.951 193.427C297.795 193.051 297.791 192.629 297.938 192.25C298.086 191.87 298.374 191.562 298.742 191.389L300.578 190.517C300.908 190.36 301.283 190.322 301.637 190.41C301.992 190.497 302.306 190.705 302.525 190.997L304.554 193.691C304.74 193.944 304.999 194.135 305.295 194.24C305.592 194.344 305.913 194.356 306.217 194.275L308.219 193.742C308.568 193.646 308.873 193.432 309.083 193.138C309.293 192.843 309.395 192.484 309.371 192.123L309.247 189.507C309.235 189.299 309.266 189.09 309.335 188.893C309.405 188.696 309.513 188.515 309.653 188.36C309.793 188.205 309.963 188.08 310.152 187.99C310.341 187.901 310.545 187.85 310.754 187.841L312.57 187.753C312.969 187.732 313.36 187.863 313.667 188.119C313.973 188.374 314.171 188.736 314.222 189.132L314.591 191.989C314.633 192.329 314.785 192.647 315.024 192.892C315.263 193.138 315.576 193.299 315.915 193.351L317.928 193.674C318.276 193.73 318.633 193.669 318.942 193.499C319.251 193.33 319.495 193.062 319.635 192.738L320.419 190.942C320.5 190.751 320.619 190.577 320.768 190.431C320.917 190.285 321.094 190.171 321.287 190.094C321.481 190.017 321.688 189.98 321.897 189.984C322.105 189.988 322.311 190.033 322.502 190.117L324.503 190.973C324.86 191.123 325.15 191.4 325.316 191.75C325.483 192.099 325.515 192.498 325.408 192.87L324.833 194.884C324.738 195.208 324.75 195.554 324.867 195.871C324.983 196.188 325.198 196.459 325.48 196.646L326.747 197.477C327.04 197.676 327.391 197.772 327.745 197.75C328.099 197.728 328.436 197.59 328.702 197.356L330.414 195.858C330.725 195.588 331.128 195.45 331.539 195.472C331.95 195.495 332.335 195.676 332.615 195.978L333.985 197.442C334.272 197.748 334.427 198.155 334.415 198.574C334.402 198.993 334.224 199.39 333.919 199.678L332.55 200.981C332.281 201.239 332.112 201.582 332.071 201.952C332.029 202.321 332.118 202.694 332.323 203.004L333.575 204.921C333.748 205.18 333.993 205.382 334.279 205.504C334.565 205.626 334.881 205.662 335.188 205.607L338.349 205.038C338.555 205 338.766 205.004 338.97 205.048C339.175 205.092 339.369 205.176 339.54 205.295C339.712 205.415 339.859 205.567 339.971 205.744C340.084 205.92 340.16 206.117 340.196 206.323L340.566 208.306C340.628 208.654 340.572 209.013 340.407 209.325C340.242 209.637 339.977 209.885 339.654 210.03L337.331 211.09C337.024 211.229 336.77 211.463 336.606 211.758C336.441 212.052 336.376 212.392 336.42 212.726L336.64 214.576C336.687 214.953 336.868 215.3 337.15 215.554C337.431 215.808 337.795 215.953 338.174 215.962L340.371 216.033C340.771 216.045 341.151 216.208 341.436 216.488C341.721 216.768 341.891 217.146 341.911 217.545L342.043 220.094C342.053 220.323 342.014 220.552 341.928 220.765C341.842 220.978 341.711 221.17 341.544 221.327C341.377 221.484 341.178 221.604 340.961 221.677C340.743 221.75 340.512 221.776 340.284 221.752L337.579 221.449C337.202 221.405 336.822 221.499 336.508 221.714C336.195 221.929 335.97 222.25 335.875 222.617L335.382 224.504C335.305 224.801 335.315 225.115 335.411 225.406C335.508 225.698 335.687 225.955 335.927 226.148L338.296 228.054C338.597 228.294 338.8 228.636 338.868 229.015C338.937 229.394 338.865 229.785 338.667 230.115L337.551 231.932C337.349 232.262 337.033 232.507 336.662 232.621C336.292 232.735 335.893 232.711 335.54 232.551L332.628 231.235C332.329 231.099 331.994 231.058 331.671 231.119C331.348 231.18 331.051 231.34 330.822 231.577C330.533 231.88 330.376 232.285 330.383 232.704C330.391 233.123 330.563 233.522 330.863 233.814L332.543 235.459C332.84 235.749 333.011 236.144 333.02 236.558C333.03 236.973 332.878 237.375 332.596 237.679L331.383 238.97C331.1 239.277 330.708 239.459 330.291 239.478C329.874 239.497 329.467 239.35 329.158 239.071L326.583 236.743C326.342 236.531 326.042 236.398 325.722 236.362C325.403 236.326 325.081 236.39 324.799 236.543L323.38 237.249C323.079 237.399 322.834 237.641 322.68 237.94C322.526 238.238 322.472 238.578 322.524 238.91L323.149 242.864C323.183 243.084 323.171 243.308 323.113 243.523C323.055 243.738 322.952 243.938 322.812 244.111C322.672 244.284 322.497 244.425 322.299 244.526C322.101 244.627 321.884 244.686 321.662 244.698L318.83 244.837C318.622 244.848 318.413 244.818 318.216 244.749C318.019 244.679 317.838 244.571 317.683 244.431C317.528 244.291 317.402 244.121 317.313 243.932C317.224 243.743 317.173 243.539 317.164 243.33L317.062 241.377C317.051 241.151 316.992 240.931 316.889 240.73C316.787 240.53 316.642 240.353 316.466 240.212C316.29 240.071 316.086 239.969 315.868 239.913C315.649 239.857 315.421 239.848 315.199 239.887L313.852 240.124C313.551 240.177 313.271 240.315 313.047 240.522C312.822 240.73 312.662 240.997 312.585 241.293L311.913 243.907C311.815 244.273 311.592 244.593 311.281 244.81C310.971 245.028 310.594 245.129 310.217 245.096L307.066 244.792C306.84 244.77 306.621 244.699 306.424 244.585C306.227 244.472 306.057 244.317 305.925 244.132C305.793 243.947 305.703 243.736 305.659 243.513C305.615 243.29 305.62 243.061 305.672 242.84L306.45 239.625C306.54 239.245 306.487 238.845 306.302 238.5C306.117 238.156 305.812 237.891 305.445 237.756L304.568 237.444C304.26 237.329 303.925 237.314 303.608 237.4C303.292 237.487 303.011 237.671 302.804 237.926L300.31 240.948C300.046 241.263 299.672 241.464 299.263 241.511C298.855 241.557 298.445 241.445 298.117 241.197L296.324 239.861C295.995 239.609 295.777 239.24 295.716 238.831C295.655 238.422 295.756 238.005 295.997 237.669L298.292 234.517C298.418 234.341 298.507 234.141 298.553 233.929C298.599 233.717 298.602 233.498 298.56 233.285C298.518 233.072 298.434 232.87 298.311 232.691C298.189 232.512 298.031 232.36 297.847 232.244L297.048 231.747C296.766 231.569 296.435 231.483 296.101 231.504C295.768 231.524 295.45 231.648 295.191 231.859L292.501 234.024C292.325 234.168 292.121 234.272 291.901 234.33C291.682 234.388 291.452 234.398 291.229 234.36C291.005 234.323 290.792 234.237 290.603 234.11C290.415 233.983 290.257 233.817 290.138 233.624L288.667 231.236C288.47 230.908 288.399 230.52 288.466 230.144C288.533 229.768 288.734 229.429 289.032 229.189Z" fill="white"/>
<path d="M289.032 229.189L291.098 227.478C291.349 227.267 291.529 226.983 291.611 226.665C291.694 226.347 291.675 226.012 291.559 225.705L291.029 224.276C290.909 223.962 290.694 223.694 290.413 223.509C290.132 223.324 289.8 223.232 289.465 223.247L286.446 223.404C286.026 223.422 285.616 223.273 285.304 222.992C284.993 222.71 284.804 222.316 284.78 221.897L284.688 220.119C284.667 219.726 284.793 219.34 285.04 219.034C285.288 218.728 285.64 218.525 286.029 218.464L288.44 218.093C288.805 218.034 289.138 217.85 289.383 217.573C289.629 217.296 289.77 216.943 289.785 216.573L289.839 214.87C289.852 214.579 289.784 214.289 289.64 214.035C289.497 213.78 289.286 213.571 289.03 213.43L285.419 211.424C285.077 211.244 284.813 210.946 284.675 210.586C284.536 210.226 284.534 209.828 284.667 209.466L285.055 208.431C285.173 208.125 285.382 207.863 285.655 207.68C285.927 207.497 286.249 207.402 286.577 207.408L290.539 207.502C290.83 207.512 291.119 207.442 291.373 207.3C291.627 207.157 291.837 206.946 291.979 206.692L292.853 205.042C293.031 204.721 293.092 204.348 293.026 203.987C292.961 203.625 292.772 203.298 292.493 203.06L290.084 200.984C289.919 200.841 289.786 200.666 289.692 200.47C289.598 200.274 289.545 200.06 289.536 199.843C289.528 199.625 289.564 199.409 289.643 199.206C289.722 199.003 289.841 198.818 289.994 198.663L291.176 197.475C291.444 197.205 291.8 197.04 292.18 197.011C292.559 196.982 292.937 197.091 293.242 197.318L295.709 199.138C295.997 199.341 296.344 199.443 296.697 199.43C297.049 199.417 297.387 199.289 297.659 199.065L298.726 198.213C298.987 197.998 299.171 197.704 299.252 197.376C299.332 197.047 299.305 196.701 299.173 196.39L297.951 193.427C297.795 193.051 297.791 192.629 297.938 192.25C298.086 191.87 298.374 191.562 298.742 191.389L300.578 190.517C300.908 190.36 301.283 190.322 301.637 190.41C301.992 190.497 302.306 190.705 302.525 190.997L304.554 193.691C304.74 193.944 304.999 194.135 305.295 194.24C305.592 194.344 305.913 194.356 306.217 194.275L308.219 193.742C308.568 193.646 308.873 193.432 309.083 193.138C309.293 192.843 309.395 192.484 309.371 192.123L309.247 189.507C309.235 189.299 309.266 189.09 309.335 188.893C309.405 188.696 309.513 188.515 309.653 188.36C309.793 188.205 309.963 188.08 310.152 187.99C310.341 187.901 310.545 187.85 310.754 187.841L312.57 187.753C312.969 187.732 313.36 187.863 313.667 188.119C313.973 188.374 314.171 188.736 314.222 189.132L314.591 191.989C314.633 192.329 314.785 192.647 315.024 192.892C315.263 193.138 315.576 193.299 315.915 193.351L317.928 193.674C318.276 193.73 318.633 193.669 318.942 193.499C319.251 193.33 319.495 193.062 319.635 192.738L320.419 190.942C320.5 190.751 320.619 190.577 320.768 190.431C320.917 190.285 321.094 190.171 321.287 190.094C321.481 190.017 321.688 189.98 321.897 189.984C322.105 189.988 322.311 190.033 322.502 190.117L324.503 190.973C324.86 191.123 325.15 191.4 325.316 191.75C325.483 192.099 325.515 192.498 325.408 192.87L324.833 194.884C324.738 195.208 324.75 195.554 324.867 195.871C324.983 196.188 325.198 196.459 325.48 196.646L326.747 197.477C327.04 197.676 327.391 197.772 327.745 197.75C328.099 197.728 328.436 197.59 328.702 197.356L330.414 195.858C330.725 195.588 331.128 195.45 331.539 195.472C331.95 195.495 332.335 195.676 332.615 195.978L333.985 197.442C334.272 197.748 334.427 198.155 334.415 198.574C334.402 198.993 334.224 199.39 333.919 199.678L332.55 200.981C332.281 201.239 332.112 201.582 332.071 201.952C332.029 202.321 332.118 202.694 332.323 203.004L333.575 204.921C333.748 205.18 333.993 205.382 334.279 205.504C334.565 205.626 334.881 205.662 335.188 205.607L338.349 205.038C338.555 205 338.766 205.004 338.97 205.048C339.175 205.092 339.369 205.176 339.54 205.295C339.712 205.415 339.859 205.567 339.971 205.744C340.084 205.92 340.16 206.117 340.196 206.323L340.566 208.306C340.628 208.654 340.572 209.013 340.407 209.325C340.242 209.637 339.977 209.885 339.654 210.03L337.331 211.09C337.024 211.229 336.77 211.463 336.606 211.758C336.441 212.052 336.376 212.392 336.42 212.726L336.64 214.576C336.687 214.953 336.868 215.3 337.15 215.554C337.431 215.808 337.795 215.953 338.174 215.962L340.371 216.033C340.771 216.045 341.151 216.208 341.436 216.488C341.721 216.768 341.891 217.146 341.911 217.545L342.043 220.094C342.053 220.323 342.014 220.552 341.928 220.765C341.842 220.978 341.711 221.17 341.544 221.327C341.377 221.484 341.178 221.604 340.961 221.677C340.743 221.75 340.512 221.776 340.284 221.752L337.579 221.449C337.202 221.405 336.822 221.499 336.508 221.714C336.195 221.929 335.97 222.25 335.875 222.617L335.382 224.504C335.305 224.801 335.315 225.115 335.411 225.406C335.508 225.698 335.687 225.955 335.927 226.148L338.296 228.054C338.597 228.294 338.8 228.636 338.868 229.015C338.937 229.394 338.865 229.785 338.667 230.115L337.551 231.932C337.349 232.262 337.033 232.507 336.662 232.621C336.292 232.735 335.893 232.711 335.54 232.551L332.628 231.235C332.329 231.099 331.994 231.058 331.671 231.119C331.348 231.18 331.051 231.34 330.822 231.577C330.533 231.88 330.376 232.285 330.383 232.704C330.391 233.123 330.563 233.522 330.863 233.814L332.543 235.459C332.84 235.749 333.011 236.144 333.02 236.558C333.03 236.973 332.878 237.375 332.596 237.679L331.383 238.97C331.1 239.277 330.708 239.459 330.291 239.478C329.874 239.497 329.467 239.35 329.158 239.071L326.583 236.743C326.342 236.531 326.042 236.398 325.722 236.362C325.403 236.326 325.081 236.39 324.799 236.543L323.38 237.249C323.079 237.399 322.834 237.641 322.68 237.94C322.526 238.238 322.472 238.578 322.524 238.91L323.149 242.864C323.183 243.084 323.171 243.308 323.113 243.523C323.055 243.738 322.952 243.938 322.812 244.111C322.672 244.284 322.497 244.425 322.299 244.526C322.101 244.627 321.884 244.686 321.662 244.698L318.83 244.837C318.622 244.848 318.413 244.818 318.216 244.749C318.019 244.679 317.838 244.571 317.683 244.431C317.528 244.291 317.402 244.121 317.313 243.932C317.224 243.743 317.173 243.539 317.164 243.33L317.062 241.377C317.051 241.151 316.992 240.931 316.889 240.73C316.787 240.53 316.642 240.353 316.466 240.212C316.29 240.071 316.086 239.969 315.868 239.913C315.649 239.857 315.421 239.848 315.199 239.887L313.852 240.124C313.551 240.177 313.271 240.315 313.047 240.522C312.822 240.73 312.662 240.997 312.585 241.293L311.913 243.907C311.815 244.273 311.592 244.593 311.281 244.81C310.971 245.028 310.594 245.129 310.217 245.096L307.066 244.792C306.84 244.77 306.621 244.699 306.424 244.585C306.227 244.472 306.057 244.317 305.925 244.132C305.793 243.947 305.703 243.736 305.659 243.513C305.615 243.29 305.62 243.061 305.672 242.84L306.45 239.625C306.54 239.245 306.487 238.845 306.302 238.5C306.117 238.156 305.812 237.891 305.445 237.756L304.568 237.444C304.26 237.329 303.925 237.314 303.608 237.4C303.292 237.487 303.011 237.671 302.804 237.926L300.31 240.948C300.046 241.263 299.672 241.464 299.263 241.511C298.855 241.557 298.445 241.445 298.117 241.197L296.324 239.861C295.995 239.609 295.777 239.24 295.716 238.831C295.655 238.422 295.756 238.005 295.997 237.669L298.292 234.517C298.418 234.341 298.507 234.141 298.553 233.929C298.599 233.717 298.602 233.498 298.56 233.285C298.518 233.072 298.434 232.87 298.311 232.691C298.189 232.512 298.031 232.36 297.847 232.244L297.048 231.747C296.766 231.569 296.435 231.483 296.101 231.504C295.768 231.524 295.45 231.648 295.191 231.859L292.501 234.024C292.325 234.168 292.121 234.272 291.901 234.33C291.682 234.388 291.452 234.398 291.229 234.36C291.005 234.323 290.792 234.237 290.603 234.11C290.415 233.983 290.257 233.817 290.138 233.624L288.667 231.236C288.47 230.908 288.399 230.52 288.466 230.144C288.533 229.768 288.734 229.429 289.032 229.189Z" stroke="#333333" stroke-width="2.5" stroke-linejoin="round"/>
</g>
<path d="M0 0V367.951H344V0H0ZM304.5 305.959C304.5 305.959 187.412 393.974 118.566 360.144C54.9691 328.919 42.9254 301.96 26 259.465C22.4411 250.53 0 316.635 0 298.881V0H344V191.282C344 191.282 343.493 191.118 338.226 190.828C334.676 190.645 335.177 190.24 335.394 191.282C341.5 212.472 342.593 216.094 344 240.468C345.831 272.04 304.5 305.959 304.5 305.959Z" fill="white"/>
<path d="M144.999 124.402C141.352 124.402 138.08 126.979 136.246 130.144C134.413 133.309 133.805 137.014 133.429 140.642C132.649 148.202 132.789 155.829 133.843 163.356" stroke="#333333" stroke-width="3" stroke-linecap="round" stroke-linejoin="round"/>
<path d="M166.318 102.507C166.382 102.506 166.446 102.518 166.505 102.541C166.565 102.565 166.619 102.6 166.665 102.645C166.711 102.69 166.747 102.744 166.772 102.803C166.797 102.862 166.81 102.926 166.81 102.99C166.81 104.196 167.485 109.349 170.67 110.709C176.393 113.179 195.086 122.568 195.086 139.589V166.781C195.086 167.898 195.386 168.994 195.954 169.956L210.054 193.973C211.202 196.404 212.66 201.287 210.807 204.22C209.089 206.931 204.698 207.491 201.311 207.491H120.835C117.447 207.491 113.047 206.931 111.339 204.22C109.486 201.325 110.933 196.404 112.101 193.944L126.191 169.956C126.752 168.992 127.049 167.896 127.05 166.781V139.532C127.05 122.51 145.743 113.122 151.475 110.651C154.602 109.3 155.277 104.148 155.277 102.932C155.277 102.868 155.29 102.804 155.315 102.745C155.34 102.686 155.376 102.632 155.422 102.587C155.468 102.542 155.522 102.507 155.582 102.483C155.642 102.46 155.705 102.448 155.77 102.449H166.318V102.507ZM166.318 99.5547H155.77C154.873 99.5547 154.013 99.9102 153.378 100.543C152.743 101.176 152.385 102.035 152.382 102.932C152.382 104.292 151.572 107.438 150.327 107.978C143.822 110.786 124.154 120.822 124.154 139.522V166.713C124.157 167.314 123.997 167.904 123.691 168.421L109.601 192.419C109.554 192.496 109.512 192.577 109.476 192.66C108.704 194.272 101.582 210.318 120.835 210.318H201.262C220.515 210.318 213.383 194.272 212.621 192.66C212.582 192.577 212.537 192.496 212.486 192.419L198.396 168.421C198.094 167.903 197.934 167.314 197.933 166.713V139.532C197.933 120.831 178.265 110.796 171.77 107.988C170.516 107.448 169.705 104.302 169.705 102.942C169.702 102.045 169.344 101.186 168.709 100.553C168.075 99.9198 167.214 99.5643 166.318 99.5643V99.5547Z" fill="#333333"/>
<g filter="url(#filter4_d)">
<path d="M162.428 230.998H161.463H160.392C153.733 230.998 148.426 229.068 144.643 225.16C139.393 219.805 138.341 212.114 138.128 208.969H184.712C184.499 212.114 183.457 219.805 178.207 225.16C174.414 229.02 169.116 230.998 162.448 230.998H162.428Z" fill="white"/>
</g>
<path d="M183.08 210.416C182.665 213.9 181.334 219.873 177.116 224.166C173.613 227.737 168.662 229.551 162.409 229.551H161.444H161.28H160.315C154.061 229.551 149.12 227.737 145.607 224.166C141.39 219.873 140.058 213.9 139.643 210.416H183.071H183.08ZM186.159 207.521H136.613C136.613 207.521 136.044 232.445 160.373 232.445H161.405H162.428C186.767 232.445 186.188 207.521 186.188 207.521H186.159Z" fill="#333333"/>
<path d="M109.659 102.74C109.659 102.74 86.3918 125.898 106.465 142.688" stroke="#333333" stroke-width="3" stroke-linecap="round" stroke-linejoin="round"/>
<path d="M208.635 99.6816C208.635 99.6816 233.099 121.528 213.962 139.408" stroke="#333333" stroke-width="3" stroke-linecap="round" stroke-linejoin="round"/>
<path d="M97.8758 86.3281C97.8758 86.3281 57.1119 123.044 92.568 164.661" stroke="#333333" stroke-width="3" stroke-linecap="round" stroke-linejoin="round"/>
<path d="M220.524 82.5332C220.524 82.5332 263.18 116.981 230.011 160.46" stroke="#333333" stroke-width="3" stroke-linecap="round" stroke-linejoin="round"/>
<path d="M312.212 226.815C317.164 227.369 321.629 223.805 322.183 218.853C322.738 213.901 319.173 209.437 314.22 208.883C309.268 208.328 304.803 211.893 304.249 216.845C303.694 221.797 307.259 226.26 312.212 226.815Z" fill="#FFDFDF" stroke="#333333" stroke-width="2.5" stroke-miterlimit="10"/>
<defs>
<filter id="filter0_d" x="104.999" y="101.012" width="112.094" height="115.917" filterUnits="userSpaceOnUse" color-interpolation-filters="sRGB">
<feFlood flood-opacity="0" result="BackgroundImageFix"/>
<feColorMatrix in="SourceAlpha" type="matrix" values="0 0 0 0 0 0 0 0 0 0 0 0 0 0 0 0 0 0 127 0"/>
<feOffset dy="4"/>
<feGaussianBlur stdDeviation="2"/>
<feColorMatrix type="matrix" values="0 0 0 0 0 0 0 0 0 0 0 0 0 0 0 0 0 0 0.25 0"/>
<feBlend mode="normal" in2="BackgroundImageFix" result="effect1_dropShadow"/>
<feBlend mode="normal" in="SourceGraphic" in2="effect1_dropShadow" result="shape"/>
</filter>
<filter id="filter1_d" x="18.1641" y="254.332" width="137.883" height="88.7353" filterUnits="userSpaceOnUse" color-interpolation-filters="sRGB">
<feFlood flood-opacity="0" result="BackgroundImageFix"/>
<feColorMatrix in="SourceAlpha" type="matrix" values="0 0 0 0 0 0 0 0 0 0 0 0 0 0 0 0 0 0 127 0"/>
<feOffset dy="4"/>
<feGaussianBlur stdDeviation="2"/>
<feColorMatrix type="matrix" values="0 0 0 0 0 0 0 0 0 0 0 0 0 0 0 0 0 0 0.25 0"/>
<feBlend mode="normal" in2="BackgroundImageFix" result="effect1_dropShadow"/>
<feBlend mode="normal" in="SourceGraphic" in2="effect1_dropShadow" result="shape"/>
</filter>
<filter id="filter2_d" x="208.506" y="230.158" width="109.688" height="110.609" filterUnits="userSpaceOnUse" color-interpolation-filters="sRGB">
<feFlood flood-opacity="0" result="BackgroundImageFix"/>
<feColorMatrix in="SourceAlpha" type="matrix" values="0 0 0 0 0 0 0 0 0 0 0 0 0 0 0 0 0 0 127 0"/>
<feOffset dy="4"/>
<feGaussianBlur stdDeviation="2"/>
<feColorMatrix type="matrix" values="0 0 0 0 0 0 0 0 0 0 0 0 0 0 0 0 0 0 0.25 0"/>
<feBlend mode="normal" in2="BackgroundImageFix" result="effect1_dropShadow"/>
<feBlend mode="normal" in="SourceGraphic" in2="effect1_dropShadow" result="shape"/>
</filter>
<filter id="filter3_d" x="279.319" y="186.5" width="67.9755" height="67.8515" filterUnits="userSpaceOnUse" color-interpolation-filters="sRGB">
<feFlood flood-opacity="0" result="BackgroundImageFix"/>
<feColorMatrix in="SourceAlpha" type="matrix" values="0 0 0 0 0 0 0 0 0 0 0 0 0 0 0 0 0 0 127 0"/>
<feOffset dy="4"/>
<feGaussianBlur stdDeviation="2"/>
<feColorMatrix type="matrix" values="0 0 0 0 0 0 0 0 0 0 0 0 0 0 0 0 0 0 0.25 0"/>
<feBlend mode="normal" in2="BackgroundImageFix" result="effect1_dropShadow"/>
<feBlend mode="normal" in="SourceGraphic" in2="effect1_dropShadow" result="shape"/>
</filter>
<filter id="filter4_d" x="134.128" y="208.969" width="54.5831" height="30.0292" filterUnits="userSpaceOnUse" color-interpolation-filters="sRGB">
<feFlood flood-opacity="0" result="BackgroundImageFix"/>
<feColorMatrix in="SourceAlpha" type="matrix" values="0 0 0 0 0 0 0 0 0 0 0 0 0 0 0 0 0 0 127 0"/>
<feOffset dy="4"/>
<feGaussianBlur stdDeviation="2"/>
<feColorMatrix type="matrix" values="0 0 0 0 0 0 0 0 0 0 0 0 0 0 0 0 0 0 0.25 0"/>
<feBlend mode="normal" in2="BackgroundImageFix" result="effect1_dropShadow"/>
<feBlend mode="normal" in="SourceGraphic" in2="effect1_dropShadow" result="shape"/>
</filter>
<linearGradient id="paint0_linear" x1="172" y1="118" x2="172" y2="368.016" gradientUnits="userSpaceOnUse">
<stop stop-color="white"/>
<stop offset="1" stop-color="white" stop-opacity="0"/>
</linearGradient>
</defs>
</svg>
