<svg width="350" height="438" viewBox="0 0 350 438" fill="none" xmlns="http://www.w3.org/2000/svg">
<path d="M4 0H346V438H4V0Z" fill="white"/>
<path d="M119.574 414.94C118.214 413.28 116.534 412.45 114.534 412.45C113.654 412.45 112.834 412.61 112.074 412.93C111.334 413.25 110.694 413.69 110.154 414.25C109.614 414.79 109.184 415.44 108.864 416.2C108.564 416.96 108.414 417.78 108.414 418.66C108.414 419.56 108.564 420.39 108.864 421.15C109.184 421.91 109.614 422.57 110.154 423.13C110.714 423.69 111.364 424.13 112.104 424.45C112.844 424.77 113.644 424.93 114.504 424.93C116.384 424.93 118.074 424.13 119.574 422.53V429.49L118.974 429.7C118.074 430.02 117.234 430.25 116.454 430.39C115.674 430.55 114.904 430.63 114.144 430.63C112.584 430.63 111.084 430.34 109.644 429.76C108.224 429.16 106.964 428.33 105.864 427.27C104.784 426.19 103.914 424.92 103.254 423.46C102.594 421.98 102.264 420.37 102.264 418.63C102.264 416.89 102.584 415.3 103.224 413.86C103.884 412.4 104.754 411.15 105.834 410.11C106.934 409.05 108.204 408.23 109.644 407.65C111.084 407.05 112.594 406.75 114.174 406.75C115.074 406.75 115.954 406.85 116.814 407.05C117.694 407.23 118.614 407.52 119.574 407.92V414.94ZM128.199 422.26C128.199 422.76 128.289 423.23 128.469 423.67C128.649 424.09 128.889 424.46 129.189 424.78C129.509 425.1 129.879 425.35 130.299 425.53C130.739 425.71 131.209 425.8 131.709 425.8C132.189 425.8 132.639 425.71 133.059 425.53C133.499 425.35 133.869 425.1 134.169 424.78C134.489 424.46 134.739 424.09 134.919 423.67C135.119 423.25 135.219 422.8 135.219 422.32C135.219 421.84 135.119 421.39 134.919 420.97C134.739 420.53 134.489 420.15 134.169 419.83C133.869 419.51 133.499 419.26 133.059 419.08C132.639 418.9 132.189 418.81 131.709 418.81C131.209 418.81 130.739 418.9 130.299 419.08C129.879 419.26 129.509 419.51 129.189 419.83C128.889 420.15 128.649 420.52 128.469 420.94C128.289 421.34 128.199 421.78 128.199 422.26ZM135.039 414.61H140.499V430H135.039V428.29C133.879 429.75 132.309 430.48 130.329 430.48C129.209 430.48 128.179 430.28 127.239 429.88C126.299 429.46 125.479 428.88 124.779 428.14C124.079 427.4 123.529 426.53 123.129 425.53C122.749 424.53 122.559 423.44 122.559 422.26C122.559 421.16 122.749 420.12 123.129 419.14C123.509 418.14 124.039 417.27 124.719 416.53C125.399 415.79 126.209 415.21 127.149 414.79C128.089 414.35 129.129 414.13 130.269 414.13C132.189 414.13 133.779 414.8 135.039 416.14V414.61ZM149.999 405.1V430H144.569V405.1H149.999ZM165.335 420.07C165.155 419.31 164.785 418.7 164.225 418.24C163.665 417.78 162.985 417.55 162.185 417.55C161.345 417.55 160.655 417.77 160.115 418.21C159.595 418.65 159.265 419.27 159.125 420.07H165.335ZM158.975 423.22C158.975 425.56 160.075 426.73 162.275 426.73C163.455 426.73 164.345 426.25 164.945 425.29H170.195C169.135 428.81 166.485 430.57 162.245 430.57C160.945 430.57 159.755 430.38 158.675 430C157.595 429.6 156.665 429.04 155.885 428.32C155.125 427.6 154.535 426.74 154.115 425.74C153.695 424.74 153.485 423.62 153.485 422.38C153.485 421.1 153.685 419.95 154.085 418.93C154.485 417.89 155.055 417.01 155.795 416.29C156.535 415.57 157.425 415.02 158.465 414.64C159.525 414.24 160.715 414.04 162.035 414.04C163.335 414.04 164.505 414.24 165.545 414.64C166.585 415.02 167.465 415.58 168.185 416.32C168.905 417.06 169.455 417.97 169.835 419.05C170.215 420.11 170.405 421.31 170.405 422.65V423.22H158.975ZM173.883 414.61H179.313V416.56C180.053 415.66 180.803 415.06 181.563 414.76C182.323 414.44 183.213 414.28 184.233 414.28C185.313 414.28 186.233 414.46 186.993 414.82C187.773 415.16 188.433 415.65 188.973 416.29C189.413 416.81 189.713 417.39 189.873 418.03C190.033 418.67 190.113 419.4 190.113 420.22V430H184.683V422.23C184.683 421.47 184.623 420.86 184.503 420.4C184.403 419.92 184.213 419.54 183.933 419.26C183.693 419.02 183.423 418.85 183.123 418.75C182.823 418.65 182.503 418.6 182.163 418.6C181.243 418.6 180.533 418.88 180.033 419.44C179.553 419.98 179.313 420.76 179.313 421.78V430H173.883V414.61ZM199.22 422.26C199.22 422.76 199.31 423.23 199.49 423.67C199.67 424.09 199.91 424.46 200.21 424.78C200.53 425.1 200.9 425.35 201.32 425.53C201.76 425.71 202.23 425.8 202.73 425.8C203.21 425.8 203.66 425.71 204.08 425.53C204.52 425.35 204.89 425.1 205.19 424.78C205.51 424.46 205.76 424.09 205.94 423.67C206.14 423.25 206.24 422.8 206.24 422.32C206.24 421.84 206.14 421.39 205.94 420.97C205.76 420.53 205.51 420.15 205.19 419.83C204.89 419.51 204.52 419.26 204.08 419.08C203.66 418.9 203.21 418.81 202.73 418.81C202.25 418.81 201.79 418.9 201.35 419.08C200.93 419.26 200.56 419.51 200.24 419.83C199.94 420.15 199.69 420.52 199.49 420.94C199.31 421.34 199.22 421.78 199.22 422.26ZM206.06 405.1H211.52V430H206.06V428.29C204.9 429.75 203.33 430.48 201.35 430.48C200.23 430.48 199.2 430.27 198.26 429.85C197.32 429.43 196.5 428.85 195.8 428.11C195.1 427.37 194.55 426.5 194.15 425.5C193.77 424.5 193.58 423.42 193.58 422.26C193.58 421.16 193.76 420.12 194.12 419.14C194.5 418.14 195.03 417.27 195.71 416.53C196.39 415.79 197.2 415.21 198.14 414.79C199.1 414.35 200.15 414.13 201.29 414.13C203.21 414.13 204.8 414.8 206.06 416.14V405.1ZM220.63 422.26C220.63 422.76 220.72 423.23 220.9 423.67C221.08 424.09 221.32 424.46 221.62 424.78C221.94 425.1 222.31 425.35 222.73 425.53C223.17 425.71 223.64 425.8 224.14 425.8C224.62 425.8 225.07 425.71 225.49 425.53C225.93 425.35 226.3 425.1 226.6 424.78C226.92 424.46 227.17 424.09 227.35 423.67C227.55 423.25 227.65 422.8 227.65 422.32C227.65 421.84 227.55 421.39 227.35 420.97C227.17 420.53 226.92 420.15 226.6 419.83C226.3 419.51 225.93 419.26 225.49 419.08C225.07 418.9 224.62 418.81 224.14 418.81C223.64 418.81 223.17 418.9 222.73 419.08C222.31 419.26 221.94 419.51 221.62 419.83C221.32 420.15 221.08 420.52 220.9 420.94C220.72 421.34 220.63 421.78 220.63 422.26ZM227.47 414.61H232.93V430H227.47V428.29C226.31 429.75 224.74 430.48 222.76 430.48C221.64 430.48 220.61 430.28 219.67 429.88C218.73 429.46 217.91 428.88 217.21 428.14C216.51 427.4 215.96 426.53 215.56 425.53C215.18 424.53 214.99 423.44 214.99 422.26C214.99 421.16 215.18 420.12 215.56 419.14C215.94 418.14 216.47 417.27 217.15 416.53C217.83 415.79 218.64 415.21 219.58 414.79C220.52 414.35 221.56 414.13 222.7 414.13C224.62 414.13 226.21 414.8 227.47 416.14V414.61ZM237.001 414.61H242.431V417.13C243.011 416.21 243.721 415.51 244.561 415.03C245.401 414.53 246.381 414.28 247.501 414.28C247.641 414.28 247.791 414.28 247.951 414.28C248.131 414.28 248.331 414.3 248.551 414.34V419.53C247.831 419.17 247.051 418.99 246.211 418.99C244.951 418.99 244.001 419.37 243.361 420.13C242.741 420.87 242.431 421.96 242.431 423.4V430H237.001V414.61Z" fill="#333333"/>
<path d="M13.3579 297.574C18.8649 330.867 137.356 360.662 137.356 360.662C137.356 360.662 234.651 388.565 286.547 336.089C338.443 283.613 339.455 268.326 337.372 242.826C335.289 217.325 328.761 180.784 310.738 146.165C292.715 111.546 256.849 62.5583 191.966 57.4762C127.083 52.394 90.6567 53.0617 64.8437 68.2484C39.0307 83.4351 -21.4266 110.59 36.107 175.781C78.5112 223.862 8.07113 265.626 13.3579 297.574Z" fill="#DCEBE9"/>
<path d="M13.3579 297.574C18.8649 330.867 137.356 360.662 137.356 360.662C137.356 360.662 234.651 388.565 286.547 336.089C338.443 283.613 339.455 268.326 337.372 242.826C335.289 217.325 328.761 180.784 310.738 146.165C292.715 111.546 256.849 62.5583 191.966 57.4762C127.083 52.394 90.6567 53.0617 64.8437 68.2484C39.0307 83.4351 -21.4266 110.59 36.107 175.781C78.5112 223.862 8.07113 265.626 13.3579 297.574Z" fill="url(#paint0_linear)" fill-opacity="0.9"/>
<path d="M141.051 226.853C138.317 226.857 135.644 226.085 133.368 224.637C131.093 223.188 129.319 221.128 128.27 218.715C127.221 216.303 126.945 213.648 127.475 211.085C128.006 208.523 129.321 206.168 131.252 204.32C133.184 202.471 135.646 201.212 138.327 200.7C141.008 200.189 143.788 200.45 146.314 201.449C148.84 202.447 150.999 204.14 152.519 206.311C154.038 208.483 154.849 211.037 154.849 213.649C154.843 217.146 153.389 220.498 150.803 222.973C148.217 225.447 144.711 226.842 141.051 226.853Z" fill="white"/>
<path d="M141.03 201.134C143.399 201.134 145.714 201.834 147.684 203.146C149.653 204.458 151.188 206.323 152.094 208.505C153.001 210.687 153.238 213.088 152.776 215.404C152.314 217.72 151.173 219.848 149.498 221.518C147.824 223.188 145.69 224.325 143.367 224.786C141.044 225.246 138.636 225.01 136.447 224.106C134.259 223.202 132.389 221.672 131.073 219.708C129.757 217.745 129.054 215.436 129.054 213.074C129.054 209.907 130.316 206.87 132.562 204.631C134.808 202.392 137.854 201.134 141.03 201.134ZM141.03 198.148C138.07 198.148 135.175 199.024 132.714 200.664C130.252 202.304 128.333 204.635 127.2 207.362C126.067 210.09 125.771 213.091 126.348 215.986C126.926 218.882 128.352 221.541 130.445 223.629C132.539 225.716 135.206 227.138 138.11 227.713C141.014 228.289 144.024 227.994 146.759 226.864C149.494 225.734 151.832 223.821 153.477 221.367C155.122 218.912 156 216.026 156 213.074C156 209.116 154.423 205.319 151.615 202.52C148.808 199.721 145 198.148 141.03 198.148Z" fill="#81B7AE"/>
<path d="M141.031 217.357C140.248 217.357 139.577 217.144 139.018 216.719C138.463 216.294 138.125 215.739 138.003 215.054H139.514C139.609 215.377 139.795 215.637 140.075 215.834C140.358 216.027 140.685 216.123 141.055 216.123C141.688 216.123 142.18 215.84 142.531 215.273C142.885 214.702 143.056 213.905 143.044 212.882H143.032H143.027H143.021C142.851 213.303 142.56 213.642 142.147 213.897C141.738 214.149 141.26 214.275 140.712 214.275C139.902 214.275 139.227 214.008 138.688 213.472C138.152 212.937 137.885 212.266 137.885 211.459C137.885 210.597 138.184 209.887 138.782 209.328C139.384 208.769 140.146 208.49 141.067 208.49C141.692 208.49 142.249 208.636 142.737 208.927C143.229 209.218 143.617 209.635 143.9 210.178C144.306 210.883 144.508 211.766 144.508 212.829C144.508 214.25 144.201 215.359 143.587 216.158C142.973 216.957 142.121 217.357 141.031 217.357ZM141.073 213.083C141.561 213.083 141.968 212.925 142.295 212.61C142.621 212.296 142.785 211.904 142.785 211.436C142.785 210.96 142.619 210.558 142.289 210.231C141.962 209.905 141.561 209.741 141.084 209.741C140.608 209.741 140.205 209.903 139.874 210.226C139.548 210.548 139.384 210.944 139.384 211.412C139.384 211.892 139.544 212.292 139.862 212.61C140.185 212.925 140.588 213.083 141.073 213.083Z" fill="#333333"/>
<path opacity="0.5" d="M112.544 184.037V177.312H112.523L110.471 178.79V177.769L112.533 176.287H113.479V184.037H112.544Z" fill="#333333"/>
<path opacity="0.5" d="M141.61 178.521C141.61 177.844 141.854 177.282 142.341 176.834C142.828 176.383 143.437 176.158 144.167 176.158C144.858 176.158 145.444 176.364 145.923 176.775C146.403 177.187 146.643 177.69 146.643 178.285C146.643 178.714 146.525 179.128 146.289 179.525C146.052 179.923 145.608 180.458 144.957 181.131L142.996 183.156V183.178H146.772V184.037H141.659V183.371L144.387 180.498C144.906 179.95 145.25 179.534 145.418 179.251C145.59 178.969 145.676 178.666 145.676 178.344C145.676 177.971 145.526 177.654 145.225 177.393C144.928 177.132 144.566 177.001 144.14 177.001C143.685 177.001 143.306 177.146 143.001 177.436C142.697 177.726 142.545 178.088 142.545 178.521V178.526H141.61V178.521Z" fill="#333333"/>
<path opacity="0.5" d="M173.177 180.46V179.644H174.106C174.55 179.644 174.914 179.516 175.197 179.262C175.48 179.004 175.621 178.679 175.621 178.285C175.621 177.891 175.49 177.577 175.229 177.345C174.968 177.112 174.597 176.996 174.117 176.996C173.673 176.996 173.312 177.114 173.032 177.35C172.753 177.586 172.592 177.909 172.549 178.317H171.62C171.673 177.658 171.928 177.133 172.382 176.743C172.841 176.353 173.433 176.158 174.16 176.158C174.858 176.158 175.438 176.346 175.9 176.722C176.362 177.098 176.593 177.576 176.593 178.156C176.593 178.639 176.45 179.046 176.164 179.375C175.877 179.704 175.49 179.912 175.003 179.998V180.02C175.591 180.055 176.058 180.243 176.405 180.583C176.753 180.92 176.926 181.361 176.926 181.905C176.926 182.338 176.805 182.728 176.561 183.076C176.318 183.423 175.988 183.692 175.573 183.881C175.157 184.071 174.697 184.166 174.192 184.166C173.39 184.166 172.744 183.965 172.253 183.564C171.763 183.163 171.5 182.637 171.464 181.985H172.393C172.436 182.39 172.617 182.716 172.936 182.963C173.254 183.206 173.67 183.328 174.182 183.328C174.694 183.328 175.114 183.197 175.444 182.936C175.777 182.675 175.943 182.342 175.943 181.937C175.943 181.482 175.782 181.122 175.46 180.857C175.141 180.592 174.704 180.46 174.149 180.46H173.177Z" fill="#333333"/>
<path opacity="0.5" d="M205.222 184.037V182.426H201.328V181.55C201.661 180.931 202.084 180.224 202.596 179.429C203.111 178.634 203.822 177.586 204.728 176.287H206.157V181.577H207.252V182.426H206.157V184.037H205.222ZM202.284 181.556V181.577H205.222V177.092H205.206C203.849 179.029 202.875 180.517 202.284 181.556Z" fill="#333333"/>
<path opacity="0.5" d="M235.292 184.166C234.551 184.166 233.932 183.957 233.434 183.538C232.94 183.119 232.673 182.58 232.634 181.921H233.584C233.627 182.333 233.808 182.669 234.127 182.931C234.446 183.188 234.838 183.317 235.303 183.317C235.83 183.317 236.257 183.153 236.587 182.823C236.92 182.494 237.086 182.068 237.086 181.545C237.086 181.022 236.92 180.594 236.587 180.261C236.257 179.925 235.835 179.756 235.319 179.756C234.958 179.756 234.63 179.833 234.336 179.987C234.043 180.141 233.817 180.354 233.66 180.626H232.752L233.176 176.287H237.613V177.146H233.971L233.735 179.67H233.756C233.932 179.438 234.172 179.255 234.476 179.123C234.784 178.99 235.122 178.924 235.491 178.924C236.236 178.924 236.848 179.169 237.328 179.66C237.812 180.147 238.053 180.766 238.053 181.518C238.053 182.295 237.795 182.931 237.28 183.425C236.764 183.919 236.102 184.166 235.292 184.166Z" fill="#333333"/>
<path opacity="0.5" d="M264.22 184.171C263.64 184.171 263.128 184.021 262.684 183.72C262.24 183.416 261.898 182.984 261.658 182.426C261.404 181.839 261.277 181.128 261.277 180.293C261.277 178.986 261.54 177.97 262.066 177.243C262.596 176.516 263.336 176.152 264.285 176.152C264.944 176.152 265.506 176.335 265.971 176.7C266.437 177.065 266.732 177.552 266.857 178.161H265.875C265.771 177.81 265.574 177.531 265.284 177.323C264.994 177.112 264.657 177.006 264.274 177.006C263.626 177.006 263.125 177.284 262.77 177.839C262.416 178.394 262.229 179.187 262.211 180.218H262.228C262.403 179.839 262.688 179.534 263.082 179.305C263.475 179.076 263.912 178.961 264.392 178.961C265.13 178.961 265.742 179.205 266.229 179.692C266.72 180.179 266.965 180.789 266.965 181.523C266.965 182.29 266.705 182.924 266.186 183.425C265.67 183.923 265.015 184.171 264.22 184.171ZM262.953 182.796C263.296 183.14 263.715 183.312 264.209 183.312C264.704 183.312 265.123 183.142 265.466 182.802C265.81 182.462 265.982 182.046 265.982 181.556C265.982 181.047 265.817 180.63 265.488 180.304C265.158 179.975 264.738 179.81 264.226 179.81C263.714 179.81 263.287 179.973 262.947 180.299C262.611 180.625 262.442 181.035 262.442 181.529C262.442 182.027 262.612 182.449 262.953 182.796Z" fill="#333333"/>
<path opacity="0.5" d="M111.255 217.327C110.354 217.327 109.614 217.099 109.036 216.642C108.457 216.182 108.168 215.596 108.168 214.883C108.168 214.352 108.335 213.886 108.67 213.484C109.004 213.083 109.447 212.819 109.998 212.693V212.67C109.537 212.528 109.173 212.288 108.906 211.949C108.638 211.607 108.504 211.211 108.504 210.763C108.504 210.121 108.764 209.588 109.284 209.163C109.807 208.738 110.464 208.525 111.255 208.525C112.05 208.525 112.705 208.738 113.221 209.163C113.741 209.584 114 210.119 114 210.769C114 211.213 113.868 211.605 113.605 211.943C113.341 212.282 112.977 212.524 112.513 212.67V212.693C113.064 212.823 113.506 213.089 113.841 213.49C114.179 213.891 114.349 214.356 114.349 214.883C114.349 215.596 114.059 216.182 113.481 216.642C112.902 217.099 112.16 217.327 111.255 217.327ZM111.255 216.4C111.842 216.4 112.322 216.251 112.696 215.952C113.073 215.653 113.262 215.271 113.262 214.807C113.262 214.338 113.073 213.954 112.696 213.655C112.322 213.356 111.842 213.207 111.255 213.207C110.669 213.207 110.187 213.358 109.809 213.661C109.435 213.96 109.248 214.342 109.248 214.807C109.248 215.271 109.437 215.653 109.815 215.952C110.193 216.251 110.673 216.4 111.255 216.4ZM111.255 212.274C111.751 212.274 112.156 212.142 112.471 211.878C112.79 211.615 112.949 211.276 112.949 210.863C112.949 210.446 112.792 210.105 112.477 209.842C112.162 209.574 111.755 209.44 111.255 209.44C110.755 209.44 110.348 209.574 110.033 209.842C109.718 210.105 109.561 210.446 109.561 210.863C109.561 211.276 109.718 211.615 110.033 211.878C110.348 212.142 110.755 212.274 111.255 212.274Z" fill="#333333"/>
<path d="M170.378 217.186H171.405V208.667H170.366L168.1 210.296V211.418L170.355 209.795H170.378V217.186ZM176.547 217.327C178.531 217.327 179.676 215.609 179.676 212.917C179.676 210.243 178.525 208.525 176.547 208.525C174.57 208.525 173.407 210.255 173.407 212.923C173.407 215.615 174.558 217.327 176.547 217.327ZM176.547 216.4C175.213 216.4 174.475 215.043 174.475 212.917C174.475 210.839 175.231 209.458 176.547 209.458C177.864 209.458 178.607 210.828 178.607 212.923C178.607 215.049 177.875 216.4 176.547 216.4Z" fill="#333333"/>
<path d="M206.075 217.186H207.102V208.667H206.063L203.796 210.296V211.418L206.051 209.795H206.075V217.186ZM211.435 217.186H212.462V208.667H211.423L209.157 210.296V211.418L211.412 209.795H211.435V217.186Z" fill="#333333"/>
<path d="M231.409 217.186H232.436V208.667H231.397L229.13 210.296V211.418L231.385 209.795H231.409V217.186ZM234.543 211.123V211.129H235.57V211.123C235.57 210.172 236.326 209.452 237.324 209.452C238.262 209.452 239.012 210.107 239.012 210.928C239.012 211.636 238.74 212.091 237.595 213.295L234.596 216.454V217.186H240.216V216.241H236.066V216.217L238.221 213.992C239.644 212.522 240.075 211.814 240.075 210.863C240.075 209.558 238.876 208.525 237.353 208.525C235.747 208.525 234.543 209.635 234.543 211.123Z" fill="#333333"/>
<path d="M261.348 217.186H262.375V208.667H261.336L259.069 210.296V211.418L261.324 209.795H261.348V217.186ZM266.271 213.254H267.34C268.556 213.254 269.312 213.874 269.312 214.877C269.312 215.769 268.503 216.406 267.375 216.406C266.23 216.406 265.504 215.804 265.409 214.93H264.388C264.465 216.341 265.604 217.327 267.387 217.327C269.058 217.327 270.392 216.306 270.392 214.842C270.392 213.644 269.565 212.847 268.278 212.77V212.746C269.341 212.557 270.026 211.79 270.026 210.721C270.026 209.44 268.875 208.525 267.352 208.525C265.752 208.525 264.677 209.452 264.559 210.899H265.581C265.675 210.007 266.324 209.446 267.304 209.446C268.385 209.446 268.957 210.019 268.957 210.863C268.957 211.725 268.273 212.357 267.293 212.357H266.271V213.254Z" fill="#333333"/>
<path d="M110.241 249.48H111.176V241.73H110.231L108.168 243.212V244.233L110.22 242.756H110.241V249.48ZM115.806 249.609C117.423 249.609 118.567 248.519 118.567 246.961C118.567 245.458 117.492 244.367 116.005 244.367C115.263 244.367 114.619 244.646 114.27 245.114H114.248L114.485 242.589H118.126V241.73H113.69L113.265 246.07H114.173C114.49 245.527 115.108 245.2 115.833 245.2C116.864 245.2 117.6 245.946 117.6 246.988C117.6 248.03 116.869 248.761 115.817 248.761C114.887 248.761 114.184 248.191 114.098 247.364H113.147C113.228 248.686 114.323 249.609 115.806 249.609Z" fill="#333333"/>
<path d="M140.181 249.48H141.115V241.73H140.17L138.107 243.212V244.233L140.159 242.756H140.181V249.48ZM145.885 249.615C147.475 249.615 148.629 248.498 148.629 246.967C148.629 245.495 147.534 244.405 146.057 244.405C145.095 244.405 144.241 244.904 143.892 245.662H143.876C143.908 243.599 144.644 242.45 145.938 242.45C146.707 242.45 147.33 242.901 147.539 243.604H148.522C148.275 242.385 147.265 241.596 145.949 241.596C144.053 241.596 142.941 243.126 142.941 245.737C142.941 246.575 143.065 247.273 143.323 247.869C143.801 248.986 144.725 249.615 145.885 249.615ZM145.874 248.755C144.88 248.755 144.107 247.966 144.107 246.972C144.107 245.984 144.864 245.253 145.89 245.253C146.916 245.253 147.646 245.984 147.646 246.999C147.646 247.977 146.862 248.755 145.874 248.755Z" fill="#333333"/>
<path d="M171.271 249.48H172.206V241.73H171.261L169.198 243.212V244.233L171.25 242.756H171.271V249.48ZM174.618 249.48H175.633L179.081 242.627V241.73H173.952V242.589H178.125V242.611L174.618 249.48Z" fill="#333333"/>
<path d="M204.666 249.48H205.6V241.73H204.655L202.592 243.212V244.233L204.644 242.756H204.666V249.48ZM210.23 249.609C211.874 249.609 213.044 248.686 213.044 247.386C213.044 246.424 212.378 245.629 211.374 245.393V245.372C212.217 245.103 212.728 244.448 212.728 243.642C212.728 242.46 211.68 241.601 210.23 241.601C208.791 241.601 207.727 242.466 207.727 243.637C207.727 244.453 208.248 245.114 209.086 245.372V245.393C208.087 245.624 207.421 246.419 207.421 247.386C207.421 248.68 208.592 249.609 210.23 249.609ZM210.23 248.766C209.167 248.766 208.404 248.159 208.404 247.316C208.404 246.467 209.167 245.86 210.23 245.86C211.299 245.86 212.056 246.462 212.056 247.316C212.056 248.159 211.299 248.766 210.23 248.766ZM210.23 245.012C209.322 245.012 208.688 244.48 208.688 243.728C208.688 242.971 209.322 242.434 210.23 242.434C211.138 242.434 211.771 242.965 211.771 243.728C211.771 244.48 211.132 245.012 210.23 245.012Z" fill="#333333"/>
<path d="M231.15 249.48H232.085V241.73H231.14L229.077 243.212V244.233L231.129 242.756H231.15V249.48ZM236.516 249.609C238.412 249.609 239.519 248.084 239.519 245.474C239.519 244.63 239.395 243.932 239.137 243.336C238.665 242.224 237.741 241.596 236.575 241.596C234.985 241.596 233.831 242.713 233.831 244.244C233.831 245.715 234.926 246.806 236.403 246.806C237.392 246.806 238.24 246.306 238.568 245.538C238.573 245.538 238.573 245.538 238.579 245.538H238.584C238.557 247.595 237.816 248.766 236.527 248.766C235.759 248.766 235.13 248.304 234.926 247.601H233.943C234.18 248.814 235.195 249.609 236.516 249.609ZM236.57 245.957C235.555 245.957 234.808 245.221 234.808 244.211C234.808 243.239 235.592 242.466 236.586 242.466C237.585 242.466 238.358 243.245 238.358 244.238C238.358 245.227 237.596 245.957 236.57 245.957Z" fill="#333333"/>
<path d="M256.762 243.964V243.97H257.696V243.964C257.696 243.1 258.384 242.444 259.292 242.444C260.146 242.444 260.828 243.041 260.828 243.787C260.828 244.432 260.581 244.845 259.539 245.941L256.81 248.814V249.48H261.923V248.621H258.147V248.6L260.108 246.575C261.402 245.237 261.794 244.593 261.794 243.728C261.794 242.541 260.704 241.601 259.318 241.601C257.857 241.601 256.762 242.611 256.762 243.964ZM265.753 249.609C267.558 249.609 268.6 248.046 268.6 245.597C268.6 243.164 267.552 241.601 265.753 241.601C263.954 241.601 262.896 243.175 262.896 245.603C262.896 248.052 263.943 249.609 265.753 249.609ZM265.753 248.766C264.539 248.766 263.868 247.531 263.868 245.597C263.868 243.707 264.555 242.45 265.753 242.45C266.951 242.45 267.627 243.696 267.627 245.603C267.627 247.536 266.961 248.766 265.753 248.766Z" fill="#333333"/>
<path d="M107.065 276.113V276.118H107.999V276.113C107.999 275.248 108.687 274.593 109.594 274.593C110.448 274.593 111.131 275.189 111.131 275.936C111.131 276.58 110.884 276.994 109.842 278.089L107.113 280.963V281.629H112.226V280.77H108.45V280.748L110.411 278.723C111.705 277.386 112.097 276.741 112.097 275.876C112.097 274.689 111.007 273.75 109.621 273.75C108.16 273.75 107.065 274.759 107.065 276.113ZM113.295 276.113V276.118H114.23V276.113C114.23 275.248 114.917 274.593 115.825 274.593C116.679 274.593 117.361 275.189 117.361 275.936C117.361 276.58 117.114 276.994 116.072 278.089L113.344 280.963V281.629H118.457V280.77H114.681V280.748L116.641 278.723C117.936 277.386 118.328 276.741 118.328 275.876C118.328 274.689 117.238 273.75 115.852 273.75C114.391 273.75 113.295 274.759 113.295 276.113Z" fill="#333333"/>
<path opacity="0.5" d="M80.0288 217.186L83.8837 209.635V209.612H79.2968V208.667H84.9345V209.653L81.1445 217.186H80.0288Z" fill="#333333"/>
<path d="M116.024 147.148V138.63H114.265L111.656 145.059H111.609L108.999 138.63H107.234V147.148H108.61V141.103H108.651L111.113 147.078H112.152L114.613 141.103H114.655V147.148H116.024Z" fill="#333333"/>
<path d="M144.23 147.148V139.917H146.774V138.63H140.162V139.917H142.713V147.148H144.23Z" fill="#333333"/>
<path d="M176.684 140.985H176.743L178.485 147.148H179.919L182.204 138.63H180.622L179.146 145.082H179.099L177.387 138.63H176.041L174.329 145.082H174.281L172.806 138.63H171.224L173.508 147.148H174.943L176.684 140.985Z" fill="#333333"/>
<path d="M208.715 147.148V139.917H211.259V138.63H204.647V139.917H207.197V147.148H208.715Z" fill="#333333"/>
<path d="M237.727 147.148V143.671H241.299V142.432H237.727V139.917H241.635V138.63H236.204V147.148H237.727Z" fill="#333333"/>
<path d="M264.644 144.752C264.709 146.322 265.995 147.29 267.955 147.29C270.016 147.29 271.314 146.275 271.314 144.657C271.314 143.388 270.582 142.674 268.853 142.278L267.873 142.054C266.828 141.806 266.397 141.475 266.397 140.909C266.397 140.2 267.046 139.728 268.009 139.728C268.983 139.728 269.65 140.206 269.72 141.003H271.173C271.137 139.504 269.898 138.488 268.02 138.488C266.167 138.488 264.85 139.51 264.85 141.021C264.85 142.237 265.594 142.992 267.164 143.353L268.268 143.612C269.343 143.866 269.78 144.22 269.78 144.834C269.78 145.543 269.065 146.05 268.038 146.05C266.999 146.05 266.214 145.537 266.119 144.752H264.644Z" fill="#333333"/>
<path d="M80.4014 144.752C80.4664 146.322 81.7533 147.29 83.7132 147.29C85.7734 147.29 87.0722 146.275 87.0722 144.657C87.0722 143.388 86.3402 142.674 84.6105 142.278L83.6305 142.054C82.5857 141.806 82.1547 141.475 82.1547 140.909C82.1547 140.2 82.8041 139.728 83.7663 139.728C84.7404 139.728 85.4074 140.206 85.4783 141.003H86.9305C86.8951 139.504 85.6554 138.488 83.7781 138.488C81.9245 138.488 80.608 139.51 80.608 141.021C80.608 142.237 81.3519 142.992 82.9221 143.353L84.0261 143.612C85.1005 143.866 85.5373 144.22 85.5373 144.834C85.5373 145.543 84.823 146.05 83.7958 146.05C82.7569 146.05 81.9717 145.537 81.8773 144.752H80.4014Z" fill="#333333"/>
<path d="M80.302 249.48H81.2366V241.73H80.2913L78.2288 243.212V244.233L80.2805 242.756H80.302V249.48ZM86.887 249.48H87.8215V247.869H88.9172V247.021H87.8215V241.73H86.3928C84.5613 244.356 83.6536 245.769 82.9929 246.994V247.869H86.887V249.48ZM83.949 246.999C84.5613 245.925 85.4045 244.63 86.8708 242.536H86.887V247.021H83.949V246.999Z" fill="#333333"/>
<path d="M79.4282 277.261V277.267H80.3628V277.261C80.3628 276.396 81.0503 275.741 81.958 275.741C82.812 275.741 83.4941 276.337 83.4941 277.084C83.4941 277.729 83.2471 278.142 82.2051 279.238L79.4766 282.111V282.777H84.5898V281.918H80.814V281.896L82.7744 279.872C84.0688 278.534 84.4609 277.89 84.4609 277.025C84.4609 275.838 83.3706 274.898 81.9849 274.898C80.5239 274.898 79.4282 275.908 79.4282 277.261ZM87.6836 282.777H88.6182V275.027H87.6729L85.6104 276.509V277.53L87.6621 276.053H87.6836V282.777Z" fill="#333333"/>
<path d="M77.1257 310.558V310.563H78.0603V310.558C78.0603 309.693 78.7478 309.038 79.6555 309.038C80.5095 309.038 81.1917 309.634 81.1917 310.381C81.1917 311.025 80.9446 311.439 79.9026 312.535L77.1741 315.408V316.074H82.2874V315.215H78.5115V315.193L80.4719 313.168C81.7664 311.831 82.1584 311.187 82.1584 310.322C82.1584 309.135 81.0681 308.195 79.6824 308.195C78.2214 308.195 77.1257 309.205 77.1257 310.558ZM86.0686 316.203C87.7122 316.203 88.8831 315.279 88.8831 313.979C88.8831 313.018 88.217 312.223 87.2126 311.987V311.965C88.0559 311.697 88.5662 311.042 88.5662 310.236C88.5662 309.054 87.5188 308.195 86.0686 308.195C84.6292 308.195 83.5657 309.06 83.5657 310.23C83.5657 311.047 84.0867 311.708 84.9246 311.965V311.987C83.9255 312.218 83.2595 313.013 83.2595 313.979C83.2595 315.274 84.4304 316.203 86.0686 316.203ZM86.0686 315.36C85.0051 315.36 84.2424 314.753 84.2424 313.91C84.2424 313.061 85.0051 312.454 86.0686 312.454C87.1375 312.454 87.8948 313.056 87.8948 313.91C87.8948 314.753 87.1375 315.36 86.0686 315.36ZM86.0686 311.605C85.1609 311.605 84.5271 311.074 84.5271 310.322C84.5271 309.564 85.1609 309.027 86.0686 309.027C86.9763 309.027 87.6101 309.559 87.6101 310.322C87.6101 311.074 86.9709 311.605 86.0686 311.605Z" fill="#333333"/>
<path d="M137.004 276.113V276.118H137.939V276.113C137.939 275.248 138.626 274.593 139.534 274.593C140.388 274.593 141.07 275.189 141.07 275.936C141.07 276.58 140.823 276.994 139.781 278.089L137.053 280.963V281.629H142.166V280.77H138.39V280.748L140.351 278.723C141.645 277.386 142.037 276.741 142.037 275.876C142.037 274.689 140.947 273.75 139.561 273.75C138.1 273.75 137.004 274.759 137.004 276.113ZM144.862 278.052H145.834C146.941 278.052 147.628 278.616 147.628 279.529C147.628 280.34 146.893 280.92 145.867 280.92C144.825 280.92 144.164 280.372 144.078 279.577H143.149C143.219 280.861 144.255 281.758 145.877 281.758C147.397 281.758 148.611 280.829 148.611 279.497C148.611 278.406 147.859 277.681 146.688 277.611V277.59C147.655 277.418 148.278 276.72 148.278 275.748C148.278 274.582 147.231 273.75 145.845 273.75C144.39 273.75 143.412 274.593 143.305 275.909H144.234C144.32 275.098 144.911 274.587 145.802 274.587C146.785 274.587 147.306 275.108 147.306 275.876C147.306 276.661 146.683 277.235 145.792 277.235H144.862V278.052Z" fill="#333333"/>
<path d="M166.943 276.113V276.118H167.878V276.113C167.878 275.248 168.565 274.593 169.473 274.593C170.327 274.593 171.009 275.189 171.009 275.936C171.009 276.58 170.762 276.994 169.72 278.089L166.992 280.963V281.629H172.105V280.77H168.329V280.748L170.29 278.723C171.584 277.386 171.976 276.741 171.976 275.876C171.976 274.689 170.886 273.75 169.5 273.75C168.039 273.75 166.943 274.759 166.943 276.113ZM176.638 281.629H177.573V280.018H178.668V279.169H177.573V273.878H176.144C174.312 276.505 173.405 277.917 172.744 279.142V280.018H176.638V281.629ZM173.7 279.147C174.312 278.073 175.156 276.779 176.622 274.684H176.638V279.169H173.7V279.147Z" fill="#333333"/>
<path d="M201.489 276.113V276.118H202.424V276.113C202.424 275.248 203.111 274.593 204.019 274.593C204.873 274.593 205.555 275.189 205.555 275.936C205.555 276.58 205.308 276.994 204.266 278.089L201.538 280.963V281.629H206.651V280.77H202.875V280.748L204.835 278.723C206.13 277.386 206.522 276.741 206.522 275.876C206.522 274.689 205.432 273.75 204.046 273.75C202.585 273.75 201.489 274.759 201.489 276.113ZM210.432 281.758C212.049 281.758 213.193 280.667 213.193 279.11C213.193 277.606 212.119 276.516 210.631 276.516C209.89 276.516 209.245 276.795 208.896 277.262H208.875L209.111 274.738H212.752V273.878H208.316L207.892 278.218H208.799C209.116 277.676 209.734 277.348 210.459 277.348C211.49 277.348 212.226 278.095 212.226 279.137C212.226 280.179 211.496 280.909 210.443 280.909C209.514 280.909 208.81 280.34 208.724 279.513H207.773C207.854 280.834 208.95 281.758 210.432 281.758Z" fill="#333333"/>
<path d="M226.823 276.113V276.118H227.757V276.113C227.757 275.248 228.445 274.593 229.353 274.593C230.207 274.593 230.889 275.189 230.889 275.936C230.889 276.58 230.642 276.994 229.6 278.089L226.871 280.963V281.629H231.984V280.77H228.208V280.748L230.169 278.723C231.463 277.386 231.855 276.741 231.855 275.876C231.855 274.689 230.765 273.75 229.379 273.75C227.918 273.75 226.823 274.759 226.823 276.113ZM235.905 281.763C237.495 281.763 238.65 280.646 238.65 279.115C238.65 277.644 237.554 276.553 236.077 276.553C235.116 276.553 234.262 277.053 233.913 277.81H233.896C233.929 275.748 234.665 274.598 235.959 274.598C236.727 274.598 237.35 275.049 237.56 275.753H238.542C238.295 274.534 237.286 273.744 235.97 273.744C234.074 273.744 232.962 275.275 232.962 277.885C232.962 278.723 233.085 279.421 233.343 280.018C233.821 281.135 234.745 281.763 235.905 281.763ZM235.895 280.904C234.901 280.904 234.127 280.114 234.127 279.121C234.127 278.132 234.885 277.402 235.911 277.402C236.937 277.402 237.667 278.132 237.667 279.147C237.667 280.125 236.883 280.904 235.895 280.904Z" fill="#333333"/>
<path d="M256.762 276.113V276.118H257.696V276.113C257.696 275.248 258.384 274.593 259.292 274.593C260.146 274.593 260.828 275.189 260.828 275.936C260.828 276.58 260.581 276.994 259.539 278.089L256.81 280.963V281.629H261.923V280.77H258.147V280.748L260.108 278.723C261.402 277.386 261.794 276.741 261.794 275.876C261.794 274.689 260.704 273.75 259.318 273.75C257.857 273.75 256.762 274.759 256.762 276.113ZM263.486 281.629H264.501L267.95 274.775V273.878H262.82V274.738H266.994V274.759L263.486 281.629Z" fill="#333333"/>
<g filter="url(#filter0_d)">
<path d="M61.2947 207.333C55.4483 204.764 49.4277 202.611 43.278 200.89L42.8196 200.75L42.4309 200.85C35.2048 202.604 27.5887 201.712 20.9643 198.336C14.3399 194.96 9.14588 189.323 6.32455 182.447C3.50322 175.572 3.24141 167.914 5.58662 160.862C7.93183 153.81 12.7287 147.832 19.1071 144.012C25.4855 140.192 33.0229 138.782 40.352 140.04C47.6811 141.297 54.3165 145.138 59.0544 150.866C63.7923 156.593 66.319 163.828 66.1761 171.257C66.0331 178.687 63.2301 185.819 58.2753 191.36L57.7671 191.928L57.9265 192.665C59.3715 199.406 60.5075 204.325 61.2947 207.333Z" fill="white"/>
</g>
<path d="M35.9973 137.297V140.284C41.7074 140.287 47.2947 141.94 52.0853 145.045C56.8758 148.15 60.6651 152.574 62.996 157.782C65.3269 162.991 66.0999 168.762 65.2218 174.4C64.3437 180.038 61.852 185.301 58.0472 189.556L57.0508 190.691L57.3696 192.174C58.366 197.053 59.2926 200.995 60.01 203.952C54.9798 201.915 49.8445 200.147 44.626 198.656H44.5263L43.7591 198.427L42.972 198.616C40.6895 199.176 38.3478 199.46 35.9973 199.462C28.2417 199.313 20.8542 196.129 15.4243 190.594C9.99437 185.058 6.95583 177.614 6.96235 169.863C6.96888 162.112 10.02 154.674 15.4592 149.147C20.8985 143.621 28.2912 140.449 36.0471 140.314V137.327L35.9973 137.297ZM36.0471 137.327C27.5031 137.469 19.3569 140.959 13.3629 147.045C7.36887 153.13 4.00654 161.325 4.00001 169.863C3.99348 178.402 7.34327 186.601 13.328 192.696C19.3127 198.791 27.4535 202.293 35.9973 202.449C38.5702 202.432 41.1321 202.111 43.6296 201.493C50.1143 203.28 56.4451 205.583 62.5608 208.382C62.6872 208.447 62.8272 208.481 62.9693 208.482C63.1121 208.472 63.2512 208.432 63.377 208.364C63.5029 208.296 63.6126 208.201 63.6986 208.087C63.7847 207.973 63.845 207.841 63.8756 207.702C63.9063 207.562 63.9064 207.417 63.876 207.277C62.9394 203.982 61.4946 197.56 60.2093 191.547C64.3946 186.861 67.1345 181.066 68.0989 174.859C69.0633 168.653 68.2111 162.301 65.6449 156.567C63.0787 150.834 58.908 145.964 53.6354 142.545C48.3628 139.126 42.2132 137.303 35.9276 137.297L36.0471 137.327Z" fill="#DCEBE9"/>
<path d="M43.777 152.959C41.8314 151.616 39.655 150.648 37.3582 150.103C33.7971 149.582 30.1635 150.219 26.988 151.922C23.9158 153.702 21.5246 156.465 20.1957 159.77C19.3969 161.66 19.0599 163.714 19.2127 165.761C16.3818 166.542 14.8876 170.466 14.8876 170.466C14.3842 171.759 14.2399 173.165 14.4702 174.533C14.7005 175.902 15.2967 177.182 16.195 178.236C17.0289 179.266 18.0959 180.079 19.3067 180.609C20.5175 181.139 21.8369 181.369 23.1544 181.281C23.8015 182.393 24.7093 183.33 25.7986 184.009C28.7475 186.105 33.4559 184.918 33.4559 184.918L34.2226 185.245C37.1125 186.164 38.3609 184.474 38.3609 184.474C40.7298 182.882 39.275 179.59 39.275 179.59C38.8667 178.869 38.257 178.284 37.5214 177.908C36.7858 177.532 35.9567 177.382 35.1367 177.475C34.4006 177.516 33.6945 177.782 33.113 178.238C32.5315 178.694 32.1024 179.317 31.8831 180.025C31.242 180.198 30.5712 180.228 29.9172 180.114C29.347 180.12 28.7901 179.941 28.3283 179.605C27.8665 179.269 27.5242 178.792 27.3517 178.246L24.8549 169.003C24.0851 166.812 24.0437 164.429 24.737 162.212C26.5456 155.895 33.2986 155.174 33.2986 155.174C41.0935 154.007 44.2783 161.668 44.2783 161.668C44.2783 161.668 46.952 171.306 47.355 172.68C47.758 174.055 49.9893 174.252 49.9893 174.252C56.6833 172.275 56.8701 167.333 56.8701 167.333C58.0595 156.973 48.1905 157.823 48.1905 157.823C47.0584 155.921 45.5575 154.267 43.777 152.959Z" fill="#333333"/>
<g filter="url(#filter1_d)">
<path d="M223.398 105.148C218.464 105.156 213.652 103.621 209.638 100.76C205.623 97.8999 202.609 93.857 201.018 89.2001C199.427 84.5431 199.34 79.5061 200.768 74.7971C202.197 70.0881 205.069 65.9437 208.982 62.9465C212.895 59.9493 217.651 58.2499 222.582 58.0871C227.514 57.9244 232.373 59.3064 236.475 62.0391C240.578 64.7718 243.719 68.7177 245.457 73.3222C247.195 77.9267 247.442 82.9584 246.163 87.7101C244.837 92.7175 241.883 97.1453 237.764 100.301C233.645 103.456 228.593 105.161 223.398 105.148Z" fill="white"/>
</g>
<path d="M222.793 58.7654C227.456 58.764 232.003 60.2194 235.795 62.927C239.586 65.6347 242.431 69.4586 243.931 73.8615C245.43 78.2644 245.509 83.0251 244.155 87.4748C242.802 91.9245 240.084 95.8397 236.384 98.6702C232.684 101.501 228.188 103.104 223.527 103.256C218.866 103.408 214.275 102.099 210.397 99.5154C206.52 96.9312 203.553 93.201 201.911 88.8487C200.27 84.4964 200.037 79.7407 201.246 75.2497C202.524 70.5246 205.327 66.3504 209.221 63.3713C213.115 60.3921 217.885 58.7736 222.793 58.7654ZM222.793 55.7773C216.362 55.7759 210.171 58.2134 205.475 62.5955C200.78 66.9776 197.932 72.9762 197.509 79.3748C197.086 85.7733 199.119 92.0928 203.197 97.0516C207.275 102.01 213.091 105.237 219.467 106.078C225.843 106.918 232.3 105.31 237.53 101.578C242.76 97.8461 246.371 92.2707 247.63 85.9824C248.89 79.694 247.703 73.1636 244.311 67.7154C240.92 62.2672 235.577 58.3091 229.366 56.6439C227.223 56.0689 225.013 55.7776 222.793 55.7773Z" fill="#DCEBE9"/>
<path d="M232.535 86.9485C232.478 86.8931 232.433 86.827 232.402 86.754C232.371 86.681 232.355 86.6026 232.355 86.5235V79.1397C232.355 74.7411 230.176 71.0146 226.357 69.7099C226.142 69.6431 225.953 69.5125 225.815 69.3357C225.677 69.1588 225.598 68.9444 225.588 68.7214V68.504C225.608 68.1974 225.565 67.89 225.46 67.6007C225.356 67.3114 225.193 67.0464 224.98 66.8221C224.768 66.5977 224.511 66.4189 224.226 66.2967C223.941 66.1744 223.634 66.1113 223.323 66.1113C223.013 66.1113 222.705 66.1744 222.42 66.2967C222.135 66.4189 221.879 66.5977 221.666 66.8221C221.454 67.0464 221.291 67.3114 221.186 67.6007C221.082 67.89 221.039 68.1974 221.059 68.504V68.7115C221.06 68.9443 220.986 69.1713 220.847 69.3597C220.709 69.548 220.514 69.688 220.289 69.7593C216.431 71.0542 214.291 74.7707 214.291 79.1891V86.5729C214.291 86.7307 214.231 86.8827 214.121 86.9979L211.592 89.558C211.39 89.7573 211.275 90.0271 211.272 90.3092C211.272 90.5976 211.388 90.8742 211.595 91.0781C211.801 91.282 212.08 91.3965 212.372 91.3965H234.365C234.509 91.3965 234.651 91.3683 234.784 91.3136C234.917 91.2588 235.037 91.1786 235.139 91.0775C235.24 90.9764 235.32 90.8564 235.374 90.7246C235.428 90.5927 235.456 90.4515 235.454 90.3092C235.455 90.0283 235.344 89.7583 235.144 89.558L232.535 86.9485ZM224.808 85.6833C224.809 85.8256 224.782 85.9668 224.728 86.0986C224.674 86.2305 224.594 86.3504 224.492 86.4515C224.391 86.5526 224.27 86.6329 224.138 86.6876C224.005 86.7424 223.862 86.7706 223.718 86.7706H222.889C222.597 86.7706 222.317 86.656 222.111 86.4521C221.905 86.2482 221.789 85.9716 221.789 85.6833V84.8036C221.789 84.5152 221.905 84.2386 222.111 84.0347C222.317 83.8308 222.597 83.7162 222.889 83.7162H223.718C223.862 83.7162 224.005 83.7444 224.138 83.7992C224.27 83.854 224.391 83.9342 224.492 84.0353C224.594 84.1364 224.674 84.2563 224.728 84.3882C224.782 84.5201 224.809 84.6612 224.808 84.8036V85.6833ZM224.808 79.5845C224.808 79.8703 224.693 80.1443 224.489 80.3464C224.284 80.5484 224.007 80.6619 223.718 80.6619H222.889C222.745 80.6632 222.602 80.6363 222.468 80.5828C222.335 80.5292 222.214 80.4501 222.112 80.3499C222.009 80.2497 221.928 80.1305 221.873 79.9991C221.817 79.8678 221.789 79.7268 221.789 79.5845V75.6307C221.789 75.4884 221.817 75.3475 221.873 75.2161C221.928 75.0847 222.009 74.9655 222.112 74.8653C222.214 74.7652 222.335 74.686 222.468 74.6325C222.602 74.5789 222.745 74.552 222.889 74.5533H223.718C224.007 74.5533 224.284 74.6668 224.489 74.8689C224.693 75.0709 224.808 75.345 224.808 75.6307V79.5845ZM223.288 95.9632C223.827 95.9619 224.356 95.8171 224.818 95.544C225.281 95.2709 225.661 94.8797 225.917 94.4113C226.012 94.2589 226.062 94.0841 226.064 93.9055C226.065 93.727 226.018 93.5513 225.927 93.3972C225.835 93.2431 225.704 93.1164 225.545 93.0304C225.387 92.9444 225.208 92.9024 225.028 92.9089H221.549C221.368 92.9024 221.19 92.9444 221.031 93.0304C220.873 93.1164 220.741 93.2431 220.65 93.3972C220.559 93.5513 220.512 93.727 220.513 93.9055C220.515 94.0841 220.565 94.2589 220.659 94.4113C220.916 94.8797 221.296 95.2709 221.758 95.544C222.221 95.8171 222.75 95.9619 223.288 95.9632Z" fill="#333333"/>
<g filter="url(#filter2_d)">
<path d="M279.443 130.445C276.073 130.448 272.787 129.362 270.047 127.338C267.306 125.314 265.248 122.454 264.163 119.16C263.077 115.866 263.018 112.303 263.995 108.973C264.971 105.643 266.933 102.712 269.605 100.593C272.278 98.4735 275.526 97.2721 278.893 97.1575C282.261 97.0428 285.579 98.0207 288.38 99.9537C291.182 101.887 293.327 104.678 294.513 107.934C295.7 111.191 295.868 114.75 294.995 118.11C294.095 121.656 292.078 124.793 289.262 127.026C286.447 129.258 282.992 130.461 279.443 130.445Z" fill="white"/>
</g>
<path d="M279.448 98.9661C282.647 98.9658 285.765 99.9344 288.364 101.735C290.963 103.536 292.912 106.079 293.936 109.006C294.96 111.933 295.009 115.096 294.075 118.051C293.141 121.006 291.271 123.603 288.728 125.478C286.186 127.353 283.099 128.41 279.902 128.501C276.705 128.593 273.558 127.713 270.906 125.987C268.253 124.261 266.227 121.775 265.114 118.879C264 115.982 263.855 112.822 264.699 109.842C265.592 106.723 267.517 103.972 270.18 102.008C272.843 100.044 276.098 98.9762 279.448 98.9661ZM279.448 96C274.771 95.9941 270.266 97.707 266.847 100.791C263.429 103.876 261.353 108.1 261.041 112.609C260.729 117.117 262.204 121.571 265.166 125.067C268.129 128.564 272.358 130.841 276.994 131.437C281.631 132.033 286.329 130.903 290.135 128.276C293.941 125.65 296.57 121.723 297.489 117.293C298.408 112.862 297.548 108.26 295.084 104.42C292.619 100.58 288.735 97.7887 284.218 96.613C282.663 96.2075 281.059 96.0014 279.448 96Z" fill="#DCEBE9"/>
<path d="M270.226 119.993C270.218 120.004 270.213 120.018 270.213 120.031C270.212 120.045 270.215 120.059 270.221 120.071C270.228 120.083 270.238 120.093 270.25 120.1C270.261 120.107 270.275 120.11 270.289 120.11H288.549C288.563 120.113 288.579 120.111 288.592 120.105C288.606 120.099 288.617 120.089 288.625 120.077C288.633 120.064 288.637 120.049 288.637 120.035C288.636 120.02 288.631 120.005 288.622 119.993L279.487 104.073C279.481 104.062 279.471 104.053 279.46 104.047C279.449 104.04 279.437 104.037 279.424 104.037C279.411 104.037 279.399 104.04 279.388 104.047C279.377 104.053 279.368 104.062 279.361 104.073L270.226 119.993ZM280.264 117.074C280.264 117.201 280.214 117.323 280.126 117.412C280.037 117.502 279.917 117.552 279.792 117.552H279.057C278.931 117.552 278.811 117.502 278.722 117.412C278.634 117.323 278.584 117.201 278.584 117.074V116.321C278.584 116.194 278.634 116.073 278.722 115.983C278.811 115.894 278.931 115.843 279.057 115.843H279.792C279.917 115.843 280.037 115.894 280.126 115.983C280.214 116.073 280.264 116.194 280.264 116.321V117.074ZM280.264 113.668C280.264 113.794 280.214 113.916 280.126 114.005C280.037 114.095 279.917 114.145 279.792 114.145H279.057C278.931 114.145 278.811 114.095 278.722 114.005C278.634 113.916 278.584 113.794 278.584 113.668V111.173C278.584 111.047 278.634 110.925 278.722 110.836C278.811 110.746 278.931 110.696 279.057 110.696H279.792C279.917 110.696 280.037 110.746 280.126 110.836C280.214 110.925 280.264 111.047 280.264 111.173V113.668Z" fill="#333333"/>
<g filter="url(#filter3_d)">
<path d="M318.588 192.267C313.876 192.255 309.249 191.028 305.17 188.708C301.091 186.388 297.702 183.056 295.342 179.045L294.856 178.208L293.842 178.298C286.222 179.075 280.537 179.732 276.909 180.29C283.115 172.783 288.681 164.784 293.548 156.377L293.599 156.297L293.66 156.157C295.587 151.438 298.858 147.366 303.08 144.428C307.302 141.491 312.296 139.814 317.464 139.597C317.839 139.597 318.224 139.597 318.599 139.597C325.721 139.456 332.608 142.102 337.746 146.954C342.884 151.806 345.851 158.466 345.995 165.469C346.138 172.472 343.447 179.244 338.513 184.296C333.578 189.348 326.805 192.265 319.683 192.407L318.588 192.267Z" fill="white"/>
</g>
<path d="M318.417 138.455V141.411C321.717 141.346 324.999 141.919 328.073 143.097C331.148 144.275 333.956 146.035 336.336 148.276C338.717 150.518 340.624 153.196 341.948 156.16C343.272 159.123 343.987 162.313 344.053 165.548C344.119 168.782 343.535 171.998 342.333 175.011C341.13 178.023 339.335 180.775 337.047 183.108C334.76 185.441 332.026 187.309 329.002 188.607C325.978 189.904 322.723 190.605 319.422 190.67H318.366C313.956 190.658 309.626 189.513 305.808 187.348C301.99 185.184 298.819 182.076 296.61 178.335L295.605 176.67L293.664 176.867C288.303 177.406 283.926 177.889 280.534 178.316C285.809 171.66 290.586 164.64 294.831 157.312L294.921 157.154L294.992 156.977C296.792 152.573 299.853 148.772 303.805 146.031C307.757 143.291 312.433 141.728 317.27 141.529C317.622 141.529 317.984 141.529 318.336 141.529V138.573L318.417 138.455ZM318.336 138.573C317.944 138.573 317.542 138.573 317.15 138.573C311.756 138.803 306.544 140.548 302.134 143.599C297.724 146.651 294.302 150.881 292.277 155.785C287.218 164.524 281.378 172.806 274.824 180.532C274.715 180.653 274.643 180.802 274.617 180.961C274.591 181.12 274.612 181.283 274.678 181.431C274.743 181.579 274.85 181.706 274.987 181.796C275.123 181.886 275.283 181.937 275.447 181.941H275.598C279.62 181.291 287.15 180.453 294.047 179.764C296.516 183.955 300.066 187.435 304.342 189.856C308.618 192.277 313.468 193.553 318.407 193.556H319.593C326.842 193.116 333.637 189.946 338.558 184.711C343.478 179.475 346.143 172.578 345.995 165.462C345.847 158.346 342.897 151.562 337.764 146.527C332.63 141.492 325.708 138.596 318.447 138.445L318.336 138.573Z" fill="#DCEBE9"/>
<path d="M304.899 161.675L305.018 166.094L302.242 166.178L302.322 169.131L305.098 169.046L305.217 173.465L307.993 173.38L308.072 176.333L310.848 176.249L310.65 168.867L327.298 168.371L327.496 175.753L330.272 175.669L330.193 172.716L332.969 172.632L332.85 168.213L335.636 168.129L335.557 165.176L332.781 165.26L332.662 160.831L329.885 160.916L329.806 157.963L327.03 158.047L327.218 165.429L310.571 165.935L310.382 158.553L307.596 158.638L307.676 161.591L304.899 161.675Z" fill="#333333"/>
<path d="M210.697 228.001C212.287 228.001 213.576 226.715 213.576 225.13C213.576 223.545 212.287 222.26 210.697 222.26C209.107 222.26 207.818 223.545 207.818 225.13C207.818 226.715 209.107 228.001 210.697 228.001Z" fill="#81B7AE"/>
<path d="M264.818 195.852C266.408 195.852 267.697 194.567 267.697 192.982C267.697 191.396 266.408 190.111 264.818 190.111C263.228 190.111 261.939 191.396 261.939 192.982C261.939 194.567 263.228 195.852 264.818 195.852Z" fill="#FDAE46"/>
<path d="M176.152 260.149C177.742 260.149 179.031 258.864 179.031 257.279C179.031 255.693 177.742 254.408 176.152 254.408C174.562 254.408 173.273 255.693 173.273 257.279C173.273 258.864 174.562 260.149 176.152 260.149Z" fill="#BE0707"/>
<path d="M81.7272 229.149C83.3171 229.149 84.606 227.864 84.606 226.279C84.606 224.693 83.3171 223.408 81.7272 223.408C80.1373 223.408 78.8484 224.693 78.8484 226.279C78.8484 227.864 80.1373 229.149 81.7272 229.149Z" fill="#FDAE46"/>
<defs>
<filter id="filter0_d" x="0" y="139.592" width="70.1818" height="75.7407" filterUnits="userSpaceOnUse" color-interpolation-filters="sRGB">
<feFlood flood-opacity="0" result="BackgroundImageFix"/>
<feColorMatrix in="SourceAlpha" type="matrix" values="0 0 0 0 0 0 0 0 0 0 0 0 0 0 0 0 0 0 127 0"/>
<feOffset dy="4"/>
<feGaussianBlur stdDeviation="2"/>
<feColorMatrix type="matrix" values="0 0 0 0 0 0 0 0 0 0 0 0 0 0 0 0 0 0 0.25 0"/>
<feBlend mode="normal" in2="BackgroundImageFix" result="effect1_dropShadow"/>
<feBlend mode="normal" in="SourceGraphic" in2="effect1_dropShadow" result="shape"/>
</filter>
<filter id="filter1_d" x="195.757" y="58.0742" width="55.2121" height="55.0741" filterUnits="userSpaceOnUse" color-interpolation-filters="sRGB">
<feFlood flood-opacity="0" result="BackgroundImageFix"/>
<feColorMatrix in="SourceAlpha" type="matrix" values="0 0 0 0 0 0 0 0 0 0 0 0 0 0 0 0 0 0 127 0"/>
<feOffset dy="4"/>
<feGaussianBlur stdDeviation="2"/>
<feColorMatrix type="matrix" values="0 0 0 0 0 0 0 0 0 0 0 0 0 0 0 0 0 0 0.25 0"/>
<feBlend mode="normal" in2="BackgroundImageFix" result="effect1_dropShadow"/>
<feBlend mode="normal" in="SourceGraphic" in2="effect1_dropShadow" result="shape"/>
</filter>
<filter id="filter2_d" x="259.303" y="97.1484" width="40.2424" height="41.2963" filterUnits="userSpaceOnUse" color-interpolation-filters="sRGB">
<feFlood flood-opacity="0" result="BackgroundImageFix"/>
<feColorMatrix in="SourceAlpha" type="matrix" values="0 0 0 0 0 0 0 0 0 0 0 0 0 0 0 0 0 0 127 0"/>
<feOffset dy="4"/>
<feGaussianBlur stdDeviation="2"/>
<feColorMatrix type="matrix" values="0 0 0 0 0 0 0 0 0 0 0 0 0 0 0 0 0 0 0.25 0"/>
<feBlend mode="normal" in2="BackgroundImageFix" result="effect1_dropShadow"/>
<feBlend mode="normal" in="SourceGraphic" in2="effect1_dropShadow" result="shape"/>
</filter>
<filter id="filter3_d" x="272.909" y="139.592" width="77.0909" height="60.8148" filterUnits="userSpaceOnUse" color-interpolation-filters="sRGB">
<feFlood flood-opacity="0" result="BackgroundImageFix"/>
<feColorMatrix in="SourceAlpha" type="matrix" values="0 0 0 0 0 0 0 0 0 0 0 0 0 0 0 0 0 0 127 0"/>
<feOffset dy="4"/>
<feGaussianBlur stdDeviation="2"/>
<feColorMatrix type="matrix" values="0 0 0 0 0 0 0 0 0 0 0 0 0 0 0 0 0 0 0.25 0"/>
<feBlend mode="normal" in2="BackgroundImageFix" result="effect1_dropShadow"/>
<feBlend mode="normal" in="SourceGraphic" in2="effect1_dropShadow" result="shape"/>
</filter>
<linearGradient id="paint0_linear" x1="175" y1="54.6289" x2="175" y2="368.073" gradientUnits="userSpaceOnUse">
<stop stop-color="white"/>
<stop offset="1" stop-color="white" stop-opacity="0"/>
</linearGradient>
</defs>
</svg>
