<svg width="22" height="19" viewBox="0 0 22 19" fill="none" xmlns="http://www.w3.org/2000/svg">
<path d="M0.86902 16.999C0.483055 17.6656 0.964115 18.5 1.73445 18.5H20.2656C21.0359 18.5 21.5169 17.6656 21.131 16.999L11.8654 0.994824C11.4803 0.329539 10.5197 0.329542 10.1346 0.994827L0.86902 16.999ZM12 14.5C12 15.0523 11.5523 15.5 11 15.5V15.5C10.4477 15.5 10 15.0523 10 14.5V14.5C10 13.9477 10.4477 13.5 11 13.5V13.5C11.5523 13.5 12 13.9477 12 14.5V14.5ZM12 10.5C12 11.0523 11.5523 11.5 11 11.5V11.5C10.4477 11.5 10 11.0523 10 10.5V8.5C10 7.94771 10.4477 7.5 11 7.5V7.5C11.5523 7.5 12 7.94772 12 8.5V10.5Z" fill="#828282"/>
</svg>
