<svg width="35" height="30" viewBox="0 0 35 30" fill="none" xmlns="http://www.w3.org/2000/svg">
<path d="M0.877258 28.4961C0.488375 29.1628 0.969246 30 1.74104 30H33.259C34.0308 30 34.5116 29.1628 34.1227 28.4961L18.3638 1.48077C17.9779 0.81926 17.0221 0.819258 16.6362 1.48076L0.877258 28.4961ZM19.0909 24.2632C19.0909 24.8154 18.6432 25.2632 18.0909 25.2632H16.9091C16.3568 25.2632 15.9091 24.8154 15.9091 24.2632V23.1053C15.9091 22.553 16.3568 22.1053 16.9091 22.1053H18.0909C18.6432 22.1053 19.0909 22.553 19.0909 23.1053V24.2632ZM19.0909 17.9474C19.0909 18.4997 18.6432 18.9474 18.0909 18.9474H16.9091C16.3568 18.9474 15.9091 18.4997 15.9091 17.9474V13.6316C15.9091 13.0793 16.3568 12.6316 16.9091 12.6316H18.0909C18.6432 12.6316 19.0909 13.0793 19.0909 13.6316V17.9474Z" fill="#BE0707"/>
</svg>
