<svg width="48" height="58" viewBox="0 0 48 58" fill="none" xmlns="http://www.w3.org/2000/svg">
<path d="M13.4072 7.83594H35.9072C38.6572 7.83594 40.9072 10.0859 40.9072 12.8359V52.8359C40.9072 55.5859 38.6572 57.8359 35.9072 57.8359H5.90723C3.15723 57.8359 0.907227 55.5859 0.907227 52.8359V20.3359L13.4072 7.83594ZM35.9072 52.8359V12.8359H15.9072V22.8359H5.90723V52.8359H35.9072ZM10.9072 27.8359V40.3359C10.9072 45.8609 15.3822 50.3359 20.9072 50.3359C26.4322 50.3359 30.9072 45.8609 30.9072 40.3359V24.0859C30.9072 20.4109 27.7572 17.4859 24.0072 17.8609C20.7572 18.1859 18.4072 21.1609 18.4072 24.4359V40.3359H23.4072V24.0859C23.4072 23.3859 23.9572 22.8359 24.6572 22.8359C25.3572 22.8359 25.9072 23.3859 25.9072 24.0859V40.3359C25.9072 43.0859 23.6572 45.3359 20.9072 45.3359C18.1572 45.3359 15.9072 43.0859 15.9072 40.3359V27.8359H10.9072Z" fill="#333333"/>
<path d="M35.3442 13.5725H28.0484L28 7H43V22H35.3442V13.5725Z" fill="white"/>
<path fill-rule="evenodd" clip-rule="evenodd" d="M40.86 0.65625H35.9124V7.83614H30.042V12.7929H35.9124V19.713H40.86V12.7929H47.3779V7.83614H40.86V0.65625Z" fill="#333333"/>
</svg>
