<svg width="51" height="51" viewBox="0 0 51 51" fill="none" xmlns="http://www.w3.org/2000/svg">
<path d="M42.4363 13.7458V21.6142C42.4363 21.6142 37.1995 21.6405 37.1732 21.6142V13.7458H29.2784C29.2784 13.7458 29.3047 8.50894 29.2784 8.48263H37.1732V0.587891H42.4363V8.48263H50.3311V13.7458H42.4363ZM34.5416 24.2721V16.3774H26.6468V8.48263H5.59421C2.69948 8.48263 0.331055 10.851 0.331055 13.7458V45.3247C0.331055 48.2195 2.69948 50.5879 5.59421 50.5879H37.1732C40.0679 50.5879 42.4363 48.2195 42.4363 45.3247V24.2721H34.5416ZM5.59421 45.3247L13.4889 34.7984L18.7521 42.6932L26.6468 32.1668L37.1732 45.3247H5.59421Z" fill="#333333"/>
</svg>
