<svg width="51" height="47" viewBox="0 0 51 47" fill="none" xmlns="http://www.w3.org/2000/svg">
<path d="M44.3855 7.19557V0.673828H40.0377V7.19557H33.5159V11.5434H40.0377V18.0651H44.3855V11.5434H50.9072V7.19557H44.3855ZM37.8637 20.239V13.7173H31.342V7.19557H16.1246L12.1464 11.5434H5.25505C2.86375 11.5434 0.907227 13.4999 0.907227 15.8912V41.9782C0.907227 44.3695 2.86375 46.326 5.25505 46.326H40.0377C42.429 46.326 44.3855 44.3695 44.3855 41.9782V20.239H37.8637ZM22.6464 39.8043C16.6464 39.8043 11.7768 34.9347 11.7768 28.9347C11.7768 22.9347 16.6464 18.0651 22.6464 18.0651C28.6464 18.0651 33.5159 22.9347 33.5159 28.9347C33.5159 34.9347 28.6464 39.8043 22.6464 39.8043ZM29.6029 28.9347C29.6029 32.7825 26.4942 35.8912 22.6464 35.8912C18.7985 35.8912 15.6898 32.7825 15.6898 28.9347C15.6898 25.0869 18.7985 21.9782 22.6464 21.9782C26.4942 21.9782 29.6029 25.0869 29.6029 28.9347Z" fill="#333333"/>
</svg>
