<svg width="160" height="123" viewBox="0 0 160 123" fill="none" xmlns="http://www.w3.org/2000/svg">
<rect width="160" height="123" fill="white"/>
<rect x="21" y="14.1965" width="119" height="105" fill="white"/>
<path d="M92 98.1965L49 93.1965L44.5 110.197L56 115.697H97.5L92 98.1965Z" fill="white"/>
<path d="M58.0001 97.1965L46.0001 86.1965L43.5 97.1965L37.0001 111.197C34.6001 113.197 38.6667 117.697 41.0001 119.697L57.5001 117.697L53.5001 109.697L58.0001 97.1965Z" fill="white"/>
<circle cx="77.5" cy="63.6965" r="39.5" fill="white"/>
<path d="M61.8511 96.5854C80.1187 105.594 102.231 98.089 111.24 79.8214C120.249 61.5538 112.743 39.4417 94.4758 30.4326C76.2082 21.4235 54.0961 28.9291 45.0871 47.1967C36.078 65.4643 43.5835 87.5764 61.8511 96.5854Z" stroke="#333333" stroke-linecap="round" stroke-linejoin="round" stroke-dasharray="14.25 14.25"/>
<path d="M92.0537 42.2077C91.161 41.4306 90.5491 40.3812 90.3124 39.2216C90.0757 38.0621 90.2275 36.8568 90.7442 35.7921L98.4618 19.9187C99.0864 18.6353 100.195 17.6524 101.544 17.186C102.893 16.7196 104.372 16.8079 105.656 17.4315L122.767 25.7522C123.403 26.0602 123.973 26.4908 124.442 27.0194C124.912 27.548 125.273 28.1641 125.504 28.8324C125.734 29.5007 125.831 30.208 125.788 30.9137C125.745 31.6195 125.563 32.3098 125.252 32.945L117.533 48.8168C117.224 49.4523 116.793 50.0208 116.264 50.4897C115.735 50.9586 115.119 51.3188 114.451 51.5496C113.784 51.7804 113.077 51.8773 112.371 51.8349C111.666 51.7924 110.976 51.6114 110.34 51.3022L93.2294 42.9815C92.8053 42.7761 92.41 42.5159 92.0537 42.2077Z" fill="white"/>
<path d="M124.265 26.1655L123.631 26.896C124.443 27.6032 125 28.558 125.215 29.6129C125.431 30.6679 125.294 31.7645 124.824 32.7336L117.105 48.6054C116.539 49.7735 115.532 50.6693 114.306 51.0957C113.08 51.5222 111.735 51.4446 110.566 50.88L93.4549 42.5593C93.068 42.3726 92.7076 42.1353 92.3834 41.8535C91.5708 41.1467 91.0136 40.192 90.7979 39.1368C90.5823 38.0816 90.7202 36.9848 91.1903 36.0159L98.8984 20.1312C99.467 18.9642 100.475 18.0706 101.702 17.6467C102.929 17.2227 104.274 17.303 105.442 17.87L122.554 26.1889C122.941 26.3771 123.302 26.6149 123.628 26.8962L124.262 26.1657L124.265 26.1655ZM124.262 26.1657C123.873 25.8284 123.441 25.5442 122.978 25.3207L105.867 17C104.468 16.3203 102.857 16.2238 101.387 16.7319C99.9172 17.24 98.7092 18.311 98.0287 19.7094L90.3112 35.5827C89.7449 36.743 89.5774 38.0577 89.8346 39.3229C90.0918 40.588 90.7594 41.7329 91.7337 42.58C92.1225 42.9167 92.5535 43.2013 93.0158 43.4268L110.128 51.7457C110.821 52.0826 111.573 52.2797 112.342 52.3259C113.11 52.3721 113.881 52.2663 114.609 52.0147C115.337 51.7631 116.008 51.3706 116.584 50.8595C117.16 50.3485 117.63 49.7289 117.967 49.0363L125.686 33.1645C126.252 32.0041 126.419 30.6896 126.161 29.4247C125.904 28.1597 125.237 27.0148 124.263 26.1673L124.262 26.1657Z" fill="#333333"/>
<path d="M102.856 20.23C102.674 20.0703 102.549 19.8551 102.5 19.6174C102.451 19.3797 102.482 19.1326 102.587 18.9139L104.055 15.8978C104.183 15.6345 104.411 15.433 104.688 15.3372C104.965 15.2415 105.268 15.2594 105.532 15.387C105.62 15.4287 105.702 15.4823 105.775 15.5463C105.958 15.7059 106.084 15.9216 106.132 16.1599C106.181 16.3981 106.149 16.6458 106.043 16.8643L104.577 19.8786C104.513 20.0092 104.425 20.126 104.316 20.2223C104.207 20.3186 104.081 20.3927 103.944 20.4401C103.806 20.4875 103.661 20.5075 103.516 20.4988C103.371 20.4901 103.23 20.4529 103.099 20.3894C103.012 20.3466 102.93 20.2931 102.856 20.23Z" fill="white"/>
<path d="M105.616 15.729C105.759 15.8539 105.858 16.0225 105.895 16.2088C105.933 16.3951 105.909 16.5887 105.826 16.7597L104.36 19.774C104.31 19.8759 104.241 19.967 104.156 20.0421C104.071 20.1172 103.972 20.1748 103.865 20.2117C103.757 20.2486 103.644 20.264 103.531 20.257C103.418 20.25 103.307 20.2208 103.205 20.1711C103 20.0704 102.843 19.8928 102.768 19.6768C102.693 19.4609 102.707 19.2242 102.806 19.0183L104.273 16.004C104.374 15.8011 104.552 15.6461 104.766 15.5726C104.981 15.499 105.216 15.5128 105.421 15.6108C105.489 15.6445 105.552 15.6867 105.61 15.7363L105.616 15.729ZM105.927 15.371C105.837 15.2934 105.738 15.2278 105.632 15.176C105.31 15.0199 104.94 14.9978 104.602 15.1146C104.264 15.2314 103.986 15.4775 103.83 15.7989L102.365 18.8147C102.209 19.136 102.187 19.5062 102.304 19.8438C102.42 20.1814 102.667 20.4588 102.988 20.6149C103.309 20.7711 103.679 20.7932 104.017 20.6764C104.355 20.5596 104.632 20.3135 104.788 19.9922L106.256 16.9761C106.386 16.7094 106.424 16.4075 106.364 16.1171C106.305 15.8267 106.152 15.5638 105.928 15.3692L105.927 15.371Z" fill="#333333"/>
<path d="M109.242 23.3346C109.058 23.1748 108.933 22.9592 108.884 22.721C108.836 22.4828 108.867 22.2353 108.973 22.0167L110.436 19.0026C110.565 18.7394 110.793 18.5378 111.07 18.4421C111.346 18.3464 111.65 18.3642 111.914 18.4918C112.002 18.5336 112.083 18.5872 112.156 18.6512C112.338 18.811 112.462 19.0258 112.51 19.2629C112.559 19.5 112.528 19.7463 112.422 19.9642L110.963 22.9814C110.835 23.2446 110.607 23.4462 110.33 23.5419C110.053 23.6377 109.75 23.6198 109.486 23.4922C109.397 23.4512 109.315 23.3981 109.242 23.3346Z" fill="white"/>
<path d="M112 18.8319C112.143 18.9568 112.241 19.1254 112.279 19.3117C112.317 19.4979 112.293 19.6915 112.21 19.8626L110.743 22.8768C110.694 22.9799 110.625 23.0721 110.539 23.1482C110.454 23.2242 110.355 23.2826 110.247 23.3199C110.14 23.3574 110.026 23.3731 109.913 23.3661C109.8 23.3591 109.689 23.3296 109.587 23.2792C109.518 23.2472 109.454 23.2056 109.397 23.1555C109.254 23.0306 109.155 22.862 109.117 22.6758C109.079 22.4895 109.104 22.2959 109.187 22.1248L110.653 19.1106C110.754 18.9051 110.932 18.7478 111.148 18.6728C111.364 18.5978 111.601 18.6112 111.808 18.7101C111.876 18.7437 111.939 18.7859 111.996 18.8355L112 18.8319ZM112.313 18.4703C112.225 18.3932 112.126 18.3281 112.02 18.2768C111.861 18.1992 111.688 18.1537 111.511 18.143C111.335 18.1324 111.158 18.1566 110.99 18.2145C110.823 18.2724 110.668 18.3627 110.536 18.4802C110.404 18.5978 110.296 18.7403 110.218 18.8997L108.752 21.9139C108.596 22.2355 108.574 22.6059 108.691 22.9438C108.807 23.2816 109.054 23.5593 109.375 23.7159C109.534 23.7931 109.707 23.8383 109.884 23.8487C110.06 23.8591 110.237 23.8346 110.404 23.7766C110.572 23.7186 110.726 23.6283 110.858 23.5107C110.99 23.3931 111.098 23.2506 111.175 23.0914L112.646 20.0751C112.776 19.8084 112.814 19.5065 112.755 19.2161C112.695 18.9256 112.542 18.6628 112.318 18.4682L112.313 18.4703Z" fill="#333333"/>
<path d="M115.685 26.4681C115.502 26.3084 115.376 26.0926 115.327 25.854C115.278 25.6155 115.309 25.3675 115.416 25.1485L116.882 22.1342C117.011 21.871 117.238 21.6694 117.515 21.5737C117.792 21.4779 118.096 21.4958 118.359 21.6234C118.447 21.6662 118.528 21.7197 118.602 21.7828C118.785 21.9426 118.911 22.1582 118.959 22.3964C119.007 22.6346 118.976 22.8821 118.87 23.1008L117.406 26.1166C117.277 26.3801 117.049 26.5816 116.771 26.6771C116.494 26.7726 116.19 26.7541 115.926 26.6258C115.839 26.5845 115.758 26.5314 115.685 26.4681Z" fill="white"/>
<path d="M118.444 21.9653C118.587 22.0902 118.685 22.2588 118.723 22.4451C118.761 22.6314 118.737 22.825 118.654 22.996L117.187 26.0103C117.138 26.1123 117.069 26.2035 116.984 26.2787C116.899 26.354 116.8 26.4118 116.693 26.4488C116.586 26.4858 116.472 26.5014 116.359 26.4946C116.246 26.4878 116.135 26.4587 116.033 26.4091C115.827 26.3089 115.669 26.131 115.594 25.9145C115.52 25.698 115.534 25.4606 115.634 25.2546L117.101 22.2404C117.201 22.0348 117.378 21.8773 117.594 21.8026C117.811 21.7278 118.048 21.7419 118.253 21.8417C118.322 21.8747 118.386 21.9162 118.444 21.9653ZM118.761 21.6001C118.604 21.4664 118.419 21.3701 118.22 21.3185C118.021 21.2669 117.812 21.2613 117.611 21.3022C117.409 21.3431 117.219 21.4293 117.056 21.5544C116.892 21.6795 116.759 21.8402 116.667 22.0242L115.193 25.051C115.116 25.2101 115.07 25.3829 115.06 25.5595C115.049 25.736 115.074 25.913 115.131 26.0801C115.189 26.2473 115.279 26.4014 115.397 26.5338C115.514 26.6661 115.657 26.774 115.816 26.8513C115.975 26.9286 116.148 26.9738 116.324 26.9843C116.501 26.9949 116.678 26.9706 116.845 26.9127C117.012 26.8549 117.166 26.7647 117.298 26.6473C117.431 26.5299 117.539 26.3876 117.616 26.2285L119.082 23.2142C119.211 22.9475 119.249 22.6457 119.19 22.3554C119.131 22.065 118.978 21.8022 118.754 21.6074L118.761 21.6001Z" fill="#333333"/>
<path d="M122.127 29.5992C121.942 29.4392 121.815 29.2224 121.767 28.9826C121.718 28.7429 121.751 28.4938 121.859 28.2744L123.324 25.2619C123.452 24.998 123.68 24.7957 123.957 24.6996C124.234 24.6035 124.538 24.6213 124.803 24.7493C124.889 24.7927 124.97 24.8469 125.044 24.9105C125.227 25.0703 125.352 25.286 125.401 25.5241C125.449 25.7623 125.418 26.0098 125.312 26.2285L123.845 29.2428C123.716 29.5055 123.489 29.7067 123.212 29.8024C122.935 29.898 122.632 29.8805 122.368 29.7536C122.282 29.7122 122.201 29.6604 122.127 29.5992Z" fill="white"/>
<path d="M124.886 25.1001C125.029 25.2246 125.127 25.3931 125.165 25.5792C125.203 25.7654 125.178 25.9587 125.094 26.1292L123.631 29.1432C123.531 29.3493 123.352 29.5071 123.136 29.5819C122.919 29.6566 122.681 29.6424 122.475 29.5422C122.407 29.5087 122.343 29.4665 122.286 29.4167C122.143 29.2919 122.045 29.1237 122.007 28.9379C121.969 28.7521 121.992 28.5589 122.074 28.3878L123.541 25.3736C123.59 25.2713 123.66 25.1798 123.745 25.1044C123.83 25.029 123.929 24.9711 124.036 24.934C124.144 24.897 124.257 24.8815 124.371 24.8884C124.484 24.8954 124.595 24.9247 124.697 24.9746C124.765 25.0082 124.829 25.0503 124.886 25.1001ZM125.203 24.7349C125.047 24.5993 124.862 24.5015 124.663 24.4488C124.463 24.3961 124.254 24.39 124.052 24.431C123.849 24.472 123.659 24.559 123.496 24.6852C123.332 24.8114 123.2 24.9736 123.109 25.159L121.643 28.1733C121.486 28.4946 121.464 28.865 121.58 29.203C121.697 29.5409 121.943 29.8188 122.264 29.9753C122.585 30.1319 122.956 30.1545 123.294 30.038C123.632 29.9215 123.909 29.6755 124.066 29.3541L125.532 26.3399C125.662 26.0732 125.7 25.7713 125.641 25.4809C125.581 25.1905 125.428 24.9276 125.204 24.733L125.203 24.7349Z" fill="#333333"/>
<path d="M98.4192 20.2817L124.999 33.2081" stroke="#333333" stroke-miterlimit="10"/>
<path d="M120.544 33.9434C120.76 34.1317 120.907 34.3858 120.963 34.6662C121.02 34.9467 120.982 35.2379 120.856 35.4948L114.53 48.5255C114.456 48.6791 114.352 48.8165 114.225 48.9299C114.097 49.0433 113.949 49.1304 113.787 49.1862C113.626 49.2421 113.456 49.2655 113.285 49.2553C113.115 49.245 112.948 49.2013 112.795 49.1265L93.6126 39.7955C93.5109 39.7453 93.416 39.6823 93.3302 39.6081C93.1142 39.4202 92.9664 39.1662 92.9099 38.8855C92.8535 38.6049 92.8915 38.3134 93.0182 38.0567L99.3482 25.0291C99.4989 24.7201 99.7661 24.4835 100.091 24.3712C100.416 24.2589 100.772 24.28 101.082 24.4299L120.259 33.7562C120.362 33.8052 120.458 33.8682 120.544 33.9434ZM121.02 33.3956C120.886 33.2786 120.736 33.1802 120.576 33.103L101.401 23.7783C100.918 23.544 100.362 23.511 99.8551 23.6863C99.3481 23.8617 98.9315 24.2312 98.6968 24.7136L92.3618 37.7432C92.1667 38.1435 92.1093 38.597 92.1985 39.0333C92.2876 39.4696 92.5183 39.8642 92.8548 40.1559C92.9887 40.2718 93.1367 40.3702 93.2955 40.4487L112.481 49.7795C112.72 49.896 112.979 49.9642 113.244 49.9803C113.51 49.9964 113.775 49.9601 114.026 49.8734C114.277 49.7867 114.509 49.6513 114.707 49.475C114.906 49.2987 115.068 49.085 115.184 48.8461L121.52 35.8147C121.715 35.4146 121.772 34.9617 121.683 34.5258C121.594 34.09 121.364 33.6956 121.029 33.4035L121.02 33.3956Z" fill="#333333"/>
<path d="M96.8694 28.4647L119.685 39.5594" stroke="#333333" stroke-miterlimit="10"/>
<path d="M94.2915 33.7705L117.106 44.8636" stroke="#333333" stroke-miterlimit="10"/>
<path d="M97.5371 42.4007L105.599 25.8208" stroke="#333333" stroke-miterlimit="10"/>
<path d="M108.54 47.7512L116.605 31.171" stroke="#333333" stroke-miterlimit="10"/>
<path d="M102.841 44.9802L110.903 28.4003" stroke="#333333" stroke-miterlimit="10"/>
<path d="M99.955 40.4554L100.603 41.479L103.76 39.8964" stroke="#A4C0E0" stroke-linecap="round" stroke-linejoin="round"/>
<path d="M105.225 43.0186L105.872 44.0407L109.029 42.458" stroke="#A4C0E0" stroke-linecap="round" stroke-linejoin="round"/>
<path d="M107.844 37.6295L108.493 38.6514L111.65 37.0687" stroke="#A4C0E0" stroke-linecap="round" stroke-linejoin="round"/>
<path d="M113.577 40.4189L114.226 41.4391L117.382 39.8564" stroke="#A4C0E0" stroke-linecap="round" stroke-linejoin="round"/>
<path d="M94.603 37.8537L95.2496 38.8758L98.4078 37.2913" stroke="#A4C0E0" stroke-linecap="round" stroke-linejoin="round"/>
<ellipse cx="54.8065" cy="78.5872" rx="4.65932" ry="2.62191" transform="rotate(-41.5374 54.8065 78.5872)" fill="#A4C0E0"/>
<ellipse cx="46.9383" cy="107.982" rx="4.20553" ry="2.18009" transform="rotate(-15.1524 46.9383 107.982)" fill="#A4C0E0"/>
<ellipse cx="51.8388" cy="107.112" rx="2.06147" ry="0.930857" transform="rotate(45.1129 51.8388 107.112)" fill="#A4C0E0"/>
<path d="M68.0847 36.7216C74.0127 36.1587 78.362 30.8969 77.7992 24.9689C77.2363 19.041 71.9745 14.6917 66.0465 15.2545C60.1186 15.8173 55.7692 21.0791 56.3321 27.0071C56.8949 32.9351 62.1567 37.2844 68.0847 36.7216Z" fill="white"/>
<path d="M66.1034 15.8537C68.1077 15.6634 70.1235 16.0717 71.8958 17.0271C73.668 17.9824 75.1172 19.4418 76.0601 21.2208C77.0029 22.9997 77.3971 25.0183 77.1927 27.0213C76.9883 29.0242 76.1946 30.9216 74.9118 32.4734C73.6291 34.0253 71.915 35.1619 69.9863 35.7396C68.0576 36.3173 66.0009 36.31 64.0763 35.7188C62.1517 35.1276 60.4456 33.979 59.1738 32.4181C57.9021 30.8573 57.1217 28.9544 56.9314 26.9501C56.6788 24.2628 57.5027 21.5852 59.2223 19.5048C60.9419 17.4245 63.4166 16.1114 66.1034 15.8537ZM65.9891 14.6501C63.7465 14.8626 61.6174 15.7352 59.8708 17.1578C58.1243 18.5804 56.8388 20.4889 56.177 22.6421C55.5152 24.7953 55.5068 27.0963 56.1528 29.2543C56.7988 31.4123 58.0703 33.3302 59.8064 34.7655C61.5424 36.2008 63.6652 37.0891 65.9061 37.3179C68.147 37.5468 70.4055 37.1059 72.3959 36.0512C74.3862 34.9964 76.0191 33.3751 77.088 31.3922C78.1569 29.4094 78.6138 27.1541 78.4009 24.9117C78.1154 21.9051 76.6475 19.1351 74.3199 17.2107C71.9923 15.2864 68.9957 14.3653 65.9891 14.6501Z" fill="#333333"/>
<path d="M70.97 18.146L67.3434 27.4552L60.9146 24.9518" stroke="#333333" stroke-linecap="round" stroke-linejoin="round"/>
<path d="M67.2959 28.4119C68.1388 28.3319 68.7572 27.5837 68.6772 26.7409C68.5971 25.898 67.849 25.2796 67.0061 25.3596C66.1633 25.4396 65.5449 26.1878 65.6249 27.0307C65.7049 27.8735 66.4531 28.4919 67.2959 28.4119Z" fill="#A4C0E0"/>
<path d="M67.0289 25.6027C67.2832 25.5786 67.539 25.6304 67.7639 25.7517C67.9887 25.873 68.1725 26.0583 68.2921 26.284C68.4116 26.5098 68.4615 26.766 68.4354 27.0202C68.4092 27.2743 68.3083 27.515 68.1454 27.7117C67.9824 27.9085 67.7648 28.0525 67.5199 28.1255C67.2751 28.1985 67.0141 28.1973 66.77 28.1219C66.5259 28.0466 66.3096 27.9005 66.1486 27.7021C65.9875 27.5038 65.8889 27.2622 65.8653 27.0078C65.8336 26.6672 65.9383 26.328 66.1565 26.0646C66.3746 25.8012 66.6884 25.6351 67.0289 25.6027ZM66.9832 25.1213C66.6336 25.1545 66.3018 25.2906 66.0296 25.5125C65.7574 25.7343 65.5572 26.0319 65.4542 26.3676C65.3512 26.7033 65.3501 27.062 65.451 27.3983C65.5519 27.7346 65.7503 28.0334 66.0211 28.2569C66.2919 28.4804 66.6229 28.6186 66.9723 28.654C67.3216 28.6893 67.6736 28.6202 67.9837 28.4555C68.2937 28.2907 68.548 28.0377 68.7142 27.7284C68.8805 27.4192 68.9512 27.0675 68.9176 26.718C68.8955 26.4861 68.828 26.2608 68.7188 26.055C68.6097 25.8492 68.461 25.6669 68.2814 25.5187C68.1017 25.3704 67.8946 25.2589 67.6718 25.1908C67.4491 25.1226 67.215 25.099 66.9832 25.1213Z" fill="#333333"/>
<path d="M79.5282 70.2729C79.2043 74.2324 80.5937 82.173 88.743 82.2593" stroke="#333333" stroke-linecap="round"/>
<path d="M57.5713 98.8171C56.6335 101.87 54.5287 108.274 53.6118 109.472" stroke="#333333" stroke-linecap="round"/>
<path d="M75.7848 62.1019C75.5208 62.5219 75.3889 63.4338 75.7848 63.9377C76.2688 64.5536 77.2246 65.0175 77.5486 65.2695" stroke="#333333" stroke-linecap="round"/>
<path d="M86.4033 55.4788L88.1311 56.9546" stroke="#333333" stroke-linecap="round"/>
<path d="M80.9678 54.939L75.8564 53.8591" stroke="#333333" stroke-linecap="round"/>
<path d="M75.2808 70.417C75.8567 70.6329 77.3541 70.9353 78.7363 70.417C80.1185 69.8986 82.3118 67.6333 83.3077 66.6015C85.2874 64.3338 88.6422 58.7761 89.1029 57.1347C89.5637 55.4934 89.6788 52.6353 89.6788 51.4115" stroke="#333333" stroke-linecap="round"/>
<path d="M31.2586 70.9931L35.47 68.5814C30.5747 70.4532 27.863 65.3298 27.1191 62.5342C27.4911 62.1623 28.9765 61.3896 31.9425 61.2744C34.9085 61.1592 37.1378 59.5706 37.8817 58.7907L40.5094 56.0551C40.7853 55.4552 42.0284 54.3057 44.7928 54.5073C47.5572 54.7088 48.7043 53.3194 48.9322 52.5995L50.1561 50.4038C53.9236 48.1001 62.6176 42.8304 67.2538 40.1812C71.89 37.5319 77.6564 36.8696 79.9601 36.8696C80.824 36.9176 83.358 37.6471 86.5832 40.1812C89.8084 42.7152 90.0387 49.9719 89.7508 53.2834L87.1951 48.1361L71.1053 56.0551C69.1615 68.3294 61.8905 74.5206 53.8636 77.0043C47.442 78.9912 45.1407 86.0151 44.7928 89.2786L31.2586 70.9931Z" fill="#333333"/>
<path d="M35.47 68.5814L31.2586 70.9931L44.7928 89.2786C45.1407 86.0151 47.442 78.9912 53.8636 77.0043C61.8905 74.5206 69.1615 68.3294 71.1053 56.0551M35.47 68.5814C47.9964 60.3145 72.6603 46.2356 71.1053 56.0551M35.47 68.5814C30.5747 70.4532 27.863 65.3298 27.1191 62.5342C27.4911 62.1623 28.9765 61.3896 31.9425 61.2744C34.9085 61.1592 37.1378 59.5706 37.8817 58.7907L40.5094 56.0551C40.7853 55.4552 42.0284 54.3057 44.7928 54.5073C47.5572 54.7088 48.7043 53.3194 48.9322 52.5995L50.1561 50.4038C53.9236 48.1001 62.6176 42.8304 67.2538 40.1812C71.89 37.5319 77.6564 36.8696 79.9601 36.8696C80.824 36.9176 83.358 37.6471 86.5832 40.1812C89.8084 42.7152 90.0388 49.9719 89.7508 53.2834L87.1951 48.1361L71.1053 56.0551" stroke="#333333" stroke-linecap="round"/>
<path d="M86.6555 58.6466C86.6555 58.8454 86.5664 59.0066 86.3676 59.0066C86.1688 59.0066 86.1516 58.8454 86.1516 58.6466C86.1516 58.4478 86.1688 58.3586 86.3676 58.3586C86.5664 58.3586 86.6555 58.4478 86.6555 58.6466Z" fill="#333333"/>
<path d="M82.9117 58.8622V61.1299C82.9477 61.9218 82.7677 63.4984 81.7598 63.4696C80.7519 63.4408 80.284 63.4576 80.176 63.4696" stroke="#333333" stroke-linecap="round"/>
<path d="M79.6003 57.1869C79.6003 57.3857 79.5112 57.5468 79.3124 57.5468C79.1136 57.5468 79.0244 57.3857 79.0244 57.1869C79.0244 56.9881 79.1136 56.8269 79.3124 56.8269C79.5112 56.8269 79.6003 56.9881 79.6003 57.1869Z" fill="#333333"/>
<path d="M50.4805 105.908L56.3477 115.361" stroke="#333333" stroke-linecap="round"/>
<path d="M40.2934 118.421L37.1978 116.275C36.6938 115.459 35.8372 113.446 36.4419 111.919C37.1978 110.012 43.065 98.5291 43.317 97.1253C43.5185 96.0022 44.0249 92.2779 44.8288 88.9904C45.4167 86.6267 45.8006 75.8161 53.1436 73.9444C59.7668 72.0726 52.6757 65.7855 46.4125 61.634" stroke="#333333" stroke-linecap="round"/>
<path d="M65.0582 90.502C62.7905 87.4784 58.723 80.9633 58.1111 72.3245" stroke="#333333" stroke-linecap="round"/>
<path d="M43.209 97.0531L56.2752 101.984" stroke="#333333" stroke-linecap="round"/>
<path d="M58.3989 97.4133L46.4485 84.4551L46.5565 83.7352L46.9164 83.0513L47.4564 82.1514L48.1763 81.3235L59.4787 92.302L81.9038 94.4617L92.4144 99.2491L79.1321 103.784L58.3989 97.4133Z" fill="white"/>
<path d="M104.827 105.769C104.228 105.831 103.623 105.796 103.035 105.668L89.9484 102.808C88.4765 102.483 87.1935 101.588 86.3806 100.319C85.5677 99.0494 85.2912 97.5096 85.6117 96.0367L92.2393 65.7078C92.4934 64.5367 93.1118 63.4761 94.0058 62.678C94.8997 61.8799 96.0234 61.3853 97.2158 61.265C97.8149 61.2034 98.42 61.2385 99.008 61.369L112.094 64.2288C113.566 64.5532 114.849 65.448 115.662 66.7169C116.475 67.9858 116.751 69.5253 116.431 70.9978L109.803 101.327C109.549 102.498 108.93 103.558 108.036 104.356C107.142 105.154 106.019 105.649 104.827 105.769Z" fill="white"/>
<path d="M97.1988 60.7891L97.297 61.7513C97.8454 61.6952 98.3993 61.7274 98.9376 61.8464L112.024 64.7062C113.371 65.0023 114.546 65.8207 115.29 66.9818C116.035 68.143 116.288 69.5521 115.995 70.8999L112.682 86.0644L109.368 101.229C109.222 101.896 108.947 102.529 108.557 103.09C108.167 103.65 107.67 104.129 107.095 104.498C106.52 104.867 105.879 105.119 105.206 105.24C104.534 105.361 103.844 105.348 103.177 105.203L90.0905 102.343C88.7423 102.048 87.5662 101.23 86.8209 100.069C86.0756 98.9074 85.8223 97.4975 86.1166 96.1492L92.7442 65.8203C92.9762 64.7484 93.5418 63.7776 94.3598 63.047C95.1778 62.3164 96.2061 61.8637 97.2973 61.7537L97.1991 60.7915L97.1988 60.7891ZM97.1991 60.7915C95.9059 60.9239 94.6876 61.4614 93.718 62.3272C92.7483 63.193 92.0769 64.3429 91.7994 65.6129L85.1718 95.9418C84.8225 97.5406 85.1226 99.2128 86.0062 100.59C86.8897 101.968 88.2843 102.938 89.8831 103.287L102.969 106.147C104.568 106.497 106.24 106.196 107.618 105.313C108.995 104.429 109.966 103.035 110.315 101.436L116.943 71.1071C117.291 69.5083 116.991 67.8365 116.107 66.4591C115.224 65.0817 113.83 64.1114 112.231 63.7615L99.1453 60.904C98.5075 60.763 97.8513 60.7249 97.2015 60.7912L97.1991 60.7915Z" fill="#333333"/>
<path d="M96.5776 65.9651C96.8415 65.9373 97.1083 65.9727 97.3559 66.0684C97.6034 66.164 97.8247 66.3172 98.0014 66.5152C98.1781 66.7133 98.3051 66.9505 98.372 67.2074C98.4389 67.4642 98.4438 67.7333 98.3862 67.9924L98.3402 68.2085C98.2977 68.4281 98.2118 68.6369 98.0874 68.8228C97.9631 69.0086 97.8029 69.1678 97.6161 69.2909C97.4294 69.4139 97.22 69.4984 97.0002 69.5394C96.7803 69.5804 96.5545 69.577 96.336 69.5295C96.1175 69.482 95.9107 69.3913 95.7277 69.2627C95.5448 69.1341 95.3894 68.9703 95.2706 68.7808C95.1519 68.5913 95.0722 68.38 95.0363 68.1592C95.0004 67.9385 95.009 67.7128 95.0615 67.4955L95.1078 67.2817C95.1829 66.9358 95.3656 66.6225 95.6297 66.3869C95.8939 66.1512 96.2258 66.0052 96.5781 65.9699L96.5776 65.9651ZM96.5044 65.2483C96.0012 65.3015 95.5274 65.5113 95.1497 65.8481C94.772 66.1849 94.5095 66.6317 94.3991 67.1256L94.3531 67.3417C94.2855 67.6501 94.2793 67.9687 94.335 68.2795C94.3907 68.5902 94.5071 68.8869 94.6775 69.1526C94.848 69.4183 95.0692 69.6478 95.3284 69.8279C95.5877 70.0081 95.8799 70.1353 96.1884 70.2024C96.4968 70.2703 96.8155 70.2767 97.1264 70.2212C97.4372 70.1657 97.7341 70.0493 97.9999 69.8788C98.2656 69.7083 98.4951 69.487 98.6752 69.2276C98.8552 68.9681 98.9823 68.6757 99.049 68.3671L99.0977 68.1531C99.2303 67.5303 99.112 66.8804 98.7683 66.3443C98.4247 65.8083 97.8835 65.4295 97.2622 65.29C97.0133 65.237 96.7577 65.2229 96.5044 65.2483Z" fill="#333333"/>
<path d="M101.469 67.2135C101.646 67.1958 101.825 67.2063 101.999 67.2444C102.214 67.2915 102.418 67.3806 102.599 67.5065C102.78 67.6325 102.935 67.7928 103.053 67.9784C103.172 68.164 103.254 68.3712 103.292 68.5881C103.331 68.8051 103.327 69.0276 103.28 69.2429L103.231 69.4593C103.136 69.8942 102.872 70.2734 102.497 70.5135C102.123 70.7537 101.668 70.8352 101.233 70.74C100.798 70.6448 100.419 70.3807 100.179 70.006C99.9385 69.6312 99.857 69.1763 99.9522 68.7415L100.001 68.5251C100.075 68.1794 100.258 67.8662 100.521 67.6306C100.785 67.395 101.117 67.2489 101.469 67.2135ZM101.395 66.4919C100.891 66.5436 100.417 66.7533 100.039 67.0908C99.6613 67.4283 99.4 67.8765 99.2922 68.3713L99.2438 68.5877C99.1765 68.8962 99.1706 69.2149 99.2265 69.5257C99.2824 69.8365 99.3989 70.1332 99.5695 70.399C99.74 70.6647 99.9612 70.8942 100.22 71.0745C100.48 71.2547 100.772 71.3821 101.08 71.4494C101.389 71.5167 101.708 71.5226 102.018 71.4668C102.329 71.4109 102.626 71.2944 102.892 71.1238C103.157 70.9533 103.387 70.7321 103.567 70.4728C103.747 70.2135 103.875 69.9213 103.942 69.6128L103.988 69.3967C104.064 69.0266 104.053 68.6438 103.954 68.279C103.856 67.9143 103.673 67.5776 103.421 67.2961C103.169 67.0146 102.855 66.7961 102.503 66.6581C102.151 66.5201 101.772 66.4665 101.396 66.5015L101.395 66.4919Z" fill="#333333"/>
<path d="M106.367 68.4639C106.631 68.4403 106.896 68.4786 107.141 68.5758C107.387 68.673 107.607 68.8263 107.782 69.0236C107.958 69.2209 108.085 69.4566 108.154 69.7119C108.222 69.9671 108.23 70.2349 108.176 70.4936L108.13 70.7073C108.055 71.0529 107.873 71.3658 107.609 71.6014C107.345 71.837 107.014 71.9831 106.662 72.0189C106.485 72.0378 106.305 72.0274 106.131 71.988C105.697 71.8928 105.318 71.6291 105.078 71.2549C104.838 70.8806 104.756 70.4264 104.851 69.9919L104.897 69.7758C104.972 69.4298 105.155 69.1166 105.419 68.8809C105.683 68.6452 106.015 68.4993 106.367 68.4639ZM106.294 67.7423C105.79 67.7957 105.316 68.0059 104.938 68.3432C104.561 68.6804 104.299 69.1277 104.189 69.622L104.142 69.8357C104.009 70.4583 104.126 71.1084 104.469 71.645C104.812 72.1816 105.352 72.5613 105.973 72.7017C106.222 72.7551 106.478 72.7692 106.731 72.7435C107.235 72.6919 107.709 72.4826 108.087 72.1456C108.464 71.8085 108.726 71.3609 108.834 70.8664L108.88 70.6503C108.948 70.3419 108.954 70.0232 108.898 69.7125C108.842 69.4018 108.726 69.105 108.556 68.8393C108.385 68.5736 108.164 68.3442 107.905 68.164C107.645 67.9839 107.353 67.8567 107.045 67.7896C106.797 67.7344 106.542 67.7194 106.289 67.7452L106.294 67.7423Z" fill="#333333"/>
<path d="M111.254 69.7128C111.518 69.6855 111.785 69.7213 112.032 69.8173C112.28 69.9132 112.501 70.0665 112.678 70.2646C112.855 70.4627 112.982 70.7 113.05 70.9568C113.117 71.2137 113.122 71.4829 113.065 71.7422L113.017 71.9586C112.922 72.3934 112.658 72.7726 112.283 73.0128C111.908 73.253 111.453 73.3344 111.018 73.2392C110.583 73.144 110.204 72.88 109.964 72.5052C109.724 72.1304 109.642 71.6756 109.738 71.2407L109.786 71.0268C109.86 70.6807 110.043 70.367 110.306 70.1309C110.57 69.8948 110.902 69.7484 111.254 69.7128ZM111.18 68.9911C110.677 69.045 110.204 69.2554 109.827 69.5926C109.449 69.9297 109.187 70.3767 109.078 70.8706L109.029 71.087C108.893 71.7097 109.01 72.3609 109.355 72.8974C109.699 73.4338 110.242 73.8116 110.865 73.9476C111.173 74.0156 111.492 74.022 111.803 73.9665C112.113 73.9109 112.41 73.7946 112.676 73.6241C112.942 73.4536 113.171 73.2322 113.351 72.9728C113.531 72.7134 113.658 72.421 113.725 72.1123L113.767 71.9063C113.9 71.2835 113.782 70.6336 113.438 70.0976C113.094 69.5615 112.553 69.1827 111.932 69.0433C111.683 68.9881 111.427 68.9732 111.174 68.9991L111.18 68.9911Z" fill="#333333"/>
<path d="M95.1999 72.2602C95.3773 72.2425 95.5564 72.2529 95.7305 72.2911C96.1635 72.3896 96.5403 72.6544 96.7799 73.0282C97.0194 73.4021 97.1025 73.8551 97.0112 74.2896L96.9652 74.5057C96.8577 74.9281 96.5903 75.2922 96.2195 75.5212C95.8486 75.7502 95.4033 75.8262 94.9775 75.7331C94.5518 75.64 94.1788 75.3851 93.9374 75.0222C93.696 74.6593 93.605 74.2168 93.6836 73.7881L93.732 73.5717C93.807 73.2262 93.9894 72.9133 94.2531 72.6777C94.5168 72.4421 94.8482 72.2959 95.1999 72.2602ZM95.1263 71.5385C94.6225 71.5903 94.1479 71.7999 93.7703 72.1374C93.3927 72.4749 93.1314 72.9231 93.0236 73.418L92.9752 73.6344C92.8433 74.2567 92.962 74.906 93.3055 75.4415C93.649 75.977 94.1898 76.3555 94.8105 76.495C95.1191 76.563 95.438 76.5694 95.749 76.5139C96.06 76.4584 96.3571 76.342 96.623 76.1715C96.889 76.001 97.1187 75.7796 97.299 75.5202C97.4793 75.2607 97.6066 74.9682 97.6736 74.6595L97.7196 74.4433C97.7958 74.0733 97.7842 73.6905 97.6857 73.3257C97.5873 72.9609 97.4047 72.6243 97.1527 72.3428C96.9006 72.0613 96.5861 71.8428 96.2344 71.7048C95.8827 71.5668 95.5035 71.5131 95.1273 71.5481L95.1263 71.5385Z" fill="#333333"/>
<path d="M100.426 77.4265C100.105 77.4579 99.7818 77.4132 99.482 77.2959C99.1822 77.1787 98.9143 76.9922 98.7002 76.7518C98.4861 76.5113 98.3319 76.2237 98.2501 75.9123C98.1682 75.6009 98.1612 75.2746 98.2294 74.96L98.2778 74.7436C98.3194 74.4672 98.4172 74.2024 98.5653 73.9654C98.7134 73.7284 98.9087 73.5244 99.1389 73.3659C99.3691 73.2075 99.6294 73.098 99.9036 73.0443C100.178 72.9905 100.46 72.9937 100.733 73.0536C101.006 73.1135 101.264 73.2288 101.49 73.3924C101.717 73.5559 101.908 73.7643 102.05 74.0046C102.193 74.2448 102.285 74.5118 102.32 74.7891C102.356 75.0663 102.334 75.3478 102.256 75.6162L102.21 75.8323C102.119 76.2524 101.897 76.6328 101.577 76.9192C101.256 77.2055 100.853 77.3831 100.426 77.4265Z" fill="#A4C0E0"/>
<path d="M100.094 73.5106C100.358 73.4837 100.624 73.5198 100.872 73.616C101.119 73.7121 101.34 73.8655 101.517 74.0636C101.693 74.2616 101.82 74.4988 101.887 74.7554C101.954 75.0121 101.96 75.2811 101.903 75.5402L101.857 75.754C101.811 75.971 101.723 76.1768 101.598 76.3597C101.473 76.5425 101.313 76.6987 101.127 76.8193C100.941 76.9398 100.733 77.0224 100.514 77.0621C100.296 77.1018 100.073 77.0979 99.8561 77.0507C99.6395 77.0034 99.4345 76.9137 99.2528 76.7868C99.0711 76.6598 98.9163 76.4982 98.7975 76.3111C98.6786 76.124 98.598 75.9152 98.5602 75.6968C98.5225 75.4784 98.5284 75.2547 98.5776 75.0385L98.6236 74.8224C98.6987 74.4765 98.8815 74.1632 99.1456 73.9275C99.4097 73.6919 99.7417 73.5459 100.094 73.5106ZM100.02 72.7889C99.5168 72.8424 99.0428 73.0526 98.6651 73.3898C98.2874 73.7271 98.0251 74.1744 97.9152 74.6686L97.869 74.8824C97.7364 75.5051 97.8547 76.1551 98.1984 76.6911C98.542 77.2272 99.0832 77.606 99.7045 77.7454C99.9534 77.7986 100.209 77.8127 100.462 77.7872C100.966 77.7356 101.44 77.5264 101.818 77.1893C102.195 76.8523 102.457 76.4046 102.565 75.9101L102.614 75.6937C102.749 75.071 102.632 74.4198 102.288 73.8834C101.944 73.3469 101.401 72.9691 100.778 72.8331C100.53 72.7781 100.274 72.7632 100.02 72.7889Z" fill="#333333"/>
<path d="M104.985 74.7616C105.162 74.7432 105.341 74.7528 105.516 74.7901C105.731 74.8372 105.935 74.9263 106.116 75.0522C106.297 75.1782 106.451 75.3385 106.57 75.5241C106.689 75.7097 106.77 75.9169 106.809 76.1338C106.848 76.3508 106.843 76.5733 106.796 76.7886L106.752 76.9973C106.657 77.4322 106.393 77.8114 106.018 78.0515C105.643 78.2917 105.188 78.3732 104.753 78.278C104.319 78.1828 103.939 77.9187 103.699 77.544C103.459 77.1692 103.378 76.7143 103.473 76.2795L103.521 76.0655C103.596 75.72 103.779 75.407 104.042 75.1714C104.306 74.9358 104.638 74.7897 104.989 74.7539L104.985 74.7616ZM104.916 74.0323C104.412 74.0835 103.937 74.2926 103.56 74.6297C103.182 74.9668 102.921 75.4147 102.813 75.9093L102.764 76.1257C102.697 76.4342 102.691 76.753 102.747 77.0637C102.803 77.3745 102.919 77.6712 103.09 77.937C103.261 78.2027 103.482 78.4322 103.741 78.6125C104 78.7927 104.292 78.9201 104.601 78.9874C104.909 79.0548 105.228 79.0606 105.539 79.0048C105.85 78.9489 106.146 78.8324 106.412 78.6618C106.678 78.4913 106.907 78.2701 107.088 78.0108C107.268 77.7515 107.395 77.4593 107.463 77.1508L107.509 76.9371C107.642 76.3143 107.523 75.6644 107.18 75.1283C106.836 74.5923 106.295 74.2135 105.673 74.074C105.425 74.0208 105.169 74.0067 104.916 74.0323Z" fill="#333333"/>
<path d="M109.879 76.0098C110.142 75.9862 110.407 76.0245 110.653 76.1217C110.899 76.2188 111.118 76.3722 111.294 76.5695C111.47 76.7668 111.597 77.0025 111.666 77.2578C111.734 77.513 111.742 77.7807 111.688 78.0395L111.642 78.2532C111.596 78.4702 111.509 78.6761 111.383 78.8589C111.258 79.0418 111.098 79.198 110.912 79.3186C110.726 79.4391 110.518 79.5216 110.3 79.5613C110.082 79.6011 109.858 79.5972 109.641 79.5499C109.425 79.5027 109.22 79.413 109.038 79.2861C108.856 79.1591 108.701 78.9974 108.583 78.8103C108.464 78.6233 108.383 78.4145 108.345 78.1961C108.308 77.9777 108.314 77.7539 108.363 77.5378L108.409 77.3217C108.484 76.9757 108.667 76.6625 108.931 76.4268C109.195 76.1911 109.527 76.0452 109.879 76.0098ZM109.805 75.2882C109.302 75.3416 108.828 75.5518 108.45 75.8891C108.073 76.2263 107.81 76.6736 107.7 77.1679L107.654 77.3816C107.522 78.0044 107.64 78.6544 107.984 79.1904C108.327 79.7264 108.868 80.1053 109.49 80.2447C109.798 80.3126 110.117 80.319 110.428 80.2635C110.739 80.208 111.035 80.0916 111.301 79.9211C111.567 79.7506 111.796 79.5293 111.976 79.2699C112.157 79.0105 112.284 78.718 112.35 78.4094L112.396 78.1933C112.532 77.5708 112.416 76.9199 112.072 76.3834C111.728 75.847 111.186 75.4689 110.563 75.3324C110.315 75.2774 110.059 75.2625 109.805 75.2882Z" fill="#333333"/>
<path d="M99.3152 61.7789L112.275 64.6102C112.163 65.1208 111.853 65.5662 111.413 65.8484C110.973 66.1306 110.439 66.2264 109.929 66.1149L100.82 64.1248C100.309 64.0132 99.8638 63.7034 99.5817 63.2635C99.2995 62.8235 99.2036 62.2895 99.3152 61.7789Z" fill="#333333"/>
<path d="M91.5425 100.371L102.513 102.768" stroke="#333333" stroke-miterlimit="10" stroke-linecap="round"/>
<path d="M104.199 92.4843L94.4762 90.3601C93.516 90.1503 92.4486 91.3027 92.0922 92.9341C91.7358 94.5655 92.2253 96.0581 93.1855 96.2679L102.909 98.3921C103.869 98.6019 104.936 97.4495 105.293 95.8181C105.649 94.1867 105.16 92.6941 104.199 92.4843Z" fill="#A4C0E0"/>
<path d="M21 115.649L36.6219 115.649" stroke="#333333" stroke-linecap="round"/>
<path d="M56.563 115.649L140 115.649" stroke="#333333" stroke-linecap="round"/>
<path d="M51.1529 107.453L46.6985 108.132M50.5547 106.128L45.4916 105.702" stroke="#333333" stroke-linecap="round"/>
<path d="M54.5023 75.972L52.9497 79.7233M55.9595 76.0605C55.9508 76.7297 55.8025 78.2851 55.2798 79.1539M57.802 75.6103L57.4745 78.6176" stroke="#333333" stroke-linecap="round"/>
<path d="M88.6867 80H89.5616C89.8506 80 90.1363 80.0613 90.3998 80.1799C90.9873 80.4443 91.4156 80.9704 91.5554 81.5994L91.6213 81.896C91.8511 82.9298 91.4429 84.0011 90.5834 84.62L90.1483 84.9332C89.2581 85.5742 88.0627 85.5923 87.1535 84.9786C86.4323 84.4918 86 83.6785 86 82.8084V82.6867C86 82.1108 86.185 81.5502 86.5278 81.0875C87.0345 80.4034 87.8354 80 88.6867 80Z" fill="white"/>
<path d="M89.6481 80.0573C91.0648 80.3015 92.0199 80.1775 92.1358 81.6836C92.1976 82.4874 92.2785 83.5033 91.7985 84.1833C91.3343 84.841 90.0354 85.617 89.2144 85.6952C88.5486 85.7586 88.4687 85.8515 88 85.5" stroke="#333333" stroke-linecap="round" stroke-linejoin="round"/>
<path d="M89.5 80C88.2289 80.2034 86.7117 79.922 86.4802 81.491C86.3288 82.5169 86.418 83.2971 86.8296 84.2437C87.2029 85.1023 87.12 85.28 88 85.5" stroke="#333333" stroke-linecap="round" stroke-linejoin="round"/>
<path d="M112 96.5H110.5H109.5L112 85.5L113 85L114 86L112 96.5Z" fill="white"/>
<path d="M110.7 96.5509C110.159 96.5283 109.541 96.2832 109.102 95.9696C108.524 95.5567 108.406 94.8772 108.41 94.2079C108.413 93.7663 108.419 93.2614 108.618 92.8552C108.775 92.534 109.087 92.3516 109.396 92.2031C109.805 92.0066 110 92.1877 110.448 92.2031C110.68 92.2111 111.104 92.126 111.328 92.1346C111.332 92.1347 110.98 91.9324 110.88 91.8879C110.579 91.754 110.191 91.7541 109.986 91.4781C109.771 91.1878 109.765 90.8275 109.809 90.479C109.893 89.8188 110.204 89.4429 110.824 89.2081C111.197 89.0666 111.379 89.0803 111.78 89.0803C111.849 89.0803 112.046 88.8672 111.888 88.7923C111.512 88.6141 111.403 88.5452 111.058 88.3062C110.651 88.0241 110.29 87.5996 110.309 87.0795C110.332 86.4219 111.128 85.8944 111.651 85.6383C112.184 85.3768 112.766 85.1199 113.366 85.2913" stroke="#333333" stroke-linecap="round" stroke-linejoin="round"/>
<path d="M111 96.5001C111.545 96.3937 112.357 96.3224 112.779 95.9002C113.335 95.3445 113.461 94.9085 113.461 94.1409C113.461 93.8776 113.467 93.6135 113.461 93.3504C113.458 93.2155 113.314 93.0019 113.434 92.8815C113.621 92.6944 113.932 92.7096 114.089 92.4824C114.278 92.2091 114.322 91.9541 114.383 91.6298C114.497 91.0284 114.647 90.6234 114.453 90.0411C114.392 89.8584 114.414 89.6382 114.577 89.5334C114.812 89.3825 114.889 89.1279 114.961 88.8708C115.119 88.2997 114.984 87.6407 114.732 86.9928C114.497 86.4593 114.21 86.0908 113.832 85.841C113.65 85.7211 113.279 85.4108 113.084 85.3181" stroke="#333333" stroke-linecap="round" stroke-linejoin="round"/>
</svg>
