<svg width="137" height="131" viewBox="0 0 137 131" fill="none" xmlns="http://www.w3.org/2000/svg">
<path d="M81.5903 99.5752L32.8916 93.9126L27.7952 113.166L40.8193 119.395H87.8193L81.5903 99.5752Z" fill="white"/>
<path d="M43.0844 98.4427L29.494 85.9849L26.6626 98.4427L19.3013 114.298C16.5832 116.563 21.1888 121.66 23.8314 123.925L42.5181 121.66L37.988 112.599L43.0844 98.4427Z" fill="white"/>
<circle cx="65.1685" cy="60.503" r="44.7349" fill="white"/>
<path d="M47.4457 97.7505C68.1343 107.954 93.1769 99.4533 103.38 78.7647C113.583 58.0761 105.083 33.0335 84.3941 22.8304C63.7055 12.6274 38.6629 21.1276 28.4599 41.8162C18.2568 62.5048 26.757 87.5475 47.4457 97.7505Z" stroke="#231F20" stroke-linecap="round" stroke-linejoin="round" stroke-dasharray="14.25 14.25"/>
<path d="M81.6511 36.1661C80.6402 35.2861 79.9471 34.0976 79.6791 32.7844C79.4111 31.4711 79.5829 30.1061 80.1682 28.9003L88.9085 10.9232C89.6159 9.4697 90.8715 8.3565 92.3994 7.8283C93.9272 7.30009 95.6022 7.4001 97.0564 8.10634L116.435 17.5298C117.156 17.8786 117.8 18.3663 118.332 18.9649C118.864 19.5636 119.273 20.2613 119.534 21.0182C119.796 21.7751 119.905 22.5761 119.856 23.3754C119.807 24.1747 119.601 24.9565 119.25 25.6759L110.507 43.6511C110.157 44.3709 109.669 45.0147 109.07 45.5458C108.471 46.0769 107.774 46.4847 107.017 46.7461C106.261 47.0075 105.46 47.1173 104.661 47.0692C103.862 47.0212 103.081 46.8162 102.361 46.4659L82.9827 37.0425C82.5024 36.8098 82.0548 36.5152 81.6511 36.1661Z" fill="white"/>
<path d="M118.131 17.9979L117.413 18.8253C118.333 19.6262 118.963 20.7075 119.207 21.9023C119.451 23.097 119.296 24.339 118.764 25.4365L110.022 43.4118C109.381 44.7348 108.241 45.7492 106.852 46.2322C105.463 46.7152 103.94 46.6273 102.616 45.9878L83.2376 36.5644C82.7994 36.353 82.3913 36.0842 82.0241 35.7651C81.1038 34.9646 80.4727 33.8833 80.2285 32.6883C79.9843 31.4933 80.1404 30.2512 80.6728 29.1538L89.4026 11.1639C90.0465 9.84232 91.1886 8.8303 92.5781 8.35014C93.9676 7.86997 95.4909 7.96093 96.8134 8.60304L116.194 18.0244C116.632 18.2376 117.041 18.5069 117.409 18.8255L118.127 17.9982L118.131 17.9979ZM118.127 17.9982C117.687 17.6162 117.198 17.2944 116.673 17.0412L97.295 7.61776C95.7108 6.84794 93.8857 6.73872 92.221 7.31412C90.5563 7.88953 89.1882 9.10245 88.4176 10.6862L79.6772 28.6633C79.0359 29.9773 78.8462 31.4662 79.1375 32.8991C79.4288 34.3319 80.1848 35.6286 81.2883 36.5878C81.7287 36.9692 82.2168 37.2916 82.7403 37.5469L102.121 46.9683C102.905 47.3498 103.757 47.5731 104.627 47.6254C105.498 47.6777 106.37 47.5579 107.195 47.273C108.019 46.9881 108.779 46.5435 109.432 45.9647C110.085 45.3859 110.617 44.6843 110.998 43.8998L119.74 25.9246C120.381 24.6104 120.57 23.1217 120.279 21.6891C119.987 20.2564 119.232 18.9598 118.129 18L118.127 17.9982Z" fill="#231F20"/>
<path d="M93.8854 11.2758C93.6785 11.0949 93.5367 10.8512 93.4815 10.582C93.4263 10.3128 93.4609 10.0329 93.5799 9.78522L95.2425 6.36942C95.3881 6.07128 95.646 5.843 95.9596 5.73458C96.2732 5.62615 96.6169 5.64641 96.9156 5.79092C97.0151 5.83818 97.1076 5.89891 97.1905 5.97141C97.3983 6.15213 97.5406 6.39635 97.5955 6.66622C97.6504 6.93608 97.6148 7.21652 97.4941 7.46406L95.8334 10.8778C95.7615 11.0257 95.6613 11.158 95.5383 11.2671C95.4153 11.3762 95.272 11.46 95.1166 11.5137C94.9613 11.5674 94.7968 11.59 94.6327 11.5802C94.4686 11.5703 94.3081 11.5282 94.1602 11.4563C94.0614 11.4079 93.9691 11.3472 93.8854 11.2758Z" fill="white"/>
<path d="M97.0109 6.17816C97.1732 6.3196 97.2845 6.51055 97.3275 6.72153C97.3705 6.9325 97.3428 7.15177 97.2488 7.34546L95.588 10.7592C95.5317 10.8746 95.4532 10.9778 95.357 11.0628C95.2608 11.1479 95.1488 11.2132 95.0274 11.2549C94.906 11.2967 94.7775 11.3141 94.6493 11.3063C94.5212 11.2984 94.3958 11.2653 94.2804 11.2089C94.0481 11.095 93.8702 10.8938 93.7856 10.6492C93.7011 10.4046 93.7166 10.1366 93.8289 9.9034L95.4896 6.48966C95.6047 6.2598 95.8054 6.08433 96.0486 6.00104C96.2918 5.91774 96.558 5.93329 96.7898 6.04433C96.8668 6.08246 96.9387 6.13021 97.0037 6.18643L97.0109 6.17816ZM97.3626 5.77278C97.2614 5.68487 97.1491 5.61059 97.0286 5.55183C96.6644 5.37509 96.2449 5.35012 95.8623 5.48238C95.4797 5.61465 95.1652 5.89335 94.9879 6.25729L93.3292 9.67283C93.1524 10.0367 93.1273 10.456 93.2596 10.8383C93.3919 11.2207 93.6706 11.5348 94.0345 11.7117C94.3984 11.8885 94.8177 11.9135 95.2 11.7812C95.5824 11.649 95.8965 11.3702 96.0733 11.0063L97.7359 7.59052C97.8825 7.2885 97.9255 6.94662 97.8584 6.6177C97.7912 6.28877 97.6177 5.99111 97.3644 5.77071L97.3626 5.77278Z" fill="#231F20"/>
<path d="M101.117 14.7919C100.909 14.6109 100.767 14.3667 100.712 14.0969C100.658 13.8272 100.693 13.5469 100.813 13.2992L102.47 9.88577C102.616 9.58763 102.874 9.35936 103.187 9.25093C103.501 9.14251 103.844 9.16276 104.143 9.30727C104.243 9.35453 104.335 9.41527 104.418 9.48776C104.624 9.66869 104.765 9.91201 104.819 10.1805C104.873 10.4491 104.838 10.728 104.719 10.9748L103.067 14.3918C102.921 14.69 102.663 14.9182 102.349 15.0267C102.036 15.1351 101.692 15.1148 101.393 14.9703C101.293 14.9238 101.2 14.8638 101.117 14.7919Z" fill="white"/>
<path d="M104.24 9.69249C104.403 9.83393 104.514 10.0249 104.557 10.2359C104.6 10.4468 104.572 10.6661 104.478 10.8598L102.817 14.2735C102.761 14.3902 102.683 14.4947 102.586 14.5808C102.49 14.667 102.377 14.7331 102.255 14.7754C102.134 14.8178 102.005 14.8356 101.877 14.8277C101.749 14.8198 101.623 14.7863 101.508 14.7292C101.43 14.693 101.357 14.6459 101.293 14.5892C101.13 14.4477 101.019 14.2568 100.976 14.0458C100.933 13.8348 100.961 13.6156 101.055 13.4219L102.715 10.0081C102.83 9.77548 103.031 9.59731 103.276 9.51236C103.521 9.42742 103.789 9.44257 104.023 9.55453C104.1 9.59266 104.172 9.64041 104.237 9.69663L104.24 9.69249ZM104.596 9.28298C104.495 9.19567 104.383 9.12199 104.264 9.06382C104.083 8.97594 103.888 8.92448 103.687 8.91238C103.487 8.90028 103.287 8.92778 103.097 8.9933C102.907 9.05883 102.733 9.1611 102.583 9.29425C102.433 9.4274 102.31 9.58882 102.223 9.76928L100.562 13.183C100.385 13.5472 100.36 13.9667 100.493 14.3493C100.625 14.732 100.904 15.0465 101.268 15.2238C101.448 15.3113 101.644 15.3624 101.844 15.3742C102.044 15.386 102.244 15.3583 102.433 15.2926C102.623 15.2269 102.797 15.1246 102.947 14.9914C103.097 14.8582 103.219 14.6969 103.306 14.5165L104.973 11.1004C105.119 10.7984 105.162 10.4565 105.095 10.1276C105.028 9.7987 104.854 9.50104 104.601 9.28063L104.596 9.28298Z" fill="#231F20"/>
<path d="M108.415 18.3406C108.207 18.1597 108.064 17.9153 108.009 17.6452C107.954 17.375 107.989 17.0942 108.109 16.8461L109.77 13.4324C109.916 13.1343 110.174 12.906 110.487 12.7976C110.801 12.6891 111.145 12.7094 111.443 12.8539C111.542 12.9023 111.634 12.963 111.718 13.0344C111.925 13.2154 112.068 13.4596 112.122 13.7293C112.177 13.9991 112.142 14.2794 112.022 14.527L110.363 17.9426C110.217 18.2409 109.959 18.4692 109.645 18.5773C109.331 18.6854 108.986 18.6646 108.688 18.5193C108.589 18.4725 108.497 18.4123 108.415 18.3406Z" fill="white"/>
<path d="M111.538 13.2411C111.7 13.3825 111.812 13.5735 111.855 13.7844C111.898 13.9954 111.87 14.2147 111.776 14.4084L110.115 17.8221C110.059 17.9376 109.981 18.0409 109.885 18.1261C109.788 18.2114 109.676 18.2768 109.555 18.3187C109.434 18.3607 109.305 18.3783 109.177 18.3706C109.049 18.3629 108.923 18.33 108.808 18.2738C108.575 18.1603 108.396 17.9588 108.311 17.7136C108.226 17.4684 108.243 17.1996 108.356 16.9663L110.017 13.5526C110.13 13.3197 110.331 13.1414 110.576 13.0567C110.821 12.9721 111.089 12.988 111.322 13.101C111.4 13.1384 111.472 13.1855 111.538 13.2411ZM111.897 12.8274C111.72 12.6761 111.51 12.567 111.285 12.5086C111.059 12.4501 110.823 12.4438 110.594 12.4901C110.366 12.5364 110.151 12.6341 109.966 12.7757C109.781 12.9174 109.63 13.0994 109.526 13.3078L107.856 16.7357C107.769 16.9159 107.718 17.1116 107.706 17.3116C107.694 17.5115 107.721 17.7119 107.787 17.9012C107.852 18.0906 107.954 18.2651 108.087 18.415C108.22 18.5648 108.382 18.687 108.562 18.7746C108.742 18.8621 108.938 18.9133 109.138 18.9253C109.338 18.9372 109.538 18.9097 109.727 18.8442C109.917 18.7787 110.091 18.6765 110.241 18.5436C110.391 18.4106 110.513 18.2494 110.601 18.0692L112.261 14.6555C112.407 14.3534 112.45 14.0116 112.383 13.6828C112.316 13.354 112.143 13.0564 111.89 12.8357L111.897 12.8274Z" fill="#231F20"/>
<path d="M115.711 21.8869C115.501 21.7057 115.358 21.4602 115.302 21.1886C115.247 20.9171 115.284 20.635 115.407 20.3865L117.066 16.9748C117.211 16.6759 117.469 16.4468 117.783 16.3379C118.097 16.2291 118.441 16.2493 118.74 16.3943C118.839 16.4434 118.93 16.5048 119.013 16.5768C119.221 16.7578 119.363 17.002 119.418 17.2718C119.473 17.5415 119.437 17.8218 119.317 18.0695L117.656 21.4832C117.51 21.7808 117.252 22.0086 116.939 22.117C116.626 22.2254 116.282 22.2055 115.983 22.0617C115.886 22.0149 115.794 21.9562 115.711 21.8869Z" fill="white"/>
<path d="M118.835 16.7914C118.997 16.9324 119.108 17.1232 119.151 17.334C119.194 17.5448 119.165 17.7638 119.07 17.9569L117.414 21.3704C117.3 21.6038 117.098 21.7824 116.852 21.8671C116.607 21.9518 116.338 21.9357 116.104 21.8222C116.027 21.7842 115.955 21.7364 115.89 21.6801C115.729 21.5387 115.617 21.3483 115.574 21.1378C115.531 20.9274 115.558 20.7086 115.651 20.5148L117.311 17.1011C117.367 16.9853 117.446 16.8817 117.542 16.7963C117.638 16.7109 117.751 16.6453 117.872 16.6033C117.994 16.5613 118.123 16.5438 118.251 16.5517C118.38 16.5596 118.505 16.5927 118.621 16.6493C118.698 16.6873 118.77 16.735 118.835 16.7914ZM119.194 16.3777C119.017 16.2243 118.808 16.1134 118.582 16.0537C118.356 15.9941 118.119 15.9872 117.89 16.0336C117.66 16.08 117.445 16.1786 117.26 16.3215C117.075 16.4645 116.925 16.6481 116.822 16.8581L115.162 20.2719C114.984 20.6358 114.959 21.0553 115.091 21.438C115.223 21.8208 115.501 22.1354 115.865 22.3128C116.229 22.4901 116.649 22.5156 117.031 22.3837C117.414 22.2517 117.729 21.9732 117.906 21.6092L119.567 18.1955C119.713 17.8935 119.756 17.5516 119.689 17.2227C119.622 16.8937 119.449 16.5961 119.195 16.3757L119.194 16.3777Z" fill="#231F20"/>
<path d="M88.86 11.3344L118.962 25.9738" stroke="#231F20" stroke-width="0.5" stroke-miterlimit="10"/>
<path d="M113.918 26.8067C114.162 27.02 114.328 27.3077 114.392 27.6253C114.456 27.9429 114.414 28.2728 114.271 28.5637L107.106 43.3214C107.022 43.4953 106.905 43.6509 106.76 43.7794C106.616 43.9078 106.448 44.0064 106.265 44.0696C106.083 44.1329 105.889 44.1595 105.696 44.1479C105.504 44.1363 105.315 44.0867 105.141 44.002L83.4165 33.4343C83.3013 33.3775 83.1939 33.3061 83.0967 33.2221C82.852 33.0094 82.6847 32.7216 82.6207 32.4038C82.5568 32.0859 82.5999 31.7559 82.7433 31.4651L89.9123 16.711C90.083 16.3611 90.3855 16.0931 90.7535 15.9659C91.1215 15.8387 91.5249 15.8626 91.8753 16.0324L113.594 26.5947C113.711 26.6502 113.82 26.7215 113.918 26.8067ZM114.456 26.1862C114.304 26.0538 114.135 25.9423 113.953 25.8549L92.2366 15.2944C91.69 15.0291 91.0605 14.9917 90.4863 15.1903C89.9122 15.3889 89.4403 15.8073 89.1745 16.3537L81.9999 31.11C81.779 31.5634 81.714 32.077 81.815 32.5711C81.9159 33.0653 82.1772 33.5122 82.5583 33.8426C82.7099 33.9738 82.8776 34.0853 83.0573 34.1741L104.786 44.7416C105.056 44.8735 105.35 44.9507 105.65 44.969C105.95 44.9872 106.251 44.9461 106.535 44.8479C106.82 44.7497 107.082 44.5964 107.307 44.3967C107.532 44.1971 107.715 43.955 107.846 43.6844L115.023 28.926C115.243 28.4729 115.308 27.9599 115.207 27.4663C115.107 26.9727 114.846 26.526 114.466 26.1952L114.456 26.1862Z" fill="#231F20"/>
<path d="M87.1047 20.6019L112.945 33.167" stroke="#231F20" stroke-width="0.5" stroke-miterlimit="10"/>
<path d="M84.1856 26.6109L110.023 39.1742" stroke="#231F20" stroke-width="0.5" stroke-miterlimit="10"/>
<path d="M87.8613 36.3849L96.9915 17.6077" stroke="#231F20" stroke-width="0.5" stroke-miterlimit="10"/>
<path d="M100.322 42.4445L109.456 23.667" stroke="#231F20" stroke-width="0.5" stroke-miterlimit="10"/>
<path d="M93.8684 39.3063L102.999 20.5291" stroke="#231F20" stroke-width="0.5" stroke-miterlimit="10"/>
<path d="M90.5996 34.1816L91.3339 35.3409L94.9089 33.5485" stroke="#4980C1" stroke-linecap="round" stroke-linejoin="round"/>
<path d="M96.5684 37.0847L97.3006 38.2422L100.876 36.4498" stroke="#4980C1" stroke-linecap="round" stroke-linejoin="round"/>
<path d="M99.5336 30.9812L100.27 32.1385L103.845 30.3461" stroke="#4980C1" stroke-linecap="round" stroke-linejoin="round"/>
<path d="M106.027 34.1404L106.761 35.2959L110.336 33.5035" stroke="#4980C1" stroke-linecap="round" stroke-linejoin="round"/>
<path d="M84.5382 31.2352L85.2705 32.3927L88.8473 30.5982" stroke="#4980C1" stroke-linecap="round" stroke-linejoin="round"/>
<ellipse cx="39.4677" cy="77.3671" rx="5.27682" ry="2.9694" transform="rotate(-41.5374 39.4677 77.3671)" fill="#4980C1" fill-opacity="0.5"/>
<ellipse cx="30.5566" cy="110.658" rx="4.76289" ry="2.46902" transform="rotate(-15.1524 30.5566 110.658)" fill="#4980C1" fill-opacity="0.5"/>
<ellipse cx="36.1065" cy="109.673" rx="2.33468" ry="1.05422" transform="rotate(45.1129 36.1065 109.673)" fill="#4980C1" fill-opacity="0.5"/>
<path d="M54.5054 29.9532C61.219 29.3157 66.1447 23.3566 65.5073 16.6429C64.8699 9.92933 58.9107 5.00361 52.1971 5.64102C45.4835 6.27844 40.5577 12.2376 41.1952 18.9512C41.8326 25.6648 47.7918 30.5906 54.5054 29.9532Z" fill="white"/>
<path d="M52.2615 6.3195C54.5315 6.10398 56.8145 6.56643 58.8216 7.64837C60.8288 8.7303 62.47 10.3831 63.5378 12.3979C64.6056 14.4126 65.052 16.6987 64.8205 18.9671C64.5891 21.2355 63.6901 23.3843 62.2374 25.1419C60.7847 26.8994 58.8434 28.1866 56.6591 28.8409C54.4748 29.4951 52.1455 29.4869 49.9658 28.8173C47.7862 28.1478 45.854 26.8469 44.4137 25.0792C42.9733 23.3115 42.0895 21.1564 41.874 18.8864C41.588 15.8431 42.5211 12.8106 44.4686 10.4545C46.416 8.09845 49.2188 6.61131 52.2615 6.3195ZM52.1321 4.95641C49.5924 5.197 47.181 6.18534 45.203 7.79644C43.225 9.40755 41.7692 11.569 41.0197 14.0076C40.2701 16.4461 40.2606 19.0521 40.9922 21.4961C41.7239 23.94 43.1638 26.1121 45.13 27.7377C47.0962 29.3632 49.5002 30.3692 52.0382 30.6284C54.5761 30.8875 57.1339 30.3883 59.388 29.1937C61.6422 27.9992 63.4915 26.163 64.702 23.9174C65.9126 21.6718 66.43 19.1176 66.1889 16.5779C65.8656 13.1729 64.2031 10.0357 61.567 7.85635C58.931 5.67697 55.5372 4.63385 52.1321 4.95641Z" fill="#231F20"/>
<path d="M57.7728 8.91573L53.6656 19.4587L46.3848 16.6235" stroke="#231F20" stroke-width="0.5" stroke-linecap="round" stroke-linejoin="round"/>
<path d="M53.6123 20.5422C54.5668 20.4516 55.2672 19.6043 55.1766 18.6497C55.0859 17.6951 54.2386 16.9948 53.2841 17.0854C52.3295 17.176 51.6291 18.0233 51.7198 18.9779C51.8104 19.9325 52.6577 20.6328 53.6123 20.5422Z" fill="#A4C0E0"/>
<path d="M53.3096 17.3606C53.5977 17.3333 53.8873 17.392 54.142 17.5293C54.3967 17.6667 54.6049 17.8765 54.7402 18.1322C54.8756 18.3879 54.9321 18.6781 54.9025 18.9659C54.8729 19.2537 54.7586 19.5263 54.5741 19.7491C54.3895 19.972 54.143 20.1351 53.8658 20.2177C53.5885 20.3004 53.2929 20.299 53.0165 20.2137C52.74 20.1283 52.4951 19.9629 52.3127 19.7383C52.1303 19.5137 52.0186 19.24 51.9918 18.9519C51.9559 18.5662 52.0745 18.182 52.3216 17.8837C52.5687 17.5854 52.924 17.3972 53.3096 17.3606ZM53.2579 16.8154C52.862 16.853 52.4861 17.0071 52.1779 17.2584C51.8697 17.5096 51.6429 17.8467 51.5262 18.2268C51.4096 18.607 51.4083 19.0132 51.5226 19.3941C51.6369 19.775 51.8616 20.1134 52.1683 20.3666C52.475 20.6197 52.8499 20.7762 53.2455 20.8162C53.6411 20.8563 54.0398 20.778 54.3909 20.5914C54.7421 20.4049 55.03 20.1183 55.2183 19.768C55.4066 19.4178 55.4867 19.0195 55.4486 18.6237C55.4237 18.361 55.3472 18.1059 55.2236 17.8728C55.0999 17.6398 54.9316 17.4333 54.7281 17.2654C54.5246 17.0974 54.2901 16.9712 54.0378 16.894C53.7855 16.8168 53.5205 16.7901 53.2579 16.8154Z" fill="#231F20"/>
<path d="M67.4657 67.9509C67.0988 72.4351 68.6724 81.428 77.9017 81.5259" stroke="black" stroke-width="0.5" stroke-linecap="round"/>
<path d="M42.5987 100.278C41.5367 103.735 39.153 110.989 38.1145 112.345" stroke="black" stroke-width="0.5" stroke-linecap="round"/>
<path d="M63.2261 58.697C62.9272 59.1726 62.7777 60.2054 63.2261 60.7761C63.7742 61.4737 64.8568 61.999 65.2236 62.2844" stroke="black" stroke-width="0.5" stroke-linecap="round"/>
<path d="M75.252 51.196L77.2087 52.8674" stroke="black" stroke-width="0.5" stroke-linecap="round"/>
<path d="M69.0961 50.5848L63.3074 49.3618" stroke="black" stroke-width="0.5" stroke-linecap="round"/>
<path d="M62.6553 68.1139C63.3075 68.3585 65.0034 68.7009 66.5688 68.1139C68.1342 67.5268 70.6182 64.9613 71.746 63.7927C73.9881 61.2245 77.7875 54.9303 78.3093 53.0713C78.8311 51.2124 78.9615 47.9756 78.9615 46.5896" stroke="black" stroke-width="0.5" stroke-linecap="round"/>
<path d="M13.7748 68.2076L17.5685 66.0351C12.3331 68.0369 9.30304 62.9743 8.27237 59.7382C8.16414 59.3983 8.26845 59.029 8.57909 58.8538C9.35714 58.415 10.9564 57.8613 13.5734 57.7597C16.9325 57.6293 19.4573 55.8301 20.2998 54.9469L23.1588 51.9703C23.2362 51.8898 23.297 51.7958 23.3556 51.7008C23.7894 50.9979 25.2107 49.8831 28.1268 50.0958C31.1399 50.3155 32.4564 48.8663 32.7813 48.0302C32.8056 47.9675 32.8313 47.9056 32.8641 47.8468L34.073 45.6778C34.1568 45.5275 34.2741 45.4037 34.4209 45.314C38.7977 42.6395 48.4023 36.8209 53.5645 33.871C58.8152 30.8707 65.3458 30.1206 67.9548 30.1206C68.9332 30.175 71.8031 31.0011 75.4557 33.871C78.1816 36.0128 79.0185 41.1333 79.1321 45.1526C79.1607 46.1627 77.909 46.4256 77.4596 45.5205L77.035 44.6654C76.545 43.6785 75.3491 43.2738 74.3605 43.7604L57.9265 51.8487C55.7251 65.7498 47.4905 72.7615 38.3997 75.5743C32.5167 77.3946 29.6872 82.9477 28.6121 86.9597C28.3762 87.84 27.1428 88.1459 26.6006 87.4134L13.4679 69.6703C13.1118 69.1892 13.2553 68.5051 13.7748 68.2076Z" fill="black"/>
<path d="M17.5685 66.0351L13.7748 68.2076C13.2553 68.5051 13.1118 69.1892 13.4679 69.6703L26.6006 87.4134C27.1428 88.1459 28.3762 87.84 28.6121 86.9597C29.6872 82.9477 32.5167 77.3946 38.3997 75.5743C47.4905 72.7615 55.7251 65.7498 57.9265 51.8487M17.5685 66.0351C31.7549 56.6726 59.6875 40.7278 57.9265 51.8487M17.5685 66.0351C12.3331 68.0369 9.30304 62.9743 8.27237 59.7382C8.16414 59.3983 8.26845 59.029 8.57909 58.8538C9.35714 58.415 10.9564 57.8613 13.5734 57.7597C16.9325 57.6293 19.4573 55.8301 20.2998 54.9469L23.1588 51.9703C23.2362 51.8898 23.297 51.7958 23.3556 51.7008C23.7894 50.9979 25.2107 49.8831 28.1268 50.0958C31.1399 50.3155 32.4564 48.8663 32.7813 48.0302C32.8056 47.9675 32.8313 47.9056 32.8641 47.8468L34.073 45.6778C34.1568 45.5275 34.2741 45.4037 34.4209 45.314C38.7977 42.6395 48.4023 36.8209 53.5645 33.871C58.8152 30.8707 65.3458 30.1206 67.9548 30.1206C68.9332 30.175 71.8031 31.0011 75.4557 33.871C78.1816 36.0128 79.0185 41.1333 79.1321 45.1526C79.1607 46.1627 77.909 46.4256 77.4596 45.5205L77.035 44.6654C76.545 43.6785 75.3491 43.2738 74.3605 43.7604L57.9265 51.8487" stroke="black" stroke-width="0.5" stroke-linecap="round"/>
<path d="M75.5375 54.7836C75.5375 55.0088 75.4365 55.1913 75.2114 55.1913C74.9862 55.1913 74.9668 55.0088 74.9668 54.7836C74.9668 54.5585 74.9862 54.4575 75.2114 54.4575C75.4365 54.4575 75.5375 54.5585 75.5375 54.7836Z" fill="black"/>
<path d="M71.2977 55.0281V57.5963C71.3384 58.4932 71.1346 60.2787 69.9932 60.2461C68.8517 60.2135 68.3218 60.2325 68.1995 60.2461" stroke="black" stroke-width="0.5" stroke-linecap="round"/>
<path d="M67.5473 53.1306C67.5473 53.3557 67.4463 53.5382 67.2211 53.5382C66.996 53.5382 66.895 53.3557 66.895 53.1306C66.895 52.9054 66.996 52.7229 67.2211 52.7229C67.4463 52.7229 67.5473 52.9054 67.5473 53.1306Z" fill="black"/>
<path d="M34.5684 108.309L41.2132 119.015" stroke="black" stroke-width="0.5" stroke-linecap="round"/>
<path d="M23.0311 122.48L19.5252 120.049C18.9545 119.125 17.9843 116.845 18.6691 115.117C19.5252 112.956 26.17 99.9518 26.4554 98.3619C26.6837 97.09 27.2571 92.8721 28.1675 89.1489C28.8334 86.4719 29.2682 74.2287 37.5844 72.1088C45.0853 69.989 37.0545 62.8686 29.9612 58.167" stroke="black" stroke-width="0.5" stroke-linecap="round"/>
<path d="M51.078 90.8608C48.5097 87.4365 43.9033 80.0579 43.2102 70.2742" stroke="black" stroke-width="0.5" stroke-linecap="round"/>
<path d="M26.333 98.2803L41.1309 103.865" stroke="black" stroke-width="0.5" stroke-linecap="round"/>
<path d="M43.5364 98.6883L30.0022 84.0127L30.1245 83.1974L30.5322 82.4228L31.1436 81.4037L31.9589 80.4661L44.7594 92.8996L70.1564 95.3455L82.0599 100.767L67.0174 105.904L43.5364 98.6883Z" fill="white"/>
<path d="M96.1166 112.682C95.4383 112.751 94.7533 112.713 94.0872 112.567L79.2667 109.328C77.5997 108.96 76.1467 107.947 75.226 106.509C74.3054 105.072 73.9922 103.328 74.3552 101.66L81.8611 67.3113C82.149 65.9849 82.8493 64.7837 83.8617 63.8799C84.8742 62.976 86.1468 62.4158 87.4972 62.2796C88.1757 62.2098 88.861 62.2496 89.5269 62.3973L104.347 65.6362C106.014 66.0036 107.467 67.017 108.388 68.454C109.308 69.8911 109.622 71.6346 109.259 73.3023L101.753 107.651C101.464 108.977 100.764 110.178 99.7516 111.082C98.7392 111.985 97.4668 112.546 96.1166 112.682Z" fill="white"/>
<path d="M87.4782 61.7408L87.5894 62.8305C88.2105 62.767 88.8378 62.8034 89.4474 62.9382L104.268 66.1771C105.794 66.5124 107.124 67.4392 107.967 68.7542C108.811 70.0693 109.098 71.6651 108.766 73.1916L105.013 90.3658L101.26 107.54C101.095 108.296 100.783 109.012 100.341 109.647C99.8999 110.283 99.3375 110.825 98.6864 111.243C98.0353 111.661 97.3082 111.946 96.5467 112.083C95.7852 112.22 95.0042 112.205 94.2484 112.04L79.4279 108.801C77.9009 108.468 76.5689 107.542 75.7249 106.226C74.8809 104.911 74.5939 103.314 74.9272 101.787L82.4332 67.4388C82.696 66.2249 83.3365 65.1254 84.2629 64.298C85.1893 63.4706 86.3539 62.9578 87.5897 62.8332L87.4785 61.7435L87.4782 61.7408ZM87.4785 61.7435C86.0139 61.8935 84.6342 62.5022 83.536 63.4828C82.4379 64.4633 81.6774 65.7656 81.3632 67.2039L73.8573 101.552C73.4616 103.363 73.8015 105.257 74.8022 106.817C75.8028 108.377 77.3822 109.476 79.1929 109.871L94.0135 113.11C95.8242 113.506 97.7179 113.166 99.2781 112.165C100.838 111.165 101.937 109.585 102.333 107.775L109.839 73.4263C110.233 71.6156 109.893 69.7222 108.893 68.1622C107.892 66.6023 106.313 65.5034 104.503 65.1071L89.6826 61.8709C88.9603 61.7112 88.2171 61.6681 87.4812 61.7432L87.4785 61.7435Z" fill="black"/>
<path d="M86.7746 67.6028C87.0736 67.5713 87.3757 67.6114 87.6561 67.7197C87.9364 67.828 88.187 68.0015 88.3871 68.2258C88.5872 68.4501 88.7311 68.7188 88.8069 69.0097C88.8827 69.3006 88.8881 69.6053 88.8229 69.8987L88.7708 70.1435C88.7227 70.3921 88.6254 70.6287 88.4846 70.8392C88.3438 71.0497 88.1623 71.2299 87.9508 71.3693C87.7394 71.5087 87.5022 71.6044 87.2532 71.6508C87.0043 71.6972 86.7485 71.6934 86.501 71.6396C86.2536 71.5858 86.0194 71.483 85.8121 71.3374C85.6049 71.1918 85.4289 71.0062 85.2945 70.7916C85.16 70.577 85.0698 70.3377 85.0291 70.0877C84.9884 69.8377 84.9981 69.5821 85.0576 69.336L85.11 69.0939C85.1951 68.7021 85.402 68.3473 85.7011 68.0804C86.0003 67.8135 86.3763 67.6482 86.7752 67.6082L86.7746 67.6028ZM86.6918 66.7909C86.1219 66.8512 85.5852 67.0889 85.1575 67.4703C84.7297 67.8517 84.4324 68.3577 84.3075 68.917L84.2554 69.1618C84.1788 69.5111 84.1718 69.8719 84.2348 70.2239C84.2979 70.5758 84.4297 70.9118 84.6228 71.2127C84.8158 71.5137 85.0663 71.7736 85.3599 71.9776C85.6535 72.1815 85.9845 72.3256 86.3339 72.4016C86.6831 72.4786 87.0441 72.4858 87.3962 72.4229C87.7482 72.36 88.0844 72.2283 88.3854 72.0351C88.6864 71.842 88.9463 71.5914 89.1502 71.2976C89.3541 71.0038 89.498 70.6726 89.5736 70.3231L89.6287 70.0807C89.779 69.3754 89.6449 68.6393 89.2557 68.0323C88.8665 67.4252 88.2536 66.9961 87.5499 66.8382C87.2681 66.7782 86.9786 66.7622 86.6918 66.7909Z" fill="#231F20"/>
<path d="M92.3138 69.0165C92.5147 68.9965 92.7175 69.0083 92.9147 69.0515C93.1585 69.1049 93.3895 69.2057 93.5944 69.3483C93.7993 69.491 93.974 69.6726 94.1087 69.8827C94.2434 70.0929 94.3354 70.3276 94.3794 70.5733C94.4233 70.819 94.4185 71.071 94.365 71.3149L94.3102 71.5599C94.2024 72.0524 93.9034 72.4819 93.4789 72.7539C93.0545 73.0259 92.5393 73.1181 92.0469 73.0103C91.5544 72.9025 91.1249 72.6035 90.8529 72.179C90.5809 71.7546 90.4887 71.2394 90.5965 70.747L90.6513 70.5019C90.7359 70.1104 90.9423 69.7557 91.241 69.4889C91.5397 69.222 91.9152 69.0566 92.3138 69.0165ZM92.2304 68.1992C91.6598 68.2579 91.1223 68.4952 90.6947 68.8775C90.2671 69.2597 89.9711 69.7673 89.849 70.3278L89.7942 70.5728C89.718 70.9222 89.7113 71.2832 89.7746 71.6351C89.8379 71.9871 89.9699 72.3232 90.163 72.6241C90.3562 72.9251 90.6067 73.185 90.9003 73.3892C91.1939 73.5933 91.5249 73.7376 91.8742 73.8138C92.2236 73.89 92.5846 73.8967 92.9366 73.8334C93.2885 73.7702 93.6246 73.6382 93.9255 73.445C94.2265 73.2519 94.4864 73.0014 94.6906 72.7077C94.8947 72.4141 95.039 72.0832 95.1152 71.7338L95.1673 71.489C95.2536 71.0699 95.2405 70.6364 95.129 70.2232C95.0175 69.8101 94.8107 69.4289 94.5253 69.1101C94.2399 68.7913 93.8837 68.5438 93.4853 68.3875C93.087 68.2312 92.6576 68.1705 92.2315 68.2101L92.2304 68.1992Z" fill="#231F20"/>
<path d="M97.8617 70.4325C98.1598 70.4057 98.46 70.4491 98.7383 70.5591C99.0166 70.6692 99.2653 70.8429 99.4644 71.0663C99.6635 71.2897 99.8076 71.5567 99.885 71.8458C99.9624 72.1349 99.9711 72.4381 99.9103 72.7311L99.8579 72.9732C99.773 73.3645 99.5664 73.7189 99.2678 73.9857C98.9692 74.2526 98.5938 74.4181 98.1955 74.4586C97.9946 74.48 97.7916 74.4682 97.5946 74.4236C97.1027 74.3158 96.6737 74.0171 96.4018 73.5933C96.1299 73.1694 96.0374 72.655 96.1445 72.163L96.1966 71.9182C96.2816 71.5264 96.4885 71.1716 96.7877 70.9047C97.0868 70.6378 97.4628 70.4725 97.8617 70.4325ZM97.7783 69.6152C97.2081 69.6757 96.6712 69.9138 96.2435 70.2957C95.8158 70.6777 95.5187 71.1842 95.3943 71.744L95.3419 71.9861C95.1906 72.6911 95.3234 73.4274 95.7117 74.0351C96.0999 74.6428 96.7122 75.0728 97.4155 75.2319C97.6974 75.2923 97.9869 75.3083 98.2737 75.2792C98.8439 75.2207 99.3812 74.9838 99.8088 74.602C100.236 74.2203 100.533 73.7133 100.655 73.1533L100.707 72.9085C100.784 72.5593 100.791 72.1984 100.728 71.8465C100.665 71.4946 100.533 71.1586 100.34 70.8576C100.147 70.5567 99.8964 70.2968 99.6028 70.0928C99.3092 69.8888 98.9782 69.7447 98.6289 69.6688C98.3482 69.6062 98.0593 69.5892 97.7732 69.6185L97.7783 69.6152Z" fill="#231F20"/>
<path d="M103.396 71.8471C103.695 71.8162 103.997 71.8567 104.278 71.9654C104.558 72.074 104.809 72.2477 105.009 72.472C105.209 72.6964 105.353 72.9651 105.43 73.256C105.506 73.5469 105.512 73.8517 105.447 74.1454L105.393 74.3905C105.285 74.883 104.986 75.3125 104.561 75.5844C104.137 75.8564 103.622 75.9487 103.129 75.8409C102.637 75.7331 102.207 75.434 101.935 75.0096C101.663 74.5851 101.571 74.07 101.679 73.5775L101.734 73.3352C101.818 72.9432 102.024 72.588 102.323 72.3206C102.621 72.0532 102.997 71.8874 103.396 71.8471ZM103.313 71.0298C102.743 71.0908 102.207 71.3291 101.78 71.7109C101.352 72.0928 101.056 72.599 100.931 73.1583L100.877 73.4034C100.723 74.1086 100.855 74.8461 101.245 75.4537C101.635 76.0613 102.25 76.4891 102.955 76.6432C103.304 76.7201 103.665 76.7274 104.017 76.6645C104.369 76.6016 104.706 76.4698 105.007 76.2767C105.308 76.0836 105.567 75.833 105.771 75.5392C105.975 75.2454 106.119 74.9142 106.195 74.5646L106.243 74.3313C106.393 73.626 106.259 72.8899 105.87 72.2828C105.48 71.6758 104.867 71.2467 104.164 71.0888C103.882 71.0263 103.592 71.0094 103.305 71.0388L103.313 71.0298Z" fill="#231F20"/>
<path d="M85.2143 74.732C85.4152 74.712 85.618 74.7238 85.8153 74.767C86.3056 74.8787 86.7324 75.1785 87.0037 75.6019C87.275 76.0253 87.369 76.5383 87.2656 77.0304L87.2135 77.2752C87.0918 77.7536 86.789 78.1659 86.369 78.4253C85.949 78.6846 85.4447 78.7707 84.9625 78.6652C84.4803 78.5598 84.0579 78.2711 83.7845 77.8601C83.511 77.4491 83.408 76.948 83.4971 76.4625L83.5519 76.2174C83.6369 75.8261 83.8434 75.4717 84.142 75.2049C84.4406 74.9381 84.816 74.7725 85.2143 74.732ZM85.131 73.9147C84.5604 73.9734 84.0229 74.2108 83.5953 74.593C83.1676 74.9753 82.8717 75.4828 82.7496 76.0433L82.6948 76.2883C82.5454 76.9932 82.6798 77.7286 83.0688 78.335C83.4579 78.9415 84.0703 79.3701 84.7733 79.5281C85.1228 79.6051 85.4839 79.6124 85.8362 79.5495C86.1884 79.4866 86.5248 79.3549 86.826 79.1617C87.1273 78.9686 87.3874 78.7179 87.5916 78.4241C87.7957 78.1302 87.9399 77.799 88.0158 77.4493L88.0679 77.2045C88.1542 76.7854 88.1411 76.3519 88.0296 75.9388C87.9181 75.5256 87.7113 75.1444 87.4259 74.8256C87.1404 74.5068 86.7843 74.2593 86.3859 74.103C85.9876 73.9467 85.5581 73.886 85.1321 73.9256L85.131 73.9147Z" fill="#231F20"/>
<path d="M91.1325 80.583C90.7696 80.6186 90.4034 80.5679 90.0639 80.4351C89.7243 80.3023 89.4209 80.0911 89.1785 79.8188C88.936 79.5465 88.7613 79.2207 88.6687 78.8681C88.576 78.5155 88.568 78.1459 88.6453 77.7896L88.7001 77.5445C88.7472 77.2315 88.858 76.9315 89.0257 76.6632C89.1935 76.3948 89.4146 76.1637 89.6753 75.9842C89.936 75.8048 90.2308 75.6808 90.5414 75.62C90.852 75.5591 91.1718 75.5627 91.4809 75.6305C91.7901 75.6983 92.082 75.8289 92.3386 76.0142C92.5952 76.1995 92.811 76.4355 92.9727 76.7075C93.1343 76.9796 93.2384 77.282 93.2784 77.596C93.3184 77.91 93.2935 78.2288 93.2052 78.5327L93.1531 78.7775C93.05 79.2532 92.799 79.6841 92.436 80.0084C92.073 80.3327 91.6167 80.5339 91.1325 80.583Z" fill="#4980C1"/>
<path d="M90.7569 76.1482C91.0558 76.1178 91.3577 76.1587 91.6378 76.2675C91.9179 76.3764 92.1681 76.5501 92.3681 76.7745C92.568 76.9988 92.7119 77.2673 92.7879 77.5581C92.8639 77.8488 92.8699 78.1534 92.8054 78.4468L92.7531 78.6889C92.7018 78.9346 92.6023 79.1678 92.4604 79.3749C92.3185 79.5819 92.137 79.7589 91.9264 79.8954C91.7157 80.032 91.4801 80.1254 91.2332 80.1704C90.9862 80.2154 90.7328 80.211 90.4875 80.1575C90.2423 80.1039 90.01 80.0024 89.8043 79.8586C89.5985 79.7148 89.4232 79.5317 89.2886 79.3199C89.154 79.108 89.0626 78.8715 89.0199 78.6242C88.9772 78.3768 88.9839 78.1234 89.0396 77.8787L89.0917 77.6339C89.1768 77.2421 89.3837 76.8873 89.6829 76.6204C89.982 76.3535 90.358 76.1882 90.7569 76.1482ZM90.6735 75.3309C90.1033 75.3914 89.5664 75.6295 89.1387 76.0114C88.7109 76.3934 88.4139 76.9 88.2894 77.4597L88.2371 77.7018C88.0868 78.4071 88.2209 79.1432 88.6101 79.7503C88.9993 80.3573 89.6122 80.7864 90.3159 80.9443C90.5977 81.0045 90.8872 81.0205 91.174 80.9916C91.7443 80.9332 92.2815 80.6962 92.7092 80.3145C93.1368 79.9328 93.4331 79.4258 93.5556 78.8658L93.6104 78.6207C93.7644 77.9155 93.6319 77.178 93.2421 76.5704C92.8523 75.9628 92.2371 75.535 91.5319 75.3809C91.2503 75.3187 90.9605 75.3018 90.6735 75.3309Z" fill="#231F20"/>
<path d="M96.2965 77.5648C96.4971 77.5439 96.6998 77.5548 96.8971 77.5971C97.1409 77.6504 97.3719 77.7513 97.5768 77.8939C97.7817 78.0365 97.9565 78.2181 98.0911 78.4283C98.2258 78.6385 98.3178 78.8731 98.3618 79.1189C98.4057 79.3646 98.4009 79.6166 98.3474 79.8604L98.2972 80.0968C98.1894 80.5892 97.8904 81.0187 97.4659 81.2907C97.0415 81.5627 96.5264 81.6549 96.0339 81.5471C95.5414 81.4393 95.112 81.1403 94.84 80.7158C94.568 80.2914 94.4757 79.7763 94.5835 79.2838L94.6386 79.0414C94.7236 78.6501 94.9301 78.2957 95.2287 78.0289C95.5273 77.7621 95.9027 77.5966 96.3011 77.556L96.2965 77.5648ZM96.2177 76.7388C95.6473 76.7968 95.1098 77.0336 94.6821 77.4154C94.2544 77.7972 93.9583 78.3044 93.8361 78.8646L93.7812 79.1097C93.705 79.459 93.6984 79.82 93.7616 80.172C93.8249 80.5239 93.9569 80.86 94.15 81.1609C94.3432 81.4619 94.5937 81.7218 94.8873 81.926C95.1809 82.1301 95.5119 82.2744 95.8613 82.3506C96.2106 82.4269 96.5716 82.4335 96.9236 82.3703C97.2755 82.307 97.6116 82.175 97.9125 81.9819C98.2135 81.7887 98.4735 81.5382 98.6776 81.2446C98.8817 80.951 99.026 80.62 99.1022 80.2706L99.1546 80.0286C99.3049 79.3233 99.1708 78.5872 98.7816 77.9801C98.3924 77.373 97.7795 76.944 97.0758 76.7861C96.794 76.7258 96.5044 76.7098 96.2177 76.7388Z" fill="#231F20"/>
<path d="M101.839 78.9785C102.137 78.9517 102.437 78.9951 102.716 79.1052C102.994 79.2152 103.242 79.3889 103.442 79.6124C103.641 79.8358 103.785 80.1027 103.862 80.3918C103.94 80.6809 103.948 80.9841 103.887 81.2772L103.835 81.5192C103.784 81.765 103.684 81.9981 103.542 82.2052C103.401 82.4123 103.219 82.5892 103.008 82.7257C102.798 82.8623 102.562 82.9557 102.315 83.0007C102.068 83.0457 101.815 83.0413 101.57 82.9878C101.324 82.9343 101.092 82.8327 100.886 82.6889C100.681 82.5452 100.505 82.3621 100.371 82.1502C100.236 81.9383 100.145 81.7019 100.102 81.4545C100.059 81.2071 100.066 80.9537 100.122 80.709L100.174 80.4642C100.259 80.0724 100.466 79.7176 100.765 79.4507C101.064 79.1838 101.44 79.0185 101.839 78.9785ZM101.756 78.1612C101.185 78.2218 100.648 78.4598 100.221 78.8417C99.793 79.2237 99.4959 79.7303 99.3715 80.2901L99.3191 80.5321C99.1689 81.2374 99.3029 81.9735 99.6921 82.5806C100.081 83.1877 100.694 83.6167 101.398 83.7746C101.747 83.8516 102.108 83.8588 102.46 83.7959C102.812 83.7331 103.148 83.6013 103.449 83.4082C103.75 83.2151 104.01 82.9644 104.214 82.6706C104.418 82.3768 104.562 82.0456 104.638 81.6961L104.69 81.4513C104.844 80.7464 104.712 80.0092 104.322 79.4016C103.933 78.7941 103.319 78.3659 102.614 78.2113C102.332 78.149 102.043 78.1321 101.756 78.1612Z" fill="#231F20"/>
<path d="M89.875 62.8616L104.552 66.0681C104.426 66.6464 104.075 67.1508 103.576 67.4704C103.078 67.7899 102.473 67.8985 101.895 67.7721L91.579 65.5183C91.0008 65.392 90.4963 65.0411 90.1768 64.5429C89.8572 64.0446 89.7487 63.4399 89.875 62.8616Z" fill="#231F20"/>
<path d="M81.072 106.568L93.4966 109.284" stroke="#231F20" stroke-width="0.5" stroke-miterlimit="10" stroke-linecap="round"/>
<path d="M95.4063 97.6363L84.3946 95.2305C83.3071 94.9929 82.0983 96.2981 81.6947 98.1457C81.291 99.9933 81.8453 101.684 82.9328 101.921L93.9445 104.327C95.032 104.565 96.2408 103.259 96.6445 101.412C97.0481 99.5642 96.4938 97.8738 95.4063 97.6363Z" fill="#4980C1" stroke="#F1F2F2" stroke-miterlimit="10"/>
<path d="M1.18066 119.341L18.873 119.341" stroke="black" stroke-width="0.5" stroke-linecap="round"/>
<path d="M41.4568 119.341L135.952 119.341" stroke="black" stroke-width="0.5" stroke-linecap="round"/>
<path d="M102.197 95.6116C102.797 92.4964 104.417 88.9721 106.074 89.6947C106.914 89.8562 107.152 93.4588 106.552 96.574C105.953 99.6892 104.241 102.72 102.193 102.326C101.354 102.164 102.098 98.4718 102.197 95.6116Z" fill="white"/>
<path d="M35.3296 110.059L30.2849 110.828M34.6521 108.558L28.918 108.075" stroke="black" stroke-linecap="round"/>
<path d="M39.1229 74.4054L37.3645 78.6539M40.7733 74.5057C40.7633 75.2635 40.5955 77.0251 40.0034 78.0091M42.8599 73.9958L42.489 77.4017" stroke="black" stroke-linecap="round"/>
<path d="M102.769 102.242C102.156 102.216 101.456 101.938 100.959 101.583C100.304 101.116 100.17 100.346 100.175 99.5881C100.178 99.088 100.185 98.5162 100.41 98.0561C100.589 97.6924 100.942 97.4858 101.292 97.3176C101.755 97.0951 101.976 97.3002 102.483 97.3176C102.746 97.3267 103.226 97.2303 103.48 97.24C103.484 97.2402 103.085 97.011 102.972 96.9606C102.632 96.809 102.192 96.8091 101.96 96.4966C101.716 96.1678 101.71 95.7597 101.76 95.3651C101.855 94.6174 102.207 94.1916 102.909 93.9257C103.332 93.7655 103.537 93.7809 103.991 93.7809C104.069 93.7809 104.293 93.5396 104.114 93.4548C103.688 93.253 103.565 93.175 103.174 92.9043C102.713 92.5847 102.304 92.1041 102.326 91.515C102.352 90.7703 103.253 90.1728 103.845 89.8828C104.449 89.5867 105.108 89.2957 105.788 89.4898" stroke="black" stroke-width="0.5" stroke-linecap="round" stroke-linejoin="round"/>
<path d="M103.289 102.154C103.907 102.034 104.645 101.983 105.124 101.505C105.753 100.875 105.896 100.382 105.896 99.5121C105.896 99.214 105.903 98.9149 105.896 98.6168C105.892 98.4641 105.729 98.2222 105.865 98.0858C106.077 97.874 106.429 97.8912 106.607 97.6338C106.821 97.3243 106.871 97.0355 106.94 96.6683C107.069 95.9871 107.239 95.5285 107.019 94.869C106.95 94.662 106.975 94.4126 107.16 94.2941C107.426 94.1232 107.513 93.8347 107.594 93.5436C107.774 92.8968 107.62 92.1505 107.335 91.4167C107.069 90.8125 106.744 90.3951 106.315 90.1122C106.11 89.9765 105.926 89.7281 105.704 89.623" stroke="black" stroke-width="0.5" stroke-linecap="round" stroke-linejoin="round"/>
<path d="M78.9263 83.562C80.5307 83.8386 81.6125 83.6981 81.7437 85.4039C81.8137 86.3142 81.9054 87.4647 81.3617 88.2349C80.8359 88.9797 79.365 89.8586 78.4352 89.9472C77.681 90.019 77.3697 89.4857 76.8389 89.0876" stroke="black" stroke-width="0.5" stroke-linecap="round" stroke-linejoin="round"/>
<path d="M78.6816 83.3167C77.2421 83.547 75.6011 83.4089 75.339 85.1858C75.1676 86.3477 75.2685 87.2312 75.7346 88.3034C76.1574 89.2757 76.5799 89.3299 77.5765 89.579" stroke="black" stroke-width="0.5" stroke-linecap="round" stroke-linejoin="round"/>
</svg>
