<svg width="56" height="60" viewBox="0 0 56 60" fill="none" xmlns="http://www.w3.org/2000/svg">
<path d="M49.6904 5.45455H48.9404C47.8359 5.45455 46.9404 4.55911 46.9404 3.45455V2C46.9404 0.895431 46.045 0 44.9404 0H43.4404C42.3359 0 41.4404 0.895431 41.4404 2V3.45455C41.4404 4.55911 40.545 5.45455 39.4404 5.45455H15.9404C14.8359 5.45455 13.9404 4.55911 13.9404 3.45455V2C13.9404 0.895431 13.045 0 11.9404 0H10.4404C9.33586 0 8.44043 0.895431 8.44043 2V3.45455C8.44043 4.55911 7.545 5.45455 6.44043 5.45455H5.69043C2.66543 5.45455 0.19043 7.90909 0.19043 10.9091V54.5455C0.19043 57.5455 2.66543 60 5.69043 60H49.6904C52.7154 60 55.1904 57.5455 55.1904 54.5455V10.9091C55.1904 7.90909 52.7154 5.45455 49.6904 5.45455ZM49.6904 52.5455C49.6904 53.65 48.795 54.5455 47.6904 54.5455H7.69043C6.58586 54.5455 5.69043 53.65 5.69043 52.5455V17.2747C5.69043 16.1702 6.58586 15.2747 7.69043 15.2747H47.6904C48.795 15.2747 49.6904 16.1702 49.6904 17.2747V52.5455Z" fill="#4980C1"/>
</svg>
