<svg width="16" height="16" viewBox="0 0 16 16" fill="none" xmlns="http://www.w3.org/2000/svg">
<path d="M15.1895 13.916C15.1895 14.6924 14.4696 15.3223 13.5823 15.3223H1.7966C0.90932 15.3223 0.189453 14.6924 0.189453 13.916V5.94727H15.1895V13.916ZM13.0466 8.29102C13.0466 8.0332 12.8055 7.82227 12.5109 7.82227H9.2966C9.00195 7.82227 8.76088 8.0332 8.76088 8.29102V11.1035C8.76088 11.3613 9.00195 11.5723 9.2966 11.5723H12.5109C12.8055 11.5723 13.0466 11.3613 13.0466 11.1035V8.29102ZM1.7966 2.19727H3.40374V0.791016C3.40374 0.533203 3.64481 0.322266 3.93945 0.322266H5.01088C5.30552 0.322266 5.5466 0.533203 5.5466 0.791016V2.19727H9.83231V0.791016C9.83231 0.533203 10.0734 0.322266 10.368 0.322266H11.4395C11.7341 0.322266 11.9752 0.533203 11.9752 0.791016V2.19727H13.5823C14.4696 2.19727 15.1895 2.82715 15.1895 3.60352V5.00977H0.189453V3.60352C0.189453 2.82715 0.90932 2.19727 1.7966 2.19727Z" fill="#4F4F4F"/>
</svg>
