<svg width="34" height="34" viewBox="0 0 34 34" fill="none" xmlns="http://www.w3.org/2000/svg">
<circle cx="17" cy="14" r="11" fill="#828282"/>
<g filter="url(#filter0_d)">
<path d="M17 3C10.917 3 6 7.917 6 14C6 20.083 10.917 25 17 25C23.083 25 28 20.083 28 14C28 7.917 23.083 3 17 3ZM22.5 17.949L20.949 19.5L17 15.551L13.051 19.5L11.5 17.949L15.449 14L11.5 10.051L13.051 8.5L17 12.449L20.949 8.5L22.5 10.051L18.551 14L22.5 17.949Z" fill="#F4F4F4"/>
<path d="M17 1.5C10.0886 1.5 4.5 7.08857 4.5 14C4.5 20.9114 10.0886 26.5 17 26.5C23.9114 26.5 29.5 20.9114 29.5 14C29.5 7.08857 23.9114 1.5 17 1.5Z" stroke="#828282" stroke-width="3"/>
</g>
<defs>
<filter id="filter0_d" x="0" y="0" width="34" height="34" filterUnits="userSpaceOnUse" color-interpolation-filters="sRGB">
<feFlood flood-opacity="0" result="BackgroundImageFix"/>
<feColorMatrix in="SourceAlpha" type="matrix" values="0 0 0 0 0 0 0 0 0 0 0 0 0 0 0 0 0 0 127 0"/>
<feOffset dy="3"/>
<feGaussianBlur stdDeviation="1.5"/>
<feColorMatrix type="matrix" values="0 0 0 0 0 0 0 0 0 0 0 0 0 0 0 0 0 0 0.06 0"/>
<feBlend mode="normal" in2="BackgroundImageFix" result="effect1_dropShadow"/>
<feBlend mode="normal" in="SourceGraphic" in2="effect1_dropShadow" result="shape"/>
</filter>
</defs>
</svg>
