<svg width="131" height="99" viewBox="0 0 131 99" fill="none" xmlns="http://www.w3.org/2000/svg">
<path d="M16.1082 46.4855L30.6352 44.1611L33.5406 55.7828H34.7027L38.1892 74.3773L17.8514 80.7692L16.1082 46.4855Z" fill="white"/>
<path d="M18.9106 89.5514L18 97.8519L29.2553 98L29.77 93.6186V98H41L39.187 88L18.9106 89.5514Z" fill="white" stroke="black" stroke-width="0.5" stroke-miterlimit="10"/>
<path d="M39.3514 65.0808L36.0388 70.8071C36.9272 71.737 39.7135 74.2546 40.6596 74.9146C42.1797 75.9744 43.2839 76.7914 45.1622 76.1213C47.1558 75.4094 49.9039 73.1489 50.7447 72.3308C51.8658 71.2392 52.1274 71.3057 54.1748 68.756C57.0468 65.1768 59.8885 60.4667 59.8885 60.4667C59.8885 60.4667 61.5955 58.9606 62.1528 58.1056C62.8903 56.975 64.4033 54.2718 63.7038 54.0871C63.0258 53.9085 62.8749 54.2457 62.528 54.0605C62.2268 53.9001 62.4055 53.2458 61.7804 53.1259C61.1078 52.9965 60.7895 54.0678 60.6287 53.4763C60.5366 53.1376 60.5565 52.7542 59.9447 52.6013C58.7762 52.3075 58.8714 55.1994 58.2658 55.2364C57.7471 55.2684 57.7584 54.6274 58.0725 53.9721C58.3136 53.4695 57.9992 53.2469 57.3358 53.2463C57.0498 53.2476 56.5787 53.391 56.4256 54.1419C56.1078 55.6949 56.3761 56.4924 56.1201 57.6646C55.7395 59.4026 52.1701 63.4647 52.1701 63.4647C48.1451 67.7918 46.9889 69.0278 44.5811 68.756C42.1734 68.4841 41.6757 67.4051 42.2502 66.2813C40.1665 64.1904 39.3514 65.0808 39.3514 65.0808Z" fill="white" stroke="black" stroke-width="0.5" stroke-miterlimit="10"/>
<path d="M24.7241 44.3837L25.6043 39.1516L35.4402 37.3132L37.2635 37.0684L38.0689 40.622C38.0689 40.622 37.2851 45.1773 34.7626 47.5261C32.2401 49.875 32.4627 50.4878 29.3357 50.4062" fill="white"/>
<path d="M24.7241 44.3837L25.6043 39.1516L35.4402 37.3132L37.2635 37.0684L38.0689 40.622C38.0689 40.622 37.2851 45.1773 34.7626 47.5261C32.2401 49.875 32.4627 50.4878 29.3357 50.4062" stroke="black" stroke-width="0.5" stroke-miterlimit="10"/>
<path d="M16.3068 84.0728L15.8332 88.5356C15.7509 89.6013 16.6292 90.4985 17.7039 90.4452L39.3361 89.3711C40.4259 89.3178 41.2118 88.3155 41.0002 87.2531L37.4301 68.2061" fill="white"/>
<path d="M16.3068 84.0728L15.8332 88.5356C15.7509 89.6013 16.6292 90.4985 17.7039 90.4452L39.3361 89.3711C40.4259 89.3178 41.2118 88.3155 41.0002 87.2531L37.4301 68.2061" stroke="black" stroke-width="0.5" stroke-miterlimit="10"/>
<path d="M17.7936 54.8613C17.017 54.9457 16.1411 55.2053 15.1661 55.666C11.2709 57.5073 10.9313 66.0635 10.9313 66.0635L18.5148 68.8393C18.5148 68.8393 18.2408 69.3178 18.0206 72.6079C17.9886 73.0751 17.7953 76.203 18.0424 76.5842C19.4882 78.8133 20.8902 78.6851 27.0986 78.9041C27.0986 78.9041 32.7824 78.9333 34.4232 77.9794C35.5293 77.3353 35.9765 76.5242 37.4273 75.653C38.1283 75.2312 38.5671 75.5232 38.7655 75.7633C39.2227 76.323 39.2631 76.7513 38.6982 76.9168C37.9619 77.1326 37.4458 77.5933 37.8291 78.007C38.2763 78.4904 40.5037 76.2889 41.077 77.4895C41.3779 78.1173 41.0602 78.3817 40.8551 78.7078C40.497 79.2773 41.5662 78.7597 41.9276 79.4217C42.2639 80.0365 41.6217 80.3658 41.7024 80.7374C41.7948 81.1657 42.1664 81.0456 42.4925 81.7481C42.8287 82.4732 39.6413 83.1806 38.2359 83.3882C37.1735 83.5456 34.8014 83.2114 34.8014 83.2114C34.8014 83.2114 31 84.2059 24.2861 84.4752C21 84.4752 20.7238 84.3503 19.0847 84.2059C17.8558 84.0972 14.1641 83.8733 12.2241 82.715C10.3967 81.6231 10.2858 79.6585 10.0773 77.5998C9.94789 76.3182 9.82349 74.0193 9.94789 72.5884C10.2942 68.6332 10.9078 66.2873 10.9078 66.2873L18.7687 68.716C18.7687 68.716 18.9839 68.3607 19.3066 67.7718" fill="white"/>
<path d="M17.7936 54.8613C17.017 54.9457 16.1411 55.2053 15.1661 55.666C11.2709 57.5073 10.9313 66.0635 10.9313 66.0635L18.5148 68.8393C18.5148 68.8393 18.2408 69.3178 18.0206 72.6079C17.9886 73.0751 17.7953 76.203 18.0424 76.5842C19.4882 78.8133 20.8902 78.6851 27.0986 78.9041C27.0986 78.9041 32.7824 78.9333 34.4232 77.9794C35.5293 77.3353 35.9765 76.5242 37.4273 75.653C38.1283 75.2312 38.5671 75.5232 38.7655 75.7633C39.2227 76.323 39.2631 76.7513 38.6982 76.9168C37.9619 77.1326 37.4458 77.5933 37.8291 78.007C38.2763 78.4904 40.5037 76.2889 41.077 77.4895C41.3779 78.1173 41.0602 78.3817 40.8551 78.7078C40.497 79.2773 41.5662 78.7597 41.9276 79.4217C42.2639 80.0365 41.6217 80.3658 41.7024 80.7374C41.7948 81.1657 42.1663 81.0456 42.4925 81.7481C42.8287 82.4732 39.6413 83.1806 38.2359 83.3882C37.1735 83.5456 34.8014 83.2114 34.8014 83.2114C34.8014 83.2114 31 84.2059 24.2861 84.4752C21 84.4752 20.7238 84.3503 19.0847 84.2059C17.8558 84.0972 14.1641 83.8733 12.2241 82.715C10.3967 81.6231 10.2858 79.6585 10.0773 77.5998C9.94789 76.3182 9.82349 74.0193 9.94789 72.5884C10.2942 68.6332 10.9078 66.2873 10.9078 66.2873L18.7687 68.716C18.7687 68.716 18.9839 68.3607 19.3066 67.7718" stroke="black" stroke-width="0.5" stroke-miterlimit="10" stroke-linecap="round"/>
<path d="M36.8919 68.2062L43.9998 67.3104L42.6274 62.3186C42.6274 62.3186 41.1312 54.5743 36.3922 54.8935C31.6531 55.2127 32.1529 50.4131 32.1529 50.4131" fill="white"/>
<path d="M36.8919 68.2062L43.9998 67.3104L42.6274 62.3186C42.6274 62.3186 41.1312 54.5743 36.3922 54.8935C31.6531 55.2127 32.1529 50.4131 32.1529 50.4131" stroke="black" stroke-width="0.5" stroke-miterlimit="10" stroke-linecap="round"/>
<path d="M34.595 42.8343C35.4728 42.6403 36.3589 42.5014 37.2551 42.4245C37.3905 42.4127 37.5059 42.3174 37.5059 42.1735C37.5059 42.0464 37.3905 41.9109 37.2551 41.9226C36.3155 42.0046 35.3825 42.1468 34.4612 42.3508C34.1469 42.4194 34.2806 42.9046 34.595 42.8343Z" fill="black"/>
<path opacity="0.76" d="M23.6791 56.0161C23.9397 54.8968 22.7708 53.6678 21.0684 53.2711C19.366 52.8745 17.7747 53.4603 17.5142 54.5797C17.2537 55.699 18.4225 56.928 20.1249 57.3247C21.8273 57.7213 23.4186 57.1355 23.6791 56.0161Z" fill="#FDAE46" fill-opacity="0.5"/>
<path opacity="0.76" d="M70.8025 14.4615C70.9364 6.97757 63.3002 0.771926 53.7465 0.600788C44.1929 0.42965 36.3395 6.35783 36.2056 13.8417C36.0717 21.3257 43.7079 27.5313 53.2616 27.7025C62.8152 27.8736 70.6686 21.9454 70.8025 14.4615Z" fill="#FFFEFE"/>
<path opacity="0.76" d="M68.8056 14.288C68.9209 7.84408 61.2696 2.48154 51.716 2.3104C42.1623 2.13926 34.3241 7.22434 34.2088 13.6682C34.0935 20.1121 41.7448 25.4747 51.2984 25.6458C60.8521 25.8169 68.6903 20.7319 68.8056 14.288Z" fill="#FDAE46" fill-opacity="0.5"/>
<path opacity="0.76" d="M17.1567 79.6792C18.4377 79.2955 19.2664 78.8904 19 78C18 77.5 18 76 16.1919 76.4547C14.911 76.8384 14.0885 77.8712 14.355 78.7617C14.6214 79.6521 15.8758 80.0629 17.1567 79.6792Z" fill="#FDAE46" fill-opacity="0.5"/>
<path d="M32.1543 42.0345C31.865 41.6648 31.4755 41.3988 31.0809 41.1512C30.6344 40.8718 30.183 40.6025 29.7249 40.3398C28.8053 39.8145 27.8656 39.3244 26.9093 38.8694C26.6183 38.7322 26.3642 39.1638 26.6568 39.3026C27.5898 39.7459 28.506 40.2211 29.4039 40.733C29.8403 40.9822 30.2733 41.2382 30.7013 41.5042C31.1059 41.7551 31.5022 42.0094 31.7998 42.3891C31.9988 42.6434 32.3516 42.2854 32.1543 42.0345Z" fill="black"/>
<path d="M34.5234 44.8651C34.8461 44.8651 34.8461 44.3633 34.5234 44.3633C34.2007 44.3633 34.199 44.8651 34.5234 44.8651Z" fill="black"/>
<path d="M30.2528 43.955C30.5755 43.955 30.5755 43.4531 30.2528 43.4531C29.9301 43.4531 29.9301 43.955 30.2528 43.955Z" fill="black"/>
<path d="M31.5638 45.3588C31.5638 45.3588 31.5721 45.424 31.5704 45.4073C31.5688 45.3889 31.5755 45.4508 31.5771 45.4575C31.5821 45.5043 31.5872 45.5495 31.5922 45.5963C31.6005 45.6884 31.6089 45.7804 31.6122 45.874C31.6156 45.9543 31.6223 46.0346 31.6173 46.1149C31.6156 46.1384 31.6072 46.1601 31.6173 46.1267C31.6156 46.1333 31.5972 46.1886 31.6106 46.1601C31.6239 46.1267 31.5788 46.2053 31.6189 46.1534C31.6072 46.1668 31.5939 46.1785 31.5821 46.1919C31.5587 46.217 31.6256 46.1651 31.5738 46.1986C31.5621 46.207 31.5504 46.2136 31.537 46.222C31.5019 46.2438 31.4651 46.2655 31.4283 46.2839C31.3915 46.304 31.3531 46.3207 31.3163 46.3391C31.3079 46.3425 31.3013 46.3458 31.2929 46.3491C31.3096 46.3425 31.3113 46.3408 31.2946 46.3475C31.2745 46.3558 31.2561 46.3625 31.236 46.3692C31.1575 46.3977 31.0772 46.4211 30.9953 46.4395C30.9585 46.4479 30.9217 46.4529 30.8849 46.4612C30.8582 46.4663 30.91 46.4596 30.8649 46.4646C30.8398 46.4679 30.8147 46.4696 30.7896 46.4713C30.6592 46.4813 30.5321 46.5783 30.5388 46.7222C30.5438 46.8493 30.6492 46.9848 30.7896 46.9731C30.9953 46.9564 31.1993 46.9179 31.3932 46.846C31.5872 46.7741 31.8028 46.6804 31.9533 46.5332C32.1222 46.3676 32.1289 46.14 32.1189 45.9192C32.1088 45.6884 32.0837 45.4592 32.0503 45.23C32.0319 45.0995 31.8597 45.0159 31.741 45.0543C31.5955 45.0962 31.5437 45.2183 31.5638 45.3588Z" fill="black"/>
<path d="M28.6727 49.4425C29.0657 49.1631 29.5422 48.8202 30.0287 48.8185C30.3982 48.8168 30.848 48.9255 31.1289 49.1782C31.368 49.3923 31.7241 49.0393 31.4834 48.8235C31.1088 48.4872 30.5604 48.325 30.0638 48.3166C29.4536 48.3066 28.8985 48.6696 28.4186 49.0092C28.3083 49.0878 28.2564 49.2283 28.3283 49.3521C28.3935 49.4609 28.5607 49.5211 28.6727 49.4425Z" fill="black"/>
<path d="M18.116 54.4347C18.34 54.4799 18.549 54.5635 18.758 54.6556C18.9804 54.7543 19.2045 54.8513 19.4168 54.9701C19.7729 55.1675 20.1374 55.4468 20.2127 55.8718C20.2311 55.9721 20.3531 56.029 20.4434 56.0039C20.5487 55.9755 20.5922 55.8734 20.5755 55.7731C20.4902 55.2846 20.0856 54.9249 19.6776 54.6873C19.4502 54.5535 19.2078 54.4481 18.967 54.3411C18.7229 54.234 18.4805 54.1269 18.218 54.0751C17.9789 54.0249 17.8786 54.3879 18.116 54.4347Z" fill="black"/>
<path d="M19.4753 53.7638C20.0739 53.824 20.8748 53.6484 21.3128 54.1787C21.378 54.2573 21.5118 54.2456 21.5787 54.1787C21.6556 54.1017 21.6439 53.9913 21.5787 53.9127C21.0637 53.287 20.1826 53.4593 19.4753 53.3874C19.3733 53.3774 19.2864 53.4811 19.2864 53.5764C19.2864 53.6852 19.3733 53.7538 19.4753 53.7638Z" fill="black"/>
<path d="M17.9355 76.7072C17.2316 76.8728 16.5159 76.9632 15.7936 76.9782C15.5512 76.9832 15.5512 77.3596 15.7936 77.3546C16.5494 77.3396 17.3018 77.2442 18.0358 77.0702C18.2715 77.0133 18.1712 76.6503 17.9355 76.7072Z" fill="black"/>
<path d="M18.4092 77.0528C18.043 77.3673 17.6049 77.5948 17.1384 77.7186C17.0398 77.7453 16.9796 77.8524 17.0064 77.9494C17.0331 78.0481 17.1384 78.1067 17.2371 78.0816C17.7688 77.9394 18.257 77.6768 18.6733 77.3188C18.7502 77.2518 18.7419 77.1214 18.6733 77.0528C18.5981 76.9775 18.4861 76.9875 18.4092 77.0528Z" fill="black"/>
<path d="M74.1808 80.0684L72.1724 97.8615L88.9285 97.5941L89.1921 92.2397L90.446 97.5714H109.241L105.685 82.6022L74.1808 80.0684Z" fill="white" stroke="black" stroke-width="0.5" stroke-miterlimit="10"/>
<path d="M72.221 52.141L68.4682 80.933C68.4329 81.2036 68.3687 81.4709 68.2788 81.728L63.4382 96.8903C62.7964 98.1506 64.1041 97.8072 66.538 97.8478L69.6234 97.8546C71.2406 97.8816 71.9017 93.1433 72.3188 91.4957L75.0111 80.8535C75.0384 80.7469 75.0608 80.6386 75.0785 80.5304L79.534 53.3742C79.8485 51.4627 78.7125 49.6171 76.9284 49.14L76.577 49.0453C74.5394 48.5023 72.5065 49.947 72.221 52.141Z" fill="white" stroke="black" stroke-width="0.5" stroke-miterlimit="10"/>
<path d="M97.006 34.2188C97.006 34.2188 96.9223 39.7019 101.087 40.2467C104.962 40.7544 108.726 40.5453 111.15 42.0126C111.968 42.5085 111.968 44.7045 112.198 47.4823C112.308 48.8147 111.401 54.7601 111.401 54.7601C111.496 55.5292 108.557 54.308 106.14 53.7768C105.603 53.6587 103.473 53.6115 103.506 54.4008C103.589 56.4096 104.031 58.614 104.631 62.5758C105.93 71.1523 106.496 78.1855 106.623 81.7173C106.783 86.2239 74.5479 84.517 74.3377 81.9753C73.7235 74.5356 79.0178 56.7283 78.2362 55.3622C77.2377 53.6182 71.7891 55.3301 70.8153 54.1343C70.1272 53.883 72.4771 47.516 72.7858 46.8346C74.024 44.099 74.3935 41.3649 82.8014 40.5334C84.4829 40.3665 86.1629 40.0747 87.1712 38.6832C87.8231 37.7843 88.4126 36.5564 88.6754 34.9069C89.4308 30.1995 97.006 34.2188 97.006 34.2188Z" fill="white" stroke="black" stroke-width="0.5" stroke-miterlimit="10"/>
<path d="M85.2109 21.9956C85.2109 21.9956 82.5457 16.6641 87.2089 16.7544C87.2089 16.7544 88.2238 16.7093 89.237 16.997C89.237 16.997 96.0202 13.9222 97.9882 17.9974C97.9882 17.9974 98.4128 18.3303 98.3811 20.664C98.3543 22.6731 98.351 30.6177 98.351 32.7824C98.351 33.2174 98.1988 33.6373 97.9196 33.9702C97.4782 34.4971 96.6656 35.2098 95.323 35.541C93.0525 36.1015 90.7501 35.7836 90.7501 35.7836C90.7501 35.7836 88.9962 35.5143 87.4814 33.8765C87.0851 33.4466 86.8711 32.8778 86.8644 32.2939L86.7976 25.6793C86.8009 25.6777 82.5758 24.525 85.2109 21.9956Z" fill="black" stroke="black" stroke-width="0.5" stroke-miterlimit="10"/>
<path d="M87.9094 23.4457C89.2068 23.8037 92.0241 24.2838 94.6241 22.7598C95.0053 22.5357 95.4868 22.8016 95.4952 23.245L95.6256 30.0252C95.6256 30.0252 95.868 31.2063 93.3249 31.2063C91.4005 31.2063 88.8674 31.1895 87.7505 31.1812C87.4328 31.1795 87.1787 30.9202 87.1787 30.604V24.0045C87.1787 23.6214 87.5415 23.3437 87.9094 23.4457Z" fill="white" stroke="black" stroke-width="0.5" stroke-miterlimit="10"/>
<path d="M2.48267 97.8613H125.552" stroke="black" stroke-width="0.5" stroke-miterlimit="10"/>
<path opacity="0.76" d="M101.889 52.2575C101.664 52.7713 102.18 53.6164 103.017 54.0881C103.5 54.4999 103 53.5 104.5 53.4992C104.609 53.0083 104.297 52.7013 103.602 52.2613C102.875 51.8005 102.1 51.7774 101.889 52.2575Z" fill="#FDAE46" fill-opacity="0.5"/>
<path opacity="0.76" d="M79.707 71.2437C77.9937 70.8183 76.2169 71.7825 75.0001 74C75 77 74.1426 78.4658 75.3772 78.5755C76.9787 78.7179 79.1128 77.3835 80.2776 75.5283C81.4976 73.5857 81.3069 71.6416 79.707 71.2437Z" fill="#FDAE46" fill-opacity="0.5"/>
<path opacity="0.76" d="M126.621 38.9294C125.722 38.3421 123.729 38.4493 122.299 39.1729C121.5 39.5778 121.713 41.136 121.713 41.252C122.634 41.6862 124.34 41.5735 125.623 41.0015C126.967 40.4031 127.462 39.4791 126.621 38.9294Z" fill="#FDAE46" fill-opacity="0.5"/>
<path d="M102.974 53.6414C103.171 53.8958 103.462 54.0994 103.799 54.2158C103.872 54.2405 103.967 54.2204 104.001 54.1565C104.033 54.0968 104.013 54.0169 103.935 53.9908C103.858 53.9639 103.782 53.9328 103.71 53.8964C103.702 53.892 103.694 53.8884 103.686 53.884C103.673 53.8766 103.667 53.8762 103.684 53.8833C103.665 53.8755 103.648 53.8634 103.633 53.8537C103.599 53.8337 103.565 53.812 103.534 53.7901C103.503 53.7691 103.473 53.7463 103.444 53.7234C103.429 53.7112 103.414 53.6989 103.4 53.6866C103.394 53.6813 103.387 53.6751 103.381 53.6697C103.377 53.6659 103.35 53.6445 103.376 53.6651C103.316 53.6187 103.269 53.5547 103.225 53.4989C103.183 53.4445 103.081 53.4285 103.017 53.4689C102.949 53.5103 102.929 53.5831 102.974 53.6414Z" fill="black"/>
<path d="M103.682 53.5302C103.816 53.6783 103.95 53.8255 104.085 53.9736C104.156 54.0517 104.268 54.0891 104.314 54.0396C104.36 53.9902 104.347 53.8894 104.27 53.8053C104.135 53.6572 104.001 53.51 103.867 53.3619C103.796 53.2838 103.684 53.2464 103.638 53.2959C103.59 53.3443 103.604 53.4451 103.682 53.5302Z" fill="black"/>
<path d="M122.318 39.7148C122.898 39.5123 123.522 39.4438 124.129 39.5408C124.262 39.5625 124.398 39.5073 124.438 39.3651C124.471 39.2464 124.398 39.0774 124.262 39.0556C123.565 38.9452 122.853 38.9971 122.184 39.2296C122.057 39.2748 121.972 39.4019 122.009 39.5391C122.044 39.6646 122.189 39.7599 122.318 39.7148Z" fill="black"/>
<path d="M122.074 40.4283C122.276 40.6056 122.478 40.7846 122.681 40.9619C122.731 41.0054 122.789 41.0355 122.858 41.0355C122.92 41.0355 122.993 41.0088 123.035 40.9619C123.079 40.9134 123.112 40.8515 123.109 40.7846C123.105 40.721 123.085 40.6508 123.035 40.6073C122.833 40.4299 122.631 40.2509 122.428 40.0736C122.378 40.0301 122.32 40 122.251 40C122.189 40 122.116 40.0268 122.074 40.0736C122.03 40.1221 121.997 40.184 122 40.2509C122.002 40.3145 122.024 40.3848 122.074 40.4283Z" fill="black"/>
<g opacity="0.79">
<g opacity="0.79">
<path opacity="0.79" d="M57.1521 7.93448C57.4748 7.93448 57.4748 7.43262 57.1521 7.43262C56.8294 7.43262 56.8277 7.93448 57.1521 7.93448Z" fill="#A4BFE0"/>
</g>
</g>
<path d="M91.82 24.9298C93.0524 25.4572 94.3798 25.7779 95.7572 25.886C95.9406 25.9012 96.097 25.7456 96.097 25.6014C96.097 25.4364 95.9406 25.332 95.7572 25.3168C94.5067 25.2182 93.2812 24.9165 92.1621 24.4384C91.7747 24.2715 91.4304 24.7628 91.82 24.9298Z" fill="black"/>
<path d="M87.2742 25.881C88.1722 25.9344 89.0812 25.6319 89.8301 25.0269C89.9534 24.9268 90.0068 24.7333 89.9295 24.5709C89.8577 24.4219 89.6755 24.3507 89.5522 24.4508C88.8769 24.9958 88.0857 25.2605 87.276 25.2138C87.127 25.2049 87 25.3739 87 25.5474C86.9982 25.7342 87.1251 25.8721 87.2742 25.881Z" fill="black"/>
<path d="M89.9725 28.4413C89.9887 28.504 89.9702 28.401 89.9771 28.4636C89.9794 28.4803 89.9817 28.497 89.9817 28.5123C89.9841 28.5485 89.984 28.5847 89.984 28.6209C89.9817 28.6877 89.9748 28.7531 89.9725 28.8199C89.9679 28.9688 89.9864 29.1163 90.0834 29.2541C90.2635 29.5102 90.7138 29.7231 91.1918 29.634C91.3649 29.602 91.492 29.4865 91.4342 29.3765C91.3788 29.2722 91.1941 29.197 91.007 29.2304C91.0001 29.2318 90.9909 29.2332 90.9839 29.2346C90.9539 29.2388 90.9516 29.2388 90.9839 29.236C91.0093 29.2346 91.0139 29.2346 90.9955 29.2346C90.9885 29.2346 90.9793 29.2346 90.9724 29.2346C90.8939 29.2374 90.9839 29.2318 90.9839 29.2388C90.9839 29.2388 90.9424 29.2332 90.9401 29.2332C90.9216 29.2304 90.8823 29.2109 90.917 29.229C90.9493 29.2457 90.9193 29.229 90.9054 29.2235C90.8962 29.2207 90.8592 29.2109 90.8546 29.204C90.8569 29.2109 90.9054 29.2304 90.8662 29.2095C90.8384 29.1942 90.8131 29.1775 90.7877 29.1608C90.7599 29.1441 90.8223 29.1928 90.7877 29.1608C90.7784 29.1525 90.7692 29.1441 90.7599 29.1344C90.7484 29.1233 90.7392 29.1121 90.7276 29.101C90.723 29.0968 90.7207 29.0913 90.7161 29.0871C90.7045 29.0732 90.7091 29.0773 90.7253 29.101C90.7184 29.101 90.6907 29.0384 90.6907 29.0356C90.686 29.0258 90.6837 29.0161 90.6791 29.0064C90.6768 28.998 90.6722 28.9577 90.6768 28.9952C90.6745 28.966 90.6699 28.9368 90.6676 28.9062C90.6653 28.8463 90.6699 28.7865 90.6722 28.728C90.6814 28.5916 90.6791 28.4608 90.6422 28.3258C90.6122 28.2173 90.3812 28.1477 90.215 28.1797C90.021 28.2228 89.9402 28.3258 89.9725 28.4413Z" fill="black"/>
<path d="M90.3829 33.0677C91.1319 32.6411 92.0782 32.5842 92.8674 32.9406C92.9911 32.9958 93.1366 32.9757 93.2102 32.8502C93.2737 32.7432 93.2436 32.5625 93.1199 32.5073C92.1635 32.074 91.045 32.1125 90.1287 32.6344C89.8495 32.795 90.102 33.2283 90.3829 33.0677Z" fill="white"/>
<path d="M46 26.5004L54.9999 28.0006L45.5 32.5005L46 26.5004Z" fill="white"/>
<path d="M70.6421 13.9964C70.6418 13.9181 70.6407 13.8399 70.6388 13.7617C70.6372 13.7617 70.6356 13.7617 70.634 13.7618L70.6421 13.9964ZM70.6421 13.9964C70.6419 13.9964 70.6418 13.9964 70.6417 13.9964C70.6401 13.9964 70.6385 13.9963 70.6371 13.9961" fill="white" stroke="black" stroke-width="0.5"/>
<path d="M41.2531 11.9415C43.0137 11.3376 44.7993 10.8073 46.6051 10.359C47.0599 10.2452 47.5163 10.1382 47.9728 10.0361C48.3523 9.9508 48.7335 9.85042 49.1197 9.80191C49.6431 9.73499 50.4256 9.72663 50.6329 10.3339C50.8252 10.8943 50.6764 11.6655 51.3552 11.9332C51.7347 12.0821 52.1979 11.985 52.5925 11.9566C53.0773 11.9231 53.5605 11.8897 54.0454 11.8579C55.0001 11.7927 55.9548 11.7274 56.9095 11.6622C57.3911 11.6287 57.8743 11.5953 58.3558 11.5635C58.8156 11.5334 59.2653 11.525 59.7151 11.6387C60.1398 11.7441 60.5511 11.8545 60.9908 11.883C61.4155 11.9098 61.8452 11.8746 62.2615 11.7876C63.1076 11.6137 63.8951 11.2071 64.5321 10.6233C64.7712 10.4042 64.4151 10.0512 64.1776 10.2686C63.6192 10.7806 62.9303 11.1268 62.1913 11.2891C61.4138 11.4597 60.6798 11.3711 59.9191 11.172C59.0413 10.9428 58.1334 11.0767 57.2406 11.1369C56.2859 11.2021 55.3312 11.2674 54.3765 11.3326C53.9066 11.3644 53.4351 11.3962 52.9653 11.4296C52.7296 11.4464 52.4955 11.4614 52.2597 11.4781C52.0524 11.4915 51.8167 11.5367 51.6127 11.4899C51.3084 11.4213 51.2699 11.0917 51.2315 10.8307C51.188 10.5296 51.1612 10.2235 51.0091 9.95247C50.6998 9.40209 50.036 9.25654 49.4508 9.27495C48.6583 9.30004 47.8624 9.54261 47.095 9.72496C45.0752 10.2051 43.0805 10.7839 41.1193 11.4597C40.8167 11.5618 40.9471 12.0469 41.2531 11.9415Z" fill="black"/>
<path d="M43.7943 20.9233C44.2206 20.388 44.7189 19.7389 45.4546 19.6653C45.7773 19.6335 46.0816 19.7238 46.2973 19.9731C46.518 20.2257 46.6734 20.5168 46.9326 20.7376C47.9124 21.5724 49.3553 21.564 50.524 21.1859C51.2681 20.945 51.9636 20.582 52.6692 20.2491C53.3982 19.9045 54.1389 19.6335 54.933 19.488C55.7506 19.3374 56.585 19.2889 57.4143 19.2353C58.2386 19.1818 59.0712 19.155 59.8788 19.3658C60.3035 19.4762 60.7164 19.59 61.1562 19.4896C61.5992 19.3893 62.0072 19.13 62.4051 18.9208C63.2846 18.4625 64.1624 18.0024 65.0419 17.5441C65.3278 17.3952 65.0753 16.9619 64.7894 17.1108C64.0086 17.519 63.2261 17.9271 62.4453 18.3353C62.0691 18.5311 61.6962 18.7586 61.3033 18.9175C60.8953 19.0831 60.5359 19.0212 60.1229 18.9108C59.3103 18.6933 58.4877 18.6699 57.6517 18.7184C56.8408 18.7636 56.0249 18.8188 55.2206 18.9359C54.4114 19.053 53.6423 19.2722 52.8916 19.5984C52.1592 19.9179 51.457 20.3093 50.7079 20.5904C49.5911 21.0086 48.0612 21.1893 47.1416 20.2458C46.8741 19.9697 46.7169 19.6067 46.3892 19.3859C46.0782 19.1768 45.6903 19.1266 45.3258 19.1785C44.4965 19.2972 43.9331 19.9497 43.4398 20.5686C43.2392 20.8179 43.592 21.1759 43.7943 20.9233Z" fill="black"/>
<path d="M109.206 21.6559C108.756 20.6672 108.962 19.4092 109.702 18.6163C110.147 18.1412 110.756 17.8384 111.361 17.6192C111.7 17.4954 112.013 17.4452 112.349 17.6042C112.62 17.733 112.876 17.9153 113.105 18.1077C113.635 18.5494 114.058 19.0947 114.364 19.7137C114.394 19.5999 114.424 19.4845 114.454 19.3707C113.546 19.8994 112.289 19.3975 111.446 18.9458C110.568 18.4757 109.794 17.8066 109.219 16.9919C109.084 16.8012 108.96 16.6038 108.846 16.3997C108.801 16.3194 108.671 16.1487 108.707 16.0517C108.744 15.958 108.955 15.8694 109.04 15.8158C109.533 15.5047 110.068 15.2554 110.645 15.1534C111.583 14.9844 112.765 15.3106 113.157 16.2659C113.329 16.6841 113.337 17.196 113.111 17.5975C112.857 18.0508 112.347 18.2482 111.876 18.3971C110.739 18.7568 109.492 18.9508 108.331 18.5811C107.428 18.2934 106.333 17.5205 106.311 16.4683C106.288 15.4261 107.687 15.0229 108.518 14.966C109.584 14.8941 110.685 15.2471 111.463 15.9882C111.612 16.1287 111.913 16.403 111.74 16.6205C111.603 16.7911 111.337 16.7694 111.172 16.6657C110.66 16.3428 110.6 15.5716 110.301 15.0915C110.13 14.8171 109.697 15.0697 109.868 15.3441C110.211 15.8961 110.271 16.6088 110.817 17.027C111.239 17.3499 111.948 17.3265 112.214 16.8045C112.521 16.1989 111.869 15.6402 111.441 15.3173C110.98 14.9694 110.441 14.7234 109.881 14.5863C108.758 14.3102 107.408 14.4441 106.47 15.1701C105.955 15.5699 105.723 16.1554 105.848 16.7995C105.97 17.4218 106.39 17.9722 106.877 18.3637C107.957 19.2302 109.368 19.4025 110.7 19.1951C111.394 19.0864 112.142 18.9107 112.765 18.5778C113.295 18.2951 113.67 17.8166 113.757 17.2161C113.944 15.948 112.991 14.9142 111.792 14.6716C111.154 14.5428 110.495 14.6181 109.884 14.8372C109.557 14.956 109.241 15.1082 108.94 15.2855C108.689 15.4344 108.316 15.6118 108.221 15.9112C108.122 16.2173 108.343 16.5385 108.49 16.7895C108.646 17.0555 108.823 17.3081 109.012 17.549C109.393 18.0341 109.839 18.4607 110.333 18.8304C110.826 19.2001 111.369 19.4962 111.943 19.7221C112.521 19.9496 113.163 20.1286 113.79 20.0784C114.115 20.0516 114.422 19.9663 114.703 19.8023C114.827 19.7304 114.854 19.5799 114.793 19.4594C114.481 18.8271 114.043 18.2549 113.506 17.7949C112.951 17.3181 112.29 16.8631 111.525 17.0404C111.15 17.1274 110.776 17.2997 110.433 17.472C110.097 17.641 109.777 17.8501 109.5 18.1044C109.022 18.541 108.692 19.1399 108.55 19.7706C108.388 20.4916 108.462 21.236 108.768 21.9085C108.906 22.203 109.338 21.947 109.206 21.6559Z" fill="black"/>
<path d="M75.2414 73.9942C76.4185 74.0684 77.5855 73.4244 78.1958 72.385C78.363 72.0984 77.9299 71.8377 77.7627 72.1243C77.2411 73.0152 76.2463 73.5401 75.2414 73.4762C74.9187 73.4555 74.9204 73.9735 75.2414 73.9942Z" fill="black"/>
<path d="M75.1264 75.2365C75.9337 75.3623 76.7801 75.204 77.4933 74.8069C77.7745 74.6503 77.5457 74.2041 77.2625 74.3618C76.6169 74.7224 75.8753 74.849 75.1449 74.7352C75.0113 74.714 74.8901 74.8528 74.8841 74.9773C74.8799 75.1233 74.9912 75.2148 75.1264 75.2365Z" fill="black"/>
<path d="M85.5171 42.5517L87.4743 41.1391L92.2497 44.9248L98.5736 40.0342L98.8619 41.7357L92.8778 47.448L85.5171 42.5517Z" fill="black" stroke="black" stroke-width="0.5" stroke-miterlimit="10"/>
<path d="M11.3434 63.2746L3.68946 52.4475L4.88018 51.4241C4.88018 51.4241 3.34972 51.5092 1.6494 49.1217C-0.0509213 46.7342 2.03743 46.7292 2.80849 46.5005C2.80849 46.5005 6.10921 46.6074 7.38487 45.1098C8.66053 43.6122 9.36664 41.9877 11.5366 42.4986C13.7065 43.0094 14.5292 40.1495 14.5292 40.1495L21.0141 36.1425C21.0141 36.1425 29.2326 30.6797 33.6125 32.5129C37.9924 34.3461 38 38 38 38V40.5L36.2054 38.0492L26.1626 41.5821C26.1626 41.5821 26.6946 50.4023 19.7634 54.6229C19.7634 54.6229 12.6407 56.0922 11.3434 63.2746Z" fill="black" stroke="black" stroke-width="0.5" stroke-miterlimit="10"/>
<path d="M112.172 44.8402C112.172 44.8402 114.634 45.996 118.228 43.5654C121.779 41.1649 123.244 40.6384 119.922 37.6763C113.506 31.9526 108.107 29.7444 104.888 29.1175C103.365 28.82 103.219 28.3937 100.538 29.2679C99.7311 29.5304 97.07 29.6976 97.019 29.2044C96.9815 28.8417 99.5695 27.8604 99.5933 27.6565C99.5933 27.6565 95.7497 26.3493 95.9011 25.5653C96.0474 24.7997 99.7787 25.8528 99.7787 25.8528C99.7957 25.7074 96.7093 24.8047 96.6395 24.3166C96.5511 23.683 99.9387 24.1143 100.049 23.8903C100.257 23.4707 96.3707 23.6045 96.3894 23.2501C96.4983 21.0953 101.928 23.0261 102.438 23.24C103.491 23.678 104.274 23.7666 105.171 24.0825C111.296 26.2306 124.573 31.5297 129.655 39.8962C131.263 42.5424 126.83 44.8476 125.093 46.128C116.73 52.2897 112 51.5 112 51.5L112.172 44.8402Z" stroke="black" stroke-width="0.5" stroke-miterlimit="10"/>
<path d="M93.7046 27.5737C94.0207 27.5088 93.9198 27.0172 93.6037 27.0821C93.2876 27.147 93.3868 27.6389 93.7046 27.5737Z" fill="black"/>
<path d="M89.338 27.5406C89.6541 27.4757 89.5532 26.9841 89.2371 27.049C88.921 27.1139 89.0219 27.6055 89.338 27.5406Z" fill="black"/>
</svg>
