<svg width="15" height="15" viewBox="0 0 15 15" fill="none" xmlns="http://www.w3.org/2000/svg">
<path d="M15 13.5938C15 14.3701 14.2801 15 13.3929 15H1.60714C0.719867 15 0 14.3701 0 13.5938V5.625H15V13.5938ZM12.8571 7.96875C12.8571 7.71094 12.6161 7.5 12.3214 7.5H9.10714C8.8125 7.5 8.57143 7.71094 8.57143 7.96875V10.7812C8.57143 11.0391 8.8125 11.25 9.10714 11.25H12.3214C12.6161 11.25 12.8571 11.0391 12.8571 10.7812V7.96875ZM1.60714 1.875H3.21429V0.46875C3.21429 0.210938 3.45536 0 3.75 0H4.82143C5.11607 0 5.35714 0.210938 5.35714 0.46875V1.875H9.64286V0.46875C9.64286 0.210938 9.88393 0 10.1786 0H11.25C11.5446 0 11.7857 0.210938 11.7857 0.46875V1.875H13.3929C14.2801 1.875 15 2.50488 15 3.28125V4.6875H0V3.28125C0 2.50488 0.719867 1.875 1.60714 1.875Z" fill="#4F4F4F"/>
</svg>
