<svg width="55" height="55" viewBox="0 0 55 55" fill="none" xmlns="http://www.w3.org/2000/svg">
<circle cx="27.5" cy="27.5" r="27.5" fill="#FDAE46"/>
<g filter="url(#filter0_d)">
<path d="M14 35.1675V41H19.8325L37.0346 23.7979L31.2021 17.9654L14 35.1675ZM41.5451 19.2875C42.1516 18.6809 42.1516 17.701 41.5451 17.0944L37.9056 13.4549C37.299 12.8484 36.3191 12.8484 35.7125 13.4549L32.8663 16.3012L38.6988 22.1337L41.5451 19.2875Z" fill="#FDAE46"/>
<path d="M12.9393 34.1068L12.5 34.5462V35.1675V41V42.5H14H19.8325H20.4538L20.8932 42.0607L38.0952 24.8586L38.6988 24.2551L39.1559 23.7979L39.7595 23.1944L42.6057 20.3481C43.7981 19.1558 43.7981 17.2261 42.6057 16.0338L38.9662 12.3943L37.9178 13.4427L38.9662 12.3943C37.7739 11.2019 35.8442 11.2019 34.6519 12.3943L35.6998 13.4422L34.6519 12.3943L31.8056 15.2405L31.2021 15.8441L30.7449 16.3012L30.1414 16.9048L12.9393 34.1068Z" stroke="white" stroke-width="3"/>
</g>
<defs>
<filter id="filter0_d" x="8" y="10" width="40" height="40" filterUnits="userSpaceOnUse" color-interpolation-filters="sRGB">
<feFlood flood-opacity="0" result="BackgroundImageFix"/>
<feColorMatrix in="SourceAlpha" type="matrix" values="0 0 0 0 0 0 0 0 0 0 0 0 0 0 0 0 0 0 127 0"/>
<feOffset dy="3"/>
<feGaussianBlur stdDeviation="1.5"/>
<feColorMatrix type="matrix" values="0 0 0 0 0 0 0 0 0 0 0 0 0 0 0 0 0 0 0.06 0"/>
<feBlend mode="normal" in2="BackgroundImageFix" result="effect1_dropShadow"/>
<feBlend mode="normal" in="SourceGraphic" in2="effect1_dropShadow" result="shape"/>
</filter>
</defs>
</svg>
