<svg width="34" height="34" viewBox="0 0 34 34" fill="none" xmlns="http://www.w3.org/2000/svg">
<g filter="url(#filter0_d)">
<path d="M6 20.4173V25H10.5827L24.0986 11.4841L19.5159 6.9014L6 20.4173ZM27.6426 7.94015C28.1192 7.46355 28.1192 6.69365 27.6426 6.21705L24.7829 3.35745C24.3063 2.88085 23.5365 2.88085 23.0599 3.35745L20.8235 5.59381L25.4062 10.1765L27.6426 7.94015Z" fill="#828282"/>
<path d="M4.93934 19.3566L4.5 19.796V20.4173V25V26.5H6H10.5827H11.204L11.6434 26.0607L25.1593 12.5448L25.4062 12.2978L26.2199 11.4841L26.4669 11.2372L28.7032 9.00081C29.7656 7.93842 29.7656 6.21878 28.7032 5.15639L25.8436 2.29679C24.7812 1.2344 23.0616 1.2344 21.9992 2.29679L19.7628 4.53315L19.5159 4.78008L18.7022 5.59381L18.4552 5.84074L4.93934 19.3566Z" stroke="white" stroke-width="3"/>
</g>
<defs>
<filter id="filter0_d" x="0" y="0" width="34" height="34" filterUnits="userSpaceOnUse" color-interpolation-filters="sRGB">
<feFlood flood-opacity="0" result="BackgroundImageFix"/>
<feColorMatrix in="SourceAlpha" type="matrix" values="0 0 0 0 0 0 0 0 0 0 0 0 0 0 0 0 0 0 127 0"/>
<feOffset dy="3"/>
<feGaussianBlur stdDeviation="1.5"/>
<feColorMatrix type="matrix" values="0 0 0 0 0 0 0 0 0 0 0 0 0 0 0 0 0 0 0.06 0"/>
<feBlend mode="normal" in2="BackgroundImageFix" result="effect1_dropShadow"/>
<feBlend mode="normal" in="SourceGraphic" in2="effect1_dropShadow" result="shape"/>
</filter>
</defs>
</svg>
