<svg width="160" height="124" viewBox="0 0 160 124" fill="none" xmlns="http://www.w3.org/2000/svg">
<rect width="160" height="123" fill="white"/>
<rect x="20" y="-0.000244141" width="120" height="122" fill="white"/>
<path d="M52.1948 31.48L45.5564 33.8659C44.095 29.8 43.3824 28.4737 45.1981 26.1414C50.161 19.7664 45.2541 16.8784 43.2197 17.6096C38.9664 18.5584 39.8631 22.1185 40.8432 23.7799L33.3482 26.4738C29.346 16.0114 38.9072 11.8902 43.7361 11.1413C46.7301 10.6693 53.21 10.9259 55.1778 15.7281C57.1456 20.5302 53.2482 26.4497 51.2141 28.7515L52.1948 31.48Z" stroke="black"/>
<rect x="47.1704" y="37.6038" width="6.39676" height="5.80286" transform="rotate(-19.7694 47.1704 37.6038)" stroke="black"/>
<path d="M31.0903 14.1072L22.4626 10.1169M24.1803 17.3748L29.3128 18.2967" stroke="black" stroke-linecap="round"/>
<path d="M51.3015 9.63501L54.9718 1.86634" stroke="black" stroke-linecap="round"/>
<path d="M71.3857 25.3102L68.2693 25.1084C68.3929 23.1996 68.3374 22.5353 69.486 21.9084C72.6255 20.1949 71.1423 18.1569 70.1872 18.095C68.2927 17.7302 68.0291 19.334 68.134 20.1815L64.6154 19.9537C64.8353 14.9994 69.4446 15.012 71.5376 15.5595C72.8366 15.8958 75.4227 17.1427 75.3749 19.4398C75.3271 21.7369 72.7006 23.4533 71.4687 24.0293L71.3857 25.3102Z" fill="white"/>
<rect x="68.0588" y="26.6758" width="3.27466" height="3.01173" transform="rotate(3.70495 68.0588 26.6758)" fill="white"/>
<path d="M71.3857 24.3102L68.2693 24.1084C68.3929 22.1996 68.3374 21.5353 69.486 20.9084C72.6255 19.1949 71.1423 17.1569 70.1872 17.095C68.2927 16.7302 68.0291 18.334 68.134 19.1815L64.6154 18.9537C64.8353 13.9994 69.4446 14.012 71.5376 14.5595C72.8366 14.8958 75.4227 16.1427 75.3749 18.4398C75.3271 20.7369 72.7006 22.4533 71.4687 23.0293L71.3857 24.3102Z" stroke="black" stroke-width="0.5"/>
<rect x="68.2922" y="25.9414" width="2.77466" height="2.51173" transform="rotate(3.70495 68.2922 25.9414)" stroke="black" stroke-width="0.5"/>
<path d="M38.2359 54.0255L39.4453 52.178C38.3137 51.4372 37.9618 51.1238 37.1196 51.5069C34.8176 52.554 34.2954 50.85 34.666 50.2838C35.2643 49.0579 36.2829 49.5899 36.7175 50.0092L38.0829 47.9233C35.1888 45.9436 33.2384 48.5547 32.6591 49.9704C32.2976 50.8476 31.9043 52.8392 33.2231 53.7876C34.542 54.7361 36.6278 53.9802 37.4766 53.5284L38.2359 54.0255Z" fill="white"/>
<rect width="2.31539" height="2.12948" transform="matrix(-0.547698 0.836676 0.836676 0.547698 40.4209 52.7245)" fill="white"/>
<path d="M38.2359 53.0255L39.4453 51.178C38.3137 50.4372 37.9618 50.1238 37.1196 50.5069C34.8176 51.554 34.2954 49.85 34.666 49.2838C35.2643 48.0579 36.2829 48.5899 36.7175 49.0092L38.0829 46.9233C35.1888 44.9436 33.2384 47.5547 32.6591 48.9704C32.2976 49.8476 31.9043 51.8392 33.2231 52.7876C34.542 53.7361 36.6278 52.9802 37.4766 52.5284L38.2359 53.0255Z" stroke="black" stroke-width="0.5"/>
<rect x="0.0722447" y="0.346093" width="1.81539" height="1.62948" transform="matrix(-0.547698 0.836676 0.836676 0.547698 40.2431 51.8206)" stroke="black" stroke-width="0.5"/>
<line x1="76.6464" y1="13.6464" x2="81.6464" y2="8.64645" stroke="black"/>
<line x1="79.9178" y1="17.5068" x2="85.9178" y2="16.5068" stroke="black"/>
<line x1="29.1213" y1="53.4851" x2="25.1213" y2="54.4851" stroke="black"/>
<line x1="34.4903" y1="56.0981" x2="33.4903" y2="61.0981" stroke="black"/>
<path d="M76.963 35.5387C78.8951 34.4848 82.8647 33.3256 83.2862 37.1195C83.7078 40.9134 86.2722 47.8338 87.5017 50.8197C84.867 53.9813 80.9677 62.9392 86.4478 73.4779C91.9279 84.0165 91.1902 88.4076 90.1364 89.2859L105.417 85.0704L110.687 81.3819L114.375 86.6512C118.064 92.6231 124.703 104.672 121.752 105.094C118.802 105.515 109.633 111.944 105.417 115.106C105.769 116.686 106.261 119.953 105.417 120.375C104.364 120.902 104.364 122.483 101.729 119.321C99.6212 116.792 94.5275 116.862 92.2441 117.213C90.839 116.511 88.8717 114.895 92.2441 114.052C95.2178 113.308 96.498 112.783 96.8796 112.549L62.7358 113.525L73.8014 70.8432C75.2066 70.6675 78.0169 68.6301 78.0169 61.8853C77.6656 61.0071 76.5415 59.1453 74.8553 58.7237C72.7476 58.1968 71.1668 53.4544 72.2206 48.712C71.6937 46.0774 71.9045 39.7542 76.963 35.5387Z" fill="white"/>
<path d="M77.3105 61.3854C77.8243 66.6558 76.5685 68.6682 74.5704 70.4409" stroke="#333333" stroke-width="0.5" stroke-linecap="round"/>
<path d="M101.051 94.1072C101.637 94.8202 105.227 98.4238 105.618 98.6422" stroke="#333333" stroke-width="0.5" stroke-linecap="round"/>
<path d="M74.6877 55.6031C75.405 55.5915 75.8504 55.2861 76.4402 55.3069C76.9769 55.3258 77.5805 55.9161 77.8872 56.0982" stroke="#333333" stroke-width="0.5" stroke-linecap="round"/>
<path d="M75.2717 42.9855C75.2717 42.9855 74.6458 42.771 74.2283 42.7275C73.7789 42.6805 73.0724 42.7795 73.0724 42.7795" stroke="#333333" stroke-width="0.5" stroke-linecap="round"/>
<path d="M79.8719 45.0485C79.8719 45.0485 81.4693 45.0228 82.3925 45.3893C83.3538 45.7709 84.5299 46.9533 84.5299 46.9533" stroke="#333333" stroke-width="0.5" stroke-linecap="round"/>
<path d="M75.2617 58.9849C74.6988 58.8 73.3914 58.1247 72.6652 56.902C71.939 55.6794 71.6564 52.6552 71.53 51.2796C71.4093 48.3823 72.2385 42.1841 72.8816 40.673C73.5248 39.1619 75.161 36.9449 75.8986 36.0253" stroke="#333333" stroke-width="0.5" stroke-linecap="round"/>
<path d="M107.993 85.9526L106.282 81.602C108.833 85.9592 113.958 83.7439 116.202 82.0917C116.147 81.588 115.497 80.112 113.337 78.2377C111.178 76.3633 110.461 73.8259 110.372 72.7915L110.046 69.152C110.201 68.5349 109.959 66.9219 107.761 65.4071C105.562 63.8923 105.537 62.1568 105.8 61.4785L106.204 59.0909C104.762 55.089 101.405 45.8888 99.5184 41.1036C97.6316 36.3184 93.6978 32.345 91.9668 30.9564C91.2888 30.4717 88.9449 29.4924 84.994 29.4525C81.0432 29.4126 76.496 34.7265 74.7163 37.3884L79.7393 35.0611L87.0561 50.7099C81.1181 61.1046 82.8499 70.1395 87.3843 76.8441C91.0119 82.2077 88.5074 88.8727 86.8017 91.5347L107.993 85.9526Z" fill="#333333"/>
<path d="M106.282 81.602L107.993 85.9526L86.8017 91.5347C88.5074 88.8727 91.0119 82.2077 87.3843 76.8441C82.8499 70.1395 81.1181 61.1046 87.0561 50.7099M106.282 81.602C101.853 67.8397 91.8065 42.3941 87.0561 50.7099M106.282 81.602C108.833 85.9592 113.958 83.7439 116.202 82.0917C116.147 81.588 115.497 80.112 113.337 78.2377C111.178 76.3633 110.461 73.8259 110.372 72.7915L110.046 69.152C110.201 68.5349 109.959 66.9219 107.761 65.4071C105.562 63.8923 105.537 62.1568 105.8 61.4785L106.204 59.0909C104.762 55.089 101.405 45.8888 99.5184 41.1036C97.6316 36.3184 93.6978 32.345 91.9668 30.9564C91.2888 30.4717 88.9449 29.4924 84.994 29.4525C81.0432 29.4126 76.496 34.7265 74.7163 37.3884L79.7393 35.0611L87.0561 50.7099" stroke="#333333" stroke-width="0.5" stroke-linecap="round"/>
<path d="M73.3334 44.9263C73.2259 45.0848 73.2097 45.2615 73.3682 45.369C73.5266 45.4766 73.6275 45.3574 73.7351 45.199C73.8426 45.0405 73.8772 44.9602 73.7187 44.8526C73.5603 44.7451 73.441 44.7679 73.3334 44.9263Z" fill="#333333"/>
<path d="M76.2001 47.1237L74.9731 48.931C74.516 49.5427 73.8064 50.8966 74.6253 51.419C75.4442 51.9413 75.808 52.2079 75.8876 52.2759" stroke="#333333" stroke-width="0.5" stroke-linecap="round"/>
<path d="M79.7459 47.5803C79.6383 47.7387 79.6222 47.9154 79.7807 48.023C79.9391 48.1305 80.0974 48.0503 80.2049 47.8919C80.3125 47.7334 80.3286 47.5567 80.1702 47.4492C80.0117 47.3416 79.8535 47.4218 79.7459 47.5803Z" fill="#333333"/>
<path d="M116.248 89.1896C115.684 88.2465 113.958 85.0637 112.113 82.3759C110.777 80.4467 106.122 71.462 98.8679 72.2791C92.2627 72.8508 96.5079 64.7688 100.735 58.8933" stroke="#333333" stroke-width="0.5" stroke-linecap="round"/>
<path d="M84.1973 88.6336C86.3809 85.716 90.2977 79.4294 90.887 71.0935" stroke="#333333" stroke-width="0.5" stroke-linecap="round"/>
<path d="M116.169 89.1832L105.606 98.6096" stroke="#333333" stroke-width="0.5" stroke-linecap="round"/>
<path d="M21 115.632L85 115.632" stroke="#333333" stroke-linecap="round"/>
<path d="M108 116L140 116" stroke="#333333" stroke-linecap="round"/>
<path d="M105.489 98.5695C106.08 99.2343 107.337 100.618 107.639 100.834" stroke="#333333" stroke-width="0.5" stroke-linecap="round"/>
<ellipse cx="98.5064" cy="102.579" rx="4.48832" ry="2.52569" transform="rotate(57.801 98.5064 102.579)" fill="#FDAE46" fill-opacity="0.5"/>
<ellipse cx="69.5025" cy="104.477" rx="4.05118" ry="2.10008" transform="rotate(-161.155 69.5025 104.477)" fill="#FDAE46" fill-opacity="0.5"/>
<ellipse cx="66.0233" cy="105.868" rx="2.25438" ry="0.896693" transform="rotate(149.618 66.0233 105.868)" fill="#FDAE46" fill-opacity="0.5"/>
<path d="M65.8514 102.629L69.7746 104.486M65.6156 104.009L69.4293 107.077" stroke="#333333" stroke-width="0.5" stroke-linecap="round"/>
<path d="M100.193 101.465L96.6317 99.8491M100.061 102.865C99.4174 102.835 97.9246 102.642 97.105 102.111M100.435 104.653L97.5507 104.241" stroke="#333333" stroke-width="0.5" stroke-linecap="round"/>
<path d="M75.2949 75.518C74.2439 75.905 70.5213 85.2378 70.2955 93.8864C69.66 100.341 65.9527 110.183 61.0075 103.638C56.3452 97.4664 57.1643 94.2222 59.4249 88.0481C64.4461 77.0413 66.1348 76.1658 63.7507 73.4541C63.3864 73.0397 63.9583 73.5723 62.557 71.9989C61.1557 70.4255 62.9593 68.7194 63.7507 69.4192L64.3572 69.7416C65.1495 70.0686 65.9707 70.2169 64.8527 68.5478C63.7348 66.8787 65.0289 66.8519 65.8157 67.0471L66.6471 67.4847C66.4311 66.8707 66.4119 67.0969 65.3937 63.0101C64.3754 58.9233 66.852 60.1061 68.2175 61.2083C69.8335 63.5334 73.3629 68.5044 74.5524 69.7875C76.0393 71.3914 76.503 70.4574 78.5635 69.639C80.6241 68.8206 81.4854 71.0008 80.5248 72.7128C79.5642 74.4248 76.6087 75.0342 75.2949 75.518Z" fill="white" stroke="#333333" stroke-width="0.5" stroke-linecap="round"/>
<rect x="94.8359" y="105.012" width="8.98003" height="2.28849" rx="1.14425" transform="rotate(11.4662 94.8359 105.012)" fill="white"/>
<rect x="100.744" y="106.369" width="9.36483" height="2.28849" rx="1.14425" transform="rotate(-96.197 100.744 106.369)" fill="white"/>
<path d="M101.248 91.5707C100.644 92.9953 99.4942 96.3024 99.7289 98.1341C99.8429 99.0241 100.031 100.79 100.672 105.766" stroke="#333333" stroke-width="0.5"/>
<path d="M105.593 115.362C104.602 116.065 106.885 117.751 106.114 119.627C105.342 121.502 103.004 122.893 102.416 120.655C101.828 118.417 100.402 117.457 99.4184 117.206C97.753 116.782 95.1786 117.141 92.3856 117.241C90.7033 116.786 88.2938 115.451 92.1138 113.748C95.9338 112.045 96.083 113.721 96.0927 112.414L91.8759 110.692C91.2523 110.155 90.4999 109.054 92.4797 108.947C94.4595 108.839 96.7738 110.247 96.9338 109.375L93.3617 106.974C92.9228 106.15 92.5634 104.548 94.6373 104.738C96.7112 104.928 101.302 106.398 101.932 106.025" stroke="#333333" stroke-width="0.5" stroke-linecap="round"/>
<path d="M116.583 89.8074L120.846 98.1752C121.371 99.3324 123.947 102.537 122.688 104.787C121.429 107.036 109.864 110.977 105.628 115.328M102.055 105.953C103.162 105.56 110.24 99.5161 110.24 99.5161" stroke="#333333" stroke-width="0.5" stroke-linecap="round"/>
<path d="M105.593 115.362L105.627 115.328" stroke="#333333" stroke-width="0.5"/>
<path d="M64.2914 106.337L63.0676 113.353" stroke="#333333" stroke-width="0.5" stroke-linecap="round"/>
<path d="M107.525 101.405L100.675 94.5552C100.675 94.5552 100.131 96.688 100.148 97.7168C100.199 100.81 101.202 105.094 101.202 105.094L101.729 105.621L107.525 101.405Z" fill="white"/>
<g opacity="0.5">
<path d="M53.6426 32.7378L47.0041 35.1237C45.5428 31.0578 44.8301 29.7315 46.6458 27.3992C51.6087 21.0242 46.7018 18.1363 44.6675 18.8674C40.4142 19.8162 41.3109 23.3763 42.2909 25.0377L34.7959 27.7316C30.7937 17.2692 40.355 13.148 45.1839 12.3991C48.1779 11.9272 54.6578 12.1837 56.6256 16.9859C58.5934 21.788 54.696 27.7075 52.6619 30.0093L53.6426 32.7378Z" fill="#FDAE46"/>
<rect x="47.9783" y="38.5601" width="7.39676" height="6.80286" transform="rotate(-19.7694 47.9783 38.5601)" fill="#FDAE46"/>
</g>
</svg>
