<svg width="160" height="123" viewBox="0 0 160 123" fill="none" xmlns="http://www.w3.org/2000/svg">
<rect width="160" height="123" fill="white"/>
<rect x="20" y="2" width="120" height="120" fill="white"/>
<path d="M109.173 51.629H105.963L105.716 53.9577C107.325 55.1431 108.691 52.8992 109.173 51.629Z" fill="white"/>
<mask id="path-4-inside-1" fill="white">
<path fill-rule="evenodd" clip-rule="evenodd" d="M103.246 52.7951C103.246 54.0026 103.172 55.1369 103.023 56.2347L110.499 62.016C111.206 62.5283 111.392 63.4431 110.945 64.2481L103.804 76.3963C103.358 77.2013 102.428 77.494 101.61 77.2013L92.7205 73.6885C90.8981 75.079 88.8896 76.2499 86.6952 77.1281L85.3562 86.4222C85.2447 87.3004 84.5008 87.9224 83.6082 87.9224H69.3259C68.4332 87.9224 67.7266 87.3004 67.5406 86.4222L66.2016 77.1281C64.0072 76.2499 62.036 75.079 60.1763 73.6885L51.2871 77.2013C50.4688 77.4574 49.539 77.2013 49.0927 76.3963L41.9516 64.2481C41.5424 63.5163 41.7284 62.5283 42.3979 62.016L49.9481 56.2347C49.7622 55.1369 49.6878 53.9294 49.6878 52.7951C49.6878 51.6608 49.8366 50.4533 50.0225 49.3556L42.4723 43.5742C41.7284 43.0619 41.5796 42.1106 42.0259 41.3422L49.1299 29.194C49.5762 28.389 50.506 28.0963 51.3243 28.389L60.2135 31.9017C62.036 30.5478 64.0444 29.3403 66.2388 28.4622L67.5778 19.1681C67.7266 18.2899 68.4332 17.6678 69.3259 17.6678H83.6082C84.5008 17.6678 85.2447 18.2899 85.3934 19.1681L86.7324 28.4622C88.9268 29.3403 90.898 30.5113 92.7577 31.9017L101.647 28.389C102.465 28.1328 103.395 28.389 103.841 29.194L110.982 41.3422C111.392 42.074 111.206 43.0619 110.536 43.5742L102.986 49.3556C103.172 50.4533 103.246 51.6242 103.246 52.7951ZM63.0774 52.7951C63.0774 60.0401 69.1027 65.9679 76.467 65.9679C83.8313 65.9679 89.8566 60.0401 89.8566 52.7951C89.8566 45.5501 83.8313 39.6224 76.467 39.6224C69.1027 39.6224 63.0774 45.5501 63.0774 52.7951ZM76.5062 35.7612H75.1425C74.6637 36.3426 73.435 37.5554 72.9151 37.7548C72.8936 37.763 72.871 37.7718 72.8476 37.7809C72.163 38.0461 70.6743 38.623 69.3439 37.0121C68.454 35.9345 66.8742 32.2567 69.0969 29.2716C70.8568 26.9082 72.9151 28.022 73.5778 28.7162L75.1724 30.3099H76.5062V35.7612Z"/>
</mask>
<path fill-rule="evenodd" clip-rule="evenodd" d="M103.246 52.7951C103.246 54.0026 103.172 55.1369 103.023 56.2347L110.499 62.016C111.206 62.5283 111.392 63.4431 110.945 64.2481L103.804 76.3963C103.358 77.2013 102.428 77.494 101.61 77.2013L92.7205 73.6885C90.8981 75.079 88.8896 76.2499 86.6952 77.1281L85.3562 86.4222C85.2447 87.3004 84.5008 87.9224 83.6082 87.9224H69.3259C68.4332 87.9224 67.7266 87.3004 67.5406 86.4222L66.2016 77.1281C64.0072 76.2499 62.036 75.079 60.1763 73.6885L51.2871 77.2013C50.4688 77.4574 49.539 77.2013 49.0927 76.3963L41.9516 64.2481C41.5424 63.5163 41.7284 62.5283 42.3979 62.016L49.9481 56.2347C49.7622 55.1369 49.6878 53.9294 49.6878 52.7951C49.6878 51.6608 49.8366 50.4533 50.0225 49.3556L42.4723 43.5742C41.7284 43.0619 41.5796 42.1106 42.0259 41.3422L49.1299 29.194C49.5762 28.389 50.506 28.0963 51.3243 28.389L60.2135 31.9017C62.036 30.5478 64.0444 29.3403 66.2388 28.4622L67.5778 19.1681C67.7266 18.2899 68.4332 17.6678 69.3259 17.6678H83.6082C84.5008 17.6678 85.2447 18.2899 85.3934 19.1681L86.7324 28.4622C88.9268 29.3403 90.898 30.5113 92.7577 31.9017L101.647 28.389C102.465 28.1328 103.395 28.389 103.841 29.194L110.982 41.3422C111.392 42.074 111.206 43.0619 110.536 43.5742L102.986 49.3556C103.172 50.4533 103.246 51.6242 103.246 52.7951ZM63.0774 52.7951C63.0774 60.0401 69.1027 65.9679 76.467 65.9679C83.8313 65.9679 89.8566 60.0401 89.8566 52.7951C89.8566 45.5501 83.8313 39.6224 76.467 39.6224C69.1027 39.6224 63.0774 45.5501 63.0774 52.7951ZM76.5062 35.7612H75.1425C74.6637 36.3426 73.435 37.5554 72.9151 37.7548C72.8936 37.763 72.871 37.7718 72.8476 37.7809C72.163 38.0461 70.6743 38.623 69.3439 37.0121C68.454 35.9345 66.8742 32.2567 69.0969 29.2716C70.8568 26.9082 72.9151 28.022 73.5778 28.7162L75.1724 30.3099H76.5062V35.7612Z" fill="#FDAE46" fill-opacity="0.5"/>
<path d="M103.023 56.2347L102.528 56.1675L102.489 56.4536L102.717 56.6302L103.023 56.2347ZM110.499 62.016L110.193 62.4116L110.199 62.4163L110.205 62.4209L110.499 62.016ZM110.945 64.2481L111.376 64.5015L111.383 64.4905L110.945 64.2481ZM103.804 76.3963L103.373 76.1428L103.367 76.1538L103.804 76.3963ZM101.61 77.2013L101.426 77.6663L101.434 77.6693L101.441 77.6721L101.61 77.2013ZM92.7205 73.6885L92.9043 73.2235L92.6417 73.1198L92.4172 73.291L92.7205 73.6885ZM86.6952 77.1281L86.5094 76.6639L86.2415 76.7711L86.2003 77.0568L86.6952 77.1281ZM85.3562 86.4222L84.8613 86.3509L84.8602 86.3592L85.3562 86.4222ZM67.5406 86.4222L67.0457 86.4935L67.0481 86.5097L67.0515 86.5258L67.5406 86.4222ZM66.2016 77.1281L66.6965 77.0568L66.6554 76.7711L66.3874 76.6639L66.2016 77.1281ZM60.1763 73.6885L60.4757 73.2881L60.2522 73.1209L59.9926 73.2235L60.1763 73.6885ZM51.2871 77.2013L51.4365 77.6784L51.4539 77.673L51.4709 77.6663L51.2871 77.2013ZM49.0927 76.3963L49.5301 76.1538L49.5237 76.1429L49.0927 76.3963ZM41.9516 64.2481L41.515 64.4921L41.5205 64.5015L41.9516 64.2481ZM42.3979 62.016L42.7017 62.4131L42.7019 62.413L42.3979 62.016ZM49.9481 56.2347L50.2521 56.6317L50.4915 56.4484L50.4411 56.1512L49.9481 56.2347ZM50.0225 49.3556L50.5155 49.4391L50.5659 49.1419L50.3265 48.9586L50.0225 49.3556ZM42.4723 43.5742L42.7762 43.1772L42.7662 43.1696L42.7559 43.1624L42.4723 43.5742ZM42.0259 41.3422L41.5943 41.0898L41.5936 41.091L42.0259 41.3422ZM49.1299 29.194L49.5616 29.4465L49.5672 29.4364L49.1299 29.194ZM51.3243 28.389L51.508 27.924L51.5004 27.921L51.4927 27.9182L51.3243 28.389ZM60.2135 31.9017L60.0298 32.3667L60.2884 32.4689L60.5117 32.3031L60.2135 31.9017ZM66.2388 28.4622L66.4246 28.9264L66.6926 28.8191L66.7337 28.5335L66.2388 28.4622ZM67.5778 19.1681L67.0847 19.0845L67.0829 19.0968L67.5778 19.1681ZM85.3934 19.1681L85.8885 19.0968L85.8864 19.0846L85.3934 19.1681ZM86.7324 28.4622L86.2375 28.5335L86.2787 28.8191L86.5466 28.9264L86.7324 28.4622ZM92.7577 31.9017L92.4583 32.3022L92.6819 32.4693L92.9415 32.3667L92.7577 31.9017ZM101.647 28.389L101.498 27.9118L101.48 27.9173L101.463 27.924L101.647 28.389ZM103.841 29.194L103.404 29.4365L103.41 29.4474L103.841 29.194ZM110.982 41.3422L111.419 41.0981L111.414 41.0888L110.982 41.3422ZM110.536 43.5742L110.232 43.1771L110.232 43.1772L110.536 43.5742ZM102.986 49.3556L102.682 48.9586L102.443 49.1419L102.493 49.4391L102.986 49.3556ZM75.1425 35.7612V35.2612H74.9065L74.7565 35.4433L75.1425 35.7612ZM76.5062 35.7612V36.2612H77.0062V35.7612H76.5062ZM72.9151 37.7548L72.7361 37.2879L72.7361 37.2879L72.9151 37.7548ZM72.8476 37.7809L73.0282 38.2471L72.8476 37.7809ZM69.3439 37.0121L68.9584 37.3305L68.9584 37.3305L69.3439 37.0121ZM69.0969 29.2716L68.6959 28.973L69.0969 29.2716ZM73.5778 28.7162L73.216 29.0616L73.2243 29.0699L73.5778 28.7162ZM75.1724 30.3099L74.8189 30.6636L74.9654 30.8099H75.1724V30.3099ZM76.5062 30.3099H77.0062V29.8099H76.5062V30.3099ZM103.519 56.3018C103.671 55.1803 103.746 54.0235 103.746 52.7951H102.746C102.746 53.9818 102.673 55.0936 102.528 56.1675L103.519 56.3018ZM110.805 61.6205L103.329 55.8391L102.717 56.6302L110.193 62.4116L110.805 61.6205ZM111.383 64.4905C111.943 63.4805 111.718 62.2824 110.792 61.6112L110.205 62.4209C110.693 62.7742 110.841 63.4057 110.508 64.0056L111.383 64.4905ZM104.235 76.6497L111.376 64.5015L110.514 63.9947L103.373 76.1429L104.235 76.6497ZM101.441 77.6721C102.471 78.0405 103.667 77.675 104.241 76.6387L103.367 76.1538C103.049 76.7276 102.385 76.9475 101.778 76.7305L101.441 77.6721ZM92.5368 74.1535L101.426 77.6663L101.794 76.7363L92.9043 73.2235L92.5368 74.1535ZM86.881 77.5923C89.1203 76.6961 91.168 75.502 93.0238 74.0861L92.4172 73.291C90.6281 74.656 88.6589 75.8037 86.5094 76.6639L86.881 77.5923ZM85.8511 86.4935L87.1901 77.1994L86.2003 77.0568L84.8613 86.3509L85.8511 86.4935ZM83.6082 88.4224C84.7375 88.4224 85.7071 87.6278 85.8522 86.4852L84.8602 86.3592C84.7822 86.973 84.264 87.4224 83.6082 87.4224V88.4224ZM69.3259 88.4224H83.6082V87.4224H69.3259V88.4224ZM67.0515 86.5258C67.282 87.6143 68.1764 88.4224 69.3259 88.4224V87.4224C68.6901 87.4224 68.1712 86.9865 68.0298 86.3186L67.0515 86.5258ZM65.7068 77.1994L67.0457 86.4935L68.0355 86.3509L66.6965 77.0568L65.7068 77.1994ZM59.8769 74.089C61.765 75.5007 63.774 76.6951 66.0159 77.5923L66.3874 76.6639C64.2405 75.8047 62.307 74.6573 60.4757 73.2881L59.8769 74.089ZM51.4709 77.6663L60.3601 74.1535L59.9926 73.2235L51.1033 76.7363L51.4709 77.6663ZM48.6554 76.6387C49.2382 77.6899 50.4368 77.9914 51.4365 77.6784L51.1377 76.7241C50.5009 76.9235 49.8398 76.7126 49.53 76.1538L48.6554 76.6387ZM41.5205 64.5015L48.6616 76.6497L49.5237 76.1429L42.3826 63.9947L41.5205 64.5015ZM42.094 61.619C41.2202 62.2876 40.9891 63.5511 41.5151 64.4921L42.388 64.0041C42.0958 63.4814 42.2366 62.769 42.7017 62.4131L42.094 61.619ZM49.6442 55.8377L42.0939 61.6191L42.7019 62.413L50.2521 56.6317L49.6442 55.8377ZM49.1878 52.7951C49.1878 53.9488 49.2633 55.1855 49.4552 56.3182L50.4411 56.1512C50.2611 55.0884 50.1878 53.9101 50.1878 52.7951H49.1878ZM49.5295 49.2721C49.3414 50.3828 49.1878 51.6212 49.1878 52.7951H50.1878C50.1878 51.7005 50.3317 50.5238 50.5155 49.4391L49.5295 49.2721ZM42.1683 43.9712L49.7185 49.7526L50.3265 48.9586L42.7762 43.1772L42.1683 43.9712ZM41.5936 41.091C41.0328 42.0566 41.2033 43.3074 42.1887 43.986L42.7559 43.1624C42.2535 42.8165 42.1265 42.1646 42.4583 41.5933L41.5936 41.091ZM48.6983 28.9416L41.5943 41.0898L42.4576 41.5946L49.5615 29.4464L48.6983 28.9416ZM51.4927 27.9182C50.4628 27.5497 49.2671 27.9153 48.6926 28.9515L49.5672 29.4364C49.8853 28.8627 50.5493 28.6428 51.1559 28.8598L51.4927 27.9182ZM60.3973 31.4367L51.508 27.924L51.1405 28.854L60.0298 32.3667L60.3973 31.4367ZM66.0531 27.998C63.81 28.8956 61.7641 30.127 59.9153 31.5003L60.5117 32.3031C62.3079 30.9687 64.2788 29.7851 66.4246 28.9264L66.0531 27.998ZM67.0829 19.0968L65.7439 28.3909L66.7337 28.5335L68.0727 19.2394L67.0829 19.0968ZM69.3259 17.1678C68.1795 17.1678 67.2727 17.9758 67.0848 19.0846L68.0708 19.2516C68.1805 18.604 68.687 18.1678 69.3259 18.1678V17.1678ZM83.6082 17.1678H69.3259V18.1678H83.6082V17.1678ZM85.8864 19.0846C85.6964 17.963 84.7418 17.1678 83.6082 17.1678V18.1678C84.2598 18.1678 84.7929 18.6168 84.9005 19.2516L85.8864 19.0846ZM87.2273 28.3909L85.8883 19.0968L84.8985 19.2394L86.2375 28.5335L87.2273 28.3909ZM93.0571 31.5013C91.1691 30.0896 89.16 28.8951 86.9182 27.998L86.5466 28.9264C88.6936 29.7856 90.627 30.9329 92.4583 32.3022L93.0571 31.5013ZM101.463 27.924L92.574 31.4367L92.9415 32.3667L101.831 28.854L101.463 27.924ZM104.279 28.9515C103.696 27.9003 102.497 27.5989 101.498 27.9118L101.796 28.8662C102.433 28.6668 103.094 28.8777 103.404 29.4364L104.279 28.9515ZM111.414 41.0888L104.272 28.9406L103.41 29.4474L110.551 41.5956L111.414 41.0888ZM110.84 43.9713C111.714 43.3026 111.945 42.0392 111.419 41.0982L110.546 41.5862C110.838 42.1088 110.697 42.8212 110.232 43.1771L110.84 43.9713ZM103.29 49.7526L110.84 43.9712L110.232 43.1772L102.682 48.9586L103.29 49.7526ZM103.746 52.7951C103.746 51.6044 103.671 50.4044 103.479 49.2721L102.493 49.4391C102.673 50.5022 102.746 51.644 102.746 52.7951H103.746ZM76.467 65.4679C69.3711 65.4679 63.5774 59.7563 63.5774 52.7951H62.5774C62.5774 60.3239 68.8343 66.4679 76.467 66.4679V65.4679ZM89.3566 52.7951C89.3566 59.7563 83.5629 65.4679 76.467 65.4679V66.4679C84.0997 66.4679 90.3566 60.3239 90.3566 52.7951H89.3566ZM76.467 40.1224C83.5629 40.1224 89.3566 45.8339 89.3566 52.7951H90.3566C90.3566 45.2663 84.0997 39.1224 76.467 39.1224V40.1224ZM63.5774 52.7951C63.5774 45.8339 69.3711 40.1224 76.467 40.1224V39.1224C68.8343 39.1224 62.5774 45.2663 62.5774 52.7951H63.5774ZM75.1425 36.2612H76.5062V35.2612H75.1425V36.2612ZM73.0942 38.2216C73.2967 38.1439 73.5197 37.9915 73.7203 37.837C73.9321 37.6738 74.1615 37.4745 74.3843 37.2678C74.8279 36.8563 75.2713 36.3914 75.5285 36.079L74.7565 35.4433C74.5349 35.7124 74.1246 36.1447 73.7041 36.5347C73.4949 36.7288 73.2897 36.9064 73.11 37.0448C72.919 37.1919 72.7934 37.2659 72.7361 37.2879L73.0942 38.2216ZM73.0282 38.2471C73.0519 38.2379 73.0736 38.2295 73.0942 38.2216L72.7361 37.2879C72.7136 37.2965 72.6902 37.3056 72.6669 37.3146L73.0282 38.2471ZM68.9584 37.3305C69.7127 38.2439 70.5499 38.5701 71.3187 38.5996C72.0576 38.6281 72.6889 38.3785 73.0282 38.2471L72.6669 37.3146C72.3216 37.4484 71.8663 37.62 71.3571 37.6004C70.8778 37.582 70.3055 37.3912 69.7294 36.6937L68.9584 37.3305ZM68.6959 28.973C67.4835 30.6012 67.3159 32.4138 67.5594 33.9362C67.8007 35.4441 68.4521 36.7175 68.9584 37.3305L69.7294 36.6937C69.3458 36.2292 68.7623 35.1248 68.5469 33.7782C68.3337 32.446 68.4876 30.9271 69.498 29.5702L68.6959 28.973ZM73.9395 28.371C73.5434 27.9561 72.7556 27.4315 71.7914 27.3491C70.7822 27.2629 69.6671 27.6688 68.6959 28.973L69.498 29.5702C70.2867 28.511 71.0806 28.2921 71.7063 28.3455C72.3768 28.4028 72.9495 28.7822 73.2161 29.0615L73.9395 28.371ZM75.5258 29.9563L73.9312 28.3626L73.2243 29.0699L74.8189 30.6636L75.5258 29.9563ZM76.5062 29.8099H75.1724V30.8099H76.5062V29.8099ZM77.0062 35.7612V30.3099H76.0062V35.7612H77.0062Z" fill="black" mask="url(#path-4-inside-1)"/>
<path d="M51.2598 81.8481L49.9191 81.015L46.3909 85.5621C46.485 85.9439 46.7225 86.9228 46.9201 87.7836C47.1671 88.8596 46.8496 92.1919 45.0854 93.7886C43.3213 95.3853 44.027 95.0382 43.3566 96.496C42.8203 97.6623 43.5801 99.8282 44.027 100.765L43.7094 102.223L43.0391 106.111C42.8274 107.256 42.3687 109.679 42.2276 110.207C42.0865 110.734 42.7333 111.005 43.0744 111.075C45.9675 111.977 47.8375 111.526 49.2135 111.734C50.5895 111.942 54.7175 111.283 56.4463 111.075C57.8294 110.908 57.493 110.079 57.152 109.686L56.1641 105.937L54.5764 98.8911C54.4235 98.9605 54.3859 98.8494 55.4584 97.8497C56.531 96.8501 56.9168 96.901 56.9756 97.0514C59.6006 97.1069 59.5512 96.1258 59.1984 95.6282C57.9564 95.4061 57.3872 94.9572 57.2578 94.7605L56.1641 90.5605C55.0351 89.0332 55.0351 90.8729 55.1762 91.9836L54.8586 93.0249C54.741 92.8051 54.4917 92.2891 54.4353 91.9836C54.3647 91.6018 53.3768 91.6365 53.7649 92.1919C54.0754 92.6362 53.8943 93.1406 53.7649 93.3373C53.7178 93.4183 53.5744 93.4206 53.3768 92.782C53.1792 92.1433 52.4712 92.4001 52.1419 92.6084C50.8435 91.8031 50.5895 89.9588 50.6248 89.1373C52.5441 85.4163 51.8479 82.7274 51.2598 81.8481Z" fill="white"/>
<rect x="76.502" y="17.4944" width="35.8468" height="35.2661" fill="white"/>
<path fill-rule="evenodd" clip-rule="evenodd" d="M105.11 4.78503L110.744 8.66929C111.44 9.14384 112.099 9.80454 111.229 11.5761C110.359 13.3477 108.218 17.5758 107.257 19.4683C107.948 20.1932 109.642 23.2486 110.139 25.6145L118.678 27.5092C120.15 27.7953 121.147 28.3311 120.865 30.4366C120.584 32.5422 119.964 39.9016 119.689 43.3181C119.599 44.4391 119.264 45.1399 117.041 45.1871C115.324 45.2235 112.367 45.4475 110.213 45.6107L110.213 45.6107L110.213 45.6107L110.212 45.6108C109.542 45.6616 108.95 45.7064 108.497 45.738C108.076 46.6195 107.032 48.2442 106.77 48.6151L102.261 45.5402L103.018 44.4653L105.258 44.0838C106.215 43.9435 108.318 42.9137 107.346 40.1444C106.119 36.6466 102.146 35.8289 100.739 35.9347C98.6356 36.0928 98.2694 37.6251 98.1011 38.3297L98.0844 38.3992C97.9548 38.9331 98.268 40.6175 98.481 41.3359L97.7068 42.4349L95.8092 41.141C99.9773 35.1587 98.4535 26.9803 92.3872 22.8439L92.3775 22.8373L93.7012 20.9762L92.5849 20.215C91.8547 20.4246 90.1426 20.7327 89.5999 20.6052C89.5774 20.6 89.5539 20.5945 89.5293 20.5888C88.8131 20.4232 87.2555 20.063 87.0948 17.9935C86.9873 16.6091 87.8185 12.701 91.3738 11.4932C94.1887 10.537 95.2355 12.606 95.3782 13.548L95.7659 15.7515L96.8586 16.4965L103.642 6.8676L105.11 4.78503Z" fill="#FDAE46" fill-opacity="0.5"/>
<path d="M110.744 8.66929L110.599 8.87294L110.6 8.87366L110.744 8.66929ZM105.11 4.78503L105.255 4.58137L105.048 4.43876L104.903 4.64418L105.11 4.78503ZM111.229 11.5761L111.455 11.6833L111.229 11.5761ZM107.257 19.4683L107.032 19.3582L106.953 19.5132L107.073 19.6389L107.257 19.4683ZM110.139 25.6145L109.892 25.6661L109.925 25.8218L110.082 25.8567L110.139 25.6145ZM118.678 27.5092L118.621 27.7514L118.628 27.7527L118.678 27.5092ZM120.865 30.4366L121.115 30.4678L120.865 30.4366ZM119.689 43.3181L119.94 43.3364L119.689 43.3181ZM117.041 45.1871L117.045 45.4352L117.045 45.4352L117.041 45.1871ZM110.213 45.6107L110.195 45.3632L110.189 45.3638L110.213 45.6107ZM110.213 45.6107L110.235 45.8579L110.237 45.8577L110.213 45.6107ZM110.213 45.6107L110.231 45.8583L110.235 45.8579L110.213 45.6107ZM110.212 45.6108L110.195 45.3633L110.194 45.3633L110.212 45.6108ZM108.497 45.738L108.48 45.4904L108.332 45.5007L108.269 45.6333L108.497 45.738ZM106.77 48.6151L106.626 48.8195L106.833 48.9603L106.977 48.7559L106.77 48.6151ZM102.261 45.5402L102.054 45.3993L101.91 45.6037L102.117 45.7445L102.261 45.5402ZM103.018 44.4653L102.977 44.2208L102.872 44.2386L102.812 44.3245L103.018 44.4653ZM105.258 44.0838L105.222 43.8383L105.216 43.8393L105.258 44.0838ZM107.346 40.1444L107.584 40.0621L107.346 40.1444ZM100.739 35.9347L100.721 35.6872L100.739 35.9347ZM98.1011 38.3297L98.3461 38.3857L98.3461 38.3854L98.1011 38.3297ZM98.0844 38.3992L98.3292 38.4558L98.3294 38.4552L98.0844 38.3992ZM98.481 41.3359L98.6876 41.4767L98.7565 41.3789L98.7227 41.2651L98.481 41.3359ZM97.7068 42.4349L97.5628 42.6392L97.7694 42.7801L97.9133 42.5757L97.7068 42.4349ZM95.8092 41.141L95.6019 41.0012L95.4597 41.2052L95.6652 41.3453L95.8092 41.141ZM92.3872 22.8439L92.5312 22.6395L92.5311 22.6394L92.3872 22.8439ZM92.3775 22.8373L92.1716 22.6955L92.026 22.9003L92.2337 23.0417L92.3775 22.8373ZM93.7012 20.9762L93.9071 21.1179L94.0527 20.9133L93.8452 20.7718L93.7012 20.9762ZM92.5849 20.215L92.7289 20.0106L92.6308 19.9437L92.5158 19.9767L92.5849 20.215ZM89.5999 20.6052L89.5403 20.8467L89.5403 20.8467L89.5999 20.6052ZM89.5293 20.5888L89.4705 20.8305L89.4705 20.8305L89.5293 20.5888ZM87.0948 17.9935L86.8438 18.0137L86.8438 18.0137L87.0948 17.9935ZM91.3738 11.4932L91.4547 11.7279L91.3738 11.4932ZM95.3782 13.548L95.1291 13.5859L95.1301 13.5917L95.3782 13.548ZM95.7659 15.7515L95.5178 15.7952L95.5358 15.8971L95.6219 15.9558L95.7659 15.7515ZM96.8586 16.4965L96.7146 16.7009L96.9212 16.8417L97.0652 16.6374L96.8586 16.4965ZM103.642 6.8676L103.849 7.00844L103.642 6.8676ZM110.889 8.46564L105.255 4.58137L104.964 4.98868L110.599 8.87294L110.889 8.46564ZM111.455 11.6833C111.905 10.7684 111.984 10.091 111.814 9.56035C111.645 9.03208 111.245 8.70852 110.888 8.46492L110.6 8.87366C110.939 9.10461 111.217 9.34868 111.334 9.71229C111.45 10.0735 111.423 10.6122 111.002 11.4689L111.455 11.6833ZM107.482 19.5785C108.443 17.6864 110.584 13.4567 111.455 11.6833L111.002 11.4689C110.133 13.2387 107.994 17.4651 107.032 19.3582L107.482 19.5785ZM110.386 25.5629C110.131 24.3515 109.574 22.9752 108.997 21.8158C108.424 20.6635 107.814 19.6892 107.441 19.2978L107.073 19.6389C107.391 19.9723 107.974 20.8881 108.545 22.0362C109.112 23.1772 109.65 24.5116 109.892 25.6661L110.386 25.5629ZM118.734 27.267L110.196 25.3723L110.082 25.8567L118.621 27.7513L118.734 27.267ZM121.115 30.4678C121.26 29.3781 121.083 28.6317 120.616 28.1234C120.16 27.627 119.471 27.41 118.728 27.2656L118.628 27.7527C119.357 27.8945 119.903 28.0884 120.242 28.4578C120.571 28.8154 120.751 29.3896 120.616 30.4055L121.115 30.4678ZM119.94 43.3364C120.215 39.9163 120.834 32.5652 121.115 30.4678L120.616 30.4055C120.333 32.5192 119.712 39.8869 119.438 43.2998L119.94 43.3364ZM117.045 45.4352C118.17 45.4114 118.887 45.2237 119.33 44.8418C119.783 44.4514 119.894 43.9067 119.94 43.3364L119.438 43.2998C119.394 43.8504 119.292 44.2167 119 44.4688C118.697 44.7293 118.136 44.9156 117.037 44.9389L117.045 45.4352ZM110.231 45.8582C112.389 45.6947 115.336 45.4714 117.045 45.4352L117.037 44.9389C115.311 44.9755 112.346 45.2003 110.195 45.3632L110.231 45.8582ZM110.237 45.8577L110.237 45.8576L110.189 45.3638L110.189 45.3638L110.237 45.8577ZM110.235 45.8579L110.235 45.8579L110.192 45.3636L110.191 45.3636L110.235 45.8579ZM110.229 45.8583L110.231 45.8582L110.196 45.3632L110.195 45.3633L110.229 45.8583ZM108.513 45.9855C108.967 45.954 109.56 45.909 110.23 45.8583L110.194 45.3633C109.524 45.4141 108.933 45.4589 108.48 45.4904L108.513 45.9855ZM106.977 48.7559C107.241 48.3804 108.295 46.7426 108.725 45.8426L108.269 45.6333C107.857 46.4965 106.822 48.108 106.564 48.4742L106.977 48.7559ZM102.117 45.7445L106.626 48.8195L106.914 48.4107L102.405 45.3358L102.117 45.7445ZM102.812 44.3245L102.054 45.3993L102.467 45.681L103.225 44.6062L102.812 44.3245ZM105.216 43.8393L102.977 44.2208L103.06 44.7099L105.299 44.3284L105.216 43.8393ZM107.108 40.2267C107.57 41.5404 107.292 42.3964 106.832 42.9419C106.357 43.5053 105.654 43.775 105.222 43.8383L105.294 44.3293C105.819 44.2524 106.646 43.9369 107.219 43.258C107.807 42.5611 108.095 41.5176 107.584 40.0621L107.108 40.2267ZM100.757 36.1822C101.412 36.1329 102.713 36.3006 104 36.9119C105.28 37.5202 106.522 38.5559 107.108 40.2267L107.584 40.0621C106.943 38.235 105.585 37.1131 104.22 36.4645C102.862 35.819 101.473 35.6307 100.721 35.6872L100.757 36.1822ZM98.3461 38.3854C98.4307 38.0313 98.5553 37.5203 98.8952 37.076C99.2254 36.6442 99.7752 36.256 100.757 36.1822L100.721 35.6872C99.5995 35.7715 98.9144 36.2284 98.4937 36.7785C98.0825 37.3161 97.9398 37.9235 97.856 38.274L98.3461 38.3854ZM98.3294 38.4552L98.3461 38.3857L97.8561 38.2738L97.8394 38.3433L98.3294 38.4552ZM98.7227 41.2651C98.6202 40.9192 98.4907 40.3298 98.4032 39.7599C98.3595 39.4756 98.327 39.2006 98.3131 38.9665C98.2988 38.7252 98.3061 38.5511 98.3292 38.4558L97.8395 38.3427C97.7979 38.5143 97.7957 38.751 97.8104 38.9981C97.8254 39.2524 97.8602 39.5435 97.9053 39.8368C97.9952 40.4222 98.1289 41.0342 98.2393 41.4067L98.7227 41.2651ZM97.9133 42.5757L98.6876 41.4767L98.2745 41.195L97.5002 42.294L97.9133 42.5757ZM95.6652 41.3453L97.5628 42.6392L97.8508 42.2305L95.9532 40.9366L95.6652 41.3453ZM92.2432 23.0482C98.1969 27.1079 99.6907 35.1329 95.6019 41.0012L96.0165 41.2807C100.264 35.1846 98.7101 26.8527 92.5312 22.6395L92.2432 23.0482ZM92.2337 23.0417L92.2433 23.0483L92.5311 22.6394L92.5214 22.6329L92.2337 23.0417ZM93.4953 20.8344L92.1716 22.6955L92.5835 22.9791L93.9071 21.1179L93.4953 20.8344ZM92.441 20.4194L93.5572 21.1805L93.8452 20.7718L92.7289 20.0106L92.441 20.4194ZM89.5403 20.8467C89.7143 20.8876 89.9547 20.8897 90.2059 20.8753C90.4644 20.8605 90.7602 20.8263 91.0584 20.7819C91.6534 20.6935 92.2755 20.562 92.6541 20.4533L92.5158 19.9767C92.1642 20.0776 91.5651 20.205 90.9859 20.2911C90.6969 20.3341 90.4173 20.3661 90.1793 20.3797C89.9341 20.3938 89.7569 20.3867 89.6596 20.3638L89.5403 20.8467ZM89.4705 20.8305C89.4952 20.8362 89.5183 20.8415 89.5403 20.8467L89.6596 20.3638C89.6365 20.3584 89.6125 20.3528 89.588 20.3472L89.4705 20.8305ZM86.8438 18.0137C86.9295 19.1176 87.3939 19.7908 87.9518 20.2039C88.4975 20.6078 89.1141 20.7481 89.4705 20.8305L89.588 20.3472C89.2283 20.264 88.708 20.1413 88.2556 19.8063C87.8156 19.4805 87.4209 18.9388 87.3459 17.9732L86.8438 18.0137ZM91.2929 11.2586C89.4351 11.8897 88.2939 13.2264 87.6342 14.57C86.9777 15.9072 86.7864 17.274 86.8438 18.0137L87.3459 17.9732C87.2958 17.3285 87.4663 16.0491 88.0873 14.7843C88.7052 13.5258 89.7572 12.3045 91.4547 11.7279L91.2929 11.2586ZM95.6272 13.51C95.5489 12.9932 95.2283 12.1798 94.5393 11.6173C93.8325 11.0402 92.7729 10.7559 91.2929 11.2586L91.4547 11.7279C92.7896 11.2744 93.6609 11.5464 94.2169 12.0003C94.7906 12.4687 95.0647 13.1608 95.1291 13.5859L95.6272 13.51ZM96.014 15.7078L95.6262 13.5043L95.1301 13.5917L95.5178 15.7952L96.014 15.7078ZM97.0026 16.2921L95.9099 15.5471L95.6219 15.9558L96.7146 16.7009L97.0026 16.2921ZM103.436 6.72676L96.6521 16.3557L97.0652 16.6374L103.849 7.00844L103.436 6.72676ZM104.903 4.64418L103.436 6.72676L103.849 7.00844L105.316 4.92587L104.903 4.64418Z" fill="black"/>
<path fill-rule="evenodd" clip-rule="evenodd" d="M101.727 55.5156C101.431 53.8147 100.175 54.3354 100.351 55.5156L100.949 59.7504H91.7316C91.3773 57.365 91.1486 55.8504 91.0904 55.5162C90.7941 53.8153 89.538 54.336 89.7144 55.5162L98.8878 120.564C99.0995 121.953 100.794 121.675 100.581 120.217L99.8823 115.426H108.8L109.525 120.564C109.737 121.952 111.431 121.674 111.218 120.216L110.377 114.448C107.172 92.4825 102.037 57.2934 101.727 55.5156ZM91.9323 61.1041C92.1661 62.6828 92.4404 64.5434 92.7464 66.623H101.918L101.14 61.1041H91.9323ZM92.9454 67.9768H102.109L102.887 73.496H93.7555C93.4699 71.5478 93.1983 69.6976 92.9454 67.9768ZM93.9539 74.8497C94.1982 76.5162 94.4515 78.2462 94.7113 80.0215H103.807L103.078 74.8497H93.9539ZM94.9094 81.3752H103.998L104.777 86.894H95.7166C95.4435 85.026 95.1735 83.1801 94.9094 81.3752ZM95.9144 88.2477L96.7208 93.7669H105.746L104.967 88.2477H95.9144ZM96.9186 95.1207H105.937L106.715 100.64H97.7244L96.9186 95.1207ZM97.922 101.993L98.7073 107.373H107.665L106.906 101.993H97.922ZM98.9048 108.727H107.856L108.609 114.073H99.6848L98.9048 108.727Z" fill="white"/>
<path d="M100.351 55.5156L100.599 55.4807L100.599 55.4786L100.351 55.5156ZM101.727 55.5156L101.481 55.5585L101.727 55.5156ZM100.949 59.7504V60.0004H101.236L101.196 59.7154L100.949 59.7504ZM91.7316 59.7504L91.4843 59.7871L91.516 60.0004H91.7316V59.7504ZM91.0904 55.5162L91.3367 55.4733L91.0904 55.5162ZM89.7144 55.5162L89.962 55.4813L89.9617 55.4793L89.7144 55.5162ZM98.8878 120.564L98.6402 120.599L98.6407 120.602L98.8878 120.564ZM100.581 120.217L100.334 120.253H100.334L100.581 120.217ZM99.8823 115.426V115.176H99.5932L99.635 115.463L99.8823 115.426ZM108.8 115.426L109.048 115.392L109.018 115.176H108.8V115.426ZM109.525 120.564L109.277 120.598L109.278 120.601L109.525 120.564ZM111.218 120.216L110.971 120.252H110.971L111.218 120.216ZM110.377 114.448L110.129 114.484V114.484L110.377 114.448ZM91.9323 61.1041V60.8541H91.6426L91.685 61.1407L91.9323 61.1041ZM92.7464 66.623L92.499 66.6594L92.5305 66.873H92.7464V66.623ZM101.918 66.623V66.873H102.206L102.165 66.5881L101.918 66.623ZM101.14 61.1041L101.387 61.0692L101.357 60.8541H101.14V61.1041ZM102.109 67.9768L102.356 67.9419L102.326 67.7268H102.109V67.9768ZM92.9454 67.9768V67.7268H92.656L92.6981 68.0131L92.9454 67.9768ZM102.887 73.496V73.746H103.175L103.135 73.4611L102.887 73.496ZM93.7555 73.496L93.5082 73.5322L93.5395 73.746H93.7555V73.496ZM94.7113 80.0215L94.464 80.0577L94.4953 80.2715H94.7113V80.0215ZM93.9539 74.8497V74.5997H93.6646L93.7066 74.8859L93.9539 74.8497ZM103.807 80.0215V80.2715H104.095L104.055 79.9865L103.807 80.0215ZM103.078 74.8497L103.326 74.8148L103.295 74.5997H103.078V74.8497ZM103.998 81.3752L104.246 81.3403L104.215 81.1252H103.998V81.3752ZM94.9094 81.3752V81.1252H94.6202L94.6621 81.4114L94.9094 81.3752ZM104.777 86.894V87.144H105.064L105.024 86.8591L104.777 86.894ZM95.7166 86.894L95.4692 86.9302L95.5005 87.144H95.7166V86.894ZM96.7208 93.7669L96.4735 93.8031L96.5047 94.0169H96.7208V93.7669ZM95.9144 88.2477V87.9977H95.6253L95.6671 88.2839L95.9144 88.2477ZM105.746 93.7669V94.0169H106.034L105.993 93.732L105.746 93.7669ZM104.967 88.2477L105.215 88.2128L105.185 87.9977H104.967V88.2477ZM105.937 95.1207L106.184 95.0857L106.154 94.8707H105.937V95.1207ZM96.9186 95.1207V94.8707H96.6294L96.6712 95.1568L96.9186 95.1207ZM106.715 100.64V100.89H107.003L106.963 100.605L106.715 100.64ZM97.7244 100.64L97.477 100.676L97.5083 100.89H97.7244V100.64ZM98.7073 107.373L98.4599 107.41L98.4911 107.623H98.7073V107.373ZM97.922 101.993V101.743H97.6329L97.6746 102.029L97.922 101.993ZM107.665 107.373V107.623H107.952L107.912 107.339L107.665 107.373ZM106.906 101.993L107.153 101.958L107.123 101.743H106.906V101.993ZM107.856 108.727L108.103 108.692L108.073 108.477H107.856V108.727ZM98.9048 108.727V108.477H98.6157L98.6574 108.763L98.9048 108.727ZM108.609 114.073V114.323H108.897L108.857 114.038L108.609 114.073ZM99.6848 114.073L99.4374 114.109L99.4686 114.323H99.6848V114.073ZM100.599 55.4786C100.52 54.9548 100.769 54.7084 100.911 54.6804C100.975 54.6677 101.069 54.6816 101.178 54.8005C101.291 54.925 101.412 55.1605 101.481 55.5585L101.974 55.4727C101.895 55.0203 101.747 54.683 101.547 54.4637C101.342 54.2387 101.078 54.1376 100.814 54.1899C100.297 54.2921 100.006 54.8962 100.104 55.5525L100.599 55.4786ZM101.196 59.7154L100.599 55.4807L100.104 55.5505L100.701 59.7853L101.196 59.7154ZM100.949 59.5004H91.7316V60.0004H100.949V59.5004ZM90.8441 55.5591C90.9017 55.8893 91.1297 57.3993 91.4843 59.7871L91.9789 59.7136C91.625 57.3307 91.3956 55.8115 91.3367 55.4733L90.8441 55.5591ZM89.9617 55.4793C89.8834 54.9554 90.1322 54.709 90.2736 54.6811C90.3379 54.6684 90.4324 54.6822 90.5408 54.8011C90.6543 54.9256 90.7748 55.1611 90.8441 55.5591L91.3367 55.4733C91.2579 55.0209 91.1102 54.6836 90.9104 54.4643C90.7054 54.2393 90.4414 54.1382 90.1766 54.1906C89.66 54.2928 89.369 54.8968 89.4672 55.5532L89.9617 55.4793ZM99.1353 120.529L89.962 55.4813L89.4669 55.5511L98.6402 120.599L99.1353 120.529ZM100.334 120.253C100.425 120.877 100.114 121.163 99.8484 121.212C99.7063 121.238 99.5545 121.206 99.4266 121.105C99.2994 121.004 99.1801 120.822 99.1349 120.526L98.6407 120.602C98.7014 121 98.8733 121.304 99.1167 121.497C99.3594 121.689 99.6577 121.756 99.9391 121.704C100.521 121.597 100.951 121.015 100.829 120.181L100.334 120.253ZM99.635 115.463L100.334 120.253L100.829 120.181L100.13 115.39L99.635 115.463ZM108.8 115.176H99.8823V115.676H108.8V115.176ZM109.772 120.529L109.048 115.392L108.553 115.461L109.277 120.598L109.772 120.529ZM110.971 120.252C111.062 120.876 110.751 121.162 110.485 121.211C110.343 121.238 110.192 121.205 110.064 121.104C109.936 121.003 109.817 120.822 109.772 120.526L109.278 120.601C109.338 120.999 109.51 121.304 109.754 121.496C109.996 121.688 110.295 121.755 110.576 121.703C111.158 121.596 111.588 121.015 111.466 120.18L110.971 120.252ZM110.129 114.484L110.971 120.252L111.466 120.18L110.624 114.412L110.129 114.484ZM101.481 55.5585C101.79 57.3318 106.924 92.5144 110.129 114.484L110.624 114.412C107.42 92.4507 102.284 57.255 101.974 55.4727L101.481 55.5585ZM91.685 61.1407C91.9187 62.7193 92.1931 64.5799 92.499 66.6594L92.9937 66.5867C92.6878 64.507 92.4134 62.6463 92.1796 61.0675L91.685 61.1407ZM92.7464 66.873H101.918V66.373H92.7464V66.873ZM102.165 66.5881L101.387 61.0692L100.892 61.139L101.67 66.658L102.165 66.5881ZM91.9323 61.3541H101.14V60.8541H91.9323V61.3541ZM102.109 67.7268H92.9454V68.2268H102.109V67.7268ZM103.135 73.4611L102.356 67.9419L101.861 68.0117L102.64 73.5309L103.135 73.4611ZM93.7555 73.746H102.887V73.246H93.7555V73.746ZM92.6981 68.0131C92.951 69.7339 93.2225 71.5841 93.5082 73.5322L94.0029 73.4597C93.7172 71.5115 93.4457 69.6613 93.1928 67.9404L92.6981 68.0131ZM94.9587 79.9853C94.6989 78.21 94.4455 76.4799 94.2013 74.8134L93.7066 74.8859C93.9508 76.5524 94.2042 78.2825 94.464 80.0577L94.9587 79.9853ZM103.807 79.7715H94.7113V80.2715H103.807V79.7715ZM102.83 74.8846L103.56 80.0564L104.055 79.9865L103.326 74.8148L102.83 74.8846ZM93.9539 75.0997H103.078V74.5997H93.9539V75.0997ZM103.998 81.1252H94.9094V81.6252H103.998V81.1252ZM105.024 86.8591L104.246 81.3403L103.751 81.4101L104.529 86.9289L105.024 86.8591ZM95.7166 87.144H104.777V86.644H95.7166V87.144ZM94.6621 81.4114C94.9262 83.2163 95.1961 85.0621 95.4692 86.9302L95.9639 86.8579C95.6908 84.9898 95.4209 83.1439 95.1568 81.339L94.6621 81.4114ZM96.9682 93.7308L96.1618 88.2116L95.6671 88.2839L96.4735 93.8031L96.9682 93.7308ZM105.746 93.5169H96.7208V94.0169H105.746V93.5169ZM104.72 88.2826L105.498 93.8019L105.993 93.732L105.215 88.2128L104.72 88.2826ZM95.9144 88.4977H104.967V87.9977H95.9144V88.4977ZM105.937 94.8707H96.9186V95.3707H105.937V94.8707ZM106.963 100.605L106.184 95.0857L105.689 95.1556L106.467 100.675L106.963 100.605ZM97.7244 100.89H106.715V100.39H97.7244V100.89ZM96.6712 95.1568L97.477 100.676L97.9718 100.604L97.1659 95.0845L96.6712 95.1568ZM98.9546 107.337L98.1694 101.957L97.6746 102.029L98.4599 107.41L98.9546 107.337ZM107.665 107.123H98.7073V107.623H107.665V107.123ZM106.658 102.028L107.417 107.408L107.912 107.339L107.153 101.958L106.658 102.028ZM97.922 102.243H106.906V101.743H97.922V102.243ZM107.856 108.477H98.9048V108.977H107.856V108.477ZM108.857 114.038L108.103 108.692L107.608 108.762L108.362 114.108L108.857 114.038ZM99.6848 114.323H108.609V113.823H99.6848V114.323ZM98.6574 108.763L99.4374 114.109L99.9322 114.037L99.1522 108.691L98.6574 108.763Z" fill="black"/>
<path d="M49.3023 87.7214C49.3898 87.8634 49.647 88.0399 49.8608 87.9971C50.1221 87.9448 50.4091 87.7284 50.5352 87.6693" stroke="black" stroke-width="0.5" stroke-linecap="round"/>
<path d="M50.8284 83.05L51.5818 83.2221" stroke="black" stroke-width="0.5" stroke-linecap="round"/>
<path d="M49.1014 83.7279L47.3879 84.1956" stroke="black" stroke-width="0.5" stroke-linecap="round"/>
<path d="M49.8105 89.2056C50.0184 89.1809 50.5182 89.0397 50.8544 88.6724C51.1907 88.3051 51.4981 87.2935 51.6371 86.8332C51.8796 85.8538 52.0215 83.6844 51.9033 83.1255C51.7851 82.5666 51.3717 81.6994 51.1797 81.3357" stroke="black" stroke-width="0.5" stroke-linecap="round"/>
<path d="M51.4013 83.9527C51.4324 84.0117 51.4308 84.0734 51.3707 84.1041C51.3107 84.1347 51.2802 84.0895 51.249 84.0304C51.2178 83.9713 51.209 83.9422 51.2691 83.9115C51.3292 83.8808 51.3701 83.8936 51.4013 83.9527Z" fill="black"/>
<path d="M50.304 84.5943L50.6596 85.2683C50.7947 85.4981 50.9875 85.9944 50.6785 86.1414C50.3695 86.2883 50.2308 86.3655 50.2001 86.3857" stroke="black" stroke-width="0.5" stroke-linecap="round"/>
<path d="M49.0407 84.6072C49.0719 84.6663 49.0702 84.728 49.0102 84.7586C48.9501 84.7893 48.8979 84.7552 48.8668 84.6961C48.8356 84.637 48.8372 84.5754 48.8973 84.5447C48.9574 84.514 49.0096 84.5482 49.0407 84.6072Z" fill="black"/>
<path d="M46.5828 104.792C46.3358 104.41 43.7966 100.525 43.5239 99.4238C43.3308 98.6306 41.7515 95.3584 43.6763 93.6692C45.3836 92.0911 42.2555 91.3166 39.7123 91.049" stroke="black" stroke-width="0.5" stroke-linecap="round"/>
<path d="M50.4897 87.6058L49.8286 87.5747" stroke="black" stroke-width="0.5" stroke-linecap="round"/>
<path d="M20 116.089L98 116.089" stroke="black" stroke-linecap="round"/>
<path d="M111 116.089H140" stroke="black" stroke-linecap="round"/>
<path d="M47.6946 97.6762L48.9208 99.1142" stroke="black" stroke-width="0.5" stroke-linecap="round"/>
<path d="M50.7104 89.9355C50.8516 90.9306 51.6278 92.886 52.8274 92.643" stroke="black" stroke-width="0.5" stroke-linecap="round"/>
<path d="M52.5803 92.8861C52.5803 93.1291 52.9027 93.1316 52.9027 93.1316L53.2908 93.0275C53.2203 92.8539 53.0862 92.5 52.9733 92.4722C52.8604 92.4444 52.5803 92.6432 52.5803 92.8861Z" fill="white"/>
<ellipse opacity="0.5" rx="1.9541" ry="1.1163" transform="matrix(0.200636 -0.979666 0.980915 0.194436 45.6707 93.8372)" fill="#FDAE46" fill-opacity="0.5"/>
<ellipse opacity="0.5" rx="1.12276" ry="0.603435" transform="matrix(-0.196856 -0.980432 0.981636 -0.190764 49.3718 100.072)" fill="#FDAE46" fill-opacity="0.5"/>
<ellipse opacity="0.5" rx="0.992906" ry="0.391797" transform="matrix(-0.866243 0.499623 -0.511916 -0.859036 48.7018 99.7584)" fill="#FDAE46" fill-opacity="0.5"/>
<path d="M49.1433 99.1212L49.587 100.075M49.0424 99.077L49.0522 100.08" stroke="black" stroke-width="0.5" stroke-linecap="round"/>
<path d="M44.79 93.6829L45.4383 95.2605M45.2593 93.2813C45.4565 93.4839 45.8758 93.9925 45.9764 94.4058M45.6848 92.6055L46.4832 93.6008" stroke="black" stroke-width="0.5" stroke-linecap="round"/>
<path d="M48.9433 99.1006L48.5998 99.8708" stroke="black" stroke-width="0.5" stroke-linecap="round"/>
<path d="M45.8064 103.473C45.9358 102.466 46.6038 100.259 48.2409 99.4812" stroke="black" stroke-width="0.5" stroke-linecap="round"/>
<path d="M48.9499 99.1187C52.5029 95.9382 53.2561 95.8835 52.8097 94.5432C52.7414 94.3383 52.7258 93.9927 52.4602 93.2123C52.1947 92.4318 53.1196 92.0964 53.2991 92.4694L53.6112 93.3033C53.8493 93.5425 53.9848 93.0972 53.8376 92.326C53.6903 91.5547 54.1669 91.744 54.4236 91.9351L54.7998 92.8449C54.9798 93.2332 55.0416 92.7125 55.0416 91.0453C55.0416 89.4001 56.2147 89.9009 56.3539 90.8325C56.5804 91.9159 56.9506 93.8271 57.1843 94.4707C57.4764 95.2753 57.9327 95.4277 58.8128 95.4506C59.6928 95.4736 59.6664 96.3889 59.0482 96.856C58.4301 97.3231 57.256 97.0875 56.7009 97.0592C56.2567 97.0366 53.4394 99.8157 52.0053 102.887C50.7646 105.107 48.2056 107.465 46.6179 104.827" stroke="black" stroke-width="0.5" stroke-linecap="round"/>
<path d="M37.2192 95.2249L37.4959 94.8021C36.5174 95.8847 35.241 95.3213 34.4523 94.6888C34.1707 94.463 34.111 94.0831 34.3676 93.8337C34.566 93.6409 34.8613 93.4116 35.2843 93.1746C36.1623 92.6828 36.5866 91.8667 36.689 91.5202L37.0056 90.4627C37.0376 90.3562 37.0462 90.2431 37.0758 90.1359C37.1479 89.8745 37.4115 89.4743 38.1052 89.1809C38.8702 88.8573 39.0602 88.3597 39.064 88.0761C39.0649 88.0087 39.0575 87.9413 39.0596 87.874L39.074 87.3949C39.0792 87.2238 39.1284 87.058 39.2181 86.9122C40.053 85.5545 41.7127 82.8783 42.644 81.4578C43.6292 79.9551 45.2673 78.8686 45.9633 78.5132C46.2318 78.3942 47.1117 78.2201 48.4834 78.4756C49.4554 78.6567 50.345 79.7745 50.9347 80.7766C51.1144 81.082 50.7721 81.3612 50.483 81.1533C50.1688 80.9274 49.7311 80.9923 49.5016 81.2989L46.2969 85.5814C47.6346 89.5293 46.4089 92.4911 44.3734 94.4677C43.6098 95.2092 43.2937 96.1401 43.2151 97.0253C43.1353 97.9248 42.0743 98.8014 41.2503 98.405L37.6304 96.6635C37.0845 96.4008 36.8915 95.7258 37.2192 95.2249Z" fill="black"/>
<path d="M37.4959 94.8021L37.2192 95.2249C36.8915 95.7258 37.0845 96.4008 37.6304 96.6635L41.2503 98.405C42.0743 98.8014 43.1353 97.9248 43.2151 97.0253C43.2937 96.1401 43.6098 95.2092 44.3734 94.4677C46.4089 92.4911 47.6346 89.5293 46.2969 85.5814M37.4959 94.8021C39.9836 90.4126 45.2268 82.4231 46.2969 85.5814M37.4959 94.8021C36.5174 95.8847 35.241 95.3213 34.4523 94.6888C34.1707 94.463 34.111 94.0831 34.3676 93.8337C34.566 93.6409 34.8613 93.4116 35.2843 93.1746C36.1623 92.6828 36.5866 91.8667 36.689 91.5202L37.0056 90.4627C37.0376 90.3562 37.0462 90.2431 37.0758 90.1359C37.1479 89.8745 37.4115 89.4743 38.1052 89.1809C38.8702 88.8573 39.0602 88.3597 39.064 88.0761C39.0649 88.0087 39.0575 87.9413 39.0596 87.874L39.074 87.3949C39.0792 87.2238 39.1284 87.058 39.2181 86.9122C40.053 85.5545 41.7127 82.8783 42.644 81.4578C43.6292 79.9551 45.2673 78.8686 45.9633 78.5132C46.2318 78.3942 47.1117 78.2201 48.4834 78.4756C49.4554 78.6567 50.345 79.7745 50.9347 80.7766C51.1144 81.082 50.7721 81.3612 50.483 81.1533V81.1533C50.1688 80.9274 49.7311 80.9923 49.5016 81.2989L46.2969 85.5814" stroke="black" stroke-width="0.5" stroke-linecap="round"/>
<path d="M112.067 47.1721C111.783 47.2879 111.422 47.8183 111.252 48.1797C111.04 48.6314 108.667 54.4684 107.109 55.2676C105.862 55.9069 103.497 54.0515 102.47 53.0439" stroke="black" stroke-width="0.5"/>
<path d="M104.763 48.2827C105.539 48.6314 107.405 49.5568 107.414 51.0712" stroke="black" stroke-width="0.5" stroke-linecap="round"/>
<path d="M107.423 51.025C107.466 52.0165 107.143 54.2098 105.504 55.0515" stroke="black" stroke-width="0.5" stroke-linecap="round"/>
<path d="M100.882 41.2711C99.2944 40.9472 96.0555 40.2923 95.8014 40.2645L94.3901 45.124L99.2238 46.7901L100.882 41.2711Z" fill="white"/>
<path d="M90.1917 45.2955C90.6476 45.0264 92.1187 44.6847 94.355 45.4711" stroke="black" stroke-width="0.5" stroke-linecap="round"/>
<path d="M97.7068 34.1557L97.354 37.0367L97.8127 37.8697H98.6594C99.2475 37.592 100.445 37.0089 100.529 36.8978C100.635 36.759 100.988 36.4813 101.059 36.4466C101.115 36.4188 101.67 36.1805 101.941 36.0647L102.399 35.4747L102.54 35.0234C102.364 34.954 101.997 34.8152 101.941 34.8152C101.87 34.8152 100.882 35.2317 100.741 35.3358C100.628 35.4191 100.012 35.6945 99.7179 35.8218C99.9884 35.5209 100.572 34.8638 100.741 34.6416C100.91 34.4195 100.906 34.2251 100.882 34.1557L100.529 33.8433C100.341 33.9474 99.9437 34.1557 99.859 34.1557C99.7532 34.1557 99.2945 34.954 99.224 35.0234C99.1675 35.079 98.9182 35.4862 98.8006 35.6829L98.3772 34.1557H97.7068Z" fill="white"/>
<path d="M110.655 44.6033L111.047 41.6529L111.894 41.7213L112.031 43.5641C112.148 43.3672 112.397 42.9594 112.453 42.9038C112.523 42.8343 112.981 42.0351 113.086 42.0349C113.171 42.0348 113.568 41.8258 113.756 41.7213L114.29 41.7213C114.314 41.7907 114.138 42.2969 113.969 42.5193C113.8 42.7418 113.218 43.4 112.948 43.7013C113.242 43.5735 113.858 43.297 113.971 43.2135C114.112 43.1091 115.099 42.6909 115.169 42.6907C115.226 42.6906 115.593 42.8288 115.769 42.8979L115.629 43.3494L115.172 43.9403C114.901 44.0565 114.347 44.2958 114.29 44.3237C114.22 44.3585 113.936 44.6726 113.831 44.8116L115.065 44.6033L115.629 44.9852C115.511 45.1819 115.252 45.5891 115.169 45.6447C115.086 45.7002 113.654 46.1075 112.948 46.3042L112.805 46.4272C112.662 46.5944 112.518 46.7265 112.384 46.7901L109.738 45.6447L110.655 44.6033Z" fill="white"/>
<path d="M97.3727 37.084L97.6082 37.1686L97.6109 37.1612L97.6131 37.1536L97.3727 37.084ZM97.5159 34.914L97.2674 34.9407L97.5159 34.914ZM99.7953 34.2134L99.9985 34.3596L99.7953 34.2134ZM99.6242 36.0375L99.48 35.8328L99.4644 35.8438L99.4505 35.8571L99.6242 36.0375ZM102.121 35.8422L102.275 36.0398L102.296 36.0235L102.313 36.0032L102.121 35.8422ZM100.625 37.0386L100.425 37.1872L100.46 37.2344L100.512 37.2611L100.625 37.0386ZM101.664 36.7485L101.732 36.9892L101.753 36.9831L101.774 36.9732L101.664 36.7485ZM101.764 37.9941L101.869 38.2212L101.885 38.2141L101.899 38.205L101.764 37.9941ZM97.3727 37.084C97.1372 36.9994 97.1373 36.9993 97.1373 36.9992C97.1373 36.9992 97.1373 36.9991 97.1373 36.9991C97.1374 36.9991 97.1374 36.999 97.1374 36.999C97.1374 36.9991 97.1373 36.9993 97.1372 36.9996C97.1369 37.0003 97.1364 37.0015 97.1358 37.0034C97.1344 37.0071 97.1321 37.0132 97.1288 37.0216C97.1223 37.0383 97.1119 37.0641 97.0974 37.0983C97.0684 37.1667 97.0226 37.2685 96.9573 37.3982C96.8266 37.6576 96.6178 38.028 96.308 38.4644C95.6887 39.3367 94.6654 40.4731 93.0545 41.5126L93.3264 41.9328C94.9968 40.855 96.0646 39.672 96.7161 38.7544C97.0417 38.2957 97.2632 37.9035 97.4041 37.6239C97.4745 37.4841 97.5248 37.3725 97.5578 37.2947C97.5743 37.2558 97.5866 37.2254 97.5948 37.2041C97.599 37.1935 97.6021 37.1852 97.6044 37.1792C97.6055 37.1763 97.6063 37.1739 97.607 37.1721C97.6073 37.1712 97.6076 37.1705 97.6078 37.1699C97.6079 37.1696 97.608 37.1694 97.6081 37.1692C97.6081 37.169 97.6081 37.1689 97.6082 37.1689C97.6082 37.1687 97.6082 37.1686 97.3727 37.084ZM97.6131 37.1536C97.7129 36.8062 97.8749 35.8905 97.7645 34.8873L97.2674 34.9407C97.3698 35.8707 97.2168 36.7207 97.1324 37.0145L97.6131 37.1536ZM97.7645 34.8873C97.7348 34.6175 97.7773 34.4651 97.8249 34.3844C97.8686 34.3103 97.9283 34.2762 97.9964 34.2642C98.0714 34.251 98.1583 34.2655 98.2299 34.3005C98.3087 34.3389 98.3238 34.3774 98.3229 34.3741L98.8057 34.2452C98.7543 34.0544 98.5965 33.9236 98.4484 33.8514C98.2932 33.7757 98.0994 33.7382 97.9083 33.7719C97.7103 33.8068 97.5185 33.9186 97.394 34.1296C97.2733 34.3342 97.2306 34.6062 97.2674 34.9407L97.7645 34.8873ZM98.3229 34.3741C98.3691 34.5457 98.431 34.8842 98.4648 35.1949C98.4816 35.35 98.4904 35.4894 98.4881 35.5926C98.487 35.6449 98.4832 35.6792 98.4793 35.6981C98.4724 35.7315 98.4728 35.6869 98.5231 35.6432L98.8515 36.0211C98.9349 35.9487 98.9595 35.8468 98.9691 35.8003C98.9817 35.7392 98.9867 35.6711 98.9881 35.6046C98.991 35.4702 98.9798 35.3064 98.9619 35.1422C98.9263 34.8141 98.8606 34.4488 98.8057 34.2452L98.3229 34.3741ZM98.5231 35.6432C98.525 35.6416 98.5304 35.637 98.5385 35.6313C98.5439 35.6276 98.5645 35.6132 98.5954 35.6025C98.6136 35.5961 98.7232 35.5598 98.8283 35.6406C98.9305 35.7192 98.926 35.8312 98.9252 35.8483C98.9238 35.8796 98.9165 35.9026 98.9146 35.9088C98.9116 35.9181 98.9089 35.9245 98.9078 35.9269C98.9057 35.9317 98.9049 35.9329 98.9072 35.9287C98.9171 35.9105 98.9413 35.8714 98.9814 35.8103C99.0589 35.6922 99.1782 35.5188 99.3104 35.3295C99.5742 34.9519 99.8835 34.5196 99.9985 34.3596L99.5921 34.0672C99.4766 34.2279 99.1658 34.6623 98.9002 35.0426C98.7677 35.2323 98.6449 35.4107 98.5631 35.5352C98.5235 35.5955 98.4887 35.6504 98.4678 35.6888C98.4624 35.6987 98.4556 35.7117 98.4495 35.7258C98.4484 35.7282 98.4281 35.7706 98.4256 35.8246C98.4248 35.8437 98.4207 35.9571 98.5238 36.0364C98.6298 36.1179 98.7408 36.0816 98.7611 36.0746C98.8139 36.0562 98.8497 36.0227 98.8515 36.0211L98.5231 35.6432ZM99.9985 34.3596C100.044 34.2966 100.133 34.2276 100.251 34.1767C100.368 34.126 100.482 34.1067 100.559 34.1136C100.597 34.117 100.613 34.1254 100.616 34.1272C100.616 34.1277 100.614 34.1265 100.612 34.1231C100.611 34.1215 100.61 34.1199 100.609 34.1185C100.608 34.117 100.608 34.1162 100.608 34.1162C100.61 34.1224 100.624 34.2096 100.493 34.4324L100.924 34.6873C101.072 34.4356 101.153 34.1869 101.086 33.9699C101.009 33.721 100.784 33.6321 100.603 33.6158C100.421 33.5994 100.222 33.6438 100.051 33.7179C99.8802 33.7919 99.7059 33.9089 99.5921 34.0672L99.9985 34.3596ZM100.493 34.4324C100.224 34.8869 99.818 35.3844 99.544 35.7052C99.4147 35.8566 99.3028 35.9824 99.2698 36.0236C99.2658 36.0286 99.2559 36.041 99.2468 36.0552C99.2441 36.0594 99.2397 36.0665 99.2349 36.0756C99.2315 36.0821 99.2212 36.1021 99.2141 36.1297C99.2105 36.1435 99.2046 36.1706 99.2064 36.2052C99.2081 36.2403 99.2189 36.3002 99.2662 36.3555C99.3682 36.4749 99.5066 36.4389 99.5179 36.436C99.5504 36.4279 99.5735 36.415 99.5801 36.4114C99.5899 36.4058 99.5976 36.4007 99.6019 36.3977C99.6107 36.3916 99.6178 36.3859 99.6217 36.3827C99.6301 36.3759 99.6387 36.3683 99.6458 36.3618C99.6745 36.336 99.725 36.2877 99.7978 36.2178L99.4505 35.8571C99.3755 35.9293 99.3316 35.9711 99.3102 35.9904C99.3049 35.9952 99.3037 35.9961 99.305 35.995C99.3054 35.9947 99.3096 35.9913 99.3162 35.9867C99.3194 35.9845 99.3261 35.98 99.3352 35.9749C99.3409 35.9717 99.3634 35.9591 99.3954 35.9511C99.4062 35.9484 99.5443 35.9123 99.6461 36.0314C99.6933 36.0867 99.7041 36.1465 99.7058 36.1814C99.7076 36.2157 99.7017 36.2426 99.6982 36.2562C99.6912 36.2832 99.6811 36.3026 99.6782 36.3082C99.6739 36.3165 99.67 36.3226 99.6681 36.3257C99.6619 36.3353 99.6573 36.3407 99.6609 36.3362C99.6882 36.302 99.7791 36.2008 99.9247 36.0304C100.2 35.7076 100.631 35.182 100.924 34.6873L100.493 34.4324ZM99.7683 36.2421C99.7678 36.2424 99.7689 36.2417 99.7724 36.2393C99.7757 36.2372 99.78 36.2343 99.7856 36.2307C99.7968 36.2236 99.8116 36.2142 99.83 36.2027C99.8666 36.1797 99.9153 36.1493 99.9738 36.113C100.09 36.0405 100.244 35.9451 100.411 35.8408C100.743 35.6332 101.132 35.3862 101.383 35.2109L101.096 34.8006C100.856 34.9679 100.478 35.2085 100.145 35.4169C99.8216 35.6192 99.5274 35.7996 99.48 35.8328L99.7683 36.2421ZM101.383 35.2109C101.468 35.1516 101.613 35.0944 101.775 35.065C101.94 35.0352 102.084 35.0409 102.172 35.0709C102.214 35.0851 102.229 35.0997 102.232 35.1043C102.233 35.105 102.239 35.1105 102.239 35.1374C102.237 35.2112 102.18 35.3827 101.93 35.6811L102.313 36.0032C102.579 35.6867 102.732 35.4033 102.739 35.1515C102.742 35.0156 102.702 34.8906 102.62 34.7892C102.54 34.6917 102.435 34.6327 102.332 34.5978C102.132 34.5296 101.893 34.5354 101.685 34.5731C101.475 34.6111 101.257 34.6888 101.096 34.8006L101.383 35.2109ZM101.968 35.6445C101.859 35.7288 101.702 35.8226 101.518 35.9266C101.34 36.0268 101.137 36.1368 100.961 36.2434C100.788 36.3478 100.612 36.4662 100.497 36.5931C100.438 36.6568 100.377 36.742 100.353 36.8472C100.325 36.9658 100.349 37.0859 100.425 37.1872L100.826 36.8899C100.838 36.9057 100.846 36.9363 100.84 36.9624C100.837 36.975 100.835 36.9646 100.867 36.9303C100.929 36.8614 101.05 36.7746 101.221 36.6711C101.388 36.5698 101.575 36.4691 101.764 36.3621C101.947 36.2589 102.134 36.1492 102.275 36.0398L101.968 35.6445ZM100.512 37.2611C100.64 37.3264 100.775 37.3224 100.881 37.3042C100.99 37.2856 101.099 37.2465 101.198 37.2068C101.294 37.1677 101.401 37.1188 101.488 37.081C101.582 37.0404 101.662 37.0085 101.732 36.9892L101.596 36.5077C101.492 36.5368 101.385 36.5804 101.289 36.6222C101.186 36.6667 101.099 36.7069 101.009 36.7434C100.92 36.7792 100.85 36.8021 100.796 36.8115C100.739 36.8212 100.729 36.8112 100.739 36.8161L100.512 37.2611ZM101.774 36.9732C101.912 36.906 102.094 36.9771 102.147 37.0881C102.168 37.1307 102.181 37.2024 102.123 37.3152C102.062 37.4352 101.92 37.5984 101.629 37.7833L101.899 38.205C102.232 37.993 102.452 37.7709 102.568 37.544C102.688 37.31 102.694 37.0732 102.598 36.8725C102.417 36.4969 101.926 36.3421 101.554 36.5237L101.774 36.9732ZM101.659 37.7671C101.412 37.8809 101.001 37.9759 100.587 38.0849C100.39 38.1369 100.193 38.1923 100.034 38.2534C99.954 38.284 99.876 38.3189 99.8089 38.3599C99.7463 38.3982 99.6684 38.4564 99.619 38.5435L100.054 38.7908C100.042 38.8124 100.035 38.8082 100.071 38.7866C100.102 38.7677 100.149 38.7452 100.214 38.7201C100.345 38.6697 100.518 38.6203 100.716 38.5684C101.092 38.4693 101.57 38.359 101.869 38.2212L101.659 37.7671ZM99.619 38.5435C99.5584 38.6504 99.4208 38.8289 99.2623 39.0007C99.0985 39.1783 98.9498 39.3078 98.8739 39.3471L99.1047 39.7912C99.2666 39.7074 99.4672 39.5171 99.6304 39.3401C99.799 39.1572 99.9662 38.9463 100.054 38.7908L99.619 38.5435ZM93.0545 41.5126C91.3569 42.608 90.1651 44.4159 89.5042 46.1081C89.1731 46.956 88.9713 47.7846 88.9077 48.4934C88.8451 49.1893 88.9115 49.8164 89.169 50.2216L89.591 49.9544C89.425 49.6932 89.3459 49.206 89.4058 48.5393C89.4645 47.8855 89.653 47.1031 89.9702 46.2909C90.6059 44.6631 91.7427 42.9548 93.3264 41.9328L93.0545 41.5126Z" fill="black"/>
<path d="M110.585 44.6035L110.777 44.7628L110.804 44.7306L110.819 44.6916L110.585 44.6035ZM106.546 49.0954C106.458 49.2018 106.473 49.3594 106.579 49.4474C106.686 49.5354 106.843 49.5204 106.931 49.414L106.546 49.0954ZM110.902 42.4514L110.652 42.4587L110.902 42.4514ZM113.231 41.9308L113.421 42.0923L113.231 41.9308ZM112.913 43.7357L112.786 43.5205L112.769 43.5302L112.755 43.5424L112.913 43.7357ZM115.418 43.7357L115.555 43.9448L115.578 43.9302L115.596 43.9112L115.418 43.7357ZM113.831 44.8118L113.619 44.9443L113.65 44.994L113.7 45.0247L113.831 44.8118ZM114.889 44.6035L114.937 44.8488L114.959 44.8444L114.981 44.8361L114.889 44.6035ZM114.889 45.8531L114.976 46.0876L114.991 46.0818L115.006 46.0738L114.889 45.8531ZM110.392 44.4442L106.546 49.0954L106.931 49.414L110.777 44.7628L110.392 44.4442ZM110.819 44.6916C110.946 44.3531 111.181 43.4529 111.152 42.4442L110.652 42.4587C110.679 43.3937 110.458 44.2291 110.351 44.5154L110.819 44.6916ZM111.152 42.4442C111.144 42.173 111.199 42.0243 111.253 41.9477C111.302 41.8772 111.364 41.8478 111.433 41.8412C111.509 41.8338 111.595 41.8551 111.663 41.8956C111.739 41.94 111.751 41.9796 111.75 41.9762L112.242 41.8853C112.206 41.691 112.059 41.5484 111.917 41.4648C111.769 41.3773 111.578 41.3248 111.385 41.3435C111.185 41.3629 110.985 41.4593 110.844 41.66C110.707 41.8545 110.642 42.1224 110.652 42.4587L111.152 42.4442ZM111.75 41.9762C111.782 42.1508 111.817 42.4931 111.825 42.8054C111.83 42.9614 111.827 43.101 111.817 43.2036C111.811 43.2557 111.805 43.2896 111.799 43.3081C111.79 43.3409 111.794 43.2965 111.847 43.2569L112.144 43.6592C112.233 43.5936 112.266 43.4938 112.279 43.4482C112.297 43.3884 112.307 43.3208 112.314 43.2547C112.328 43.1209 112.33 42.9568 112.325 42.7917C112.316 42.4618 112.28 42.0925 112.242 41.8853L111.75 41.9762ZM111.847 43.2569C111.849 43.2554 111.855 43.2512 111.864 43.2462C111.869 43.2429 111.891 43.2302 111.923 43.2219C111.941 43.217 112.054 43.1893 112.152 43.278C112.247 43.3644 112.234 43.4757 112.232 43.4927C112.228 43.5238 112.219 43.5462 112.216 43.5522C112.212 43.5612 112.209 43.5674 112.208 43.5697C112.206 43.5743 112.205 43.5754 112.207 43.5714C112.218 43.5541 112.246 43.517 112.291 43.4592C112.378 43.3475 112.51 43.184 112.657 43.0056C112.951 42.6497 113.294 42.2429 113.421 42.0923L113.04 41.7692C112.912 41.9203 112.567 42.3292 112.272 42.6875C112.124 42.8663 111.987 43.0345 111.896 43.1523C111.852 43.2093 111.813 43.2613 111.789 43.2979C111.782 43.3074 111.775 43.3199 111.767 43.3334C111.766 43.3357 111.742 43.3765 111.736 43.4301C111.733 43.4491 111.72 43.5618 111.816 43.6489C111.915 43.7385 112.029 43.7109 112.05 43.7055C112.104 43.6912 112.142 43.6607 112.144 43.6592L111.847 43.2569ZM113.421 42.0923C113.472 42.0331 113.566 41.9713 113.688 41.9297C113.809 41.8883 113.924 41.878 114 41.8909C114.037 41.8972 114.053 41.9068 114.055 41.9088C114.056 41.9094 114.054 41.908 114.052 41.9044C114.051 41.9027 114.05 41.9011 114.049 41.8995C114.049 41.898 114.048 41.8972 114.048 41.8972C114.05 41.9035 114.057 41.9915 113.908 42.2034L114.317 42.4912C114.486 42.2518 114.586 42.0101 114.537 41.7886C114.48 41.5345 114.263 41.4283 114.084 41.3979C113.904 41.3674 113.702 41.3962 113.526 41.4567C113.349 41.5171 113.166 41.6202 113.04 41.7692L113.421 42.0923ZM113.908 42.2034C113.604 42.6355 113.159 43.0997 112.86 43.3983C112.719 43.5391 112.597 43.6557 112.561 43.6943C112.557 43.6989 112.546 43.7105 112.536 43.724C112.533 43.7279 112.528 43.7347 112.522 43.7434C112.518 43.7496 112.506 43.7688 112.497 43.7957C112.492 43.8092 112.484 43.8358 112.483 43.8703C112.482 43.9055 112.488 43.9661 112.531 44.0249C112.623 44.1519 112.764 44.1267 112.775 44.1248C112.808 44.1192 112.832 44.1082 112.839 44.105C112.849 44.1003 112.857 44.0958 112.862 44.0931C112.871 44.0878 112.879 44.0826 112.883 44.0798C112.892 44.0736 112.901 44.0667 112.909 44.0608C112.939 44.0373 112.994 43.9931 113.072 43.9291L112.755 43.5424C112.674 43.6085 112.627 43.6467 112.604 43.6643C112.598 43.6687 112.597 43.6695 112.598 43.6685C112.599 43.6682 112.603 43.6651 112.61 43.6611C112.614 43.6591 112.621 43.6551 112.63 43.6508C112.636 43.648 112.66 43.6372 112.692 43.6317C112.703 43.6299 112.844 43.6047 112.936 43.7314C112.978 43.7902 112.984 43.8506 112.983 43.8856C112.982 43.92 112.974 43.9463 112.969 43.9596C112.96 43.986 112.949 44.0045 112.945 44.0099C112.94 44.0178 112.936 44.0236 112.934 44.0265C112.927 44.0356 112.922 44.0406 112.926 44.0364C112.956 44.0045 113.054 43.9107 113.213 43.7521C113.514 43.4519 113.986 42.9615 114.317 42.4912L113.908 42.2034ZM113.04 43.951C113.04 43.9513 113.041 43.9506 113.045 43.9485C113.048 43.9467 113.053 43.9442 113.059 43.941C113.07 43.9347 113.086 43.9265 113.105 43.9165C113.143 43.8964 113.194 43.8699 113.256 43.8383C113.378 43.7752 113.539 43.6921 113.713 43.6011C114.061 43.4199 114.468 43.2041 114.733 43.049L114.48 42.6175C114.228 42.7655 113.831 42.9759 113.482 43.1577C113.144 43.3341 112.836 43.491 112.786 43.5205L113.04 43.951ZM114.733 43.049C114.823 42.9964 114.971 42.9507 115.136 42.934C115.302 42.9172 115.446 42.9341 115.531 42.9709C115.571 42.9882 115.585 43.004 115.588 43.0089C115.589 43.0096 115.595 43.0156 115.592 43.0423C115.584 43.1157 115.514 43.2823 115.24 43.5602L115.596 43.9112C115.887 43.6164 116.062 43.3459 116.089 43.0954C116.104 42.9601 116.074 42.8324 116 42.7249C115.928 42.6215 115.828 42.5545 115.729 42.5117C115.535 42.4281 115.296 42.4152 115.085 42.4366C114.873 42.4581 114.649 42.5185 114.48 42.6175L114.733 43.049ZM115.281 43.5267C115.166 43.6022 115.002 43.6835 114.81 43.7728C114.625 43.8589 114.413 43.9527 114.229 44.0452C114.049 44.1358 113.864 44.2401 113.738 44.3576C113.675 44.4166 113.607 44.4968 113.574 44.5997C113.537 44.7158 113.552 44.8374 113.619 44.9443L114.042 44.6792C114.053 44.6958 114.058 44.727 114.05 44.7525C114.046 44.7649 114.046 44.7544 114.08 44.7227C114.148 44.6589 114.275 44.5817 114.454 44.4919C114.629 44.4039 114.823 44.3181 115.021 44.2262C115.211 44.1376 115.406 44.0428 115.555 43.9448L115.281 43.5267ZM113.7 45.0247C113.822 45.0998 113.957 45.1064 114.065 45.0965C114.174 45.0864 114.286 45.056 114.387 45.0241C114.487 44.9927 114.597 44.9522 114.688 44.9213C114.784 44.8882 114.867 44.8626 114.937 44.8488L114.841 44.3582C114.735 44.379 114.625 44.4142 114.525 44.4483C114.419 44.4847 114.33 44.518 114.237 44.5473C114.146 44.5762 114.074 44.5935 114.019 44.5986C113.961 44.6039 113.952 44.5931 113.961 44.5988L113.7 45.0247ZM114.981 44.8361C115.124 44.7798 115.299 44.865 115.344 44.9798C115.361 45.0238 115.368 45.0963 115.301 45.2043C115.231 45.3191 115.076 45.4706 114.772 45.6323L115.006 46.0738C115.355 45.8884 115.593 45.6842 115.727 45.4671C115.865 45.2431 115.89 45.0075 115.81 44.7999C115.66 44.4114 115.184 44.2189 114.797 44.3708L114.981 44.8361ZM114.802 45.6185C114.547 45.7127 114.13 45.7754 113.708 45.8518C113.507 45.8883 113.306 45.928 113.143 45.9766C113.061 46.0009 112.98 46.0296 112.91 46.0652C112.845 46.0985 112.762 46.1505 112.706 46.2335L113.12 46.514C113.106 46.5345 113.1 46.5298 113.137 46.5111C113.169 46.4946 113.218 46.4759 113.285 46.4559C113.42 46.4159 113.596 46.3802 113.797 46.3438C114.18 46.2744 114.666 46.2017 114.976 46.0876L114.802 45.6185ZM112.706 46.2335C112.637 46.3353 112.486 46.5025 112.314 46.6614C112.136 46.8257 111.978 46.9432 111.899 46.9764L112.093 47.4372C112.261 47.3663 112.476 47.1922 112.653 47.0285C112.836 46.8594 113.02 46.6621 113.12 46.514L112.706 46.2335Z" fill="black"/>
<path d="M44.0071 100.661C43.6073 102.281 42.6805 108.638 42.1725 110.276C41.5374 112.324 58.2259 112.185 57.485 110.345C56.8922 108.874 55.1328 101.564 54.6271 98.7521" stroke="black" stroke-width="0.5"/>
<path d="M42.5957 115.795L42.9838 111.144C47.6411 112.338 53.6155 111.815 56.0382 111.318L56.4263 115.795H50.0755C50.0755 115.795 49.6522 113.678 49.5816 113.747C49.5816 113.678 49.4757 115.795 49.4757 115.795H42.5957Z" fill="white"/>
<path d="M42.9838 111.144L43.0459 110.902C42.9746 110.884 42.8989 110.898 42.8389 110.94C42.7789 110.983 42.7408 111.05 42.7347 111.123L42.9838 111.144ZM42.5957 115.795L42.3466 115.774L42.324 116.045H42.5957V115.795ZM49.4757 115.795V116.045H49.7136L49.7254 115.808L49.4757 115.795ZM49.5816 113.747H49.3316V114.344L49.7569 113.926L49.5816 113.747ZM50.0755 115.795L49.8304 115.844L49.8706 116.045H50.0755V115.795ZM56.4263 115.795V116.045H56.699L56.6754 115.774L56.4263 115.795ZM56.0382 111.318L56.2873 111.296L56.2631 111.016L55.988 111.073L56.0382 111.318ZM42.7347 111.123L42.3466 115.774L42.8448 115.816L43.2329 111.165L42.7347 111.123ZM42.5957 116.045H49.4757V115.545H42.5957V116.045ZM49.4757 115.795C49.7254 115.808 49.7254 115.808 49.7254 115.808C49.7254 115.808 49.7254 115.808 49.7254 115.808C49.7254 115.808 49.7254 115.808 49.7255 115.807C49.7255 115.807 49.7255 115.807 49.7255 115.806C49.7256 115.805 49.7256 115.804 49.7257 115.802C49.7259 115.798 49.7262 115.792 49.7266 115.784C49.7274 115.769 49.7285 115.746 49.73 115.717C49.7329 115.659 49.737 115.577 49.742 115.478C49.7519 115.281 49.7651 115.018 49.7783 114.758C49.7916 114.498 49.8048 114.24 49.8147 114.051C49.8197 113.957 49.8238 113.88 49.8266 113.83C49.8281 113.804 49.8292 113.786 49.8299 113.775C49.8303 113.769 49.8303 113.769 49.83 113.772C49.83 113.773 49.8295 113.778 49.8284 113.785C49.8281 113.786 49.8263 113.799 49.8221 113.814C49.819 113.824 49.8067 113.854 49.7962 113.874C49.7572 113.924 49.5746 113.996 49.4444 113.955C49.3939 113.911 49.3476 113.834 49.3404 113.812C49.3378 113.801 49.3345 113.784 49.3337 113.778C49.3323 113.768 49.3319 113.76 49.3318 113.758C49.3316 113.752 49.3316 113.748 49.3316 113.747H49.8316C49.8316 113.746 49.8316 113.741 49.8313 113.735C49.8312 113.732 49.8308 113.724 49.8294 113.713C49.8285 113.707 49.8253 113.69 49.8227 113.68C49.8155 113.658 49.7692 113.581 49.7186 113.537C49.5884 113.496 49.4058 113.568 49.3668 113.618C49.3562 113.637 49.344 113.668 49.3409 113.678C49.3366 113.693 49.3347 113.705 49.3345 113.707C49.3333 113.714 49.3327 113.72 49.3326 113.722C49.3318 113.729 49.3313 113.737 49.3309 113.742C49.3301 113.755 49.3289 113.776 49.3274 113.801C49.3245 113.853 49.3204 113.931 49.3154 114.025C49.3055 114.214 49.2922 114.472 49.279 114.733C49.2658 114.993 49.2525 115.256 49.2426 115.453C49.2376 115.552 49.2335 115.634 49.2306 115.692C49.2292 115.721 49.228 115.744 49.2272 115.759C49.2269 115.767 49.2266 115.773 49.2264 115.777C49.2263 115.779 49.2262 115.78 49.2261 115.781C49.2261 115.782 49.2261 115.782 49.2261 115.782C49.2261 115.783 49.2261 115.783 49.2261 115.783C49.2261 115.783 49.2261 115.783 49.2261 115.783C49.2261 115.783 49.2261 115.783 49.4757 115.795ZM49.7569 113.926C49.7223 113.96 49.6658 113.994 49.5917 113.996C49.5232 113.997 49.4733 113.971 49.4477 113.953C49.4222 113.936 49.4064 113.917 49.3993 113.909C49.3914 113.899 49.3864 113.891 49.3841 113.887C49.3778 113.876 49.3793 113.876 49.3877 113.9C49.4022 113.94 49.4223 114.008 49.4468 114.102C49.495 114.285 49.5537 114.539 49.6109 114.799C49.6679 115.058 49.7228 115.319 49.7635 115.516C49.7838 115.614 49.8005 115.697 49.8122 115.754C49.818 115.783 49.8226 115.805 49.8257 115.821C49.8272 115.829 49.8284 115.834 49.8292 115.838C49.8296 115.84 49.8299 115.842 49.8301 115.843C49.8302 115.843 49.8303 115.844 49.8303 115.844C49.8303 115.844 49.8304 115.844 49.8304 115.844C49.8304 115.844 49.8304 115.844 49.8304 115.844C49.8304 115.844 49.8304 115.844 50.0755 115.795C50.3207 115.746 50.3207 115.746 50.3207 115.746C50.3207 115.746 50.3207 115.746 50.3207 115.746C50.3207 115.746 50.3206 115.746 50.3206 115.746C50.3206 115.746 50.3205 115.745 50.3204 115.745C50.3202 115.744 50.3198 115.742 50.3194 115.74C50.3186 115.736 50.3174 115.73 50.3159 115.722C50.3127 115.707 50.3081 115.684 50.3022 115.655C50.2905 115.597 50.2736 115.514 50.2531 115.415C50.2122 115.217 50.1568 114.953 50.0992 114.692C50.0417 114.431 49.9813 114.168 49.9303 113.974C49.9052 113.879 49.8806 113.793 49.8585 113.731C49.8486 113.704 49.8337 113.665 49.8135 113.631C49.8066 113.619 49.7806 113.575 49.7307 113.541C49.7023 113.522 49.6496 113.494 49.5786 113.496C49.502 113.498 49.4431 113.533 49.4063 113.569L49.7569 113.926ZM50.0755 116.045H56.4263V115.545H50.0755V116.045ZM56.6754 115.774L56.2873 111.296L55.7892 111.339L56.1773 115.817L56.6754 115.774ZM55.988 111.073C53.5868 111.566 47.6536 112.083 43.0459 110.902L42.9217 111.386C47.6285 112.593 53.6442 112.064 56.0885 111.562L55.988 111.073Z" fill="black"/>
<path d="M92.4497 85.8053L91.0032 63.2086C95.6462 64.399 100.511 63.3999 102.942 62.9008L102.964 62.8962L103.493 84.0004H99.3651C99.3651 84.0004 97.5304 71.088 97.4598 71.1574C97.2834 73.9343 96.6483 85.4582 96.6483 85.4582L92.4497 85.8053Z" fill="white"/>
<path d="M91.0032 63.2086L91.0653 62.9665C90.9877 62.9466 90.9053 62.965 90.8437 63.0161C90.782 63.0672 90.7486 63.1447 90.7537 63.2246L91.0032 63.2086ZM92.4497 85.8053L92.2003 85.8213L92.2165 86.0755L92.4703 86.0545L92.4497 85.8053ZM96.6483 85.4582L96.6689 85.7074L96.886 85.6894L96.898 85.472L96.6483 85.4582ZM97.4598 71.1574L97.2845 70.9792L97.2164 71.0462L97.2103 71.1415L97.4598 71.1574ZM99.3651 84.0004L99.1176 84.0355L99.1481 84.2504H99.3651V84.0004ZM103.493 84.0004V84.2504H103.749L103.743 83.9941L103.493 84.0004ZM102.964 62.8962L103.214 62.89L103.206 62.5912L102.914 62.6514L102.964 62.8962ZM102.942 62.9008L102.891 62.6559L102.891 62.6559L102.942 62.9008ZM90.7537 63.2246L92.2003 85.8213L92.6992 85.7894L91.2527 63.1927L90.7537 63.2246ZM92.4703 86.0545L96.6689 85.7074L96.6277 85.2091L92.4291 85.5562L92.4703 86.0545ZM96.6483 85.4582C96.898 85.472 96.898 85.4719 96.898 85.4719C96.898 85.4718 96.898 85.4716 96.898 85.4715C96.898 85.4711 96.898 85.4706 96.8981 85.4699C96.8981 85.4685 96.8983 85.4664 96.8984 85.4636C96.8987 85.4581 96.8992 85.4498 96.8998 85.4388C96.901 85.417 96.9028 85.3844 96.9051 85.3419C96.9098 85.2568 96.9167 85.1317 96.9256 84.9714C96.9433 84.6509 96.9688 84.1899 96.9999 83.6281C97.0622 82.5043 97.1471 80.9771 97.2375 79.3631C97.4184 76.1346 97.6212 72.5605 97.7093 71.1732L97.2103 71.1415C97.1221 72.5311 96.9191 76.1075 96.7383 79.3352C96.6479 80.9493 96.563 82.4766 96.5007 83.6004C96.4696 84.1623 96.4441 84.6233 96.4263 84.9438C96.4175 85.1041 96.4106 85.2293 96.4059 85.3144C96.4035 85.3569 96.4017 85.3894 96.4005 85.4113C96.3999 85.4223 96.3995 85.4306 96.3992 85.4361C96.399 85.4389 96.3989 85.441 96.3988 85.4424C96.3988 85.4431 96.3988 85.4436 96.3987 85.4439C96.3987 85.4441 96.3987 85.4443 96.3987 85.4443C96.3987 85.4444 96.3987 85.4445 96.6483 85.4582ZM97.6352 71.3356C97.6127 71.3552 97.5546 71.3886 97.5193 71.4001C97.4802 71.4063 97.4062 71.4011 97.373 71.3913C97.3043 71.3655 97.2689 71.3177 97.2611 71.3072C97.2483 71.29 97.2408 71.2751 97.2378 71.2688C97.2342 71.2612 97.2318 71.2552 97.2306 71.252C97.2269 71.2424 97.2264 71.2384 97.2288 71.2482C97.2327 71.2637 97.2388 71.2925 97.2473 71.337C97.264 71.4245 97.2869 71.5571 97.3153 71.7298C97.3719 72.0747 97.4492 72.5721 97.5401 73.1723C97.7219 74.3723 97.9578 75.9792 98.1915 77.5888C98.4252 79.1983 98.6567 80.81 98.8298 82.0193C98.9164 82.624 98.9883 83.1281 99.0386 83.481C99.0637 83.6574 99.0835 83.7961 99.0969 83.8906C99.1037 83.9379 99.1088 83.9741 99.1123 83.9985C99.114 84.0107 99.1153 84.02 99.1162 84.0262C99.1167 84.0293 99.117 84.0316 99.1172 84.0332C99.1173 84.034 99.1174 84.0346 99.1175 84.035C99.1175 84.0352 99.1175 84.0353 99.1175 84.0354C99.1175 84.0355 99.1176 84.0355 99.3651 84.0004C99.6126 83.9652 99.6126 83.9652 99.6126 83.9651C99.6125 83.965 99.6125 83.9648 99.6125 83.9646C99.6124 83.9642 99.6124 83.9636 99.6122 83.9628C99.612 83.9613 99.6117 83.9589 99.6113 83.9558C99.6104 83.9496 99.6091 83.9404 99.6073 83.9281C99.6038 83.9037 99.5987 83.8674 99.592 83.8202C99.5785 83.7256 99.5588 83.5869 99.5336 83.4104C99.4833 83.0574 99.4113 82.5533 99.3248 81.9485C99.1517 80.7389 98.9201 79.1269 98.6863 77.5169C98.4526 75.9071 98.2165 74.2989 98.0345 73.0974C97.9435 72.4968 97.8658 71.9968 97.8086 71.6488C97.7801 71.4751 97.7564 71.3374 97.7384 71.2433C97.7296 71.1972 97.7214 71.1574 97.7142 71.1281C97.7111 71.1155 97.7058 71.095 97.6982 71.0751C97.6963 71.07 97.6855 71.04 97.6625 71.0091C97.6539 70.9975 97.6178 70.9491 97.5485 70.9231C97.5149 70.9131 97.4406 70.9079 97.4013 70.9142C97.3656 70.9257 97.3073 70.9593 97.2845 70.9792L97.6352 71.3356ZM99.3651 84.2504H103.493V83.7504H99.3651V84.2504ZM103.743 83.9941L103.214 62.89L102.714 62.9025L103.243 84.0066L103.743 83.9941ZM102.914 62.6514L102.891 62.6559L102.992 63.1457L103.014 63.1411L102.914 62.6514ZM102.891 62.6559C100.457 63.1559 95.6453 64.1407 91.0653 62.9665L90.9411 63.4508C95.6471 64.6574 100.566 63.6439 102.992 63.1457L102.891 62.6559Z" fill="black"/>
<path d="M89.4998 48.9402C90.988 45.574 95.6293 46.7631 95.6293 46.7631L100.731 47.1331C100.731 47.1331 104.709 46.5398 105.931 50.2152C106.595 52.2124 103.281 64.1074 103.281 64.1074L90.5893 63.7602C90.5893 63.7602 88.6053 50.9636 89.4998 48.9402Z" fill="white" stroke="black" stroke-width="0.5" stroke-linecap="round" stroke-linejoin="round"/>
<path fill-rule="evenodd" clip-rule="evenodd" d="M95.8029 40.7143C96.4748 41.3089 98.1276 42.1257 100.427 41.4795L99.2579 45.4448C99.202 45.6668 98.9209 46.0699 98.2435 45.9067C97.6052 45.753 95.6413 45.1788 94.5799 44.8638L95.8029 40.7143ZM95.2828 41.8311C93.5606 41.2605 94.3076 40.1123 94.8975 39.6087C94.6812 39.1119 94.3949 37.7557 95.4963 37.2534C96.2716 36.8997 96.8515 37.165 97.4913 37.4576C97.625 37.5188 97.7613 37.5811 97.9025 37.6393L98.9201 37.6196C99.5894 37.5427 100.019 37.681 100.2 37.739C100.222 37.7461 100.24 37.752 100.254 37.7561C101.597 38.1391 101.708 38.3136 102.023 38.8064L102.023 38.8064C102.063 38.8694 102.106 38.9377 102.156 39.0123C102.358 39.4518 102.568 39.9225 102.339 40.3738C101.668 42.6958 100.436 46.969 100.277 47.5574C100.111 48.1712 99.0296 48.3785 98.5094 48.4054C98.4162 48.3976 97.8919 48.3176 96.5399 48.0596C95.188 47.8016 94.3531 46.4435 94.1046 45.7966L94.3957 44.8091C94.3986 44.81 94.4015 44.8108 94.4043 44.8117L95.2828 41.8311Z" fill="black"/>
<path d="M98.5167 42.5465L99.3926 43.2235M96.1935 41.9581L95.2916 42.0537M96.9066 43.09C96.4333 43.5772 95.7419 44.6502 96.7624 45.0453" stroke="black" stroke-width="0.5" stroke-linecap="round"/>
<ellipse rx="0.142152" ry="0.140205" transform="matrix(0.961638 0.27432 -0.282711 0.959205 95.8014 43.1258)" fill="black"/>
<ellipse rx="0.142152" ry="0.120175" transform="matrix(0.961638 0.27432 -0.282711 0.959205 98.279 43.7699)" fill="black"/>
<path d="M96.4718 84.9354L93.0142 85.2177C93.0142 85.2177 90.7561 86.4173 90.7561 87.8639C90.7561 89.3104 95.9426 87.8639 96.4718 87.8639C97.0011 87.8639 96.4718 84.9354 96.4718 84.9354Z" fill="white" stroke="black" stroke-width="0.5"/>
<path d="M99.5851 83.3831H103.14C103.14 83.3831 104.692 86.1935 103.846 86.334C102.999 86.4745 100.081 86.334 99.5851 86.334C99.0894 86.334 99.5851 83.3831 99.5851 83.3831Z" fill="white" stroke="black" stroke-width="0.5"/>
<path d="M109.526 44.8549L109.95 44.3257L110.303 44.2904L110.655 44.8902L109.526 44.8549Z" fill="white"/>
</svg>
