<svg width="160" height="123" viewBox="0 0 160 123" fill="none" xmlns="http://www.w3.org/2000/svg">
<rect width="160" height="123" fill="white"/>
<rect x="19" y="27" width="122" height="90" fill="white"/>
<path d="M37.6069 69.7295L50.6904 67.6361L53.3071 78.1029H54.3538L57.4938 94.8498L39.177 100.606L37.6069 69.7295Z" fill="white"/>
<path d="M58.5404 86.4765L55.557 91.6338C56.3571 92.4713 58.8665 94.7388 59.7186 95.3332C61.0876 96.2877 62.0821 97.0235 63.7738 96.42C65.5692 95.7788 68.0443 93.7429 68.8015 93.0061C69.8112 92.023 70.0468 92.0829 71.8908 89.7865C74.4774 86.563 77.0368 82.3209 77.0368 82.3209C77.0368 82.3209 78.5741 80.9645 79.076 80.1945C79.7402 79.1762 81.1029 76.7417 80.4729 76.5753C79.8623 76.4145 79.7264 76.7181 79.4139 76.5513C79.1427 76.4069 79.3036 75.8176 78.7406 75.7096C78.1349 75.593 77.8482 76.5579 77.7034 76.0252C77.6205 75.7201 77.6384 75.3748 77.0874 75.2371C76.035 74.9725 76.1207 77.5771 75.5753 77.6104C75.1081 77.6392 75.1183 77.0619 75.4012 76.4718C75.6183 76.0191 75.3352 75.8186 74.7377 75.818C74.4801 75.8192 74.0558 75.9483 73.918 76.6246C73.6317 78.0233 73.8734 78.7415 73.6428 79.7973C73.3 81.3626 70.0853 85.021 70.0853 85.021C66.4603 88.9181 65.4189 90.0314 63.2504 89.7865C61.0819 89.5417 60.6337 88.5699 61.1511 87.5577C59.2745 85.6747 58.5404 86.4765 58.5404 86.4765Z" fill="white" stroke="#333333" stroke-width="0.5" stroke-miterlimit="10"/>
<path d="M45.3667 67.8361L46.1594 63.1239L55.0179 61.4682L56.6601 61.2477L57.3855 64.4482C57.3855 64.4482 56.6795 68.5508 54.4077 70.6663C52.1358 72.7817 52.3363 73.3336 49.52 73.2601" fill="white"/>
<path d="M45.3667 67.8361L46.1594 63.1239L55.0179 61.4682L56.6601 61.2477L57.3855 64.4482C57.3855 64.4482 56.6795 68.5508 54.4077 70.6663C52.1359 72.7817 52.3363 73.3336 49.52 73.2601" stroke="#333333" stroke-width="0.5" stroke-miterlimit="10"/>
<path d="M37.7856 103.582L37.3591 107.601C37.285 108.561 38.0759 109.369 39.0439 109.321L58.5265 108.354C59.508 108.305 60.2158 107.403 60.0252 106.446L56.8099 89.2916" fill="white"/>
<path d="M37.7856 103.582L37.3591 107.601C37.285 108.561 38.0759 109.369 39.0439 109.321L58.5265 108.354C59.508 108.305 60.2158 107.403 60.0252 106.446L56.8099 89.2916" stroke="#333333" stroke-width="0.5" stroke-miterlimit="10"/>
<path d="M33.3156 83.9497L26.4222 74.1984L27.4946 73.2767C27.4946 73.2767 26.1162 73.3533 24.5849 71.2031C23.0535 69.0529 24.9343 69.0484 25.6288 68.8424C25.6288 68.8424 28.6015 68.9386 29.7504 67.5898C30.8993 66.241 31.5353 64.778 33.4896 65.2381C35.4439 65.6982 36.1848 63.1224 36.1848 63.1224L42.0253 59.5136C42.0253 59.5136 49.4272 54.5936 53.3718 56.2447C57.3165 57.8957 57.4244 61.2233 57.3794 62.1691C57.3344 63.1164 57.0756 64.4121 57.0756 64.4121L55.7071 62.1315L47.5628 66.214C47.5628 66.214 47.1414 72.3564 40.8989 76.1577C40.8989 76.1562 34.484 77.4809 33.3156 83.9497Z" fill="#333333" stroke="#333333" stroke-width="0.5" stroke-miterlimit="10"/>
<path d="M39.1249 77.2729C38.4254 77.3489 37.6365 77.5827 36.7584 77.9977C33.2503 79.656 32.9445 87.3619 32.9445 87.3619L39.7744 89.8619C39.7744 89.8619 39.5276 90.2929 39.3293 93.2561C39.3005 93.6769 39.1264 96.4939 39.3489 96.8372C40.651 98.8448 41.9138 98.7294 47.5052 98.9266C47.5052 98.9266 52.6242 98.9529 54.1019 98.0938C55.0982 97.5137 55.5009 96.7832 56.8076 95.9986C57.4389 95.6187 57.8341 95.8817 58.0127 96.0979C58.4246 96.602 58.4609 96.9877 57.9522 97.1368C57.289 97.3311 56.8242 97.7461 57.1694 98.1186C57.5722 98.5541 59.5783 96.5713 60.0946 97.6525C60.3656 98.218 60.0794 98.4562 59.8947 98.7498C59.5722 99.2627 60.5352 98.7966 60.8607 99.3927C61.1635 99.9465 60.5851 100.243 60.6578 100.578C60.7411 100.963 61.0757 100.855 61.3694 101.488C61.6722 102.141 58.8016 102.778 57.5358 102.965C56.5789 103.107 54.4426 102.806 54.4426 102.806C54.4426 102.806 49.313 103.76 44.9722 103.944C41.8789 104.074 41.7639 103.832 40.2877 103.702C39.1809 103.604 35.856 103.402 34.1088 102.359C32.463 101.375 32.3631 99.6061 32.1753 97.7519C32.0587 96.5976 31.9467 94.5272 32.0587 93.2385C32.3706 89.6763 32.9233 87.5636 32.9233 87.5636L40.003 89.7509C40.003 89.7509 40.1968 89.4309 40.4875 88.9005" fill="white"/>
<path d="M39.1249 77.2729C38.4254 77.3489 37.6365 77.5827 36.7584 77.9977C33.2503 79.656 32.9445 87.3619 32.9445 87.3619L39.7744 89.8619C39.7744 89.8619 39.5276 90.2929 39.3293 93.2561C39.3005 93.6769 39.1264 96.4939 39.3489 96.8373C40.651 98.8448 41.9138 98.7294 47.5052 98.9266C47.5052 98.9266 52.6242 98.9529 54.1019 98.0938C55.0982 97.5137 55.5009 96.7832 56.8076 95.9986C57.4389 95.6187 57.8341 95.8817 58.0127 96.0979C58.4246 96.602 58.4609 96.9877 57.9522 97.1368C57.289 97.3311 56.8242 97.7461 57.1694 98.1186C57.5722 98.5541 59.5783 96.5713 60.0946 97.6525C60.3656 98.218 60.0794 98.4562 59.8947 98.7498C59.5722 99.2627 60.5352 98.7966 60.8607 99.3927C61.1635 99.9465 60.5851 100.243 60.6578 100.578C60.7411 100.963 61.0757 100.855 61.3694 101.488C61.6722 102.141 58.8016 102.778 57.5358 102.965C56.5789 103.107 54.4426 102.806 54.4426 102.806C54.4426 102.806 49.313 103.76 44.9722 103.944C41.8789 104.074 41.7639 103.832 40.2877 103.702C39.1809 103.604 35.856 103.402 34.1088 102.359C32.463 101.375 32.3631 99.6061 32.1753 97.7519C32.0587 96.5976 31.9467 94.5272 32.0587 93.2385C32.3706 89.6763 32.9233 87.5636 32.9233 87.5636L40.003 89.7509C40.003 89.7509 40.1968 89.4309 40.4875 88.9005" stroke="#333333" stroke-width="0.5" stroke-miterlimit="10"/>
<path d="M56.3255 89.2917L62.727 88.485L61.491 83.9892C61.491 83.9892 60.1436 77.0145 55.8754 77.3019C51.6072 77.5894 52.0574 73.2667 52.0574 73.2667" fill="white"/>
<path d="M56.3255 89.2917L62.727 88.485L61.491 83.9892C61.491 83.9892 60.1436 77.0145 55.8754 77.3019C51.6072 77.5894 52.0574 73.2667 52.0574 73.2667" stroke="#333333" stroke-width="0.5" stroke-miterlimit="10"/>
<path d="M54.2565 66.4415C55.0471 66.2667 55.8452 66.1417 56.6523 66.0724C56.7743 66.0618 56.8782 65.976 56.8782 65.8464C56.8782 65.7319 56.7743 65.6098 56.6523 65.6204C55.806 65.6942 54.9658 65.8223 54.136 66.0061C53.8529 66.0679 53.9734 66.5048 54.2565 66.4415Z" fill="#333333"/>
<path opacity="0.76" d="M44.4254 78.3126C44.6601 77.3045 43.6073 76.1976 42.0741 75.8404C40.5409 75.4831 39.1077 76.0107 38.8731 77.0189C38.6385 78.027 39.6912 79.1338 41.2244 79.4911C42.7576 79.8483 44.1908 79.3207 44.4254 78.3126Z" fill="#FDAE46" fill-opacity="0.5"/>
<path opacity="0.76" d="M86.8664 40.8872C86.987 34.1469 80.1096 28.5579 71.5053 28.4038C62.901 28.2497 55.828 33.5888 55.7074 40.329C55.5868 47.0693 62.4642 52.6583 71.0685 52.8124C79.6728 52.9665 86.7458 47.6274 86.8664 40.8872Z" fill="white"/>
<path opacity="0.76" d="M85.0677 40.7309C85.1716 34.9273 78.2806 30.0977 69.6763 29.9435C61.072 29.7894 54.0126 34.3692 53.9087 40.1727C53.8049 45.9763 60.6959 50.806 69.3002 50.9601C77.9045 51.1142 84.9639 46.5345 85.0677 40.7309Z" fill="#FDAE46" fill-opacity="0.5"/>
<path opacity="0.76" d="M38.5513 99.6247C39.705 99.2791 40.4457 98.3489 40.2057 97.547C39.9658 96.745 38.836 96.3751 37.6824 96.7206C36.5287 97.0662 35.788 97.9964 36.028 98.7984C36.2679 99.6003 37.3977 99.9703 38.5513 99.6247Z" fill="#FDAE46" fill-opacity="0.5"/>
<path d="M52.0585 65.7212C51.798 65.3882 51.4471 65.1487 51.0917 64.9257C50.6897 64.6741 50.2831 64.4315 49.8705 64.195C49.0423 63.7219 48.196 63.2804 47.3347 62.8706C47.0727 62.7471 46.8438 63.1358 47.1073 63.2608C47.9475 63.6601 48.7727 64.088 49.5814 64.549C49.9744 64.7735 50.3644 65.004 50.7499 65.2436C51.1143 65.4696 51.4712 65.6986 51.7392 66.0406C51.9184 66.2696 52.2362 65.9472 52.0585 65.7212Z" fill="#333333"/>
<path d="M54.1922 68.2701C54.4828 68.2701 54.4828 67.8181 54.1922 67.8181C53.9015 67.8181 53.9 68.2701 54.1922 68.2701Z" fill="#333333"/>
<path d="M50.3459 67.4504C50.6365 67.4504 50.6365 66.9984 50.3459 66.9984C50.0553 66.9984 50.0553 67.4504 50.3459 67.4504Z" fill="#333333"/>
<path d="M51.5268 68.7147C51.5268 68.7147 51.5344 68.7735 51.5328 68.7584C51.5313 68.7418 51.5374 68.7976 51.5389 68.8036C51.5434 68.8458 51.5479 68.8865 51.5524 68.9286C51.56 69.0115 51.5675 69.0944 51.5705 69.1787C51.5735 69.2511 51.5795 69.3234 51.575 69.3957C51.5735 69.4168 51.566 69.4364 51.575 69.4063C51.5735 69.4123 51.5569 69.462 51.569 69.4364C51.581 69.4062 51.5404 69.4771 51.5765 69.4304C51.566 69.4424 51.5539 69.453 51.5434 69.465C51.5223 69.4876 51.5825 69.4409 51.5359 69.471C51.5253 69.4786 51.5148 69.4846 51.5027 69.4921C51.4711 69.5117 51.438 69.5313 51.4049 69.5479C51.3717 69.566 51.3371 69.581 51.304 69.5976C51.2964 69.6006 51.2904 69.6036 51.2829 69.6066C51.2979 69.6006 51.2994 69.5991 51.2844 69.6051C51.2663 69.6127 51.2497 69.6187 51.2317 69.6247C51.1609 69.6503 51.0886 69.6714 51.0148 69.688C50.9817 69.6955 50.9486 69.7 50.9155 69.7076C50.8914 69.7121 50.938 69.7061 50.8974 69.7106C50.8748 69.7136 50.8522 69.7151 50.8296 69.7166C50.7122 69.7257 50.5977 69.813 50.6037 69.9426C50.6083 70.0571 50.7031 70.1792 50.8296 70.1686C51.0148 70.1536 51.1986 70.1189 51.3732 70.0541C51.5479 69.9893 51.7422 69.905 51.8777 69.7724C52.0298 69.6232 52.0358 69.4183 52.0268 69.2194C52.0177 69.0115 51.9951 68.8051 51.965 68.5987C51.9485 68.4812 51.7934 68.4058 51.6864 68.4405C51.5554 68.4781 51.5088 68.5881 51.5268 68.7147Z" fill="#333333"/>
<path d="M48.9228 72.3926C49.2767 72.141 49.7059 71.8321 50.1441 71.8306C50.4768 71.8291 50.8819 71.927 51.1349 72.1545C51.3502 72.3474 51.671 72.0295 51.4541 71.8351C51.1168 71.5323 50.6229 71.3861 50.1757 71.3786C49.6261 71.3696 49.1261 71.6965 48.6939 72.0024C48.5946 72.0732 48.5479 72.1997 48.6126 72.3112C48.6713 72.4092 48.8219 72.4634 48.9228 72.3926Z" fill="#333333"/>
<path d="M39.4153 76.8888C39.6171 76.9294 39.8053 77.0048 39.9935 77.0876C40.1938 77.1765 40.3956 77.2639 40.5868 77.3709C40.9076 77.5487 41.2358 77.8003 41.3036 78.183C41.3202 78.2734 41.4301 78.3246 41.5114 78.302C41.6063 78.2764 41.6454 78.1845 41.6304 78.0941C41.5536 77.6541 41.1892 77.3302 40.8217 77.1163C40.6169 76.9957 40.3986 76.9008 40.1817 76.8044C39.9619 76.708 39.7435 76.6115 39.5071 76.5648C39.2918 76.5196 39.2014 76.8466 39.4153 76.8888Z" fill="#333333"/>
<path d="M40.6394 76.2846C41.1785 76.3388 41.8998 76.1806 42.2943 76.6582C42.353 76.729 42.4735 76.7185 42.5337 76.6582C42.603 76.5889 42.5925 76.4895 42.5337 76.4186C42.0699 75.8552 41.2764 76.0103 40.6394 75.9456C40.5475 75.9365 40.4692 76.0299 40.4692 76.1158C40.4692 76.2137 40.5475 76.2755 40.6394 76.2846Z" fill="#333333"/>
<path d="M39.2527 96.9485C38.6187 97.0977 37.9742 97.1791 37.3237 97.1926C37.1053 97.1971 37.1053 97.5361 37.3237 97.5316C38.0043 97.5181 38.6819 97.4322 39.343 97.2755C39.5553 97.2243 39.465 96.8973 39.2527 96.9485Z" fill="#333333"/>
<path d="M39.9495 97.8129C39.6198 98.0962 39.2252 98.3011 38.8051 98.4126C38.7163 98.4367 38.6621 98.5331 38.6862 98.6205C38.7102 98.7094 38.8051 98.7621 38.894 98.7395C39.3728 98.6114 39.8125 98.3749 40.1875 98.0525C40.2567 97.9922 40.2492 97.8747 40.1875 97.8129C40.1197 97.7451 40.0188 97.7541 39.9495 97.8129Z" fill="#333333"/>
<path d="M118.311 68.599C118.311 68.599 126.342 69.2886 129.579 67.0995C132.777 64.9376 134.096 64.4634 131.105 61.7956C125.326 56.6407 120.464 54.6519 117.565 54.0873C116.193 53.8193 116.062 53.4354 113.647 54.2228C112.92 54.4592 110.523 54.6097 110.478 54.1656C110.444 53.8389 112.775 52.9552 112.796 52.7715C112.796 52.7715 109.334 51.5942 109.471 50.8881C109.603 50.1985 112.963 51.147 112.963 51.147C112.978 51.016 110.199 50.2031 110.136 49.7635C110.056 49.1929 113.107 49.5813 113.207 49.3795C113.394 49.0017 109.894 49.1221 109.911 48.8029C110.009 46.8623 114.898 48.6012 115.358 48.7939C116.307 49.1883 117.012 49.2681 117.819 49.5527C123.336 51.4873 135.293 56.2598 139.87 63.7949C141.319 66.1782 137.327 68.2543 135.762 69.4075C128.23 74.9569 118.156 74.597 118.156 74.597L118.311 68.599Z" fill="white" stroke="#333333" stroke-width="0.5" stroke-miterlimit="10"/>
<path d="M89.9089 99.9752L88.1001 116L103.191 115.759L103.429 110.937L104.558 115.739H121.486L118.282 102.257L89.9089 99.9752Z" fill="white" stroke="#333333" stroke-width="0.5" stroke-miterlimit="10"/>
<path d="M88.1436 74.8225L84.7637 100.753C84.7319 100.997 84.6741 101.238 84.5932 101.469L80.2336 115.125C79.6556 116.26 80.8333 115.951 83.0254 115.987L85.8041 115.994C87.2607 116.018 87.8561 111.75 88.2318 110.266L90.6565 100.682C90.6811 100.586 90.7013 100.488 90.7172 100.391L94.73 75.9332C95.0132 74.2116 93.9901 72.5494 92.3833 72.1197L92.0668 72.0344C90.2317 71.5453 88.4008 72.8465 88.1436 74.8225Z" fill="white" stroke="#333333" stroke-width="0.5" stroke-miterlimit="10"/>
<path d="M39.6984 109.594L38.6536 115.784L49.2321 115.593L49.6913 112.574V115.586H59.5871L58.3569 108.457L39.6984 109.594Z" fill="white" stroke="#333333" stroke-width="0.5" stroke-miterlimit="10"/>
<path d="M110.466 58.6812C110.466 58.6812 110.391 63.6196 114.141 64.1102C117.632 64.5674 121.021 64.3791 123.204 65.7006C123.941 66.1472 123.941 68.125 124.148 70.6268C124.247 71.8268 123.431 77.1814 123.431 77.1814C123.516 77.874 120.869 76.7743 118.692 76.2958C118.208 76.1894 116.29 76.1469 116.32 76.8578C116.395 78.667 116.793 80.6523 117.333 84.2205C118.503 91.9447 119.013 98.279 119.127 101.46C119.272 105.519 90.2395 103.981 90.0501 101.692C89.497 94.9919 94.2652 78.9541 93.5612 77.7237C92.662 76.153 87.7548 77.6948 86.8777 76.6178C86.258 76.3915 88.3745 70.6572 88.6525 70.0435C89.7677 67.5796 90.1004 65.1173 97.6728 64.3684C99.1873 64.2181 100.7 63.9553 101.608 62.7021C102.196 61.8924 102.726 60.7866 102.963 59.301C103.643 55.0614 110.466 58.6812 110.466 58.6812Z" fill="white" stroke="#333333" stroke-width="0.5" stroke-miterlimit="10"/>
<path d="M99.8429 47.6731C99.8429 47.6731 97.4426 42.8713 101.642 42.9527C101.642 42.9527 102.556 42.912 103.469 43.1712C103.469 43.1712 109.578 40.4019 111.351 44.0721C111.351 44.0721 111.733 44.372 111.704 46.4737C111.68 48.2832 111.677 55.4384 111.677 57.388C111.677 57.7797 111.54 58.1579 111.289 58.4577C110.891 58.9323 110.159 59.5742 108.95 59.8725C106.905 60.3772 104.832 60.0909 104.832 60.0909C104.832 60.0909 103.252 59.8484 101.888 58.3734C101.531 57.9861 101.338 57.4739 101.332 56.948L101.272 50.9907C101.275 50.9892 97.4697 49.9511 99.8429 47.6731Z" fill="#333333" stroke="#333333" stroke-width="0.5" stroke-miterlimit="10"/>
<path d="M102.273 48.9786C103.442 49.301 105.979 49.7335 108.321 48.3609C108.664 48.159 109.098 48.3986 109.105 48.7978L109.223 54.9043C109.223 54.9043 109.441 55.968 107.151 55.968C105.417 55.968 103.136 55.953 102.13 55.9454C101.844 55.9439 101.615 55.7104 101.615 55.4256V49.4819C101.615 49.1368 101.942 48.8867 102.273 48.9786Z" fill="white" stroke="#333333" stroke-width="0.5" stroke-miterlimit="10"/>
<path d="M19 116L139 116" stroke="#333333" stroke-miterlimit="10" stroke-linecap="round"/>
<path opacity="0.76" d="M114.864 74.9285C114.661 75.3912 115.126 76.1524 115.879 76.5772C116.595 76.9806 117.239 76.8887 117.345 76.4181C117.443 75.9759 117.033 75.3281 116.406 74.9319C115.752 74.5169 115.054 74.4961 114.864 74.9285Z" fill="#FDAE46" fill-opacity="0.5"/>
<path opacity="0.76" d="M94.886 92.0272C93.3429 91.6441 91.0773 93.0119 89.9814 95.0091C88.9394 96.9072 89.4519 98.4936 90.9864 98.6305C92.4287 98.7587 94.3508 97.5569 95.3999 95.886C96.4986 94.1365 96.3268 92.3855 94.886 92.0272Z" fill="#FDAE46" fill-opacity="0.5"/>
<path opacity="0.76" d="M137.138 62.9242C136.329 62.3953 134.533 62.4918 133.246 63.1436C132.023 63.7627 131.834 64.6 132.718 65.0161C133.547 65.4071 135.084 65.3056 136.24 64.7905C137.449 64.2515 137.895 63.4193 137.138 62.9242Z" fill="#FDAE46" fill-opacity="0.5"/>
<path d="M106.299 52.4614C106.446 52.3938 106.257 51.9832 106.11 52.0507C105.963 52.1182 106.152 52.5289 106.299 52.4614Z" fill="#333333"/>
<path d="M115.833 76.2778C116.003 76.4393 116.266 76.549 116.576 76.587C116.642 76.595 116.732 76.5662 116.768 76.5135C116.801 76.4643 116.786 76.4077 116.714 76.3995C116.643 76.3906 116.574 76.3783 116.509 76.3616C116.501 76.3595 116.493 76.358 116.487 76.3558C116.474 76.3523 116.47 76.3527 116.485 76.3556C116.468 76.3524 116.452 76.3459 116.438 76.341C116.408 76.3309 116.377 76.3196 116.349 76.3079C116.321 76.2966 116.294 76.2839 116.268 76.271C116.255 76.264 116.242 76.2571 116.229 76.2499C116.224 76.2469 116.218 76.2432 116.212 76.2401C116.208 76.2379 116.184 76.2258 116.207 76.2374C116.154 76.2114 116.113 76.1705 116.075 76.1352C116.038 76.1008 115.944 76.1036 115.881 76.143C115.816 76.1837 115.793 76.241 115.833 76.2778Z" fill="#333333"/>
<path d="M103.299 52.4615C103.446 52.394 103.257 51.9833 103.11 52.0508C102.964 52.1183 103.152 52.5293 103.299 52.4615Z" fill="#333333"/>
<path d="M116.477 76.0805C116.597 76.2121 116.716 76.3427 116.835 76.4743C116.898 76.5436 117 76.5743 117.043 76.5275C117.087 76.4807 117.077 76.3887 117.009 76.314C116.889 76.1825 116.77 76.0518 116.65 75.9202C116.587 75.8509 116.486 75.8202 116.442 75.867C116.398 75.913 116.408 76.0049 116.477 76.0805Z" fill="#333333"/>
<path d="M132.958 63.5124C133.48 63.3301 134.042 63.2683 134.589 63.3557C134.709 63.3753 134.831 63.3256 134.867 63.1975C134.897 63.0905 134.831 62.9383 134.709 62.9188C134.081 62.8193 133.44 62.866 132.838 63.0755C132.723 63.1161 132.646 63.2306 132.679 63.3542C132.711 63.4672 132.842 63.5531 132.958 63.5124Z" fill="#333333"/>
<path d="M132.548 64.4553C132.731 64.615 132.913 64.7762 133.095 64.9359C133.14 64.9751 133.193 65.0022 133.255 65.0022C133.31 65.0022 133.377 64.9781 133.414 64.9359C133.453 64.8922 133.484 64.8365 133.481 64.7762C133.477 64.719 133.459 64.6557 133.414 64.6165C133.232 64.4568 133.05 64.2956 132.868 64.1359C132.822 64.0967 132.77 64.0696 132.708 64.0696C132.652 64.0696 132.586 64.0937 132.548 64.1359C132.509 64.1796 132.479 64.2353 132.482 64.2956C132.484 64.3528 132.503 64.4161 132.548 64.4553Z" fill="#333333"/>
<g opacity="0.79">
<g opacity="0.79">
<path opacity="0.79" d="M74.5723 35.0092C74.8629 35.0092 74.8629 34.5573 74.5723 34.5573C74.2817 34.5573 74.2802 35.0092 74.5723 35.0092Z" fill="#A4BFE0"/>
</g>
</g>
<path d="M105.795 50.3157C106.905 50.7907 108.101 51.0795 109.341 51.1769C109.506 51.1906 109.647 51.0505 109.647 50.9206C109.647 50.7719 109.506 50.6779 109.341 50.6643C108.215 50.5754 107.111 50.3037 106.103 49.8731C105.754 49.7228 105.444 50.1653 105.795 50.3157Z" fill="#333333"/>
<path d="M101.701 51.1724C102.51 51.2205 103.328 50.948 104.003 50.4032C104.114 50.313 104.162 50.1387 104.092 49.9925C104.028 49.8583 103.864 49.7942 103.753 49.8843C103.145 50.3751 102.432 50.6135 101.703 50.5714C101.568 50.5634 101.454 50.7157 101.454 50.8719C101.452 51.0402 101.567 51.1644 101.701 51.1724Z" fill="#333333"/>
<path d="M104.131 53.4779C104.146 53.5343 104.129 53.4416 104.135 53.498C104.137 53.513 104.14 53.5281 104.14 53.5418C104.142 53.5744 104.142 53.607 104.142 53.6396C104.14 53.6998 104.133 53.7587 104.131 53.8188C104.127 53.953 104.144 54.0858 104.231 54.2099C104.393 54.4405 104.799 54.6323 105.229 54.5521C105.385 54.5232 105.5 54.4192 105.448 54.3202C105.398 54.2262 105.231 54.1585 105.063 54.1886C105.057 54.1898 105.048 54.1911 105.042 54.1924C105.015 54.1961 105.013 54.1961 105.042 54.1936C105.065 54.1924 105.069 54.1924 105.053 54.1924C105.046 54.1924 105.038 54.1924 105.032 54.1924C104.961 54.1949 105.042 54.1898 105.042 54.1961C105.042 54.1961 105.005 54.1911 105.003 54.1911C104.986 54.1886 104.951 54.171 104.982 54.1873C105.011 54.2024 104.984 54.1873 104.971 54.1823C104.963 54.1798 104.93 54.171 104.926 54.1648C104.928 54.171 104.971 54.1886 104.936 54.1698C104.911 54.156 104.888 54.141 104.865 54.1259C104.84 54.1109 104.897 54.1547 104.865 54.1259C104.857 54.1184 104.849 54.1109 104.84 54.1021C104.83 54.0921 104.822 54.0821 104.811 54.072C104.807 54.0683 104.805 54.0633 104.801 54.0595C104.791 54.047 104.795 54.0507 104.809 54.072C104.803 54.072 104.778 54.0156 104.778 54.0131C104.774 54.0043 104.772 53.9956 104.768 53.9868C104.766 53.9793 104.761 53.9429 104.766 53.9768C104.763 53.9504 104.759 53.9241 104.757 53.8966C104.755 53.8427 104.759 53.7888 104.761 53.7361C104.77 53.6133 104.768 53.4955 104.734 53.3739C104.707 53.2761 104.499 53.2135 104.35 53.2423C104.175 53.2811 104.102 53.3739 104.131 53.4779Z" fill="#333333"/>
<path d="M104.501 57.645C105.175 57.2608 106.028 57.2095 106.738 57.5304C106.85 57.5802 106.981 57.5621 107.047 57.4491C107.104 57.3527 107.077 57.1899 106.966 57.1402C106.105 56.75 105.097 56.7846 104.272 57.2547C104.02 57.3994 104.248 57.7896 104.501 57.645Z" fill="white"/>
<path d="M64.5283 51.7298L72.6339 53.0809L64.078 57.1337L64.5283 51.7298Z" fill="white"/>
<path d="M86.245 40.525C86.2434 40.5091 86.2425 40.4929 86.2423 40.4765L86.2423 40.4748C86.2408 40.0594 86.2158 39.6449 86.163 39.2342C85.9505 37.5903 85.2916 36.0267 84.3349 34.6697L84.3349 34.6697C83.3166 33.2248 81.9608 32.022 80.4534 31.0892L86.245 40.525ZM86.245 40.525C86.2251 43.1582 85.0916 45.6397 83.2908 47.5574L83.2907 47.5575C81.2828 49.6981 78.5784 51.119 75.7325 51.8328M86.245 40.525L75.7325 51.8328M75.7325 51.8328C73.8886 52.2943 71.9789 52.4591 70.0787 52.3539L69.8676 52.301L69.8579 52.3742C69.6756 52.4364 69.5751 52.6105 69.5553 52.7621C69.5356 52.9134 69.5869 53.1076 69.745 53.2183L69.7355 53.2903L69.9615 53.3032C70.3959 53.4098 70.837 53.4843 71.2813 53.5259C70.7445 53.9221 70.0918 54.1994 69.4358 54.4531L69.4357 54.4532C68.2288 54.9206 67.0009 55.3332 65.7624 55.7272L65.7621 55.7273C65.3351 55.8636 64.908 55.9973 64.4803 56.1299C64.6408 55.5078 64.7573 54.8756 64.8307 54.2357M75.7325 51.8328L64.9181 52.8416C64.9181 52.8417 64.9181 52.8418 64.9181 52.8418C64.9135 53.3069 64.8844 53.7735 64.8307 54.2357M64.8307 54.2357C64.8307 54.2358 64.8307 54.2359 64.8306 54.236L64.5823 54.2072M64.8307 54.2357L64.5823 54.2072M64.5823 54.2072C64.5043 54.8872 64.3768 55.5582 64.1987 56.2171C64.1224 56.2407 64.046 56.2642 63.9696 56.2878M64.5823 54.2072L63.9696 56.2878M72.746 52.777C73.7905 52.6937 74.828 52.5263 75.8427 52.2725C75.8427 52.2725 75.8427 52.2724 75.8427 52.2724C77.2031 51.9321 78.5224 51.4362 79.7631 50.7786L79.7631 50.7786C81.1886 50.0235 82.5162 49.0436 83.6197 47.8662L72.746 52.777ZM72.746 52.777C72.6621 52.6808 72.5341 52.606 72.3801 52.6103L72.3794 52.6103C72.3445 52.6114 72.3097 52.6123 72.2749 52.6129L72.27 52.6044C73.4573 52.5387 74.6378 52.3645 75.7933 52.0752L72.746 52.777ZM65.9004 56.1602L65.9142 56.2036C65.9141 56.2036 65.9141 56.2036 65.914 56.2037C65.3822 56.3735 64.8506 56.539 64.3189 56.7033C64.2948 56.7823 64.2699 56.8612 64.2443 56.9399L65.9004 56.1602ZM65.9004 56.1602L65.8382 55.9654M65.9004 56.1602C66.4842 55.9743 67.0661 55.7842 67.6453 55.5859L64.335 56.6502M64.335 56.6502C64.8577 56.4884 65.3797 56.326 65.9002 56.1603L65.8382 55.9654M64.335 56.6502C64.3585 56.5721 64.3812 56.4939 64.4033 56.4155M64.335 56.6502L64.4033 56.4155M65.8382 55.9654C65.36 56.1181 64.8819 56.2674 64.4033 56.4155M65.8382 55.9654C67.079 55.5707 68.3123 55.1564 69.526 54.6863L64.4033 56.4155M63.9696 56.2878C64.1638 55.6001 64.3051 54.8967 64.3846 54.1845C64.3846 54.1844 64.3846 54.1843 64.3846 54.1842L63.9696 56.2878ZM86.7331 40.9438C86.8006 40.9423 86.8712 40.9273 86.9372 40.8957L72.861 53.0184C72.8502 52.9548 72.8268 52.8957 72.7969 52.8464C72.7915 52.8377 72.7859 52.8289 72.7798 52.8203C73.8151 52.7367 74.8437 52.5707 75.854 52.3178L75.8541 52.3177C77.2114 51.9773 78.5413 51.4794 79.7854 50.8208C79.7855 50.8208 79.7855 50.8208 79.7855 50.8208C81.2193 50.0618 82.5391 49.0896 83.6554 47.8996C84.4945 47.006 85.1973 45.9916 85.7196 44.8946C85.7197 44.8944 85.7198 44.8943 85.7198 44.8941C86.3057 43.6634 86.6643 42.3287 86.7331 40.9438ZM85.6807 44.8761C85.1573 45.9774 84.4523 46.978 83.6198 47.8662L86.4856 40.8856C86.5492 40.9196 86.618 40.9377 86.6847 40.9426C86.6171 42.304 86.2725 43.6391 85.681 44.8755L85.6807 44.8761ZM86.947 40.4755L86.7453 40.4749L86.9373 40.0558C86.9434 40.1955 86.9467 40.3354 86.947 40.4755ZM70.0067 52.8506L70.007 52.8507C70.0069 52.8507 70.0068 52.8506 70.0067 52.8506Z" fill="white" stroke="#333333" stroke-width="0.5"/>
<path d="M60.2532 38.6177C61.8389 38.0738 63.4471 37.5962 65.0734 37.1924C65.483 37.0899 65.8941 36.9935 66.3052 36.9016C66.647 36.8248 66.9903 36.7344 67.3382 36.6907C67.8095 36.6304 68.5143 36.6229 68.701 37.1698C68.8742 37.6745 68.7401 38.3691 69.3515 38.6102C69.6933 38.7443 70.1104 38.6569 70.4658 38.6313C70.9025 38.6011 71.3377 38.571 71.7744 38.5424C72.6342 38.4836 73.4941 38.4248 74.3539 38.3661C74.7876 38.336 75.2228 38.3058 75.6565 38.2772C76.0706 38.2501 76.4756 38.2425 76.8807 38.345C77.2632 38.4399 77.6336 38.5394 78.0297 38.565C78.4121 38.5891 78.7991 38.5574 79.1741 38.4791C79.9361 38.3224 80.6453 37.9563 81.219 37.4304C81.4344 37.2331 81.1136 36.9152 80.8998 37.111C80.3968 37.5721 79.7764 37.884 79.1109 38.0301C78.4106 38.1838 77.7496 38.1039 77.0644 37.9246C76.2739 37.7182 75.4562 37.8388 74.6521 37.893C73.7922 37.9518 72.9324 38.0105 72.0726 38.0693C71.6494 38.0979 71.2248 38.1265 70.8016 38.1567C70.5893 38.1717 70.3785 38.1853 70.1662 38.2004C69.9794 38.2124 69.7671 38.2531 69.5834 38.2109C69.3093 38.1491 69.2747 37.8523 69.2401 37.6173C69.2009 37.3461 69.1768 37.0704 69.0398 36.8263C68.7612 36.3306 68.1634 36.1995 67.6363 36.2161C66.9226 36.2387 66.2058 36.4571 65.5146 36.6214C63.6956 37.0538 61.8991 37.5751 60.1327 38.1838C59.8602 38.2757 59.9776 38.7126 60.2532 38.6177Z" fill="#333333"/>
<path d="M62.5417 46.7073C62.9257 46.2252 63.3744 45.6406 64.037 45.5743C64.3276 45.5457 64.6017 45.627 64.796 45.8515C64.9947 46.079 65.1348 46.3412 65.3682 46.5401C66.2506 47.2919 67.5501 47.2843 68.6027 46.9438C69.2728 46.7269 69.8992 46.3999 70.5347 46.1001C71.1913 45.7897 71.8583 45.5457 72.5736 45.4146C73.31 45.279 74.0614 45.2353 74.8083 45.1871C75.5507 45.1389 76.3006 45.1148 77.0279 45.3046C77.4104 45.404 77.7823 45.5065 78.1784 45.4161C78.5774 45.3257 78.9448 45.0922 79.3032 44.9038C80.0953 44.491 80.8859 44.0767 81.6779 43.6638C81.9354 43.5297 81.708 43.1395 81.4505 43.2736C80.7473 43.6412 80.0426 44.0089 79.3394 44.3765C79.0005 44.5528 78.6647 44.7577 78.3109 44.9008C77.9434 45.05 77.6197 44.9942 77.2477 44.8948C76.5159 44.6989 75.775 44.6778 75.0221 44.7215C74.2918 44.7622 73.5569 44.8119 72.8326 44.9174C72.1038 45.0228 71.4111 45.2202 70.735 45.514C70.0754 45.8018 69.443 46.1543 68.7684 46.4075C67.7625 46.7841 66.3846 46.9469 65.5564 46.0971C65.3155 45.8485 65.1739 45.5216 64.8788 45.3227C64.5987 45.1343 64.2493 45.0891 63.9211 45.1358C63.1742 45.2428 62.6667 45.8304 62.2225 46.3879C62.0418 46.6124 62.3595 46.9348 62.5417 46.7073Z" fill="#333333"/>
<path d="M121.453 47.3667C121.048 46.4763 121.234 45.3432 121.901 44.6291C122.301 44.2012 122.849 43.9285 123.394 43.7311C123.7 43.6196 123.982 43.5744 124.284 43.7176C124.528 43.8336 124.759 43.9978 124.965 44.1711C125.442 44.5688 125.823 45.06 126.099 45.6175C126.126 45.515 126.153 45.411 126.18 45.3086C125.363 45.7847 124.23 45.3327 123.471 44.9259C122.681 44.5025 121.983 43.8999 121.465 43.1661C121.344 42.9944 121.232 42.8166 121.13 42.6328C121.089 42.5604 120.972 42.4068 121.005 42.3194C121.038 42.235 121.228 42.1552 121.304 42.1069C121.749 41.8267 122.23 41.6022 122.75 41.5103C123.595 41.3581 124.659 41.6519 125.012 42.5122C125.167 42.8889 125.174 43.3499 124.971 43.7115C124.742 44.1198 124.283 44.2976 123.858 44.4317C122.834 44.7557 121.711 44.9304 120.666 44.5975C119.853 44.3383 118.866 43.6422 118.847 42.6945C118.826 41.7559 120.086 41.3928 120.835 41.3416C121.794 41.2768 122.786 41.5947 123.486 42.2621C123.62 42.3887 123.891 42.6358 123.736 42.8316C123.613 42.9853 123.373 42.9657 123.224 42.8723C122.764 42.5815 122.709 41.887 122.44 41.4546C122.286 41.2075 121.896 41.435 122.05 41.6821C122.358 42.1793 122.413 42.8211 122.905 43.1978C123.285 43.4886 123.923 43.4675 124.162 42.9974C124.44 42.452 123.852 41.9487 123.467 41.658C123.051 41.3446 122.566 41.1231 122.062 40.9996C121.05 40.751 119.835 40.8715 118.99 41.5254C118.526 41.8855 118.317 42.4128 118.43 42.9929C118.54 43.5533 118.918 44.049 119.356 44.4016C120.329 45.182 121.6 45.3372 122.8 45.1504C123.425 45.0525 124.098 44.8943 124.659 44.5944C125.137 44.3398 125.474 43.9089 125.552 43.368C125.721 42.226 124.863 41.2949 123.783 41.0764C123.208 40.9604 122.614 41.0282 122.065 41.2255C121.77 41.3325 121.485 41.4696 121.214 41.6293C120.988 41.7634 120.652 41.9231 120.567 42.1928C120.478 42.4685 120.676 42.7578 120.809 42.9838C120.949 43.2234 121.109 43.4509 121.279 43.6678C121.622 44.1048 122.024 44.489 122.468 44.8219C122.913 45.1549 123.402 45.4216 123.918 45.625C124.44 45.8299 125.018 45.9911 125.582 45.9459C125.875 45.9218 126.152 45.845 126.405 45.6973C126.516 45.6325 126.54 45.4969 126.486 45.3884C126.204 44.8189 125.81 44.3037 125.326 43.8893C124.827 43.4599 124.232 43.0501 123.542 43.2098C123.205 43.2882 122.867 43.4434 122.559 43.5985C122.256 43.7507 121.968 43.939 121.718 44.1681C121.288 44.5613 120.991 45.1007 120.863 45.6687C120.717 46.3181 120.783 46.9885 121.059 47.5942C121.184 47.8594 121.572 47.6289 121.453 47.3667Z" fill="#333333"/>
<path d="M90.4181 95.0095C91.4782 95.0743 92.5293 94.5123 93.0789 93.6053C93.2295 93.3552 92.8395 93.1277 92.6889 93.3778C92.2191 94.1552 91.3231 94.6132 90.4181 94.5575C90.1275 94.5394 90.129 94.9914 90.4181 95.0095Z" fill="#333333"/>
<path d="M90.0115 97.7093C90.7388 97.5978 91.4225 97.2317 91.9269 96.6968C92.1257 96.4859 91.808 96.1649 91.6077 96.3774C91.1514 96.8625 90.5491 97.1729 89.8911 97.2739C89.7706 97.2919 89.7043 97.4441 89.7329 97.5526C89.7691 97.6791 89.8895 97.7274 90.0115 97.7093Z" fill="#333333"/>
<path d="M100.119 66.1861L101.882 64.9138L106.183 68.3233L111.878 63.9187L112.138 65.4511L106.748 70.5958L100.119 66.1861Z" fill="#333333" stroke="#333333" stroke-width="0.5" stroke-miterlimit="10"/>
</svg>
