<svg width="30" height="38" viewBox="0 0 30 38" fill="none" xmlns="http://www.w3.org/2000/svg">
<path opacity="0.8" d="M27.67 27.4179C26.7596 26.4842 26.25 25.2316 26.25 23.9274V16.3462C26.25 10.9174 23.65 6.3017 19.0623 4.57725C18.3438 4.30718 17.8125 3.65218 17.8125 2.88462C17.8125 1.28846 16.5562 0 15 0C13.4438 0 12.1875 1.28846 12.1875 2.88462C12.1875 3.65205 11.656 4.30685 10.9372 4.57567C6.33537 6.29666 3.75 10.8984 3.75 16.3462V23.9274C3.75 25.2316 3.24044 26.4842 2.33 27.4179L0.388219 29.4095C0.139311 29.6648 0 30.0072 0 30.3638C0 31.1188 0.612013 31.7308 1.36697 31.7308H28.633C29.388 31.7308 30 31.1188 30 30.3638C30 30.0072 29.8607 29.6648 29.6118 29.4095L27.67 27.4179ZM16.875 24.0865C16.875 25.1221 16.0355 25.9615 15 25.9615C13.9645 25.9615 13.125 25.1221 13.125 24.0865V23.9904C13.125 22.9549 13.9645 22.1154 15 22.1154C16.0355 22.1154 16.875 22.9549 16.875 23.9904V24.0865ZM16.875 16.3942C16.875 17.4298 16.0355 18.2692 15 18.2692C13.9645 18.2692 13.125 17.4298 13.125 16.3942V12.4519C13.125 11.4164 13.9645 10.5769 15 10.5769C16.0355 10.5769 16.875 11.4164 16.875 12.4519V16.3942ZM15 37.5C15.7679 37.5 16.4839 37.2601 17.0801 36.8497C18.7861 35.6754 17.0711 33.6538 15 33.6538C12.9289 33.6538 11.2082 35.6787 12.9149 36.8519C13.51 37.2609 14.2265 37.5 15 37.5Z" fill="#81B7AE"/>
</svg>
