<svg width="8" height="75" viewBox="0 0 8 75" fill="none" xmlns="http://www.w3.org/2000/svg">
<path d="M7.5 4.00372C7.5 5.9392 5.93256 7.50743 4 7.50743C2.06744 7.50743 0.5 5.9392 0.5 4.00372C0.5 2.06823 2.06744 0.5 4 0.5C5.93256 0.5 7.5 2.06823 7.5 4.00372Z" fill="#FDAE46" stroke="#FDAE46"/>
<path d="M7.5 37.5008C7.5 39.4363 5.93256 41.0045 4 41.0045C2.06744 41.0045 0.5 39.4363 0.5 37.5008C0.5 35.5653 2.06744 33.9971 4 33.9971C5.93256 33.9971 7.5 35.5653 7.5 37.5008Z" fill="#FDAE46" stroke="#FDAE46"/>
<path d="M4 7.24219L4 34.4013" stroke="#FDAE46" stroke-width="2"/>
<path d="M4 39.833L4 54.1804L4 68.5277" stroke="#FDAE46" stroke-width="2" stroke-miterlimit="16" stroke-linecap="round" stroke-linejoin="round" stroke-dasharray="4 4"/>
<path d="M7.5 70.9969C7.5 72.9324 5.93256 74.5006 4 74.5006C2.06744 74.5006 0.5 72.9324 0.5 70.9969C0.5 69.0614 2.06744 67.4932 4 67.4932C5.93256 67.4932 7.5 69.0614 7.5 70.9969Z" fill="white" stroke="#FDAE46"/>
</svg>
