<svg width="106" height="99" viewBox="0 0 106 99" fill="none" xmlns="http://www.w3.org/2000/svg">
<g opacity="0.7">
<path d="M59.034 30.7489C59.038 30.7197 59.038 30.6902 59.034 30.661C58.9462 30.19 58.108 25.8711 57.3496 25.7593C56.9424 25.6795 56.8386 26.2223 56.8386 26.7572C56.8352 26.8334 56.8095 26.9068 56.7648 26.9686C56.7201 27.0304 56.6584 27.0778 56.5871 27.1049C56.5159 27.132 56.4383 27.1378 56.3638 27.1214C56.2894 27.105 56.2213 27.0672 56.168 27.0127L54.3558 25.2005C54.2825 25.1343 54.1872 25.0977 54.0884 25.0977C53.9896 25.0977 53.8943 25.1343 53.821 25.2005C53.4269 25.5816 53.1393 26.0591 52.9867 26.5856C52.834 27.1122 52.8217 27.6694 52.9508 28.2022C53.2861 30.693 56.0243 32.8485 56.6949 32.6569C57.3095 32.5331 57.9365 32.4822 58.563 32.5052C58.6595 32.5077 58.7533 32.4738 58.8258 32.4101C58.8983 32.3465 58.9442 32.2579 58.9542 32.1619L59.034 30.7489Z" fill="#E6E7E8"/>
<path d="M93.6099 30.4286C93.6059 30.4021 93.6059 30.3752 93.6099 30.3487C93.6977 29.8777 94.536 25.5588 95.2944 25.447C95.7095 25.3672 95.8053 25.9021 95.8133 26.4449C95.8161 26.5205 95.8413 26.5935 95.8856 26.6548C95.9298 26.7161 95.9913 26.763 96.0621 26.7894C96.133 26.8159 96.21 26.8208 96.2837 26.8035C96.3573 26.7863 96.4242 26.7476 96.4759 26.6924L98.2881 24.8802C98.3614 24.814 98.4567 24.7773 98.5555 24.7773C98.6543 24.7773 98.7496 24.814 98.823 24.8802C99.2184 25.2605 99.5075 25.7376 99.6616 26.2642C99.8156 26.7907 99.8293 27.3484 99.7011 27.8819C99.3578 30.3647 96.6196 32.5282 95.949 32.3286C95.3341 32.2075 94.7071 32.1593 94.0809 32.1849C93.9853 32.1873 93.8924 32.1531 93.8212 32.0893C93.75 32.0255 93.7058 31.9369 93.6977 31.8416L93.6099 30.4286Z" fill="#E6E7E8"/>
<path d="M70.0914 94.9707L70.4825 89.4941L74.0989 89.7416L73.8595 96.0724L69.5645 96.7829L70.0914 94.9707Z" fill="#E6E7E8"/>
<path d="M85.499 94.8791L85.1558 89.9375L88.4369 90.2329L88.7243 95.6136L85.499 94.8791Z" fill="#E6E7E8"/>
<path d="M79.1356 62.2025C81.5732 72.1018 83.2413 82.1748 84.1252 92.3314C84.1252 92.3314 88.3323 93.2175 89.7135 92.3314C89.7135 92.3314 89.6177 75.7981 88.6357 68.7568C88.6357 68.7568 85.9933 50.7545 86.1928 44.9826C86.3924 39.2107 71.6154 45.6692 71.6154 45.6692C71.6154 45.6692 70.3381 83.7254 69.8511 92.044C69.8511 92.044 74.1541 91.549 75.136 92.2356C75.128 92.2356 79.0398 65.6274 79.1356 62.2025Z" fill="#A7A9AC"/>
<path d="M70.1868 93.8457C70.1868 93.8457 64.6624 95.5142 64.2153 96.7835C63.7682 98.0529 64.2153 98.3004 64.2153 98.3004H74.881C74.881 98.3004 75.3759 95.8575 74.881 95.8575C74.7275 95.8539 74.5767 95.817 74.4389 95.7495C74.3011 95.6819 74.1795 95.5854 74.0826 95.4663C74.0826 95.4663 70.562 96.2008 70.4183 95.61C70.3051 95.0272 70.2278 94.438 70.1868 93.8457Z" fill="#808285"/>
<path d="M83.5112 98.6927H89.7062C89.7062 98.6927 89.5785 95.204 88.405 93.8469C87.2314 92.4897 85.4033 94.0624 85.4033 94.0624C85.4033 94.0624 83.9024 95.3318 83.5112 98.6927Z" fill="#808285"/>
<path d="M72.3807 12.7785C73.0273 11.8125 74.5511 6.8334 74.5511 6.8334C74.5511 6.8334 75.3952 5.98936 76.4202 5.62756C77.4451 5.26576 81.2434 5.38632 82.811 7.2554C84.3786 9.12449 82.4973 11.3574 82.4973 11.3574C82.0194 11.0994 81.4836 10.9675 80.9405 10.9742C79.9426 10.9663 79.9426 12.7785 79.9426 12.7785L79.7362 18.1272C79.7362 18.1272 75.4791 18.9042 74.2497 18.4092C73.0203 17.9143 73.2446 13.763 73.2446 13.763C73.2446 13.763 71.734 13.7444 72.3807 12.7785Z" fill="#E6E7E8"/>
<path d="M81.5468 14.3906C83.1435 12.1393 82.2494 10.5826 82.2494 10.5826L80.5569 9.96783L80.501 9.73633L77.1959 17.2486L75.272 20.6574L79.1199 26.3256L82.9998 20.8091L81.5468 14.3906Z" fill="#E6E7E8"/>
<path d="M72.2947 13.623C72.2947 13.5194 72.3664 13.3918 72.4222 13.2324C72.2947 13.4157 72.2628 13.5512 72.2947 13.623Z" fill="#BCBEC0"/>
<path d="M98.7512 30.0851C98.7512 30.0851 94.0411 34.3561 94.0411 29.9014C94.0411 27.1791 92.5242 31.2826 91.231 34.7553C90.7999 29.8136 89.8658 20.9442 89.8658 20.9442C87.6397 19.3264 84.9153 18.5436 82.1699 18.7328C80.9599 19.5532 79.5284 19.9848 78.0665 19.9702C75.8472 19.8425 76.0388 19.3156 76.0388 19.3156C76.0388 19.3156 72.1908 19.7707 71.3446 20.4892C70.4984 21.2076 66.9139 26.756 66.5546 34.3801C66.5546 34.3801 60.0323 31.1868 58.5714 29.8855C58.5714 29.8855 56.0247 29.3586 56.2882 32.5599L64.966 40.9024C64.966 40.9024 67.832 42.9302 69.269 40.3196C70.0325 39.0323 70.623 37.6499 71.0253 36.2082L70.8337 47.1054L71.2887 46.9058C72.7257 46.6424 78.2023 46.6424 80.1582 47.5604C82.1141 48.4785 86.0338 47.9516 86.5448 47.5604C87.0557 47.1693 86.5448 42.0759 86.5448 42.0759C86.5448 42.0759 89.7381 43.2016 90.0734 43.002C90.257 42.9541 98.7512 33.5658 98.7512 30.0851Z" fill="white"/>
<path d="M92.4469 32.9217L91.9089 31.5538C93.1641 33.6983 95.5435 32.974 96.9345 32.143C97.2407 31.9601 97.3807 31.6031 97.2085 31.2908C96.9885 30.8917 96.5674 30.3317 95.8243 29.6866C94.6259 28.6464 94.2277 27.2382 94.1784 26.6642L94.0128 24.8123C94.0028 24.7011 94.0157 24.5892 94.0183 24.4776C94.0277 24.062 93.7853 23.2936 92.7293 22.566C91.6023 21.7896 91.5046 20.9087 91.6111 20.482C91.6274 20.4167 91.6469 20.3523 91.6581 20.2859L91.8216 19.3196C91.8503 19.1499 91.8351 18.9765 91.7766 18.8146C90.9342 16.4819 89.1652 11.64 88.1551 9.07825C87.1079 6.42259 84.9248 4.21742 83.9641 3.4468C83.5878 3.17783 82.2871 2.63435 80.0944 2.61221C78.5162 2.59627 76.7665 4.11974 75.5415 5.52568C75.1902 5.92891 75.6153 6.44896 76.1005 6.22413C76.6746 5.95815 77.3523 6.25182 77.5507 6.85258L79.6753 13.2845C78.9518 19.7959 78.9045 25.1924 81.421 28.9132C82.7041 30.8105 82.6048 33.0011 82.1189 34.7229C81.8714 35.5999 82.6971 36.6448 83.5783 36.4127L91.771 34.2547C92.3498 34.1022 92.6659 33.4788 92.4469 32.9217Z" fill="#BCBEC0"/>
<path d="M3.91534 78.6177L1.51592 22.9791C1.51592 22.9791 1.36954 21.1016 3.57802 21.1016C5.78651 21.1016 42.3125 21.3752 42.3125 21.3752L49.4152 29.3691L47.1367 78.6177H3.91534Z" fill="#A7A9AC"/>
<path d="M42.0136 31.1641H21.6599C21.3119 31.1641 21.0298 31.4462 21.0298 31.7942V32.176C21.0298 32.524 21.3119 32.8061 21.6599 32.8061H42.0136C42.3616 32.8061 42.6437 32.524 42.6437 32.176V31.7942C42.6437 31.4462 42.3616 31.1641 42.0136 31.1641Z" fill="#F1F2F2"/>
<path d="M42.0136 35.0781H21.6599C21.3119 35.0781 21.0298 35.3602 21.0298 35.7082V36.0901C21.0298 36.4381 21.3119 36.7202 21.6599 36.7202H42.0136C42.3616 36.7202 42.6437 36.4381 42.6437 36.0901V35.7082C42.6437 35.3602 42.3616 35.0781 42.0136 35.0781Z" fill="#F1F2F2"/>
<path d="M41.3897 40.7109H9.19796C8.84997 40.7109 8.56787 40.9931 8.56787 41.341V41.7229C8.56787 42.0709 8.84997 42.353 9.19796 42.353H41.3897C41.7376 42.353 42.0198 42.0709 42.0198 41.7229V41.341C42.0198 40.9931 41.7376 40.7109 41.3897 40.7109Z" fill="#F1F2F2"/>
<path d="M41.3897 49.8633H9.19796C8.84997 49.8633 8.56787 50.1454 8.56787 50.4934V50.8752C8.56787 51.2232 8.84997 51.5053 9.19796 51.5053H41.3897C41.7376 51.5053 42.0198 51.2232 42.0198 50.8752V50.4934C42.0198 50.1454 41.7376 49.8633 41.3897 49.8633Z" fill="#F1F2F2"/>
<path d="M41.3897 54.1719H9.19796C8.84997 54.1719 8.56787 54.454 8.56787 54.802V55.1838C8.56787 55.5318 8.84997 55.8139 9.19796 55.8139H41.3897C41.7376 55.8139 42.0198 55.5318 42.0198 55.1838V54.802C42.0198 54.454 41.7376 54.1719 41.3897 54.1719Z" fill="#F1F2F2"/>
<path d="M41.3897 59.4668H9.19796C8.84997 59.4668 8.56787 59.7489 8.56787 60.0969V60.4787C8.56787 60.8267 8.84997 61.1088 9.19796 61.1088H41.3897C41.7376 61.1088 42.0198 60.8267 42.0198 60.4787V60.0969C42.0198 59.7489 41.7376 59.4668 41.3897 59.4668Z" fill="#F1F2F2"/>
<path d="M41.3897 68.8047H9.19796C8.84997 68.8047 8.56787 69.0868 8.56787 69.4348V69.8166C8.56787 70.1646 8.84997 70.4467 9.19796 70.4467H41.3897C41.7376 70.4467 42.0198 70.1646 42.0198 69.8166V69.4348C42.0198 69.0868 41.7376 68.8047 41.3897 68.8047Z" fill="#F1F2F2"/>
<path d="M33.7522 63.4453H9.19796C8.84997 63.4453 8.56787 63.7274 8.56787 64.0754V64.4572C8.56787 64.8052 8.84997 65.0873 9.19796 65.0873H33.7522C34.1002 65.0873 34.3823 64.8052 34.3823 64.4572V64.0754C34.3823 63.7274 34.1002 63.4453 33.7522 63.4453Z" fill="#F1F2F2"/>
<path d="M33.7522 73.5391H9.19796C8.84997 73.5391 8.56787 73.8212 8.56787 74.1691V74.551C8.56787 74.899 8.84997 75.1811 9.19796 75.1811H33.7522C34.1002 75.1811 34.3823 74.899 34.3823 74.551V74.1691C34.3823 73.8212 34.1002 73.5391 33.7522 73.5391Z" fill="#F1F2F2"/>
<path d="M33.7522 44.625H9.19796C8.84997 44.625 8.56787 44.9071 8.56787 45.2551V45.637C8.56787 45.985 8.84997 46.2671 9.19796 46.2671H33.7522C34.1002 46.2671 34.3823 45.985 34.3823 45.637V45.2551C34.3823 44.9071 34.1002 44.625 33.7522 44.625Z" fill="#F1F2F2"/>
<path d="M11.1835 36.969C11.1835 36.969 11.1326 36.9245 11.088 36.829L10.9607 36.5299L7.54299 27.9378C7.43052 27.6865 7.27306 27.4578 7.07838 27.2631C6.88625 27.0831 6.65214 26.954 6.39738 26.8876C6.26311 26.8501 6.13302 26.7989 6.00914 26.7349C5.97221 26.7174 5.94047 26.6906 5.91704 26.6571C5.89361 26.6236 5.87929 26.5847 5.87549 26.544C5.87549 26.4803 5.92004 26.4358 6.00278 26.4039C6.11075 26.3757 6.22217 26.3628 6.33373 26.3658C6.57559 26.3658 6.81107 26.3658 7.02747 26.3658C7.24386 26.3658 7.47935 26.3658 7.74666 26.3658C8.01397 26.3658 8.31946 26.3658 8.58677 26.3658H9.22322C9.33689 26.3628 9.45041 26.3757 9.56054 26.4039C9.64328 26.4039 9.68783 26.474 9.68783 26.5376C9.68579 26.5763 9.67272 26.6137 9.65017 26.6453C9.62762 26.6768 9.59653 26.7013 9.56054 26.7158C9.43222 26.7711 9.3004 26.8179 9.16594 26.8558C9.11022 26.8643 9.05759 26.8869 9.01303 26.9214C8.96848 26.9559 8.93348 27.0013 8.91136 27.0531C8.86764 27.1557 8.84595 27.2663 8.84771 27.3777C8.85652 27.6097 8.89941 27.8392 8.97501 28.0587L9.61145 29.7389C9.81512 30.2481 10.0124 30.7382 10.2097 31.2091C10.407 31.6801 10.6107 32.1575 10.8462 32.6475C11.0817 33.1376 11.3044 33.6849 11.5654 34.2896C11.6163 34.4041 11.6608 34.4614 11.699 34.4487C11.7372 34.4359 11.769 34.3914 11.8008 34.3087L13.0737 31.2473C13.0737 31.1646 13.1247 31.0882 13.1438 31.0309C13.1821 30.9174 13.1821 30.7944 13.1438 30.6809L13.0483 30.42L12.1318 28.1924C11.9971 27.8577 11.7778 27.5639 11.4954 27.3395C11.2389 27.1378 10.9477 26.9847 10.6361 26.8876C10.5019 26.8501 10.3718 26.7989 10.2479 26.7349C10.211 26.7174 10.1792 26.6906 10.1558 26.6571C10.1324 26.6236 10.1181 26.5847 10.1143 26.544C10.1143 26.4803 10.1588 26.4358 10.2415 26.4039C10.3495 26.3757 10.4609 26.3628 10.5725 26.3658C10.7443 26.3658 10.9035 26.3658 11.0562 26.3658C11.2089 26.3658 11.3681 26.3658 11.5335 26.3658H12.0618C12.3036 26.3658 12.5328 26.3658 12.7364 26.3658H13.2838C13.3954 26.3624 13.5069 26.3752 13.6147 26.4039C13.7038 26.4039 13.742 26.474 13.742 26.5376C13.7386 26.5842 13.7218 26.6289 13.6936 26.6662C13.6653 26.7035 13.6269 26.7317 13.5829 26.7476L13.2583 26.9195C13.2067 26.9469 13.1637 26.9883 13.1345 27.0389C13.1052 27.0896 13.0908 27.1474 13.0928 27.2059C13.0928 27.2059 13.0928 27.2441 13.0928 27.2695C13.0913 27.2907 13.0913 27.312 13.0928 27.3332C13.0928 27.3713 13.1565 27.4796 13.2138 27.6387C13.271 27.7978 13.3411 27.9887 13.4174 28.186L13.6466 28.7525L13.8057 29.1216C13.863 29.2489 13.9075 29.3125 13.9393 29.3189C13.9711 29.3252 14.0284 29.2616 14.0921 29.1216C14.1557 28.9816 14.2639 28.7143 14.353 28.4851C14.4421 28.256 14.5249 28.0142 14.5949 27.7978L14.7285 27.3459C14.7324 27.3078 14.7324 27.2694 14.7285 27.2313C14.7324 27.1755 14.7215 27.1196 14.697 27.0693C14.6724 27.019 14.635 26.9761 14.5885 26.9449L14.2957 26.7667C14.2529 26.7481 14.2159 26.7181 14.189 26.6799C14.1621 26.6418 14.1461 26.5969 14.143 26.5503C14.143 26.4867 14.1875 26.4421 14.2703 26.4167C14.3782 26.3884 14.4897 26.3755 14.6012 26.3785H15.0786C15.1951 26.3867 15.3121 26.3867 15.4286 26.3785C15.5813 26.3863 15.7342 26.3863 15.8869 26.3785C16.0458 26.3672 16.2053 26.3672 16.3642 26.3785C16.4758 26.3755 16.5872 26.3884 16.6952 26.4167C16.7779 26.4485 16.8224 26.493 16.8224 26.5567C16.8197 26.5952 16.8063 26.6322 16.7839 26.6637C16.7614 26.6951 16.7307 26.7198 16.6952 26.7349C16.5715 26.7999 16.4383 26.845 16.3006 26.8685C16.0519 26.9073 15.815 27.0007 15.6068 27.1422C15.4542 27.2857 15.3234 27.4509 15.2186 27.6323C15.1677 27.7256 15.0913 27.8848 14.9895 28.1096C14.8876 28.3324 14.7858 28.5742 14.6712 28.8352C14.5567 29.0961 14.4676 29.3507 14.3785 29.5798C14.3409 29.683 14.3132 29.7896 14.2957 29.8981C14.274 29.9923 14.274 30.0902 14.2957 30.1845L15.9314 34.385C15.9314 34.4359 15.976 34.455 16.0078 34.4296C16.0527 34.3933 16.0859 34.3446 16.1033 34.2896C16.3706 33.5895 16.6697 32.6984 17.0007 31.6101C17.3316 30.5218 17.6817 29.3698 18.0381 28.1542C18.0711 28.0592 18.0946 27.9611 18.1081 27.8614C18.1167 27.7704 18.1167 27.6788 18.1081 27.5877C18.1115 27.4372 18.0765 27.2882 18.0062 27.155C17.9658 27.0879 17.9113 27.0304 17.8465 26.9864C17.7816 26.9424 17.708 26.9131 17.6307 26.9004C17.5289 26.9004 17.4143 26.8304 17.2934 26.7795C17.1725 26.7285 17.1089 26.6585 17.1089 26.5885C17.1089 26.5185 17.1534 26.4803 17.2361 26.4485C17.3441 26.4202 17.4555 26.4074 17.5671 26.4103H18.1463H18.7127C18.9737 26.4103 19.2282 26.4103 19.4701 26.4103C19.7119 26.4103 19.9347 26.4103 20.1384 26.4103C20.2499 26.4069 20.3614 26.4198 20.4693 26.4485C20.5584 26.4803 20.5966 26.5249 20.5966 26.5885C20.5954 26.6275 20.5826 26.6652 20.56 26.6969C20.5373 26.7286 20.5058 26.7529 20.4693 26.7667C20.3456 26.8317 20.2124 26.8768 20.0747 26.9004C19.8367 26.9515 19.6168 27.0659 19.4383 27.2313C19.2717 27.3854 19.1319 27.5661 19.0246 27.7659C18.9291 27.9632 18.8464 28.1414 18.7827 28.3006L15.976 36.5744C15.9499 36.6489 15.9179 36.7213 15.8805 36.7908C15.8296 36.8926 15.7723 36.9372 15.7214 36.9372C15.6932 36.9326 15.6663 36.9224 15.6422 36.9071C15.6181 36.8918 15.5974 36.8717 15.5814 36.8481C15.5271 36.786 15.484 36.7149 15.4541 36.6381C15.1804 36.0016 14.9386 35.4352 14.7413 34.9324C14.544 34.4296 14.3467 33.9268 14.1621 33.424C13.9775 32.9212 13.7548 32.3548 13.5256 31.7438C13.5256 31.6674 13.4684 31.6356 13.4493 31.6547C13.4069 31.7102 13.3746 31.7726 13.3538 31.8392C13.0992 32.4375 12.8828 32.9721 12.7173 33.4367C12.5519 33.9013 12.3482 34.3723 12.17 34.856C11.9918 35.3397 11.7881 35.8871 11.5654 36.5108C11.5201 36.6226 11.4669 36.7311 11.4062 36.8354C11.3108 36.9181 11.2471 36.969 11.1835 36.969Z" fill="#F1F2F2"/>
<path d="M42.3125 21.4082L41.7651 27.4227C41.8094 27.8825 42.019 28.3106 42.3548 28.6278C42.6907 28.9449 43.1302 29.1296 43.5917 29.1475C45.2529 29.2302 49.4153 29.402 49.4153 29.402L42.3125 21.4082Z" fill="#939598"/>
<path d="M3.18649 56.3926C1.46578 57.0936 0.398311 58.8356 0 59.6587L3.18649 62.1283V56.3926Z" fill="#7E7E7E"/>
<path d="M47.877 56.4707C49.5977 57.1717 50.6652 58.9137 51.0635 59.7369L47.877 62.2064V56.4707Z" fill="#7E7E7E"/>
<path d="M0 98.6115V59.7363L20.5528 75.2705H30.2716L51.0635 59.7363V98.6115H0Z" fill="#C4C4C4"/>
<path d="M2.46953 92.8768L20.6325 75.2715H30.0326C35.37 80.3433 46.5546 90.9649 48.5939 92.8768C50.6333 94.7887 51.0369 97.5503 50.9838 98.6922H0C0.254919 94.9321 1.75257 93.2486 2.46953 92.8768Z" fill="#A8A8A8"/>
</g>
</svg>
