<svg width="55" height="55" viewBox="0 0 55 55" fill="none" xmlns="http://www.w3.org/2000/svg">
<circle cx="27.5" cy="27.5" r="27.5" fill="#BE0707"/>
<path d="M47 27.5C47 37.6707 38.3173 46 27.5 46C16.6827 46 8 37.6707 8 27.5C8 17.3293 16.6827 9 27.5 9C38.3173 9 47 17.3293 47 27.5Z" stroke="white" stroke-width="2"/>
<rect x="1.94678" y="31.8781" width="50" height="13" transform="rotate(-24.86 1.94678 31.8781)" fill="#BE0707"/>
<path d="M5.37852 34.5501L6.64557 33.9629C7.3677 33.6283 8.00814 33.8374 8.3202 34.5108C8.64046 35.2019 8.40642 35.8001 7.67986 36.1368L6.39066 36.7342L5.37852 34.5501ZM6.79715 37.6114L8.03319 37.0386L10.4062 38.8612L11.7086 38.2576L9.11827 36.3259C9.75299 35.6981 9.86958 34.7884 9.47746 33.9422C8.91083 32.7195 7.72721 32.3369 6.34497 32.9775L3.80644 34.1538L6.76893 40.5467L7.91193 40.017L6.79715 37.6114ZM16.3568 34.9304L13.3619 36.3183L12.5161 34.493L15.347 33.1811L14.9261 32.2729L12.0952 33.5848L11.2945 31.857L14.2894 30.4692L13.8418 29.5034L9.70398 31.4209L12.6665 37.8137L16.8043 35.8962L16.3568 34.9304ZM16.807 33.7746C17.3326 34.9087 18.4947 35.2797 19.7131 34.7151C21.0111 34.1136 21.433 33.0032 20.8294 31.7007L18.7558 27.2262L17.6173 27.7538L19.6867 32.2195C20.007 32.9106 19.8472 33.4367 19.2358 33.72C18.7042 33.9664 18.1766 33.7803 17.919 33.2593L16.807 33.7746ZM26.7962 30.0927L23.8013 31.4805L22.9555 29.6553L25.7864 28.3434L25.3655 27.4352L22.5346 28.7471L21.734 27.0193L24.7288 25.6315L24.2812 24.6657L20.1434 26.5832L23.1059 32.976L27.2437 31.0585L26.7962 30.0927ZM31.2678 29.3229C32.7785 28.6228 33.4401 27.3098 33.0051 25.8485L31.8843 26.3679C32.0643 27.2209 31.6688 27.9585 30.8226 28.3506C29.7151 28.8639 28.5983 28.2889 27.9332 26.8535C27.2721 25.427 27.5577 24.1968 28.6564 23.6876C29.4848 23.3037 30.3804 23.5291 30.9026 24.2612L32.0279 23.7397C31.2497 22.432 29.6909 22.0296 28.2068 22.7174C26.3904 23.5591 25.8192 25.3576 26.7636 27.3955C27.7141 29.4467 29.4426 30.1687 31.2678 29.3229ZM37.5325 26.2906L35.0176 20.8636L36.927 19.9787L36.4795 19.0129L31.5176 21.3123L31.9651 22.2781L33.879 21.3912L36.3939 26.8182L37.5325 26.2906ZM44.1432 22.054L41.1484 23.4418L40.3025 21.6165L43.1335 20.3047L42.7126 19.3965L39.8817 20.7083L39.081 18.9805L42.0758 17.5927L41.6283 16.6269L37.4904 18.5444L40.4529 24.9373L44.5908 23.0198L44.1432 22.054ZM42.8475 16.0619L45.81 22.4548L48.1447 21.3728C50.0586 20.4859 50.6336 18.7772 49.6954 16.7525C48.7572 14.7279 47.0917 14.0951 45.1822 14.98L42.8475 16.0619ZM44.438 16.498L45.5102 16.0012C46.7861 15.41 47.8692 15.8659 48.5323 17.2969C49.2078 18.7545 48.8623 19.8671 47.5775 20.4625L46.5054 20.9593L44.438 16.498Z" fill="white"/>
</svg>
