<svg width="71" height="55" viewBox="0 0 71 55" fill="none" xmlns="http://www.w3.org/2000/svg">
<circle cx="35.5" cy="27.5" r="27.5" fill="#BE0707"/>
<circle cx="35.5" cy="27.5" r="26.5" stroke="white" stroke-width="2"/>
<path d="M55 27.5C55 37.6707 46.3173 46 35.5 46C24.6827 46 16 37.6707 16 27.5C16 17.3293 24.6827 9 35.5 9C46.3173 9 55 17.3293 55 27.5Z" stroke="white" stroke-width="2"/>
<ellipse rx="6.01469" ry="5.08842" transform="matrix(0.779859 -0.625955 0.725595 0.688122 18.4589 34.7268)" fill="#BE0707"/>
<ellipse rx="6.01469" ry="5.08842" transform="matrix(0.779859 -0.625955 0.725595 0.688122 51.2905 19.2209)" fill="#BE0707"/>
<path d="M13.4829 34.5017L14.4951 36.6858L15.7843 36.0884C16.1475 35.92 16.3851 35.6933 16.497 35.4083C16.6089 35.1232 16.5847 34.8079 16.4246 34.4624C16.2686 34.1257 16.0405 33.9084 15.7405 33.8107C15.4405 33.7129 15.1103 33.7475 14.75 33.9145L13.4829 34.5017ZM14.9016 37.563L16.0163 39.9686L14.8733 40.4983L11.9109 34.1054L14.4494 32.9291C15.1375 32.6102 15.7608 32.5384 16.3193 32.7137C16.8763 32.8861 17.2972 33.2795 17.5819 33.8938C17.7803 34.3221 17.8492 34.7494 17.7885 35.1758C17.7264 35.5992 17.5378 35.9664 17.2227 36.2775L19.8131 38.2092L18.5106 38.8128L16.1376 36.9902L14.9016 37.563ZM24.4612 34.882L24.9087 35.8478L20.7709 37.7653L17.8084 31.3725L21.9462 29.455L22.3938 30.4208L19.3989 31.8086L20.1996 33.5364L23.0305 32.2245L23.4514 33.1327L20.6205 34.4446L21.4663 36.2698L24.4612 34.882ZM24.9115 33.7262L26.0234 33.2109C26.1512 33.471 26.3354 33.644 26.576 33.7298C26.8197 33.8142 27.0744 33.7948 27.3402 33.6716C27.6474 33.5293 27.8389 33.3311 27.9149 33.077C27.9925 32.8186 27.9512 32.5166 27.7911 32.1711L25.7217 27.7054L26.8602 27.1778L28.9338 31.6523C29.2349 32.3021 29.2858 32.892 29.0866 33.422C28.8903 33.9507 28.4672 34.3656 27.8175 34.6667C27.2061 34.95 26.6349 35.0066 26.104 34.8364C25.5718 34.6633 25.1742 34.2932 24.9115 33.7262ZM34.9006 30.0443L35.3481 31.0101L31.2103 32.9276L28.2478 26.5348L32.3856 24.6173L32.8332 25.5831L29.8384 26.9709L30.639 28.6987L33.47 27.3868L33.8908 28.295L31.0599 29.6069L31.9057 31.4321L34.9006 30.0443ZM39.3722 29.2745C38.4566 29.6988 37.5947 29.7394 36.7864 29.3964C35.981 29.0521 35.3415 28.369 34.868 27.3471C34.3972 26.3311 34.2922 25.4039 34.553 24.5654C34.8155 23.7227 35.4015 23.0905 36.3112 22.669C37.0555 22.3241 37.7816 22.2459 38.4897 22.4344C39.1963 22.62 39.7439 23.0389 40.1323 23.6913L39.007 24.2128C38.747 23.8453 38.4103 23.6103 37.9968 23.5077C37.5863 23.4038 37.1743 23.4476 36.7608 23.6392C36.2114 23.8938 35.8707 24.3082 35.7386 24.8825C35.6081 25.4524 35.7077 26.0933 36.0376 26.8051C36.3702 27.5228 36.7961 28.0161 37.3153 28.2849C37.8345 28.5537 38.3718 28.5595 38.927 28.3022C39.3494 28.1065 39.6538 27.8344 39.8404 27.4861C40.0286 27.1334 40.078 26.7445 39.9887 26.3195L41.1095 25.8001C41.3266 26.5318 41.2804 27.2062 40.9708 27.8233C40.6612 28.4404 40.1283 28.9241 39.3722 29.2745ZM45.6369 26.2422L44.4983 26.7698L41.9834 21.3428L40.0696 22.2297L39.622 21.2639L44.5839 18.9645L45.0314 19.9303L43.122 20.8152L45.6369 26.2422ZM52.2476 22.0056L52.6952 22.9713L48.5573 24.8889L45.5948 18.496L49.7327 16.5785L50.1802 17.5443L47.1854 18.9321L47.9861 20.6599L50.817 19.3481L51.2379 20.2563L48.4069 21.5681L49.2528 23.3934L52.2476 22.0056ZM50.9519 16.0135L53.2866 14.9316C54.2436 14.4881 55.118 14.4202 55.9099 14.7277C56.7018 15.0352 57.3317 15.694 57.7998 16.7041C58.2693 17.7172 58.3674 18.6296 58.0943 19.4415C57.8211 20.2533 57.206 20.881 56.2491 21.3244L53.9144 22.4064L50.9519 16.0135ZM52.5424 16.4496L54.6098 20.9109L55.6819 20.4141C56.3258 20.1157 56.7301 19.6951 56.8948 19.1524C57.0594 18.6097 56.9734 17.9751 56.6367 17.2485C56.3055 16.5338 55.8788 16.066 55.3567 15.8451C54.8332 15.6213 54.2525 15.6572 53.6146 15.9528L52.5424 16.4496Z" fill="white"/>
</svg>
