<svg width="160" height="160" viewBox="0 0 160 160" fill="none" xmlns="http://www.w3.org/2000/svg">
<rect width="160" height="160" rx="8" fill="white"/>
<path d="M106.173 56.6289H102.963L102.716 58.9575C104.325 60.143 105.691 57.8991 106.173 56.6289Z" fill="white"/>
<mask id="path-3-inside-1" fill="white">
<path fill-rule="evenodd" clip-rule="evenodd" d="M100.246 56.6641C100.246 57.8915 100.172 59.0445 100.023 60.1603L107.499 66.0369C108.206 66.5576 108.392 67.4874 107.945 68.3057L100.804 80.6539C100.358 81.4721 99.4279 81.7697 98.6097 81.4721L89.7205 77.9016C87.898 79.3149 85.8895 80.5051 83.6951 81.3977L82.3562 90.8449C82.2446 91.7375 81.5007 92.3698 80.6081 92.3698H66.3258C65.4332 92.3698 64.7265 91.7375 64.5405 90.8449L63.2016 81.3977C61.0072 80.5051 59.0359 79.3149 57.1763 77.9016L48.287 81.4721C47.4688 81.7325 46.539 81.4721 46.0926 80.6539L38.9515 68.3057C38.5424 67.5618 38.7283 66.5576 39.3978 66.0369L46.9481 60.1603C46.7621 59.0445 46.6877 57.8171 46.6877 56.6641C46.6877 55.5111 46.8365 54.2838 47.0225 53.168L39.4722 47.2914C38.7283 46.7707 38.5796 45.8037 39.0259 45.0226L46.1298 32.6744C46.5761 31.8562 47.506 31.5586 48.3242 31.8562L57.2135 35.4267C59.0359 34.0506 61.0444 32.8232 63.2388 31.9305L64.5777 22.4834C64.7265 21.5908 65.4332 20.9585 66.3258 20.9585H80.6081C81.5007 20.9585 82.2446 21.5908 82.3934 22.4834L83.7323 31.9305C85.9267 32.8232 87.898 34.0134 89.7577 35.4267L98.6469 31.8562C99.4651 31.5958 100.395 31.8562 100.841 32.6744L107.982 45.0226C108.392 45.7665 108.206 46.7707 107.536 47.2914L99.9858 53.168C100.172 54.2838 100.246 55.474 100.246 56.6641ZM60.0773 56.6641C60.0773 64.0284 66.1027 70.0538 73.467 70.0538C80.8312 70.0538 86.8566 64.0284 86.8566 56.6641C86.8566 49.2999 80.8312 43.2745 73.467 43.2745C66.1027 43.2745 60.0773 49.2999 60.0773 56.6641ZM73.5062 39.3497H72.1425C71.6637 39.9407 70.4349 41.1735 69.9151 41.3761C69.8935 41.3845 69.871 41.3934 69.8475 41.4027C69.1629 41.6723 67.6742 42.2586 66.3439 40.6212C65.4539 39.5259 63.8741 35.7876 66.0969 32.7533C67.8567 30.351 69.9151 31.4831 70.5777 32.1888L72.1723 33.8087H73.5062V39.3497Z"/>
</mask>
<path fill-rule="evenodd" clip-rule="evenodd" d="M100.246 56.6641C100.246 57.8915 100.172 59.0445 100.023 60.1603L107.499 66.0369C108.206 66.5576 108.392 67.4874 107.945 68.3057L100.804 80.6539C100.358 81.4721 99.4279 81.7697 98.6097 81.4721L89.7205 77.9016C87.898 79.3149 85.8895 80.5051 83.6951 81.3977L82.3562 90.8449C82.2446 91.7375 81.5007 92.3698 80.6081 92.3698H66.3258C65.4332 92.3698 64.7265 91.7375 64.5405 90.8449L63.2016 81.3977C61.0072 80.5051 59.0359 79.3149 57.1763 77.9016L48.287 81.4721C47.4688 81.7325 46.539 81.4721 46.0926 80.6539L38.9515 68.3057C38.5424 67.5618 38.7283 66.5576 39.3978 66.0369L46.9481 60.1603C46.7621 59.0445 46.6877 57.8171 46.6877 56.6641C46.6877 55.5111 46.8365 54.2838 47.0225 53.168L39.4722 47.2914C38.7283 46.7707 38.5796 45.8037 39.0259 45.0226L46.1298 32.6744C46.5761 31.8562 47.506 31.5586 48.3242 31.8562L57.2135 35.4267C59.0359 34.0506 61.0444 32.8232 63.2388 31.9305L64.5777 22.4834C64.7265 21.5908 65.4332 20.9585 66.3258 20.9585H80.6081C81.5007 20.9585 82.2446 21.5908 82.3934 22.4834L83.7323 31.9305C85.9267 32.8232 87.898 34.0134 89.7577 35.4267L98.6469 31.8562C99.4651 31.5958 100.395 31.8562 100.841 32.6744L107.982 45.0226C108.392 45.7665 108.206 46.7707 107.536 47.2914L99.9858 53.168C100.172 54.2838 100.246 55.474 100.246 56.6641ZM60.0773 56.6641C60.0773 64.0284 66.1027 70.0538 73.467 70.0538C80.8312 70.0538 86.8566 64.0284 86.8566 56.6641C86.8566 49.2999 80.8312 43.2745 73.467 43.2745C66.1027 43.2745 60.0773 49.2999 60.0773 56.6641ZM73.5062 39.3497H72.1425C71.6637 39.9407 70.4349 41.1735 69.9151 41.3761C69.8935 41.3845 69.871 41.3934 69.8475 41.4027C69.1629 41.6723 67.6742 42.2586 66.3439 40.6212C65.4539 39.5259 63.8741 35.7876 66.0969 32.7533C67.8567 30.351 69.9151 31.4831 70.5777 32.1888L72.1723 33.8087H73.5062V39.3497Z" fill="#FDAE46" fill-opacity="0.5"/>
<path d="M100.023 60.1603L99.5274 60.0942L99.4897 60.3771L99.714 60.5534L100.023 60.1603ZM107.499 66.0369L107.19 66.43L107.196 66.4348L107.202 66.4394L107.499 66.0369ZM107.945 68.3057L108.378 68.5561L108.384 68.5451L107.945 68.3057ZM100.804 80.6539L100.371 80.4035L100.365 80.4144L100.804 80.6539ZM98.6097 81.4721L98.4233 81.9361L98.431 81.9392L98.4388 81.942L98.6097 81.4721ZM89.7205 77.9016L89.9068 77.4376L89.6407 77.3307L89.4141 77.5064L89.7205 77.9016ZM83.6951 81.3977L83.5067 80.9346L83.2404 81.0429L83.2001 81.3276L83.6951 81.3977ZM82.3562 90.8449L81.8611 90.7747L81.86 90.7828L82.3562 90.8449ZM64.5405 90.8449L64.0455 90.915L64.0478 90.931L64.0511 90.9468L64.5405 90.8449ZM63.2016 81.3977L63.6966 81.3276L63.6563 81.0429L63.39 80.9346L63.2016 81.3977ZM57.1763 77.9016L57.4788 77.5035L57.253 77.3319L56.9899 77.4376L57.1763 77.9016ZM48.287 81.4721L48.4386 81.9486L48.4563 81.943L48.4734 81.9361L48.287 81.4721ZM46.0926 80.6539L46.5317 80.4144L46.5255 80.4036L46.0926 80.6539ZM38.9515 68.3057L38.5133 68.5467L38.5187 68.556L38.9515 68.3057ZM39.3978 66.0369L39.7048 66.4315L39.7049 66.4314L39.3978 66.0369ZM46.9481 60.1603L47.2552 60.5549L47.4902 60.3719L47.4413 60.0781L46.9481 60.1603ZM47.0225 53.168L47.5157 53.2502L47.5646 52.9563L47.3296 52.7734L47.0225 53.168ZM39.4722 47.2914L39.7793 46.8968L39.7693 46.8891L39.7589 46.8818L39.4722 47.2914ZM39.0259 45.0226L38.5925 44.7733L38.5918 44.7745L39.0259 45.0226ZM46.1298 32.6744L46.5633 32.9238L46.5688 32.9138L46.1298 32.6744ZM48.3242 31.8562L48.5106 31.3922L48.5029 31.3891L48.4951 31.3863L48.3242 31.8562ZM57.2135 35.4267L57.0271 35.8907L57.2893 35.996L57.5148 35.8257L57.2135 35.4267ZM63.2388 31.9305L63.4272 32.3937L63.6935 32.2854L63.7338 32.0007L63.2388 31.9305ZM64.5777 22.4834L64.0844 22.4012L64.0827 22.4133L64.5777 22.4834ZM82.3934 22.4834L82.8886 22.4132L82.8866 22.4012L82.3934 22.4834ZM83.7323 31.9305L83.2373 32.0007L83.2776 32.2854L83.5439 32.3937L83.7323 31.9305ZM89.7577 35.4267L89.4551 35.8248L89.6809 35.9964L89.944 35.8907L89.7577 35.4267ZM98.6469 31.8562L98.4953 31.3797L98.4777 31.3853L98.4605 31.3922L98.6469 31.8562ZM100.841 32.6744L100.402 32.9139L100.408 32.9247L100.841 32.6744ZM107.982 45.0226L108.421 44.7816L108.415 44.7723L107.982 45.0226ZM107.536 47.2914L107.229 46.8967L107.229 46.8968L107.536 47.2914ZM99.9858 53.168L99.6787 52.7734L99.4437 52.9563L99.4926 53.2502L99.9858 53.168ZM72.1425 39.3497V38.8497H71.904L71.7539 39.035L72.1425 39.3497ZM73.5062 39.3497V39.8497H74.0062V39.3497H73.5062ZM69.9151 41.3761L70.0967 41.842L70.0967 41.842L69.9151 41.3761ZM69.8475 41.4027L70.0307 41.8679H70.0307L69.8475 41.4027ZM66.3439 40.6212L65.9558 40.9365L66.3439 40.6212ZM66.0969 32.7533L65.6935 32.4578L66.0969 32.7533ZM70.5777 32.1888L70.2132 32.5312L70.2214 32.5395L70.5777 32.1888ZM72.1723 33.8087L71.816 34.1595L71.9629 34.3087H72.1723V33.8087ZM73.5062 33.8087H74.0062V33.3087H73.5062V33.8087ZM100.519 60.2264C100.671 59.0872 100.746 57.912 100.746 56.6641H99.7462C99.7462 57.871 99.6731 59.0019 99.5274 60.0942L100.519 60.2264ZM107.808 65.6438L100.332 59.7672L99.714 60.5534L107.19 66.43L107.808 65.6438ZM108.384 68.5451C108.94 67.5255 108.72 66.3153 107.796 65.6343L107.202 66.4394C107.692 66.7999 107.843 67.4493 107.506 68.0662L108.384 68.5451ZM101.237 80.9042L108.378 68.556L107.512 68.0554L100.371 80.4036L101.237 80.9042ZM98.4388 81.942C99.4741 82.3185 100.671 81.9425 101.243 80.8933L100.365 80.4144C100.045 81.0017 99.3818 81.2209 98.7806 81.0022L98.4388 81.942ZM89.5341 78.3655L98.4233 81.9361L98.7961 81.0082L89.9068 77.4376L89.5341 78.3655ZM83.8835 81.8609C86.1233 80.9498 88.1711 79.7358 90.0269 78.2967L89.4141 77.5064C87.6249 78.894 85.6558 80.0604 83.5067 80.9346L83.8835 81.8609ZM82.8512 90.915L84.1902 81.4679L83.2001 81.3276L81.8611 90.7747L82.8512 90.915ZM80.6081 92.8698C81.7442 92.8698 82.7084 92.0582 82.8523 90.9069L81.86 90.7828C81.7808 91.4168 81.2572 91.8698 80.6081 91.8698V92.8698ZM66.3258 92.8698H80.6081V91.8698H66.3258V92.8698ZM64.0511 90.9468C64.2798 92.0449 65.1704 92.8698 66.3258 92.8698V91.8698C65.696 91.8698 65.1732 91.4301 65.03 90.7429L64.0511 90.9468ZM62.7065 81.4679L64.0455 90.915L65.0356 90.7747L63.6966 81.3276L62.7065 81.4679ZM56.8737 78.2996C58.7617 79.7345 60.7709 80.9488 63.0132 81.8609L63.39 80.9346C61.2435 80.0614 59.3102 78.8953 57.4788 77.5035L56.8737 78.2996ZM48.4734 81.9361L57.3626 78.3655L56.9899 77.4376L48.1007 81.0082L48.4734 81.9361ZM45.6537 80.8933C46.2345 81.9581 47.4339 82.2683 48.4386 81.9486L48.1354 80.9957C47.5036 81.1967 46.8434 80.9862 46.5316 80.4145L45.6537 80.8933ZM38.5187 68.556L45.6598 80.9042L46.5255 80.4036L39.3843 68.0554L38.5187 68.556ZM39.0909 65.6422C38.2187 66.3205 37.9912 67.5972 38.5134 68.5466L39.3896 68.0647C39.0935 67.5264 39.2379 66.7947 39.7048 66.4315L39.0909 65.6422ZM46.641 59.7657L39.0907 65.6423L39.7049 66.4314L47.2552 60.5549L46.641 59.7657ZM46.1877 56.6641C46.1877 57.8362 46.2632 59.0923 46.4549 60.2425L47.4413 60.0781C47.261 58.9967 47.1877 57.7981 47.1877 56.6641H46.1877ZM46.5293 53.0858C46.3412 54.2144 46.1877 55.4721 46.1877 56.6641H47.1877C47.1877 55.5502 47.3318 54.3531 47.5157 53.2502L46.5293 53.0858ZM39.1651 47.686L46.7154 53.5625L47.3296 52.7734L39.7793 46.8968L39.1651 47.686ZM38.5918 44.7745C38.0349 45.7491 38.202 47.0126 39.1855 47.701L39.7589 46.8818C39.2547 46.5288 39.1243 45.8582 39.46 45.2707L38.5918 44.7745ZM45.6964 32.4251L38.5925 44.7733L39.4593 45.2719L46.5632 32.9237L45.6964 32.4251ZM48.4951 31.3863C47.4598 31.0098 46.2632 31.3857 45.6909 32.435L46.5688 32.9138C46.8891 32.3266 47.5521 32.1074 48.1534 32.3261L48.4951 31.3863ZM57.3998 34.9627L48.5106 31.3922L48.1379 32.3201L57.0271 35.8907L57.3998 34.9627ZM63.0504 31.4674C60.8069 32.38 58.7608 33.6318 56.9122 35.0277L57.5148 35.8257C59.311 34.4694 61.2818 33.2664 63.4272 32.3937L63.0504 31.4674ZM64.0827 22.4133L62.7437 31.8604L63.7338 32.0007L65.0728 22.5536L64.0827 22.4133ZM66.3258 20.4585C65.1731 20.4585 64.2709 21.2833 64.0845 22.4012L65.0709 22.5656C65.1822 21.8983 65.6933 21.4585 66.3258 21.4585V20.4585ZM80.6081 20.4585H66.3258V21.4585H80.6081V20.4585ZM82.8866 22.4012C82.6981 21.2704 81.7481 20.4585 80.6081 20.4585V21.4585C81.2534 21.4585 81.7911 21.9112 81.9002 22.5656L82.8866 22.4012ZM84.2274 31.8604L82.8884 22.4133L81.8983 22.5536L83.2373 32.0007L84.2274 31.8604ZM90.0602 35.0286C88.1722 33.5938 86.163 32.3795 83.9207 31.4674L83.5439 32.3937C85.6905 33.2669 87.6238 34.433 89.4551 35.8248L90.0602 35.0286ZM98.4605 31.3922L89.5713 34.9627L89.944 35.8907L98.8332 32.3201L98.4605 31.3922ZM101.28 32.435C100.699 31.3702 99.5 31.06 98.4953 31.3797L98.7985 32.3326C99.4303 32.1316 100.09 32.3421 100.402 32.9138L101.28 32.435ZM108.415 44.7723L101.274 32.4241L100.408 32.9247L107.55 45.2729L108.415 44.7723ZM107.843 47.6861C108.715 47.0078 108.943 45.7311 108.421 44.7817L107.544 45.2636C107.84 45.8019 107.696 46.5336 107.229 46.8967L107.843 47.6861ZM100.293 53.5625L107.843 47.686L107.229 46.8968L99.6787 52.7734L100.293 53.5625ZM100.746 56.6641C100.746 55.4545 100.671 54.2357 100.479 53.0858L99.4926 53.2502C99.6729 54.3319 99.7462 55.4934 99.7462 56.6641H100.746ZM73.467 69.5538C66.3788 69.5538 60.5773 63.7523 60.5773 56.6641H59.5773C59.5773 64.3046 65.8265 70.5538 73.467 70.5538V69.5538ZM86.3566 56.6641C86.3566 63.7523 80.5551 69.5538 73.467 69.5538V70.5538C81.1074 70.5538 87.3566 64.3046 87.3566 56.6641H86.3566ZM73.467 43.7745C80.5551 43.7745 86.3566 49.576 86.3566 56.6641H87.3566C87.3566 49.0237 81.1074 42.7745 73.467 42.7745V43.7745ZM60.5773 56.6641C60.5773 49.576 66.3788 43.7745 73.467 43.7745V42.7745C65.8265 42.7745 59.5773 49.0237 59.5773 56.6641H60.5773ZM72.1425 39.8497H73.5062V38.8497H72.1425V39.8497ZM70.0967 41.842C70.2998 41.7628 70.5229 41.6077 70.7233 41.4508C70.9352 41.2849 71.1645 41.0824 71.3872 40.8723C71.8307 40.4541 72.274 39.9817 72.531 39.6644L71.7539 39.035C71.5321 39.3088 71.1216 39.7483 70.7011 40.1448C70.4918 40.3422 70.2866 40.5227 70.1068 40.6635C69.9157 40.8131 69.7903 40.8881 69.7335 40.9103L70.0967 41.842ZM70.0307 41.8679C70.0544 41.8586 70.0761 41.85 70.0967 41.842L69.7335 40.9103C69.711 40.919 69.6876 40.9282 69.6643 40.9374L70.0307 41.8679ZM65.9558 40.9365C66.7091 41.8636 67.5466 42.1965 68.3183 42.2267C69.0591 42.2556 69.6917 42.0014 70.0307 41.8679L69.6643 40.9374C69.3187 41.0735 68.8647 41.2473 68.3574 41.2275C67.881 41.2088 67.309 41.0162 66.7319 40.3059L65.9558 40.9365ZM65.6935 32.4578C64.4832 34.1101 64.3162 35.9482 64.5592 37.4921C64.8 39.0222 65.4504 40.3145 65.9558 40.9365L66.7319 40.3059C66.3474 39.8327 65.7629 38.7081 65.547 37.3366C65.3333 35.979 65.4878 34.4308 66.5002 33.0488L65.6935 32.4578ZM70.9422 31.8465C70.547 31.4256 69.7587 30.8913 68.792 30.8074C67.7789 30.7195 66.6632 31.1342 65.6935 32.4578L66.5002 33.0488C67.2905 31.97 68.0839 31.7497 68.7055 31.8037C69.3736 31.8617 69.9458 32.2463 70.2133 32.5311L70.9422 31.8465ZM72.5287 33.458L70.9341 31.838L70.2214 32.5395L71.816 34.1595L72.5287 33.458ZM73.5062 33.3087H72.1723V34.3087H73.5062V33.3087ZM74.0062 39.3497V33.8087H73.0062V39.3497H74.0062Z" fill="black" mask="url(#path-3-inside-1)"/>
<path d="M48.2598 86.1954L46.9191 85.3486L43.3908 89.9706C43.4849 90.3587 43.7225 91.3537 43.9201 92.2287C44.167 93.3224 43.8495 96.7095 42.0854 98.3325C40.3213 99.9555 41.0269 99.6027 40.3565 101.085C39.8203 102.27 40.58 104.472 41.0269 105.424L40.7094 106.906L40.039 110.858C39.8273 112.022 39.3687 114.485 39.2275 115.021C39.0864 115.557 39.7332 115.833 40.0743 115.903C42.9674 116.82 44.8374 116.362 46.2134 116.573C47.5894 116.785 51.7175 116.115 53.4463 115.903C54.8293 115.734 54.493 114.892 54.1519 114.492L53.164 110.681L51.5763 103.519C51.4234 103.59 51.3858 103.477 52.4584 102.461C53.531 101.444 53.9167 101.496 53.9755 101.649C56.6005 101.705 56.5511 100.708 56.1983 100.202C54.9564 99.9767 54.3871 99.5203 54.2578 99.3204L53.164 95.0513C52.035 93.4988 52.035 95.3688 52.1761 96.4978L51.8586 97.5563C51.741 97.3328 51.4916 96.8083 51.4352 96.4978C51.3646 96.1097 50.3767 96.145 50.7648 96.7095C51.0753 97.1611 50.8942 97.6739 50.7648 97.8738C50.7178 97.9562 50.5743 97.9585 50.3767 97.3093C50.1791 96.6601 49.4711 96.9212 49.1418 97.1329C47.8435 96.3144 47.5894 94.4397 47.6247 93.6047C49.5441 89.8224 48.8478 87.0892 48.2598 86.1954Z" fill="white"/>
<rect x="73.5021" y="20.7822" width="35.8468" height="35.8468" fill="white"/>
<path fill-rule="evenodd" clip-rule="evenodd" d="M102.109 7.86357L107.744 11.8118C108.44 12.2942 109.099 12.9657 108.229 14.7665C107.358 16.5672 105.218 20.8649 104.257 22.7886C104.948 23.5254 106.642 26.6311 107.139 29.036L115.677 30.9619C117.15 31.2527 118.146 31.7973 117.865 33.9375C117.583 36.0778 116.963 43.5583 116.689 47.031C116.598 48.1705 116.264 48.8829 114.041 48.9308C112.323 48.9678 109.367 49.1955 107.213 49.3615L107.213 49.3615C106.543 49.4131 105.95 49.4587 105.497 49.4908C105.076 50.3869 104.031 52.0383 103.77 52.4153L99.2608 49.2899L100.018 48.1973L102.258 47.8095C103.215 47.6668 105.318 46.6201 104.346 43.8052C103.119 40.2498 99.1463 39.4187 97.7392 39.5262C95.6356 39.6869 95.2694 41.2444 95.1011 41.9606L95.0844 42.0313C94.9548 42.574 95.268 44.2861 95.481 45.0163L94.7067 46.1335L92.8092 44.8183C96.9773 38.7376 95.4536 30.4245 89.3872 26.2199L89.3773 26.213L90.701 24.3212L89.5851 23.5478C88.8549 23.7608 87.1428 24.074 86.6001 23.9444C86.5776 23.9391 86.554 23.9335 86.5294 23.9277C85.8132 23.7594 84.2556 23.3932 84.095 21.2896C83.9875 19.8825 84.8186 15.91 88.3739 14.6824C91.1888 13.7104 92.2356 15.8135 92.3783 16.7709L92.7661 19.0107L93.8584 19.7678L100.642 9.98043L102.109 7.86357Z" fill="#FDAE46" fill-opacity="0.5"/>
<path d="M107.744 11.8118L107.6 12.0165L107.601 12.0173L107.744 11.8118ZM102.109 7.86357L102.253 7.65883L102.047 7.51463L101.904 7.72116L102.109 7.86357ZM108.229 14.7665L108.454 14.8753L108.229 14.7665ZM104.257 22.7886L104.033 22.6769L103.955 22.8327L104.074 22.9597L104.257 22.7886ZM107.139 29.036L106.894 29.0866L106.926 29.2444L107.084 29.2799L107.139 29.036ZM115.677 30.9619L115.622 31.2058L115.629 31.2071L115.677 30.9619ZM116.689 47.031L116.439 47.0113L116.439 47.0113L116.689 47.031ZM114.041 48.9308L114.036 48.6809L114.036 48.6809L114.041 48.9308ZM107.213 49.3615L107.231 49.6108L107.232 49.6107L107.213 49.3615ZM107.213 49.3615L107.195 49.1121L107.194 49.1122L107.213 49.3615ZM105.497 49.4908L105.479 49.2414L105.333 49.2518L105.27 49.3845L105.497 49.4908ZM103.77 52.4153L103.628 52.6208L103.833 52.7632L103.976 52.5577L103.77 52.4153ZM99.2608 49.2899L99.0553 49.1475L98.9129 49.353L99.1184 49.4954L99.2608 49.2899ZM100.018 48.1973L99.9754 47.9509L99.8723 47.9688L99.8126 48.0549L100.018 48.1973ZM102.258 47.8095L102.221 47.5622L102.215 47.5632L102.258 47.8095ZM104.346 43.8052L104.11 43.8868L104.346 43.8052ZM97.7392 39.5262L97.7582 39.7755L97.7392 39.5262ZM95.1011 41.9606L95.3444 42.0181L95.3444 42.0178L95.1011 41.9606ZM95.0844 42.0313L95.3275 42.0894L95.3277 42.0888L95.0844 42.0313ZM95.481 45.0163L95.6865 45.1587L95.7544 45.0607L95.721 44.9463L95.481 45.0163ZM94.7067 46.1335L94.5643 46.3389L94.7698 46.4814L94.9122 46.2759L94.7067 46.1335ZM92.8092 44.8183L92.603 44.6769L92.4623 44.8821L92.6668 45.0237L92.8092 44.8183ZM89.3872 26.2199L89.5296 26.0144L89.5295 26.0143L89.3872 26.2199ZM89.3773 26.213L89.1725 26.0697L89.0284 26.2755L89.235 26.4185L89.3773 26.213ZM90.701 24.3212L90.9058 24.4645L91.0498 24.2588L90.8434 24.1157L90.701 24.3212ZM89.5851 23.5478L89.7275 23.3423L89.6295 23.2744L89.5151 23.3078L89.5851 23.5478ZM86.6001 23.9444L86.542 24.1876L86.542 24.1876L86.6001 23.9444ZM86.5294 23.9277L86.4722 24.1711L86.4722 24.1711L86.5294 23.9277ZM84.095 21.2896L84.3442 21.2706L84.095 21.2896ZM88.3739 14.6824L88.2924 14.4461L88.3739 14.6824ZM92.3783 16.7709L92.1309 16.8078L92.1319 16.8136L92.3783 16.7709ZM92.7661 19.0107L92.5197 19.0534L92.5376 19.1565L92.6236 19.2162L92.7661 19.0107ZM93.8584 19.7678L93.716 19.9733L93.9214 20.1157L94.0639 19.9102L93.8584 19.7678ZM107.887 11.607L102.253 7.65883L101.966 8.06831L107.6 12.0165L107.887 11.607ZM108.454 14.8753C108.903 13.9459 108.982 13.2582 108.812 12.7195C108.643 12.1829 108.243 11.854 107.886 11.6063L107.601 12.0173C107.94 12.2519 108.218 12.5 108.335 12.87C108.451 13.2379 108.425 13.7863 108.004 14.6577L108.454 14.8753ZM104.48 22.9004C105.442 20.9771 107.582 16.6778 108.454 14.8753L108.004 14.6577C107.134 16.4567 104.995 20.7527 104.033 22.6769L104.48 22.9004ZM107.384 28.9854C107.129 27.7542 106.572 26.3554 105.995 25.1769C105.422 24.0057 104.812 23.0154 104.439 22.6176L104.074 22.9597C104.393 23.2986 104.975 24.2296 105.546 25.3966C106.114 26.5564 106.651 27.9129 106.894 29.0866L107.384 28.9854ZM115.732 30.718L107.194 28.7921L107.084 29.2799L115.622 31.2057L115.732 30.718ZM118.113 33.9701C118.258 32.8632 118.081 32.105 117.614 31.5885C117.158 31.0839 116.469 30.8633 115.726 30.7166L115.629 31.2071C116.359 31.3513 116.904 31.5484 117.243 31.9239C117.572 32.2874 117.753 32.8716 117.617 33.905L118.113 33.9701ZM116.938 47.0508C117.213 43.5744 117.832 36.1023 118.113 33.9701L117.617 33.905C117.335 36.0533 116.714 43.5422 116.439 47.0113L116.938 47.0508ZM114.046 49.1808C115.171 49.1565 115.887 48.9656 116.329 48.5783C116.781 48.1827 116.892 47.6305 116.938 47.0508L116.439 47.0113C116.395 47.571 116.294 47.9448 116 48.2022C115.696 48.4679 115.134 48.6572 114.036 48.6809L114.046 49.1808ZM107.232 49.6107C109.39 49.4445 112.337 49.2176 114.046 49.1808L114.036 48.6809C112.309 48.7181 109.345 48.9465 107.194 49.1122L107.232 49.6107ZM107.231 49.6108L107.231 49.6108L107.195 49.1121L107.195 49.1121L107.231 49.6108ZM105.514 49.7402C105.969 49.708 106.562 49.6623 107.232 49.6107L107.194 49.1122C106.523 49.1638 105.931 49.2094 105.479 49.2414L105.514 49.7402ZM103.976 52.5577C104.24 52.1761 105.293 50.5115 105.723 49.597L105.27 49.3845C104.858 50.2622 103.823 51.9005 103.565 52.2729L103.976 52.5577ZM99.1184 49.4954L103.628 52.6208L103.912 52.2098L99.4032 49.0844L99.1184 49.4954ZM99.8126 48.0549L99.0553 49.1475L99.4663 49.4323L100.224 48.3397L99.8126 48.0549ZM102.215 47.5632L99.9754 47.9509L100.061 48.4436L102.301 48.0558L102.215 47.5632ZM104.11 43.8868C104.571 45.2225 104.294 46.094 103.833 46.6498C103.357 47.2235 102.654 47.4978 102.221 47.5622L102.295 48.0568C102.82 47.9786 103.646 47.6581 104.218 46.9691C104.805 46.2621 105.093 45.2028 104.583 43.7236L104.11 43.8868ZM97.7582 39.7755C98.414 39.7254 99.7151 39.8959 101.001 40.5172C102.281 41.1355 103.524 42.1883 104.11 43.8868L104.583 43.7236C103.942 41.8667 102.584 40.7263 101.219 40.067C99.8603 39.4108 98.4715 39.2195 97.7201 39.2769L97.7582 39.7755ZM95.3444 42.0178C95.429 41.658 95.5537 41.1378 95.8942 40.6854C96.2253 40.2454 96.776 39.8505 97.7582 39.7755L97.7201 39.2769C96.5987 39.3626 95.9146 39.8267 95.4947 40.3848C95.084 40.9304 94.9415 41.547 94.8577 41.9034L95.3444 42.0178ZM95.3277 42.0888L95.3444 42.0181L94.8578 41.9032L94.8411 41.9738L95.3277 42.0888ZM95.721 44.9463C95.6184 44.5946 95.489 43.9954 95.4014 43.4161C95.3577 43.1271 95.3252 42.8475 95.3113 42.6094C95.297 42.3641 95.3043 42.1868 95.3275 42.0894L94.8412 41.9732C94.7997 42.1471 94.7975 42.3873 94.8122 42.6385C94.8272 42.8969 94.862 43.1927 94.907 43.4908C94.997 44.0858 95.1306 44.7078 95.241 45.0863L95.721 44.9463ZM94.9122 46.2759L95.6865 45.1587L95.2756 44.8739L94.5013 45.9911L94.9122 46.2759ZM92.6668 45.0237L94.5643 46.3389L94.8491 45.928L92.9516 44.6128L92.6668 45.0237ZM89.2448 26.4253C95.198 30.5515 96.6934 38.7096 92.603 44.6769L93.0154 44.9596C97.2613 38.7655 95.7091 30.2974 89.5296 26.0144L89.2448 26.4253ZM89.235 26.4185L89.2449 26.4254L89.5295 26.0143L89.5196 26.0075L89.235 26.4185ZM90.4961 24.1779L89.1725 26.0697L89.5821 26.3563L90.9058 24.4645L90.4961 24.1779ZM89.4427 23.7532L90.5586 24.5267L90.8434 24.1157L89.7275 23.3423L89.4427 23.7532ZM86.542 24.1876C86.7159 24.2291 86.9561 24.2313 87.2073 24.2166C87.4657 24.2016 87.7615 24.1668 88.0596 24.1218C88.6546 24.0318 89.2766 23.8982 89.6551 23.7878L89.5151 23.3078C89.1634 23.4104 88.5642 23.5398 87.9849 23.6274C87.6959 23.6711 87.4163 23.7036 87.1782 23.7175C86.9329 23.7318 86.7556 23.7245 86.6581 23.7013L86.542 24.1876ZM86.4722 24.1711C86.4969 24.1769 86.52 24.1823 86.542 24.1876L86.6581 23.7013C86.6351 23.6958 86.6111 23.6901 86.5866 23.6844L86.4722 24.1711ZM83.8457 21.3087C83.9313 22.4301 84.3955 23.1142 84.9535 23.5341C85.4992 23.9448 86.1158 24.0873 86.4722 24.1711L86.5866 23.6844C86.2268 23.5998 85.7065 23.4751 85.2542 23.1346C84.8142 22.8035 84.4193 22.2528 84.3442 21.2706L83.8457 21.3087ZM88.2924 14.4461C86.4355 15.0872 85.295 16.445 84.6358 17.81C83.9796 19.1685 83.7883 20.5573 83.8457 21.3087L84.3442 21.2706C84.2941 20.6148 84.4647 19.3137 85.086 18.0274C85.7043 16.7474 86.757 15.5052 88.4555 14.9187L88.2924 14.4461ZM92.6255 16.7341C92.5473 16.2092 92.2269 15.3826 91.5378 14.8108C90.8309 14.2241 89.7715 13.9353 88.2924 14.4461L88.4555 14.9187C89.7913 14.4575 90.6628 14.7343 91.2185 15.1955C91.7923 15.6716 92.0666 16.3752 92.131 16.8078L92.6255 16.7341ZM93.0124 18.9681L92.6246 16.7283L92.1319 16.8136L92.5197 19.0534L93.0124 18.9681ZM94.0008 19.5623L92.9085 18.8052L92.6236 19.2162L93.716 19.9733L94.0008 19.5623ZM100.437 9.83802L93.6529 19.6254L94.0639 19.9102L100.847 10.1228L100.437 9.83802ZM101.904 7.72116L100.437 9.83802L100.847 10.1228L102.315 8.00598L101.904 7.72116Z" fill="black"/>
<path fill-rule="evenodd" clip-rule="evenodd" d="M98.7275 59.4293C98.4311 57.7004 97.1751 58.2297 97.3515 59.4293L97.9487 63.7338H88.7317C88.3774 61.3091 88.1487 59.7696 88.0905 59.4299C87.7941 57.701 86.5381 58.2303 86.7145 59.4299L95.8879 125.549C96.0996 126.96 97.7942 126.678 97.5814 125.196L96.8824 120.327H105.8L106.525 125.548C106.737 126.959 108.431 126.677 108.218 125.195L107.377 119.331C104.172 97.0037 99.0373 61.2364 98.7275 59.4293ZM88.9324 65.1098C89.1661 66.7145 89.4405 68.6058 89.7464 70.7196H98.9179L98.1396 65.1098H88.9324ZM89.9455 72.0956H99.1088L99.8872 77.7056H90.7556C90.47 75.7254 90.1984 73.8448 89.9455 72.0956ZM90.954 79.0817C91.1982 80.7756 91.4516 82.5342 91.7114 84.3386H100.807L100.078 79.0817H90.954ZM91.9095 85.7147H100.998L101.777 91.3244H92.7166C92.4435 89.4256 92.1736 87.5493 91.9095 85.7147ZM92.9145 92.7004L93.7209 98.3105H102.746L101.968 92.7004H92.9145ZM93.9186 99.6865H102.937L103.715 105.296H94.7245L93.9186 99.6865ZM94.9221 106.672L95.7073 112.141H104.665L103.906 106.672H94.9221ZM95.9049 113.517H104.856L105.609 118.951H96.6849L95.9049 113.517Z" fill="white"/>
<path d="M97.3515 59.4293L97.5991 59.3949L97.5988 59.3929L97.3515 59.4293ZM98.7275 59.4293L98.4811 59.4715V59.4715L98.7275 59.4293ZM97.9487 63.7338V63.9838H98.2358L98.1963 63.6995L97.9487 63.7338ZM88.7317 63.7338L88.4843 63.77L88.5156 63.9838H88.7317V63.7338ZM88.0905 59.4299L87.8441 59.4721L88.0905 59.4299ZM86.7145 59.4299L86.9621 59.3955L86.9618 59.3935L86.7145 59.4299ZM95.8879 125.549L95.6402 125.583L95.6406 125.586L95.8879 125.549ZM97.5814 125.196L97.334 125.232H97.334L97.5814 125.196ZM96.8824 120.327V120.077H96.5939L96.6349 120.362L96.8824 120.327ZM105.8 120.327L106.048 120.292L106.018 120.077H105.8V120.327ZM106.525 125.548L106.277 125.583L106.278 125.585L106.525 125.548ZM108.218 125.195L107.971 125.231L108.218 125.195ZM107.377 119.331L107.129 119.367L107.377 119.331ZM88.9324 65.1098V64.8598H88.6434L88.685 65.1459L88.9324 65.1098ZM89.7464 70.7196L89.499 70.7554L89.53 70.9696H89.7464V70.7196ZM98.9179 70.7196V70.9696H99.205L99.1655 70.6852L98.9179 70.7196ZM98.1396 65.1098L98.3872 65.0755L98.3573 64.8598H98.1396V65.1098ZM99.1088 72.0956L99.3564 72.0612L99.3265 71.8456H99.1088V72.0956ZM89.9455 72.0956V71.8456H89.6567L89.6981 72.1314L89.9455 72.0956ZM99.8872 77.7056V77.9556H100.174L100.135 77.6713L99.8872 77.7056ZM90.7556 77.7056L90.5081 77.7413L90.539 77.9556H90.7556V77.7056ZM91.7114 84.3386L91.464 84.3743L91.4948 84.5886H91.7114V84.3386ZM90.954 79.0817V78.8317H90.6654L90.7066 79.1173L90.954 79.0817ZM100.807 84.3386V84.5886H101.095L101.055 84.3043L100.807 84.3386ZM100.078 79.0817L100.326 79.0473L100.296 78.8317H100.078V79.0817ZM100.998 85.7147L101.246 85.6803L101.216 85.4647H100.998V85.7147ZM91.9095 85.7147V85.4647H91.6209L91.6621 85.7503L91.9095 85.7147ZM101.777 91.3244V91.5744H102.064L102.024 91.2901L101.777 91.3244ZM92.7166 91.3244L92.4692 91.36L92.5 91.5744H92.7166V91.3244ZM93.7209 98.3105L93.4735 98.346L93.5043 98.5605H93.7209V98.3105ZM92.9145 92.7004V92.4504H92.626L92.6671 92.736L92.9145 92.7004ZM102.746 98.3105V98.5605H103.033L102.994 98.2761L102.746 98.3105ZM101.968 92.7004L102.215 92.6661L102.185 92.4504H101.968V92.7004ZM102.937 99.6865L103.184 99.6521L103.154 99.4365H102.937V99.6865ZM93.9186 99.6865V99.4365H93.6302L93.6712 99.722L93.9186 99.6865ZM103.715 105.296V105.546H104.002L103.963 105.262L103.715 105.296ZM94.7245 105.296L94.477 105.332L94.5078 105.546H94.7245V105.296ZM95.7073 112.141L95.4599 112.177L95.4907 112.391H95.7073V112.141ZM94.9221 106.672V106.422H94.6336L94.6746 106.708L94.9221 106.672ZM104.665 112.141V112.391H104.952L104.912 112.107L104.665 112.141ZM103.906 106.672L104.154 106.638L104.124 106.422H103.906V106.672ZM104.856 113.517L105.103 113.483L105.073 113.267H104.856V113.517ZM95.9049 113.517V113.267H95.6164L95.6574 113.553L95.9049 113.517ZM105.609 118.951V119.201H105.897L105.857 118.916L105.609 118.951ZM96.6849 118.951L96.4374 118.986L96.4682 119.201H96.6849V118.951ZM97.5988 59.3929C97.5198 58.8558 97.7716 58.6043 97.9115 58.5762C97.9737 58.5637 98.0676 58.5766 98.1765 58.6981C98.2906 58.8254 98.4115 59.0659 98.4811 59.4715L98.9739 59.387C98.8952 58.9282 98.748 58.5866 98.5488 58.3643C98.3444 58.1363 98.0797 58.0324 97.8129 58.086C97.2947 58.1902 97.0067 58.8032 97.1041 59.4656L97.5988 59.3929ZM98.1963 63.6995L97.5991 59.3949L97.1039 59.4636L97.7011 63.7682L98.1963 63.6995ZM97.9487 63.4838H88.7317V63.9838H97.9487V63.4838ZM87.8441 59.4721C87.9016 59.8079 88.1297 61.3429 88.4843 63.77L88.9791 63.6977C88.6251 61.2754 88.3958 59.7313 88.3369 59.3877L87.8441 59.4721ZM86.9618 59.3935C86.8828 58.8564 87.1346 58.6049 87.2745 58.5768C87.3367 58.5643 87.4306 58.5772 87.5395 58.6987C87.6536 58.826 87.7745 59.0665 87.8441 59.4721L88.3369 59.3877C88.2582 58.9289 88.111 58.5872 87.9118 58.3649C87.7074 58.1369 87.4427 58.033 87.1759 58.0866C86.6577 58.1908 86.3697 58.8038 86.4671 59.4663L86.9618 59.3935ZM96.1355 125.515L86.9621 59.3955L86.4668 59.4642L95.6402 125.583L96.1355 125.515ZM97.334 125.232C97.4257 125.871 97.111 126.162 96.8478 126.212C96.707 126.238 96.5561 126.205 96.4283 126.103C96.3007 126 96.1805 125.815 96.1351 125.512L95.6406 125.586C95.7011 125.989 95.8721 126.297 96.1152 126.492C96.358 126.687 96.6571 126.756 96.9399 126.703C97.5236 126.594 97.9499 126.003 97.8289 125.16L97.334 125.232ZM96.6349 120.362L97.334 125.232L97.8289 125.16L97.1299 120.291L96.6349 120.362ZM105.8 120.077H96.8824V120.577H105.8V120.077ZM106.772 125.514L106.048 120.292L105.553 120.361L106.277 125.583L106.772 125.514ZM107.971 125.231C108.063 125.87 107.748 126.162 107.485 126.211C107.344 126.237 107.193 126.205 107.065 126.102C106.938 125.999 106.818 125.814 106.772 125.511L106.278 125.585C106.338 125.988 106.509 126.297 106.752 126.492C106.995 126.687 107.294 126.755 107.577 126.702C108.161 126.593 108.587 126.002 108.466 125.16L107.971 125.231ZM107.129 119.367L107.971 125.231L108.466 125.16L107.624 119.296L107.129 119.367ZM98.4811 59.4715C98.7901 61.2741 103.924 97.0351 107.129 119.367L107.624 119.296C104.42 96.9723 99.2844 61.1986 98.9739 59.387L98.4811 59.4715ZM88.685 65.1459C88.9187 66.7505 89.1931 68.6416 89.499 70.7554L89.9939 70.6838C89.6879 68.5699 89.4135 66.6786 89.1798 65.0738L88.685 65.1459ZM89.7464 70.9696H98.9179V70.4696H89.7464V70.9696ZM99.1655 70.6852L98.3872 65.0755L97.892 65.1442L98.6703 70.7539L99.1655 70.6852ZM88.9324 65.3598H98.1396V64.8598H88.9324V65.3598ZM99.1088 71.8456H89.9455V72.3456H99.1088V71.8456ZM100.135 77.6713L99.3564 72.0612L98.8612 72.13L99.6395 77.74L100.135 77.6713ZM90.7556 77.9556H99.8872V77.4556H90.7556V77.9556ZM89.6981 72.1314C89.951 73.8805 90.2225 75.7611 90.5081 77.7413L91.003 77.67C90.7174 75.6897 90.4458 73.809 90.1929 72.0598L89.6981 72.1314ZM91.9589 84.303C91.699 82.4985 91.4457 80.74 91.2014 79.046L90.7066 79.1173C90.9508 80.8113 91.2041 82.5698 91.464 84.3743L91.9589 84.303ZM100.807 84.0886H91.7114V84.5886H100.807V84.0886ZM99.8304 79.116L100.56 84.373L101.055 84.3043L100.326 79.0473L99.8304 79.116ZM90.954 79.3317H100.078V78.8317H90.954V79.3317ZM100.998 85.4647H91.9095V85.9647H100.998V85.4647ZM102.024 91.2901L101.246 85.6803L100.751 85.749L101.529 91.3588L102.024 91.2901ZM92.7166 91.5744H101.777V91.0744H92.7166V91.5744ZM91.6621 85.7503C91.9262 87.5849 92.1961 89.4612 92.4692 91.36L92.9641 91.2888C92.691 89.39 92.4211 87.5137 92.157 85.679L91.6621 85.7503ZM93.9684 98.2749L93.162 92.6648L92.6671 92.736L93.4735 98.346L93.9684 98.2749ZM102.746 98.0605H93.7209V98.5605H102.746V98.0605ZM101.72 92.7348L102.498 98.3448L102.994 98.2761L102.215 92.6661L101.72 92.7348ZM92.9145 92.9504H101.968V92.4504H92.9145V92.9504ZM102.937 99.4365H93.9186V99.9365H102.937V99.4365ZM103.963 105.262L103.184 99.6521L102.689 99.7208L103.467 105.331L103.963 105.262ZM94.7245 105.546H103.715V105.046H94.7245V105.546ZM93.6712 99.722L94.477 105.332L94.9719 105.261L94.1661 99.6509L93.6712 99.722ZM95.9548 112.105L95.1695 106.637L94.6746 106.708L95.4599 112.177L95.9548 112.105ZM104.665 111.891H95.7073V112.391H104.665V111.891ZM103.658 106.707L104.417 112.175L104.912 112.107L104.154 106.638L103.658 106.707ZM94.9221 106.922H103.906V106.422H94.9221V106.922ZM104.856 113.267H95.9049V113.767H104.856V113.267ZM105.857 118.916L105.103 113.483L104.608 113.551L105.362 118.985L105.857 118.916ZM96.6849 119.201H105.609V118.701H96.6849V119.201ZM95.6574 113.553L96.4374 118.986L96.9323 118.915L96.1523 113.481L95.6574 113.553Z" fill="black"/>
<path d="M46.3024 92.1657C46.3898 92.3101 46.6471 92.4895 46.8608 92.446C47.1221 92.3928 47.4092 92.1728 47.5353 92.1127" stroke="black" stroke-width="0.5" stroke-linecap="round"/>
<path d="M47.8282 87.4175L48.5816 87.5924" stroke="black" stroke-width="0.5" stroke-linecap="round"/>
<path d="M46.1014 88.1062L44.3879 88.5815" stroke="black" stroke-width="0.5" stroke-linecap="round"/>
<path d="M46.8105 93.6742C47.0184 93.6491 47.5182 93.5056 47.8544 93.1323C48.1907 92.7589 48.4981 91.7306 48.6371 91.2627C48.8796 90.2672 49.0215 88.0621 48.9033 87.494C48.7851 86.9259 48.3717 86.0444 48.1797 85.6747" stroke="black" stroke-width="0.5" stroke-linecap="round"/>
<path d="M48.4011 88.3346C48.4323 88.3947 48.4306 88.4574 48.3706 88.4885C48.3105 88.5197 48.2801 88.4737 48.2489 88.4137C48.2177 88.3536 48.2089 88.324 48.269 88.2928C48.329 88.2616 48.37 88.2746 48.4011 88.3346Z" fill="black"/>
<path d="M47.3039 88.987L47.6595 89.6721C47.7946 89.9057 47.9875 90.4102 47.6785 90.5595C47.3695 90.7089 47.2307 90.7874 47.2 90.8079" stroke="black" stroke-width="0.5" stroke-linecap="round"/>
<path d="M46.0408 88.9999C46.072 89.0599 46.0703 89.1226 46.0103 89.1538C45.9502 89.1849 45.898 89.1502 45.8668 89.0902C45.8356 89.0301 45.8373 88.9675 45.8974 88.9363C45.9574 88.9051 46.0096 88.9398 46.0408 88.9999Z" fill="black"/>
<path d="M43.5827 109.517C43.3357 109.129 40.7965 105.18 40.5238 104.061C40.3307 103.255 38.7514 99.9285 40.6762 98.2115C42.3835 96.6074 39.2553 95.8201 36.7122 95.5481" stroke="black" stroke-width="0.5" stroke-linecap="round"/>
<path d="M47.4896 92.0482L46.8285 92.0166" stroke="black" stroke-width="0.5" stroke-linecap="round"/>
<path d="M32.9274 120.772H94.7419" stroke="black" stroke-width="0.5" stroke-linecap="round"/>
<path d="M108.431 120.772H132" stroke="black" stroke-width="0.5" stroke-linecap="round"/>
<path d="M44.6945 102.284L45.9208 103.746" stroke="black" stroke-width="0.5" stroke-linecap="round"/>
<path d="M47.7106 94.416C47.8517 95.4274 48.6279 97.415 49.8275 97.168" stroke="black" stroke-width="0.5" stroke-linecap="round"/>
<path d="M49.5806 97.4151C49.5806 97.662 49.903 97.6646 49.903 97.6646L50.2911 97.5588C50.2205 97.3824 50.0864 97.0226 49.9735 96.9943C49.8606 96.9661 49.5806 97.1681 49.5806 97.4151Z" fill="white"/>
<ellipse opacity="0.5" cx="42.6707" cy="98.3822" rx="1.98499" ry="1.117" transform="rotate(-78.6084 42.6707 98.3822)" fill="#FDAE46" fill-opacity="0.5"/>
<ellipse opacity="0.5" cx="46.3719" cy="104.72" rx="1.14053" ry="0.603799" transform="rotate(-101.174 46.3719 104.72)" fill="#FDAE46" fill-opacity="0.5"/>
<ellipse opacity="0.5" cx="45.7017" cy="104.401" rx="0.997012" ry="0.396568" transform="rotate(149.618 45.7017 104.401)" fill="#FDAE46" fill-opacity="0.5"/>
<path d="M46.1432 103.753L46.5868 104.723M46.0422 103.708L46.0521 104.727" stroke="black" stroke-width="0.5" stroke-linecap="round"/>
<path d="M41.7902 98.2255L42.4384 99.829M42.2595 97.8173C42.4566 98.0232 42.876 98.5402 42.9765 98.9603M42.6849 97.1303L43.4833 98.142" stroke="black" stroke-width="0.5" stroke-linecap="round"/>
<path d="M45.9432 103.732L45.5998 104.515" stroke="black" stroke-width="0.5" stroke-linecap="round"/>
<path d="M42.8065 108.177C42.9358 107.153 43.6038 104.909 45.2409 104.119" stroke="black" stroke-width="0.5" stroke-linecap="round"/>
<path d="M45.9498 103.751C49.5028 100.518 50.256 100.462 49.8096 99.0997C49.7414 98.8914 49.7258 98.5402 49.4602 97.7469C49.1946 96.9535 50.1196 96.6127 50.2991 96.9918L50.6112 97.8394C50.8493 98.0825 50.9847 97.6299 50.8375 96.846C50.6903 96.062 51.1668 96.2544 51.4235 96.4487L51.7997 97.3734C51.9797 97.7681 52.0415 97.2389 52.0415 95.5442C52.0415 93.8719 53.2146 94.381 53.3538 95.3279C53.5803 96.4291 53.9506 98.3718 54.1842 99.0261C54.4763 99.8439 54.9327 99.9988 55.8127 100.022C56.6927 100.045 56.6664 100.976 56.0482 101.451C55.43 101.925 54.256 101.686 53.7008 101.657C53.2567 101.634 50.4393 104.459 49.0053 107.581C47.7645 109.837 45.2055 112.234 43.6178 109.552" stroke="black" stroke-width="0.5" stroke-linecap="round"/>
<path d="M34.2104 99.8063L34.4959 99.3628C33.5137 100.467 32.2313 99.8862 31.4433 99.2403C31.1674 99.0143 31.109 98.6353 31.3621 98.384C31.5605 98.1869 31.8573 97.9517 32.2843 97.7086C33.1623 97.2086 33.5866 96.3791 33.689 96.0269L34.0062 94.9501C34.0377 94.843 34.0463 94.7297 34.0752 94.6219C34.1465 94.3563 34.4096 93.9481 35.1052 93.649C35.8718 93.3194 36.061 92.8122 36.064 92.5242C36.0647 92.4569 36.0575 92.3897 36.0595 92.3224L36.0741 91.8307C36.0792 91.6587 36.1281 91.4918 36.2172 91.3445C37.0518 89.9649 38.7124 87.2433 39.644 85.7988C40.6292 84.2714 42.2673 83.167 42.9633 82.8058C43.2318 82.6848 44.1117 82.5078 45.4834 82.7675C46.4559 82.9517 47.3459 84.0889 47.9356 85.1079C48.1139 85.4159 47.7699 85.699 47.4825 85.489C47.1692 85.26 46.7297 85.3276 46.4996 85.6401L43.2969 89.9903C44.6346 94.0032 43.4089 97.0138 41.3734 99.0229C40.6073 99.7792 40.2915 100.729 40.2143 101.632C40.1367 102.54 39.0721 103.427 38.2535 103.027L34.612 101.246C34.0743 100.983 33.8864 100.31 34.2104 99.8063Z" fill="black"/>
<path d="M34.4959 99.3628L34.2104 99.8063C33.8864 100.31 34.0743 100.983 34.612 101.246L38.2535 103.027C39.0721 103.427 40.1367 102.54 40.2143 101.632C40.2915 100.729 40.6073 99.7792 41.3734 99.0229C43.4089 97.0138 44.6346 94.0032 43.2969 89.9903M34.4959 99.3628C36.9836 94.901 42.2268 86.78 43.2969 89.9903M34.4959 99.3628C33.5137 100.467 32.2313 99.8862 31.4433 99.2403C31.1674 99.0143 31.109 98.6353 31.3621 98.384C31.5605 98.1869 31.8573 97.9517 32.2843 97.7086C33.1623 97.2086 33.5866 96.3791 33.689 96.0269L34.0062 94.9501C34.0377 94.843 34.0463 94.7297 34.0752 94.6219C34.1465 94.3563 34.4096 93.9481 35.1052 93.649C35.8718 93.3194 36.061 92.8122 36.064 92.5242C36.0647 92.4569 36.0575 92.3897 36.0595 92.3224L36.0741 91.8307C36.0792 91.6587 36.1281 91.4918 36.2172 91.3445C37.0518 89.9649 38.7124 87.2433 39.644 85.7988C40.6292 84.2714 42.2673 83.167 42.9633 82.8058C43.2318 82.6848 44.1117 82.5078 45.4834 82.7675C46.4559 82.9517 47.3459 84.0889 47.9356 85.1079C48.1139 85.4159 47.7699 85.699 47.4825 85.489V85.489C47.1692 85.26 46.7297 85.3276 46.4996 85.6401L43.2969 89.9903" stroke="black" stroke-width="0.5" stroke-linecap="round"/>
<path d="M109.067 50.9487C108.783 51.0665 108.422 51.6056 108.252 51.9729C108.04 52.432 105.667 58.3652 104.109 59.1775C102.862 59.8273 100.497 57.9414 99.4698 56.9172" stroke="black" stroke-width="0.5"/>
<path d="M101.763 52.0776C102.539 52.4321 104.405 53.3727 104.414 54.9121" stroke="black" stroke-width="0.5" stroke-linecap="round"/>
<path d="M104.423 54.8652C104.466 55.873 104.143 58.1024 102.504 58.958" stroke="black" stroke-width="0.5" stroke-linecap="round"/>
<path d="M97.8821 44.9504C96.2944 44.6211 93.0555 43.9555 92.8014 43.9272L91.3901 48.8668L96.2238 50.5603L97.8821 44.9504Z" fill="white"/>
<path d="M87.1916 49.0411C87.6476 48.7676 89.1186 48.4202 91.3549 49.2195" stroke="black" stroke-width="0.5" stroke-linecap="round"/>
<path d="M94.7067 37.7179L94.3539 40.6464L94.8126 41.4931H95.6593C96.2474 41.2109 97.4446 40.6181 97.5293 40.5052C97.6351 40.3641 97.988 40.0818 98.0585 40.0466C98.115 40.0183 98.6701 39.7761 98.9406 39.6585L99.3992 39.0587L99.5404 38.6C99.364 38.5294 98.997 38.3883 98.9406 38.3883C98.87 38.3883 97.8821 38.8117 97.741 38.9175C97.6281 39.0022 97.0118 39.2821 96.7178 39.4115C96.9883 39.1057 97.5716 38.4377 97.741 38.2119C97.9103 37.9861 97.9056 37.7885 97.8821 37.7179L97.5293 37.4004C97.3411 37.5062 96.9436 37.7179 96.8589 37.7179C96.7531 37.7179 96.2944 38.5294 96.2238 38.6C96.1674 38.6564 95.9181 39.0704 95.8005 39.2704L95.3771 37.7179H94.7067Z" fill="white"/>
<path d="M107.655 48.3379L108.047 45.3389L108.894 45.4085L109.031 47.2815C109.148 47.0814 109.397 46.667 109.453 46.6104C109.523 46.5397 109.981 45.7274 110.086 45.7272C110.171 45.7271 110.568 45.5146 110.756 45.4085L111.29 45.4085C111.314 45.479 111.138 45.9935 110.969 46.2196C110.8 46.4457 110.218 47.1147 109.948 47.421C110.242 47.2911 110.858 47.0101 110.971 46.9252C111.112 46.8191 112.099 46.3939 112.169 46.3938C112.226 46.3937 112.593 46.5342 112.77 46.6044L112.629 47.0634L112.172 47.664C111.901 47.7821 111.347 48.0253 111.29 48.0537C111.22 48.0891 110.936 48.4083 110.831 48.5496L112.065 48.3379L112.629 48.726C112.511 48.926 112.252 49.3399 112.169 49.3964C112.086 49.4528 110.654 49.8668 109.948 50.0668L109.805 50.1918C109.662 50.3618 109.518 50.496 109.384 50.5607L106.738 49.3964L107.655 48.3379Z" fill="white"/>
<path d="M94.3728 40.6945L94.6086 40.7774L94.6112 40.77L94.6134 40.7624L94.3728 40.6945ZM94.516 38.4887L94.2675 38.5156L94.516 38.4887ZM96.7954 37.7766L96.9995 37.9209L96.7954 37.7766ZM96.6242 39.6307L96.4789 39.4272L96.4632 39.4384L96.4494 39.4519L96.6242 39.6307ZM99.1214 39.4322L99.2761 39.6285L99.2971 39.612L99.3141 39.5914L99.1214 39.4322ZM97.6253 40.6483L97.4235 40.7958L97.458 40.8431L97.5101 40.8701L97.6253 40.6483ZM98.6637 40.3534L98.732 40.5939L98.7541 40.5876L98.7746 40.5774L98.6637 40.3534ZM98.7643 41.6195L98.8704 41.8459L98.8859 41.8387L98.9003 41.8294L98.7643 41.6195ZM94.3728 40.6945C94.1369 40.6115 94.137 40.6114 94.137 40.6114C94.137 40.6114 94.137 40.6113 94.1371 40.6112C94.1371 40.6112 94.1371 40.6112 94.1371 40.6112C94.1371 40.6112 94.137 40.6114 94.1369 40.6118C94.1366 40.6125 94.1361 40.6138 94.1354 40.6157C94.134 40.6195 94.1317 40.6257 94.1285 40.6342C94.1219 40.6513 94.1116 40.6776 94.097 40.7124C94.0679 40.782 94.0221 40.8856 93.9567 41.0175C93.826 41.2814 93.6171 41.6581 93.3072 42.1018C92.6876 42.9888 91.6642 44.144 90.0534 45.2005L90.3276 45.6186C91.9981 44.5229 93.0658 43.3205 93.7171 42.3881C94.0426 41.922 94.264 41.5235 94.4047 41.2395C94.4751 41.0976 94.5253 40.9841 94.5583 40.9052C94.5748 40.8657 94.587 40.8348 94.5953 40.8133C94.5994 40.8025 94.6026 40.7941 94.6048 40.7881C94.6059 40.785 94.6068 40.7826 94.6074 40.7809C94.6077 40.78 94.608 40.7792 94.6082 40.7787C94.6083 40.7784 94.6084 40.7781 94.6085 40.7779C94.6085 40.7778 94.6085 40.7777 94.6086 40.7776C94.6086 40.7775 94.6086 40.7774 94.3728 40.6945ZM94.6134 40.7624C94.7129 40.4101 94.8749 39.4804 94.7645 38.4618L94.2675 38.5156C94.37 39.4621 94.2168 40.3271 94.1322 40.6265L94.6134 40.7624ZM94.7645 38.4618C94.7347 38.1864 94.7773 38.0297 94.8257 37.9465C94.87 37.8701 94.9298 37.836 94.9965 37.8241C95.0704 37.8108 95.1566 37.8253 95.2281 37.8608C95.3062 37.8995 95.3229 37.9391 95.3227 37.9385L95.806 37.8104C95.7553 37.6191 95.599 37.4866 95.4503 37.4129C95.295 37.3358 95.1004 37.2975 94.9083 37.3319C94.7089 37.3676 94.5172 37.4819 94.3933 37.6954C94.2733 37.902 94.2308 38.1769 94.2675 38.5156L94.7645 38.4618ZM95.3227 37.9385C95.3691 38.1134 95.4311 38.4579 95.4648 38.774C95.4817 38.9318 95.4905 39.0739 95.4883 39.1793C95.4871 39.2327 95.4833 39.2681 95.4792 39.2879C95.4722 39.3225 95.4722 39.2784 95.522 39.2345L95.8528 39.6095C95.9356 39.5364 95.9598 39.4339 95.9692 39.3874C95.9817 39.326 95.9867 39.2572 95.9881 39.1899C95.991 39.0537 95.9798 38.8877 95.962 38.7209C95.9264 38.3877 95.8608 38.0168 95.806 37.8104L95.3227 37.9385ZM95.522 39.2345C95.5239 39.2329 95.5293 39.2282 95.5374 39.2224C95.5428 39.2186 95.5636 39.2039 95.5948 39.1928C95.6137 39.1861 95.7247 39.1491 95.8301 39.2315C95.9308 39.3102 95.926 39.4212 95.9253 39.4374C95.9239 39.4682 95.9168 39.4909 95.9149 39.497C95.912 39.5062 95.9094 39.5125 95.9084 39.5148C95.9064 39.5195 95.9056 39.5205 95.9079 39.5162C95.9179 39.4976 95.9422 39.4577 95.9823 39.3956C96.0599 39.2755 96.1792 39.0993 96.3114 38.9069C96.5752 38.523 96.8845 38.0835 96.9995 37.9209L96.5912 37.6323C96.4758 37.7956 96.165 38.2371 95.8993 38.6237C95.7668 38.8165 95.6441 38.9977 95.5623 39.1243C95.5227 39.1855 95.488 39.2412 95.4672 39.2801C95.4618 39.2901 95.4551 39.3032 95.4491 39.3173C95.4479 39.3199 95.4281 39.362 95.4257 39.4153C95.4249 39.4335 95.4206 39.5459 95.5221 39.6253C95.6284 39.7085 95.7409 39.6715 95.7618 39.6641C95.8151 39.6452 95.8511 39.611 95.8528 39.6095L95.522 39.2345ZM96.9995 37.9209C97.0451 37.8564 97.1346 37.7864 97.2517 37.7349C97.3687 37.6835 97.4823 37.6641 97.5584 37.6711C97.5953 37.6745 97.611 37.6828 97.6138 37.6847C97.6146 37.6852 97.6129 37.6841 97.6105 37.6811C97.6081 37.6779 97.6074 37.6756 97.6075 37.6761C97.6105 37.6858 97.6235 37.7768 97.492 38.0032L97.9244 38.2543C98.0731 37.9983 98.1519 37.7479 98.0859 37.5308C98.0102 37.2814 97.7871 37.1899 97.6041 37.1732C97.4217 37.1564 97.222 37.2018 97.0504 37.2772C96.8789 37.3526 96.7047 37.4717 96.5912 37.6323L96.9995 37.9209ZM97.492 38.0032C97.2235 38.4654 96.817 38.9713 96.543 39.2974C96.4136 39.4513 96.3018 39.5791 96.2688 39.621C96.2649 39.626 96.2551 39.6385 96.246 39.6528C96.2434 39.657 96.239 39.6642 96.2344 39.6732C96.231 39.6798 96.2209 39.6997 96.2139 39.727C96.2104 39.7407 96.2048 39.7674 96.2065 39.8014C96.2081 39.8357 96.2185 39.895 96.2648 39.9501C96.3664 40.071 96.5059 40.0348 96.5183 40.0316C96.5512 40.0233 96.5746 40.01 96.5812 40.0063C96.5911 40.0006 96.5988 39.9954 96.6031 39.9923C96.6119 39.9861 96.619 39.9803 96.623 39.9771C96.6314 39.9701 96.6399 39.9624 96.6471 39.9558C96.6757 39.9296 96.7262 39.8805 96.799 39.8094L96.4494 39.4519C96.3744 39.5253 96.3305 39.5678 96.3091 39.5874C96.3038 39.5923 96.3026 39.5932 96.3039 39.5921C96.3043 39.5918 96.3085 39.5882 96.3151 39.5836C96.3183 39.5813 96.325 39.5767 96.3342 39.5715C96.3399 39.5683 96.3627 39.5553 96.3952 39.547C96.4071 39.544 96.5462 39.5078 96.6476 39.6284C96.6939 39.6834 96.7042 39.7426 96.7058 39.7767C96.7075 39.8105 96.7019 39.837 96.6984 39.8505C96.6916 39.8772 96.6818 39.8965 96.6789 39.9021C96.6747 39.9104 96.6709 39.9165 96.669 39.9195C96.6629 39.9292 96.6584 39.9345 96.6619 39.9299C96.6893 39.8952 96.7803 39.7922 96.9258 39.619C97.2015 39.2909 97.6325 38.7569 97.9244 38.2543L97.492 38.0032ZM96.7695 39.8341C96.769 39.8345 96.77 39.8337 96.7736 39.8313C96.7769 39.8291 96.7812 39.8263 96.7868 39.8226C96.798 39.8153 96.8128 39.8058 96.8311 39.7941C96.8677 39.7707 96.9165 39.7398 96.975 39.7029C97.0915 39.6293 97.2454 39.5323 97.412 39.4263C97.7439 39.2152 98.1327 38.9642 98.3843 38.786L98.0952 38.378C97.8553 38.548 97.4766 38.7926 97.1436 39.0044C96.8206 39.2099 96.5263 39.3934 96.4789 39.4272L96.7695 39.8341ZM98.3843 38.786C98.4692 38.7258 98.6132 38.6679 98.7753 38.638C98.9395 38.6079 99.083 38.6137 99.1705 38.644C99.2116 38.6582 99.2267 38.673 99.231 38.6784C99.2324 38.6801 99.2394 38.6874 99.2387 38.7167C99.2367 38.7943 99.1791 38.9699 98.9287 39.2729L99.3141 39.5914C99.5803 39.2694 99.7322 38.9826 99.7385 38.7293C99.742 38.593 99.7029 38.4677 99.6211 38.3656C99.5422 38.2672 99.4371 38.2072 99.3341 38.1715C99.1335 38.102 98.8936 38.1079 98.6849 38.1463C98.4742 38.185 98.256 38.2641 98.0952 38.378L98.3843 38.786ZM98.9667 39.2358C98.8579 39.3215 98.701 39.4168 98.5167 39.5225C98.3392 39.6243 98.1356 39.7361 97.9596 39.8445C97.7871 39.9507 97.6112 40.071 97.4955 40.1999C97.4373 40.2648 97.3768 40.3507 97.3525 40.4561C97.3253 40.5744 97.3492 40.6941 97.4235 40.7958L97.8272 40.5008C97.838 40.5155 97.8453 40.5443 97.8398 40.5685C97.8371 40.5798 97.8366 40.5685 97.8677 40.5338C97.9307 40.4636 98.051 40.3754 98.2217 40.2703C98.3891 40.1673 98.5759 40.0649 98.7655 39.9562C98.9483 39.8513 99.135 39.7397 99.2761 39.6285L98.9667 39.2358ZM97.5101 40.8701C97.6384 40.9368 97.7748 40.9328 97.8816 40.9141C97.9902 40.8951 98.1002 40.8553 98.1984 40.815C98.2951 40.7752 98.402 40.7255 98.4893 40.687C98.583 40.6458 98.6631 40.6134 98.732 40.5939L98.5954 40.1129C98.4912 40.1425 98.3845 40.1869 98.288 40.2294C98.1851 40.2746 98.0983 40.3155 98.0083 40.3525C97.9196 40.389 97.8497 40.4121 97.7956 40.4216C97.7396 40.4313 97.7304 40.4211 97.7406 40.4264L97.5101 40.8701ZM98.7746 40.5774C98.9095 40.5106 99.0917 40.5798 99.1466 40.6959C99.1683 40.7417 99.1811 40.8172 99.1226 40.9332C99.0607 41.056 98.9182 41.222 98.6284 41.4097L98.9003 41.8294C99.2332 41.6137 99.4533 41.388 99.5691 41.1583C99.6883 40.9217 99.6939 40.6837 99.5986 40.4821C99.4196 40.1037 98.9287 39.9432 98.5528 40.1293L98.7746 40.5774ZM98.6583 41.3932C98.4116 41.5087 98.0011 41.6052 97.5869 41.716C97.3893 41.7689 97.1922 41.8252 97.0329 41.8874C96.9532 41.9185 96.8751 41.9541 96.8079 41.9958C96.7449 42.035 96.6673 42.0941 96.6183 42.1819L97.055 42.4254C97.0432 42.4466 97.0367 42.4423 97.0717 42.4206C97.1026 42.4014 97.1494 42.3787 97.2148 42.3531C97.3456 42.302 97.5187 42.2519 97.7162 42.199C98.0921 42.0984 98.5711 41.9862 98.8704 41.8459L98.6583 41.3932ZM96.6183 42.1819C96.5576 42.2909 96.4197 42.4725 96.2613 42.6472C96.0973 42.8279 95.9487 42.9594 95.873 42.9992L96.1057 43.4417C96.2678 43.3565 96.4685 43.1629 96.6316 42.9832C96.8002 42.7973 96.9671 42.5831 97.055 42.4254L96.6183 42.1819ZM90.0534 45.2005C88.3558 46.314 87.1644 48.1513 86.5039 49.8704C86.1729 50.7318 85.9713 51.5734 85.9077 52.293C85.8453 52.9999 85.9118 53.6351 86.168 54.045L86.592 53.7801C86.4249 53.5126 86.3459 53.0153 86.4058 52.337C86.4646 51.6716 86.6533 50.8757 86.9706 50.0497C87.6068 48.394 88.744 46.6573 90.3276 45.6186L90.0534 45.2005Z" fill="black"/>
<path d="M107.585 48.3378L107.779 48.4955L107.805 48.4634L107.819 48.4246L107.585 48.3378ZM103.545 52.9079C103.458 53.015 103.474 53.1724 103.581 53.2596C103.688 53.3467 103.846 53.3305 103.933 53.2234L103.545 52.9079ZM107.902 46.1503L107.652 46.1574L107.902 46.1503ZM110.231 45.6211L110.423 45.7811L110.231 45.6211ZM109.913 47.4557L109.785 47.2414L109.768 47.2513L109.753 47.2637L109.913 47.4557ZM112.418 47.4557L112.557 47.6638L112.579 47.6489L112.598 47.6298L112.418 47.4557ZM110.831 48.5495L110.618 48.6805L110.648 48.7304L110.698 48.7615L110.831 48.5495ZM111.889 48.3378L111.938 48.5829L111.961 48.5784L111.982 48.5699L111.889 48.3378ZM111.889 49.608L111.977 49.842L111.993 49.836L112.008 49.8279L111.889 49.608ZM107.391 48.18L103.545 52.9079L103.933 53.2234L107.779 48.4955L107.391 48.18ZM107.819 48.4246C107.946 48.0813 108.181 47.1673 108.152 46.1432L107.652 46.1574C107.679 47.1091 107.458 47.9592 107.35 48.251L107.819 48.4246ZM108.152 46.1432C108.144 45.8663 108.199 45.7135 108.254 45.6343C108.304 45.5617 108.366 45.5325 108.434 45.5259C108.509 45.5185 108.593 45.5398 108.662 45.5808C108.737 45.6256 108.75 45.6664 108.75 45.6658L109.242 45.5763C109.206 45.3817 109.061 45.2372 108.919 45.1519C108.77 45.0628 108.579 45.0091 108.385 45.0283C108.183 45.0481 107.983 45.1468 107.843 45.3498C107.707 45.5463 107.643 45.8169 107.652 46.1574L108.152 46.1432ZM108.75 45.6658C108.782 45.8438 108.817 46.1921 108.825 46.5099C108.83 46.6686 108.827 46.8109 108.817 46.9157C108.811 46.9689 108.805 47.0039 108.799 47.0233C108.789 47.0573 108.793 47.0133 108.846 46.9735L109.146 47.3735C109.234 47.3072 109.266 47.207 109.28 47.1613C109.297 47.1011 109.307 47.0329 109.314 46.9659C109.328 46.8305 109.33 46.664 109.325 46.4964C109.316 46.1614 109.28 45.7864 109.242 45.5763L108.75 45.6658ZM108.846 46.9735C108.848 46.972 108.854 46.9677 108.862 46.9626C108.868 46.9593 108.89 46.9462 108.922 46.9377C108.941 46.9325 109.055 46.9044 109.153 46.9949C109.247 47.0813 109.234 47.1916 109.232 47.2077C109.228 47.2383 109.219 47.2604 109.217 47.2663C109.213 47.2752 109.21 47.2813 109.209 47.2835C109.206 47.288 109.206 47.289 109.208 47.2849C109.22 47.2672 109.247 47.2293 109.292 47.1706C109.379 47.057 109.512 46.8908 109.659 46.7094C109.952 46.3477 110.295 45.9341 110.423 45.7811L110.039 45.461C109.911 45.6147 109.566 46.0302 109.27 46.3945C109.123 46.5762 108.986 46.7472 108.895 46.8668C108.85 46.9247 108.811 46.9775 108.788 47.0146C108.781 47.0242 108.774 47.0367 108.767 47.0502C108.765 47.0528 108.742 47.0932 108.736 47.1461C108.733 47.1642 108.72 47.2759 108.815 47.3631C108.914 47.4545 109.029 47.4265 109.051 47.4207C109.105 47.4061 109.144 47.3749 109.146 47.3735L108.846 46.9735ZM110.423 45.7811C110.473 45.7205 110.568 45.6578 110.689 45.6157C110.81 45.5737 110.924 45.5634 111 45.5764C111.036 45.5826 111.051 45.5922 111.054 45.5943C111.055 45.5949 111.053 45.5937 111.051 45.5905C111.049 45.5871 111.048 45.5847 111.048 45.5853C111.05 45.5951 111.056 45.6869 110.907 45.9022L111.318 46.1868C111.487 45.9433 111.585 45.7 111.537 45.4783C111.481 45.2237 111.266 45.1149 111.085 45.0836C110.904 45.0525 110.702 45.0819 110.525 45.1435C110.348 45.2051 110.165 45.31 110.039 45.461L110.423 45.7811ZM110.907 45.9022C110.603 46.3417 110.158 46.8137 109.859 47.1171C109.718 47.2603 109.596 47.3788 109.56 47.4179C109.555 47.4226 109.545 47.4343 109.534 47.4479C109.532 47.4519 109.527 47.4586 109.521 47.4673C109.517 47.4735 109.506 47.4926 109.497 47.5192C109.492 47.5326 109.484 47.5588 109.483 47.5928C109.482 47.6272 109.488 47.6871 109.53 47.7457C109.621 47.8742 109.763 47.8492 109.776 47.8471C109.809 47.8413 109.834 47.8299 109.841 47.8268C109.851 47.8219 109.859 47.8173 109.864 47.8146C109.873 47.8091 109.88 47.8039 109.885 47.801C109.893 47.7947 109.903 47.7877 109.91 47.7817C109.941 47.7578 109.995 47.7129 110.073 47.6478L109.753 47.2637C109.673 47.3309 109.625 47.3698 109.603 47.3876C109.597 47.3921 109.596 47.3929 109.597 47.3919C109.597 47.3916 109.602 47.3884 109.609 47.3844C109.612 47.3823 109.619 47.3783 109.629 47.3738C109.635 47.371 109.659 47.3599 109.692 47.3542C109.704 47.3521 109.845 47.3271 109.937 47.4554C109.978 47.5139 109.984 47.5736 109.983 47.6078C109.982 47.6417 109.974 47.6676 109.97 47.6807C109.961 47.7069 109.95 47.7253 109.946 47.7307C109.941 47.7386 109.937 47.7444 109.935 47.7473C109.928 47.7564 109.923 47.7613 109.927 47.7571C109.957 47.7246 110.056 47.6292 110.215 47.468C110.516 47.1628 110.988 46.6646 111.318 46.1868L110.907 45.9022ZM110.042 47.6701C110.041 47.6704 110.043 47.6697 110.046 47.6676C110.05 47.6657 110.054 47.6632 110.06 47.66C110.072 47.6536 110.087 47.6453 110.107 47.6351C110.145 47.6147 110.196 47.5877 110.257 47.5556C110.379 47.4914 110.54 47.4069 110.715 47.3145C111.062 47.1303 111.47 46.9109 111.735 46.7532L111.479 46.3236C111.226 46.474 110.829 46.6879 110.481 46.8727C110.142 47.0519 109.834 47.2114 109.785 47.2414L110.042 47.6701ZM111.735 46.7532C111.824 46.6999 111.972 46.6536 112.136 46.6367C112.302 46.6196 112.445 46.6368 112.53 46.6739C112.57 46.6914 112.583 46.7074 112.587 46.713C112.588 46.7148 112.595 46.7227 112.592 46.7518C112.584 46.8291 112.512 46.9995 112.239 47.2817L112.598 47.6298C112.889 47.3298 113.063 47.056 113.089 46.804C113.103 46.6684 113.074 46.5404 113.001 46.4322C112.93 46.3278 112.83 46.2596 112.73 46.2159C112.536 46.1307 112.296 46.1176 112.085 46.1393C111.872 46.1613 111.648 46.2228 111.479 46.3236L111.735 46.7532ZM112.28 47.2477C112.164 47.3245 112 47.4071 111.808 47.4979C111.623 47.5853 111.412 47.6807 111.228 47.7747C111.047 47.8669 110.862 47.9729 110.737 48.0923C110.674 48.1523 110.606 48.2332 110.574 48.3363C110.537 48.452 110.552 48.5733 110.618 48.6805L111.043 48.4185C111.053 48.434 111.058 48.4633 111.051 48.4869C111.047 48.498 111.047 48.4867 111.081 48.4546C111.15 48.3896 111.276 48.3112 111.455 48.2199C111.63 48.1305 111.824 48.0433 112.022 47.9499C112.213 47.8599 112.407 47.7634 112.557 47.6638L112.28 47.2477ZM110.698 48.7615C110.821 48.8382 110.957 48.8449 111.065 48.8348C111.175 48.8245 111.288 48.7935 111.389 48.7611C111.488 48.7291 111.599 48.688 111.689 48.6566C111.785 48.6229 111.868 48.597 111.938 48.5829L111.84 48.0926C111.734 48.1139 111.624 48.1497 111.524 48.1844C111.418 48.2214 111.328 48.2552 111.236 48.285C111.144 48.3143 111.073 48.3318 111.018 48.337C110.962 48.3423 110.953 48.3314 110.963 48.3375L110.698 48.7615ZM111.982 48.5699C112.122 48.514 112.298 48.5974 112.343 48.7175C112.361 48.7649 112.368 48.8411 112.301 48.9522C112.229 49.0697 112.074 49.2238 111.77 49.388L112.008 49.8279C112.357 49.6393 112.594 49.4318 112.728 49.2119C112.865 48.9855 112.89 48.7487 112.811 48.5402C112.662 48.1488 112.186 47.9499 111.796 48.1057L111.982 48.5699ZM111.801 49.3739C111.546 49.4695 111.129 49.5332 110.708 49.6108C110.506 49.6479 110.305 49.6884 110.142 49.7378C110.06 49.7625 109.979 49.7918 109.909 49.8281C109.843 49.8621 109.761 49.9148 109.705 49.9985L110.121 50.2759C110.108 50.2961 110.102 50.2913 110.138 50.2724C110.171 50.2557 110.219 50.2367 110.286 50.2164C110.421 50.1759 110.597 50.1396 110.798 50.1026C111.181 50.0321 111.667 49.9581 111.977 49.842L111.801 49.3739ZM109.705 49.9985C109.636 50.1024 109.484 50.2725 109.312 50.434C109.135 50.6012 108.976 50.7205 108.897 50.7542L109.094 51.2138C109.263 51.1416 109.478 50.9646 109.655 50.7983C109.838 50.6264 110.021 50.426 110.121 50.2759L109.705 49.9985Z" fill="black"/>
<path d="M41.007 105.318C40.6072 106.965 39.6804 113.426 39.1723 115.092C38.5373 117.173 55.2258 117.032 54.4848 115.162C53.8921 113.666 52.1327 106.236 51.627 103.378" stroke="black" stroke-width="0.5"/>
<path d="M39.5957 120.702L39.9838 115.974C44.6411 117.188 50.6155 116.656 53.0382 116.151L53.4263 120.702H47.0755C47.0755 120.702 46.6522 118.55 46.5816 118.62C46.5816 118.55 46.4757 120.702 46.4757 120.702H39.5957Z" fill="white"/>
<path d="M39.9838 115.974L40.0469 115.732C39.9754 115.714 39.8994 115.727 39.8392 115.77C39.7789 115.813 39.7407 115.88 39.7346 115.954L39.9838 115.974ZM39.5957 120.702L39.3465 120.681L39.3243 120.952H39.5957V120.702ZM46.4757 120.702V120.952H46.7138L46.7254 120.714L46.4757 120.702ZM46.5816 118.62H46.3316V119.224L46.7584 118.797L46.5816 118.62ZM47.0755 120.702L46.8302 120.75L46.8699 120.952H47.0755V120.702ZM53.4263 120.702V120.952H53.6986L53.6754 120.681L53.4263 120.702ZM53.0382 116.151L53.2873 116.129L53.2634 115.848L52.9872 115.906L53.0382 116.151ZM39.7346 115.954L39.3465 120.681L39.8449 120.722L40.233 115.995L39.7346 115.954ZM39.5957 120.952H46.4757V120.452H39.5957V120.952ZM46.4757 120.702C46.7254 120.714 46.7254 120.714 46.7254 120.714C46.7254 120.714 46.7254 120.714 46.7254 120.714C46.7254 120.714 46.7255 120.714 46.7255 120.714C46.7255 120.714 46.7255 120.713 46.7255 120.713C46.7256 120.712 46.7256 120.71 46.7257 120.708C46.7259 120.704 46.7262 120.698 46.7266 120.69C46.7274 120.674 46.7285 120.651 46.73 120.622C46.7329 120.563 46.737 120.479 46.742 120.379C46.7519 120.178 46.7651 119.912 46.7784 119.647C46.7916 119.383 46.8048 119.12 46.8147 118.929C46.8197 118.833 46.8238 118.755 46.8267 118.703C46.8281 118.677 46.8292 118.659 46.8299 118.648C46.8303 118.642 46.8303 118.642 46.83 118.645C46.83 118.645 46.8295 118.65 46.8285 118.657C46.8282 118.659 46.8265 118.671 46.8224 118.686C46.8194 118.696 46.8074 118.726 46.7971 118.745C46.7584 118.795 46.5746 118.868 46.4428 118.827C46.3927 118.782 46.3471 118.705 46.3401 118.684C46.3376 118.673 46.3344 118.657 46.3336 118.651C46.3323 118.64 46.3319 118.632 46.3318 118.63C46.3316 118.625 46.3316 118.621 46.3316 118.62H46.8316C46.8316 118.619 46.8316 118.614 46.8313 118.608C46.8312 118.605 46.8308 118.597 46.8295 118.587C46.8286 118.581 46.8255 118.564 46.8229 118.554C46.8159 118.532 46.7703 118.455 46.7202 118.411C46.5884 118.369 46.4046 118.442 46.3659 118.492C46.3556 118.512 46.3436 118.542 46.3406 118.552C46.3364 118.567 46.3346 118.579 46.3344 118.581C46.3332 118.588 46.3327 118.594 46.3325 118.595C46.3318 118.602 46.3313 118.611 46.3309 118.616C46.3301 118.629 46.3289 118.65 46.3274 118.676C46.3245 118.728 46.3203 118.807 46.3154 118.903C46.3055 119.095 46.2922 119.358 46.279 119.622C46.2657 119.887 46.2525 120.154 46.2426 120.354C46.2376 120.455 46.2335 120.539 46.2306 120.597C46.2291 120.627 46.228 120.65 46.2272 120.665C46.2268 120.673 46.2265 120.679 46.2263 120.683C46.2262 120.686 46.2262 120.687 46.2261 120.688C46.2261 120.689 46.2261 120.689 46.2261 120.689C46.2261 120.689 46.2261 120.689 46.226 120.69C46.226 120.69 46.226 120.69 46.226 120.69C46.226 120.69 46.226 120.69 46.4757 120.702ZM46.7584 118.797C46.7241 118.831 46.6673 118.866 46.5918 118.869C46.5221 118.87 46.4716 118.843 46.4462 118.825C46.4206 118.807 46.405 118.789 46.3981 118.78C46.3902 118.77 46.3854 118.762 46.3832 118.759C46.3771 118.748 46.3788 118.748 46.3872 118.772C46.4018 118.814 46.422 118.884 46.4465 118.978C46.4948 119.165 46.5535 119.424 46.6107 119.688C46.6677 119.951 46.7226 120.216 46.7633 120.417C46.7836 120.517 46.8004 120.6 46.812 120.659C46.8179 120.688 46.8224 120.711 46.8255 120.726C46.8271 120.734 46.8283 120.74 46.8291 120.744C46.8295 120.746 46.8298 120.748 46.83 120.749C46.83 120.749 46.8301 120.75 46.8302 120.75C46.8302 120.75 46.8302 120.75 46.8302 120.75C46.8302 120.75 46.8302 120.75 46.8302 120.75C46.8302 120.75 46.8302 120.75 47.0755 120.702C47.3208 120.654 47.3208 120.654 47.3208 120.654C47.3208 120.654 47.3208 120.654 47.3208 120.654C47.3208 120.654 47.3208 120.653 47.3208 120.653C47.3207 120.653 47.3206 120.653 47.3205 120.652C47.3203 120.651 47.32 120.649 47.3196 120.647C47.3188 120.643 47.3176 120.637 47.316 120.629C47.3129 120.613 47.3083 120.59 47.3024 120.561C47.2906 120.502 47.2737 120.418 47.2533 120.317C47.2124 120.116 47.157 119.848 47.0994 119.582C47.0419 119.316 46.9815 119.05 46.9306 118.853C46.9055 118.756 46.881 118.669 46.8589 118.606C46.849 118.578 46.8343 118.54 46.8144 118.505C46.8077 118.494 46.782 118.45 46.7323 118.415C46.704 118.395 46.6507 118.367 46.5785 118.369C46.5005 118.371 46.4413 118.407 46.4048 118.444L46.7584 118.797ZM47.0755 120.952H53.4263V120.452H47.0755V120.952ZM53.6754 120.681L53.2873 116.129L52.7891 116.172L53.1773 120.723L53.6754 120.681ZM52.9872 115.906C50.5864 116.407 44.6538 116.933 40.0469 115.732L39.9208 116.216C44.6283 117.443 50.6447 116.906 53.0893 116.395L52.9872 115.906Z" fill="black"/>
<path d="M89.4497 90.2179L88.0032 67.2492C92.6462 68.4592 97.5113 67.4436 99.9416 66.9363L99.9639 66.9316L100.493 88.3833H96.3651C96.3651 88.3833 94.5304 75.2583 94.4598 75.3288C94.2834 78.1514 93.6483 89.8651 93.6483 89.8651L89.4497 90.2179Z" fill="white"/>
<path d="M88.0032 67.2492L88.0662 67.0073C87.9886 66.987 87.906 67.0053 87.8442 67.0563C87.7823 67.1073 87.7486 67.1849 87.7537 67.2649L88.0032 67.2492ZM89.4497 90.2179L89.2002 90.2336L89.2163 90.4884L89.4707 90.4671L89.4497 90.2179ZM93.6483 89.8651L93.6693 90.1142L93.8862 90.096L93.898 89.8786L93.6483 89.8651ZM94.4598 75.3288L94.283 75.152L94.2162 75.2189L94.2103 75.3132L94.4598 75.3288ZM96.3651 88.3833L96.1175 88.4179L96.1476 88.6333H96.3651V88.3833ZM100.493 88.3833V88.6333H100.749L100.743 88.3771L100.493 88.3833ZM99.9639 66.9316L100.214 66.9255L100.206 66.6256L99.9128 66.6869L99.9639 66.9316ZM99.9416 66.9363L99.8905 66.6916L99.8905 66.6916L99.9416 66.9363ZM87.7537 67.2649L89.2002 90.2336L89.6993 90.2022L88.2527 67.2335L87.7537 67.2649ZM89.4707 90.4671L93.6693 90.1142L93.6274 89.616L89.4288 89.9688L89.4707 90.4671ZM93.6483 89.8651C93.898 89.8786 93.898 89.8786 93.898 89.8785C93.898 89.8784 93.898 89.8783 93.898 89.8781C93.898 89.8778 93.898 89.8772 93.8981 89.8765C93.8982 89.8751 93.8983 89.873 93.8984 89.8701C93.8987 89.8645 93.8992 89.8561 93.8998 89.845C93.901 89.8227 93.9028 89.7897 93.9051 89.7464C93.9098 89.6599 93.9167 89.5327 93.9256 89.3698C93.9433 89.044 93.9688 88.5755 94 88.0044C94.0622 86.8621 94.1471 85.3097 94.2375 83.6692C94.4184 80.3875 94.6212 76.7546 94.7093 75.3444L94.2103 75.3132C94.122 76.7257 93.9191 80.3609 93.7383 83.6417C93.6479 85.2824 93.563 86.8348 93.5007 87.9771C93.4695 88.5483 93.444 89.0169 93.4263 89.3427C93.4175 89.5056 93.4106 89.6328 93.4059 89.7193C93.4035 89.7626 93.4017 89.7956 93.4005 89.8179C93.3999 89.829 93.3995 89.8374 93.3992 89.8431C93.399 89.8459 93.3989 89.848 93.3988 89.8494C93.3988 89.8501 93.3987 89.8507 93.3987 89.851C93.3987 89.8512 93.3987 89.8514 93.3987 89.8514C93.3987 89.8515 93.3987 89.8516 93.6483 89.8651ZM94.6366 75.5056C94.6142 75.5254 94.5559 75.5595 94.5202 75.5713C94.4805 75.5777 94.4054 75.5724 94.3717 75.5622C94.3026 75.5359 94.2674 75.4872 94.2599 75.4771C94.2474 75.4598 94.2401 75.445 94.2371 75.4388C94.2336 75.4313 94.2313 75.4254 94.2301 75.4223C94.2266 75.4129 94.2262 75.4092 94.2286 75.4192C94.2325 75.4352 94.2386 75.4646 94.2471 75.5099C94.2638 75.5989 94.2868 75.7337 94.3152 75.9094C94.3718 76.2599 94.4491 76.7656 94.54 77.3757C94.7218 78.5954 94.9577 80.2288 95.1914 81.8649C95.4251 83.5009 95.6567 85.1392 95.8297 86.3684C95.9163 86.9831 95.9882 87.4954 96.0385 87.8541C96.0637 88.0335 96.0834 88.1744 96.0969 88.2705C96.1036 88.3186 96.1087 88.3554 96.1122 88.3802C96.114 88.3926 96.1153 88.4021 96.1161 88.4084C96.1166 88.4115 96.1169 88.4139 96.1171 88.4155C96.1173 88.4163 96.1173 88.4169 96.1174 88.4173C96.1174 88.4175 96.1174 88.4176 96.1175 88.4177C96.1175 88.4178 96.1175 88.4179 96.3651 88.3833C96.6127 88.3486 96.6127 88.3486 96.6126 88.3485C96.6126 88.3484 96.6126 88.3482 96.6126 88.348C96.6125 88.3476 96.6124 88.347 96.6123 88.3462C96.6121 88.3447 96.6118 88.3423 96.6113 88.3391C96.6104 88.3328 96.6091 88.3234 96.6074 88.311C96.6039 88.2861 96.5988 88.2493 96.592 88.2012C96.5786 88.1051 96.5588 87.9641 96.5337 87.7847C96.4834 87.4259 96.4114 86.9135 96.3249 86.2987C96.1517 85.0693 95.9202 83.4307 95.6864 81.7942C95.4526 80.1579 95.2166 78.5233 95.0346 77.3019C94.9436 76.6915 94.8659 76.1833 94.8087 75.8296C94.7802 75.6531 94.7565 75.5132 94.7386 75.4177C94.7298 75.3708 94.7216 75.3305 94.7144 75.3009C94.7113 75.2882 94.7061 75.2677 94.6987 75.2479C94.6968 75.2428 94.6862 75.2129 94.6637 75.1821C94.6555 75.1708 94.6195 75.1216 94.5498 75.095C94.5157 75.0847 94.4403 75.0793 94.4003 75.0858C94.3643 75.0977 94.3057 75.1319 94.283 75.152L94.6366 75.5056ZM96.3651 88.6333H100.493V88.1333H96.3651V88.6333ZM100.743 88.3771L100.214 66.9255L99.7139 66.9378L100.243 88.3894L100.743 88.3771ZM99.9128 66.6869L99.8905 66.6916L99.9926 67.181L100.015 67.1764L99.9128 66.6869ZM99.8905 66.6916C97.4557 67.1998 92.6452 68.2006 88.0662 67.0073L87.9401 67.4911C92.6471 68.7178 97.5669 67.6874 99.9926 67.181L99.8905 66.6916Z" fill="black"/>
<path d="M86.4998 52.7458C87.988 49.3242 92.6293 50.5329 92.6293 50.5329L97.7313 50.909C97.7313 50.909 101.709 50.3059 102.931 54.0418C103.595 56.0719 100.281 68.1627 100.281 68.1627L87.5893 67.8099C87.5893 67.8099 85.6053 54.8026 86.4998 52.7458Z" fill="white" stroke="black" stroke-width="0.5" stroke-linecap="round" stroke-linejoin="round"/>
<path fill-rule="evenodd" clip-rule="evenodd" d="M92.803 44.3844C93.4751 44.9887 95.1278 45.819 97.4267 45.1621L96.258 49.1927C96.2021 49.4183 95.9211 49.8281 95.2437 49.6622C94.6054 49.5059 92.6415 48.9223 91.5801 48.6022L92.803 44.3844ZM92.283 45.5196C90.5607 44.9395 91.3077 43.7724 91.8976 43.2605C91.6813 42.7555 91.395 41.377 92.4963 40.8664C93.2717 40.5069 93.8516 40.7766 94.4914 41.074C94.625 41.1362 94.7614 41.1996 94.9026 41.2587L95.9202 41.2387C96.5895 41.1605 97.0193 41.3011 97.1997 41.36C97.2217 41.3672 97.24 41.3732 97.2545 41.3774C98.5972 41.7668 98.7084 41.9441 99.0226 42.445C99.0628 42.5091 99.1063 42.5785 99.1561 42.6543C99.3584 43.1009 99.5684 43.5792 99.3389 44.0379C98.668 46.3981 97.436 50.7419 97.2772 51.34C97.1115 51.964 96.0297 52.1747 95.5095 52.202C95.4164 52.1941 94.8921 52.1127 93.5401 51.8505C92.1881 51.5883 91.3532 50.2078 91.1048 49.5503L91.3958 48.5465C91.3987 48.5474 91.4016 48.5483 91.4045 48.5491L92.283 45.5196Z" fill="black"/>
<path d="M95.5167 46.2467L96.3926 46.9348M93.1936 45.6486L92.2917 45.7457M93.9066 46.7991C93.4334 47.2943 92.742 48.3849 93.7624 48.7865" stroke="black" stroke-width="0.5" stroke-linecap="round"/>
<circle cx="92.8013" cy="46.8355" r="0.14233" transform="rotate(16.17 92.8013 46.8355)" fill="black"/>
<ellipse cx="95.2791" cy="47.4903" rx="0.14233" ry="0.121997" transform="rotate(16.17 95.2791 47.4903)" fill="black"/>
<path d="M93.4719 89.9355L90.0142 90.2178C90.0142 90.2178 87.7562 91.4174 87.7562 92.864C87.7562 94.3105 92.9427 92.864 93.4719 92.864C94.0011 92.864 93.4719 89.9355 93.4719 89.9355Z" fill="white" stroke="black" stroke-width="0.5"/>
<path d="M96.5852 88.3828H100.14C100.14 88.3828 101.692 91.1932 100.846 91.3337C99.999 91.4743 97.0809 91.3337 96.5852 91.3337C96.0894 91.3337 96.5852 88.3828 96.5852 88.3828Z" fill="white" stroke="black" stroke-width="0.5"/>
<path d="M106.526 49.8546L106.95 49.3253L107.303 49.29L107.655 49.8898L106.526 49.8546Z" fill="white"/>
</svg>
