<svg width="160" height="123" viewBox="0 0 160 123" fill="none" xmlns="http://www.w3.org/2000/svg">
<rect width="160" height="123" fill="white"/>
<path opacity="0.19" d="M129.216 111.387C131.091 106.854 124.655 99.8796 114.84 95.8084C105.026 91.7373 95.5495 92.1112 93.6748 96.6437C91.8 101.176 98.2366 108.151 108.051 112.222C117.866 116.293 127.342 115.919 129.216 111.387Z" fill="#FDAE46"/>
<path d="M73.4116 30.1038C73.4116 30.1038 63.7672 28.4295 69.6823 21.6052C69.6823 21.6052 60.8105 6.28075 78.9412 9.5007C78.9412 9.5007 96.6865 1.38813 100.544 14.3868L100.93 46.4511C100.93 46.4511 100.159 51.86 93.3427 53.4056C86.5266 54.9513 76.7538 54.4366 73.6637 47.3534L73.4116 30.1038Z" fill="#333333"/>
<path opacity="0.5" d="M108.732 65.8603C112.46 65.8603 115.483 64.3035 115.483 62.383C115.483 60.4626 112.46 58.9058 108.732 58.9058C105.003 58.9058 101.98 60.4626 101.98 62.383C101.98 64.3035 105.003 65.8603 108.732 65.8603Z" fill="#FDAE46"/>
<path d="M74.3127 24.1801C74.3127 24.1801 84.5345 28.6232 93.9918 21.8624L94.3772 40.213C94.3772 40.213 93.9918 42.7245 91.1619 43.1105C88.332 43.4965 74.3176 43.2391 74.3176 43.2391L74.3127 24.1801Z" fill="white" stroke="#333333" stroke-miterlimit="10"/>
<path d="M87.5562 28.6869L91.9295 30.3612" stroke="#333333" stroke-miterlimit="10" stroke-linecap="round"/>
<path d="M77.398 29.2031L74.1843 30.4898" stroke="#333333" stroke-miterlimit="10" stroke-linecap="round"/>
<path d="M81.7696 32.9377C81.7696 32.9377 77.7883 41.0503 83.57 41.3076" stroke="#333333" stroke-miterlimit="10" stroke-linecap="round"/>
<path d="M88.3336 34.5434C88.3239 34.5434 88.2751 34.5711 88.3157 34.5532C88.3564 34.5353 88.3157 34.5532 88.3157 34.5532L88.3483 34.5434C88.3483 34.5434 88.2799 34.5613 88.332 34.5434C88.384 34.5255 88.3157 34.5434 88.3141 34.5434C88.3125 34.5434 88.3759 34.5434 88.3434 34.5434H88.2995C88.2751 34.5434 88.3483 34.5434 88.3157 34.5434H88.2702H88.2507C88.2312 34.5434 88.2913 34.5434 88.2507 34.5434C88.2237 34.5373 88.1971 34.5297 88.171 34.5206L88.1482 34.5125C88.1352 34.5125 88.1482 34.5125 88.1482 34.5125L88.1092 34.4913C88.0584 34.46 88.0142 34.4191 87.9791 34.3708L87.9921 34.392C87.9388 34.3131 87.9152 34.2179 87.9254 34.1232V34.1477C87.9322 34.0837 87.9515 34.0217 87.9823 33.9652L87.997 33.9441C87.9888 33.9555 87.9856 33.9587 87.997 33.9441C88.0083 33.9294 88.0165 33.9196 88.0279 33.9082L88.0425 33.8952C88.0539 33.8822 88.0083 33.9196 88.0425 33.8952L88.0604 33.8838C88.088 33.8626 88.0149 33.9082 88.0441 33.8838C88.0734 33.8594 87.9937 33.905 88.0165 33.8968C88.0392 33.8887 87.9856 33.9066 87.984 33.9066C88.0197 33.8952 87.9173 33.918 87.953 33.9066H87.9156H87.9287C87.9287 33.9066 87.8717 33.9066 87.9043 33.9066C87.9368 33.9066 87.8929 33.9066 87.8896 33.9066C87.8864 33.9066 87.9254 33.918 87.9319 33.9196C87.9384 33.9213 87.9156 33.9082 87.9319 33.9196L87.9482 33.9278L87.9823 33.9522C88.0047 33.9705 88.0244 33.9919 88.0409 34.0157L88.0279 33.9962C88.0788 34.067 88.1035 34.1534 88.0978 34.2405V34.2161C88.0943 34.2495 88.085 34.282 88.0701 34.3122C88.0588 34.3333 88.0701 34.3122 88.0701 34.3122C88.0701 34.3122 88.0555 34.3301 88.0506 34.335C88.0458 34.3398 88.0214 34.3496 88.062 34.3268C88.0523 34.3268 88.0441 34.3398 88.036 34.3447C88.0279 34.3496 87.9742 34.392 87.9823 34.4229C87.9905 34.4539 88.0441 34.4604 88.0669 34.462C88.1846 34.467 88.3009 34.4357 88.4003 34.3724C88.4408 34.3515 88.4764 34.322 88.5045 34.286C88.5325 34.2501 88.5525 34.2084 88.5629 34.1639C88.5765 34.0855 88.5657 34.0048 88.532 33.9327C88.4999 33.8608 88.4466 33.8005 88.3792 33.76C88.2461 33.6974 88.094 33.6887 87.9547 33.7356C87.8381 33.7533 87.7295 33.8054 87.6426 33.8851C87.5557 33.9649 87.4945 34.0688 87.4668 34.1835C87.4486 34.2723 87.4588 34.3647 87.496 34.4473C87.5391 34.5349 87.6085 34.6066 87.6945 34.6526C87.8395 34.717 87.9978 34.7464 88.1563 34.7382C88.3148 34.73 88.4692 34.6844 88.6068 34.6053C88.6345 34.5907 88.6898 34.5613 88.7012 34.5271C88.7126 34.4929 88.6882 34.4767 88.6605 34.4685C88.5488 34.4509 88.4344 34.471 88.3352 34.5255L88.3336 34.5434Z" fill="#333333"/>
<path d="M77.3329 34.8417L77.2727 34.8824C77.2418 34.9019 77.3133 34.8628 77.2727 34.8824L77.2467 34.8938C77.2255 34.9052 77.302 34.8726 77.2564 34.8938C77.2109 34.9149 77.2678 34.8938 77.2792 34.8938C77.2669 34.8955 77.2549 34.8988 77.2434 34.9035C77.3182 34.8807 77.2808 34.8954 77.2613 34.9035C77.2418 34.9117 77.315 34.9035 77.2711 34.9035H77.2418C77.206 34.9035 77.2418 34.9035 77.2515 34.9035C77.2397 34.9011 77.2276 34.9011 77.2158 34.9035C77.2039 34.9045 77.1919 34.9045 77.18 34.9035H77.1914H77.1735C77.1498 34.8998 77.1264 34.8944 77.1035 34.8873L77.1458 34.9166C77.0896 34.7665 77.069 34.6053 77.0857 34.4459V34.4671C77.098 34.3784 77.1315 34.2941 77.1832 34.2211L77.193 34.2097L77.2141 34.1885C77.2239 34.1788 77.245 34.169 77.2141 34.1885L77.2337 34.1755C77.2483 34.1657 77.2727 34.1625 77.2174 34.1853C77.2353 34.1771 77.2646 34.169 77.1914 34.1934C77.2125 34.1934 77.2434 34.182 77.1605 34.2032H77.1832L77.1523 34.2113C77.0808 34.226 77.1052 34.2113 77.1263 34.2113C77.1475 34.2113 77.1686 34.2113 77.1068 34.2113H77.1312H77.1556C77.1149 34.2113 77.1312 34.2113 77.1458 34.2113L77.193 34.2227H77.2141C77.2385 34.2309 77.1946 34.213 77.2141 34.2227L77.2548 34.2439C77.2807 34.262 77.3042 34.2834 77.3247 34.3074L77.3101 34.2895C77.34 34.3295 77.3566 34.378 77.3573 34.428C77.3573 34.4556 77.4272 34.4622 77.4402 34.4622C77.4985 34.4643 77.5568 34.4566 77.6126 34.4394C77.6704 34.4271 77.7255 34.4045 77.7752 34.3726C77.7996 34.3547 77.8305 34.3351 77.8289 34.3009C77.8218 34.2349 77.7939 34.1729 77.7491 34.124C77.7043 34.0751 77.6451 34.0418 77.5801 34.0289C77.4934 34.0045 77.4027 33.9979 77.3133 34.0094C77.1661 34.0241 77.0234 34.0684 76.8937 34.1397C76.8154 34.1877 76.7499 34.2543 76.7031 34.3335C76.6564 34.4127 76.6297 34.5022 76.6254 34.5941C76.6184 34.6851 76.6244 34.7767 76.6433 34.8661C76.6518 34.9074 76.6627 34.9482 76.6758 34.9882C76.6872 35.0241 76.6921 35.0469 76.7311 35.0615L76.801 35.0778C76.9635 35.1047 77.1297 35.097 77.2889 35.055C77.4396 35.0218 77.5818 34.9581 77.7069 34.8677C77.7248 34.8563 77.7703 34.827 77.7622 34.796C77.7541 34.7651 77.6988 34.7618 77.6793 34.7618C77.621 34.7604 77.5628 34.7681 77.5069 34.7846C77.4489 34.7964 77.3938 34.8191 77.3442 34.8514L77.3329 34.8417Z" fill="#333333"/>
<path d="M100.673 47.2296C100.673 47.2296 98.4871 57.9172 108.902 59.3341C108.902 59.3341 127.931 58.8195 131.92 87.9227C135.91 117.026 135.136 115.223 135.136 115.223" stroke="#333333" stroke-miterlimit="10" stroke-linecap="round"/>
<path d="M75.7261 50.3241C75.7261 50.3241 78.2991 58.9562 70.5836 61.3993C62.8681 63.8423 57.8524 63.3309 49.366 80.587" stroke="#333333" stroke-miterlimit="10" stroke-linecap="round"/>
<path d="M113.533 78.1373L111.298 84.688L106.331 99.2551" stroke="#333333" stroke-miterlimit="10" stroke-linecap="round"/>
<path d="M131.92 87.9243C131.92 87.9243 121.891 81.6131 112.118 83.9323" stroke="#333333" stroke-miterlimit="10" stroke-linecap="round"/>
<path opacity="0.5" d="M85.886 85.115L77.1605 68.0039C76.9276 67.4341 76.5315 66.946 76.0221 66.6011C75.5128 66.2562 74.913 66.07 74.2981 66.0657C72.1172 66.0299 56.9529 66.0657 56.9529 66.0657C56.9529 66.0657 55.7591 66.0657 56.8504 68.5886C57.5172 70.131 66.3923 87.3447 66.3923 87.3447L85.886 85.115Z" fill="#FDAE46"/>
<path d="M60.8107 82.4534L29.9487 82.6456C29.9487 82.6456 28.2134 82.3556 27.9239 84.8752C27.6344 87.3949 28.0215 116.255 28.0215 116.255L70.4566 116.353L70.3591 83.0316L60.8107 82.4534Z" stroke="#333333" stroke-miterlimit="10"/>
<path d="M84.7751 84.0203L116.6 106.62" stroke="#333333" stroke-miterlimit="10" stroke-linecap="round"/>
<path d="M112.5 116H140.5" stroke="#333333" stroke-miterlimit="10"/>
<path d="M89.5502 116.596L20 116.596" stroke="#333333" stroke-miterlimit="10"/>
<path d="M90.6364 88.1816C90.6364 88.1816 95.3936 80.5837 87.9367 77.3638C87.9367 77.3638 86.0078 77.7498 86.9072 79.5527C87.8065 81.3557 87.5496 84.061 84.7213 84.3183C81.8931 84.5757 65.5611 84.833 65.5611 84.833C65.5611 84.833 60.9389 87.1507 63.8957 90.8788C64.2828 91.2648 71.6112 92.4244 71.6112 92.4244L65.3106 94.8674C65.3106 94.8674 62.4824 97.5727 66.7256 98.7307C67.4965 98.7307 73.4116 97.5727 73.4116 97.5727L68.9114 101.058C68.9114 101.058 66.854 103.763 69.9393 104.153C70.5898 104.281 78.0418 102.736 78.0418 102.736L93.4712 120" fill="white"/>
<path d="M90.6364 88.1816C90.6364 88.1816 95.3936 80.5837 87.9367 77.3638C87.9367 77.3638 86.0078 77.7498 86.9072 79.5527C87.8065 81.3557 87.5496 84.061 84.7213 84.3183C81.8931 84.5757 65.5611 84.833 65.5611 84.833C65.5611 84.833 60.9389 87.1506 63.8957 90.8788C64.2828 91.2648 71.6112 92.4244 71.6112 92.4244L65.3106 94.8674C65.3106 94.8674 62.4824 97.5727 66.7256 98.7307C67.4965 98.7307 73.4116 97.5727 73.4116 97.5727L68.9114 101.058C68.9114 101.058 66.854 103.763 69.9393 104.153C70.5898 104.281 78.0418 102.736 78.0418 102.736L93.4712 120" stroke="#333333" stroke-miterlimit="10" stroke-linecap="round"/>
<path d="M82.2853 84.1897L74.0558 69.1226C74.0558 69.1226 73.4053 67.4483 71.3545 67.4157C69.3036 67.3831 54.9916 67.4157 54.9916 67.4157C54.9916 67.4157 53.8661 67.4157 54.8956 69.6373C55.525 70.9956 63.8959 86.1523 63.8959 86.1523L82.2853 84.1897Z" fill="#333333"/>
<path d="M67.6658 80.3967C69.2134 80.3967 70.468 79.1403 70.468 77.5904C70.468 76.0406 69.2134 74.7842 67.6658 74.7842C66.1181 74.7842 64.8635 76.0406 64.8635 77.5904C64.8635 79.1403 66.1181 80.3967 67.6658 80.3967Z" fill="#FDAE46"/>
<path opacity="0.5" d="M47.6305 108.267C50.3099 108.267 52.482 106.092 52.482 103.408C52.482 100.725 50.3099 98.5499 47.6305 98.5499C44.9511 98.5499 42.7791 100.725 42.7791 103.408C42.7791 106.092 44.9511 108.267 47.6305 108.267Z" fill="#FDAE46"/>
<path d="M68.6415 75.5689C68.461 75.3816 68.6952 75.0298 68.7944 74.8556C68.9229 74.6152 69.0949 74.4009 69.3018 74.2236C69.7409 73.8653 70.3427 73.9728 70.8566 74.0787C70.9688 74.0918 71.0823 74.0702 71.1819 74.0168C71.2193 73.9989 71.3445 73.9207 71.2404 73.8995C70.5086 73.748 69.6889 73.7122 69.0367 74.1406C68.7574 74.3342 68.5255 74.5887 68.3585 74.8849C68.2268 75.1064 67.9698 75.494 68.1959 75.7285C68.2772 75.8132 68.7082 75.6422 68.6399 75.5657L68.6415 75.5689Z" fill="#FDAE46"/>
<path d="M106.118 59.3375C105.124 60.5089 104.011 61.5743 102.798 62.5167C102.715 62.5802 102.755 62.6584 102.842 62.6796C102.901 62.6894 102.961 62.6866 103.018 62.6715C103.076 62.6563 103.13 62.6291 103.176 62.5916C104.411 61.6288 105.544 60.5404 106.555 59.344C106.63 59.2577 106.492 59.2121 106.428 59.2088C106.37 59.2065 106.313 59.2168 106.259 59.239C106.205 59.2613 106.157 59.2948 106.118 59.3375Z" fill="#333333"/>
<path d="M108.393 59.6794C107.918 60.7052 107.287 61.6513 106.523 62.484C106.506 62.5024 106.494 62.5247 106.489 62.5489C106.483 62.5731 106.483 62.5983 106.49 62.6223C106.496 62.6463 106.508 62.6683 106.526 62.6863C106.543 62.7042 106.564 62.7176 106.588 62.725C106.645 62.7431 106.706 62.7442 106.764 62.7283C106.821 62.7124 106.873 62.6802 106.913 62.6355C107.704 61.7763 108.358 60.8001 108.852 59.7413C108.967 59.4921 108.492 59.4774 108.398 59.6794H108.393Z" fill="#333333"/>
<path d="M111.129 59.8275L109.855 62.795C109.751 63.0361 110.225 63.0214 110.303 62.839L111.578 59.8731C111.68 59.6321 111.207 59.6451 111.129 59.8275Z" fill="#333333"/>
<path d="M107.082 104.176C108.689 104.019 110.285 103.776 111.865 103.448C111.957 103.43 112.088 103.335 112.059 103.228C112.03 103.12 111.872 103.115 111.781 103.133C110.243 103.452 108.689 103.687 107.126 103.838C107.029 103.848 106.876 103.91 106.866 104.027C106.856 104.145 106.99 104.19 107.082 104.176Z" fill="#333333"/>
<path d="M108.948 106.189L113.677 104.853C113.965 104.773 113.887 104.472 113.598 104.554L108.868 105.891C108.58 105.97 108.658 106.272 108.948 106.189Z" fill="#333333"/>
<path opacity="0.5" d="M46.7947 96.6803C46.7947 96.6803 48.7122 90.5971 54.8956 92.5646C54.8956 92.5646 54.6826 96.5012 46.7947 96.6803Z" fill="#FDAE46"/>
<path d="M74.3127 60.9482C74.3127 60.9482 86.6471 79.2906 100.93 58.9058" stroke="#333333" stroke-miterlimit="10"/>
</svg>
