<svg width="160" height="160" viewBox="0 0 160 160" fill="none" xmlns="http://www.w3.org/2000/svg">
<rect width="160" height="160" rx="8" fill="white"/>
<path d="M30.1081 66.4855L44.6351 64.1611L47.5405 75.7828H48.7027L52.1892 94.3773L31.8513 100.769L30.1081 66.4855Z" fill="white"/>
<path d="M53.3513 85.0803L50.0388 90.8066C50.9271 91.7365 53.7135 94.2541 54.6596 94.9141C56.1796 95.9739 57.2838 96.7909 59.1621 96.1208C61.1557 95.4089 63.9038 93.1484 64.7446 92.3303C65.8657 91.2387 66.1273 91.3053 68.1747 88.7555C71.0467 85.1763 73.8885 80.4662 73.8885 80.4662C73.8885 80.4662 75.5955 78.9601 76.1527 78.1051C76.8902 76.9745 78.4033 74.2714 77.7037 74.0867C77.0258 73.9081 76.8748 74.2452 76.5279 74.06C76.2267 73.8997 76.4054 73.2453 75.7804 73.1254C75.1078 72.996 74.7894 74.0673 74.6286 73.4758C74.5366 73.1371 74.5565 72.7537 73.9447 72.6008C72.7762 72.307 72.8714 75.1989 72.2657 75.2359C71.747 75.2679 71.7583 74.6269 72.0725 73.9717C72.3135 73.4691 71.9992 73.2464 71.3358 73.2458C71.0498 73.2471 70.5786 73.3905 70.4256 74.1414C70.1077 75.6944 70.3761 76.4919 70.1201 77.6641C69.7394 79.4021 66.1701 83.4642 66.1701 83.4642C62.145 87.7913 60.9888 89.0273 58.5811 88.7555C56.1733 88.4836 55.6757 87.4046 56.2501 86.2808C54.1665 84.19 53.3513 85.0803 53.3513 85.0803Z" fill="white" stroke="black" stroke-miterlimit="10"/>
<path d="M38.7242 64.3832L39.6043 59.1511L49.4402 57.3127L51.2636 57.0679L52.069 60.6215C52.069 60.6215 51.2852 65.1768 48.7627 67.5257C46.2402 69.8745 46.4627 70.4873 43.3358 70.4057" fill="white"/>
<path d="M38.7242 64.3832L39.6043 59.1511L49.4402 57.3127L51.2636 57.0679L52.069 60.6215C52.069 60.6215 51.2852 65.1768 48.7627 67.5257C46.2402 69.8745 46.4627 70.4873 43.3358 70.4057" stroke="black" stroke-miterlimit="10"/>
<path d="M30.3067 104.073L29.8331 108.536C29.7508 109.601 30.6291 110.499 31.7038 110.445L53.336 109.371C54.4258 109.318 55.2117 108.315 55.0001 107.253L51.43 88.2061" fill="white"/>
<path d="M30.3067 104.073L29.8331 108.536C29.7508 109.601 30.6291 110.499 31.7038 110.445L53.336 109.371C54.4258 109.318 55.2117 108.315 55.0001 107.253L51.43 88.2061" stroke="black" stroke-miterlimit="10"/>
<path d="M25.3434 82.2746L17.6895 71.4475L18.8802 70.4241C18.8802 70.4241 17.3497 70.5092 15.6494 68.1217C13.9491 65.7342 16.0374 65.7292 16.8085 65.5005C16.8085 65.5005 20.1092 65.6074 21.3849 64.1098C22.6605 62.6122 23.3666 60.9877 25.5366 61.4986C27.7065 62.0094 28.5292 59.1495 28.5292 59.1495L35.0141 55.1425C35.0141 55.1425 43.2326 49.6797 47.6125 51.5129C51.9924 53.3461 52.1123 57.0408 52.0623 58.091C52.0123 59.1428 51.7249 60.5815 51.7249 60.5815L50.2054 58.0492L41.1626 62.5821C41.1626 62.5821 40.6946 69.4023 33.7634 73.6229C33.7634 73.6213 26.6407 75.0922 25.3434 82.2746Z" fill="black" stroke="black" stroke-miterlimit="10"/>
<path d="M31.7935 74.8613C31.0168 74.9457 30.141 75.2053 29.1659 75.666C25.2708 77.5073 24.9312 86.0635 24.9312 86.0635L32.5147 88.8393C32.5147 88.8393 32.2407 89.3178 32.0205 92.6079C31.9885 93.0751 31.7952 96.203 32.0423 96.5842C33.4881 98.8133 34.8901 98.6851 41.0984 98.9041C41.0984 98.9041 46.7823 98.9333 48.423 97.9794C49.5292 97.3354 49.9764 96.5242 51.4272 95.653C52.1282 95.2312 52.567 95.5232 52.7653 95.7633C53.2226 96.323 53.263 96.7513 52.6981 96.9168C51.9618 97.1326 51.4457 97.5933 51.829 98.007C52.2761 98.4904 54.5036 96.2889 55.0769 97.4895C55.3778 98.1173 55.0601 98.3817 54.855 98.7078C54.4969 99.2773 55.5661 98.7597 55.9275 99.4217C56.2637 100.037 55.6215 100.366 55.7022 100.737C55.7947 101.166 56.1662 101.046 56.4924 101.748C56.8286 102.473 53.6412 103.181 52.2358 103.388C51.1733 103.546 48.8013 103.211 48.8013 103.211C48.8013 103.211 43.1057 104.271 38.2859 104.475C34.8514 104.62 34.7237 104.35 33.0846 104.206C31.8557 104.097 28.164 103.873 26.224 102.715C24.3966 101.623 24.2857 99.6585 24.0772 97.5998C23.9478 96.3182 23.8234 94.0193 23.9478 92.5884C24.2941 88.6332 24.9077 86.2873 24.9077 86.2873L32.7685 88.716C32.7685 88.716 32.9837 88.3607 33.3065 87.7718" fill="white"/>
<path d="M31.7935 74.8613C31.0168 74.9457 30.141 75.2053 29.1659 75.666C25.2708 77.5073 24.9312 86.0635 24.9312 86.0635L32.5147 88.8393C32.5147 88.8393 32.2407 89.3178 32.0205 92.6079C31.9885 93.0751 31.7952 96.203 32.0423 96.5842C33.4881 98.8133 34.8901 98.6851 41.0984 98.9041C41.0984 98.9041 46.7823 98.9333 48.423 97.9794C49.5292 97.3353 49.9764 96.5242 51.4272 95.653C52.1282 95.2312 52.567 95.5232 52.7653 95.7633C53.2226 96.323 53.263 96.7513 52.6981 96.9168C51.9618 97.1326 51.4457 97.5933 51.829 98.007C52.2761 98.4904 54.5036 96.2889 55.0769 97.4895C55.3778 98.1173 55.0601 98.3817 54.855 98.7078C54.4969 99.2773 55.5661 98.7597 55.9275 99.4217C56.2637 100.037 55.6216 100.366 55.7022 100.737C55.7947 101.166 56.1662 101.046 56.4924 101.748C56.8286 102.473 53.6412 103.181 52.2358 103.388C51.1733 103.546 48.8013 103.211 48.8013 103.211C48.8013 103.211 43.1057 104.271 38.2859 104.475C34.8514 104.62 34.7237 104.35 33.0846 104.206C31.8557 104.097 28.164 103.873 26.224 102.715C24.3966 101.623 24.2857 99.6585 24.0772 97.5998C23.9478 96.3182 23.8234 94.0193 23.9478 92.5884C24.2941 88.6332 24.9077 86.2873 24.9077 86.2873L32.7685 88.716C32.7685 88.716 32.9837 88.3607 33.3065 87.7718" stroke="black" stroke-miterlimit="10"/>
<path d="M50.892 88.2062L57.9998 87.3104L56.6274 82.3186C56.6274 82.3186 55.1313 74.5743 50.3922 74.8935C45.6531 75.2127 46.1529 70.4131 46.1529 70.4131" fill="white"/>
<path d="M50.892 88.2062L57.9998 87.3104L56.6274 82.3186C56.6274 82.3186 55.1313 74.5743 50.3922 74.8935C45.6531 75.2127 46.1529 70.4131 46.1529 70.4131" stroke="black" stroke-miterlimit="10"/>
<path d="M48.5949 62.8348C49.4727 62.6407 50.3589 62.5019 51.255 62.4249C51.3905 62.4132 51.5058 62.3179 51.5058 62.174C51.5058 62.0469 51.3905 61.9114 51.255 61.9231C50.3154 62.005 49.3824 62.1472 48.4612 62.3513C48.1468 62.4199 48.2806 62.9051 48.5949 62.8348Z" fill="black"/>
<path opacity="0.76" d="M37.6791 76.0156C37.9396 74.8963 36.7707 73.6673 35.0683 73.2707C33.366 72.874 31.7747 73.4598 31.5142 74.5792C31.2536 75.6985 32.4225 76.9275 34.1249 77.3242C35.8273 77.7209 37.4185 77.135 37.6791 76.0156Z" fill="#FDAE46" fill-opacity="0.5"/>
<path opacity="0.76" d="M84.8025 34.461C84.9364 26.9771 77.3002 20.7714 67.7466 20.6003C58.1929 20.4292 50.3396 26.3573 50.2057 33.8413C50.0718 41.3252 57.708 47.5308 67.2616 47.702C76.8153 47.8731 84.6686 41.9449 84.8025 34.461Z" fill="#FFFEFE"/>
<path opacity="0.76" d="M82.8056 34.2875C82.9209 27.8436 75.2696 22.4811 65.716 22.3099C56.1623 22.1388 48.3241 27.2238 48.2088 33.6677C48.0935 40.1116 55.7448 45.4742 65.2984 45.6453C74.8521 45.8165 82.6903 40.7314 82.8056 34.2875Z" fill="#FDAE46" fill-opacity="0.5"/>
<path opacity="0.76" d="M31.1567 99.6792C32.4377 99.2955 33.2601 98.2626 32.9937 97.3722C32.7272 96.4818 31.4729 96.071 30.1919 96.4547C28.911 96.8384 28.0885 97.8712 28.355 98.7617C28.6214 99.6521 29.8758 100.063 31.1567 99.6792Z" fill="#FDAE46" fill-opacity="0.5"/>
<path d="M46.1542 62.035C45.8649 61.6652 45.4753 61.3993 45.0807 61.1517C44.6343 60.8723 44.1829 60.603 43.7248 60.3403C42.8052 59.815 41.8655 59.3249 40.9091 58.8698C40.6182 58.7327 40.3641 59.1643 40.6567 59.3031C41.5896 59.7464 42.5059 60.2215 43.4037 60.7334C43.8401 60.9827 44.2732 61.2387 44.7012 61.5046C45.1058 61.7556 45.5021 62.0099 45.7997 62.3896C45.9987 62.6439 46.3514 62.2859 46.1542 62.035Z" fill="black"/>
<path d="M48.5234 64.8651C48.8461 64.8651 48.8461 64.3633 48.5234 64.3633C48.2007 64.3633 48.199 64.8651 48.5234 64.8651Z" fill="black"/>
<path d="M44.2526 63.955C44.5753 63.955 44.5753 63.4531 44.2526 63.4531C43.9299 63.4531 43.9299 63.955 44.2526 63.955Z" fill="black"/>
<path d="M45.5638 65.3588C45.5638 65.3588 45.5722 65.424 45.5705 65.4073C45.5688 65.3889 45.5755 65.4508 45.5772 65.4575C45.5822 65.5043 45.5872 65.5495 45.5922 65.5963C45.6006 65.6884 45.609 65.7804 45.6123 65.874C45.6156 65.9543 45.6223 66.0346 45.6173 66.1149C45.6156 66.1384 45.6073 66.1601 45.6173 66.1267C45.6156 66.1333 45.5973 66.1886 45.6106 66.1601C45.624 66.1267 45.5789 66.2053 45.619 66.1534C45.6073 66.1668 45.5939 66.1785 45.5822 66.1919C45.5588 66.217 45.6257 66.1651 45.5738 66.1986C45.5621 66.207 45.5504 66.2136 45.5371 66.222C45.502 66.2438 45.4652 66.2655 45.4284 66.2839C45.3916 66.304 45.3531 66.3207 45.3164 66.3391C45.308 66.3425 45.3013 66.3458 45.293 66.3491C45.3097 66.3425 45.3113 66.3408 45.2946 66.3475C45.2746 66.3558 45.2562 66.3625 45.2361 66.3692C45.1575 66.3977 45.0773 66.4211 44.9953 66.4395C44.9586 66.4479 44.9218 66.4529 44.885 66.4612C44.8582 66.4663 44.9101 66.4596 44.8649 66.4646C44.8398 66.4679 44.8148 66.4696 44.7897 66.4713C44.6593 66.4813 44.5322 66.5783 44.5389 66.7222C44.5439 66.8493 44.6492 66.9848 44.7897 66.9731C44.9953 66.9564 45.1993 66.9179 45.3933 66.846C45.5872 66.7741 45.8029 66.6804 45.9534 66.5332C46.1223 66.3676 46.1289 66.14 46.1189 65.9192C46.1089 65.6884 46.0838 65.4592 46.0504 65.23C46.032 65.0995 45.8598 65.0159 45.741 65.0543C45.5956 65.0962 45.5438 65.2183 45.5638 65.3588Z" fill="black"/>
<path d="M42.6727 69.4425C43.0657 69.1631 43.5422 68.8202 44.0287 68.8185C44.3982 68.8168 44.848 68.9255 45.1289 69.1782C45.368 69.3923 45.7241 69.0393 45.4834 68.8235C45.1088 68.4872 44.5604 68.325 44.0638 68.3166C43.4536 68.3066 42.8985 68.6696 42.4186 69.0092C42.3083 69.0878 42.2564 69.2283 42.3283 69.3521C42.3935 69.4609 42.5607 69.5211 42.6727 69.4425Z" fill="black"/>
<path d="M32.116 74.4347C32.34 74.4799 32.549 74.5635 32.758 74.6556C32.9804 74.7543 33.2045 74.8513 33.4168 74.9701C33.7729 75.1675 34.1374 75.4468 34.2127 75.8718C34.2311 75.9721 34.3531 76.029 34.4434 76.0039C34.5487 75.9755 34.5922 75.8734 34.5755 75.7731C34.4902 75.2846 34.0856 74.9249 33.6776 74.6873C33.4502 74.5535 33.2078 74.4481 32.967 74.3411C32.7229 74.234 32.4805 74.1269 32.218 74.0751C31.9789 74.0249 31.8786 74.3879 32.116 74.4347Z" fill="black"/>
<path d="M33.4754 73.7638C34.0739 73.824 34.8748 73.6484 35.3129 74.1787C35.3781 74.2573 35.5118 74.2456 35.5787 74.1787C35.6556 74.1017 35.6439 73.9913 35.5787 73.9127C35.0638 73.287 34.1826 73.4593 33.4754 73.3874C33.3734 73.3774 33.2864 73.4811 33.2864 73.5764C33.2864 73.6852 33.3734 73.7538 33.4754 73.7638Z" fill="black"/>
<path d="M31.9355 96.7077C31.2316 96.8733 30.516 96.9636 29.7937 96.9787C29.5513 96.9837 29.5513 97.3601 29.7937 97.3551C30.5494 97.34 31.3018 97.2447 32.0358 97.0707C32.2716 97.0138 32.1713 96.6508 31.9355 96.7077Z" fill="black"/>
<path d="M32.7092 97.6675C32.343 97.982 31.905 98.2095 31.4385 98.3333C31.3399 98.3601 31.2797 98.4672 31.3064 98.5642C31.3332 98.6629 31.4385 98.7214 31.5371 98.6963C32.0688 98.5541 32.5571 98.2915 32.9734 97.9335C33.0503 97.8666 33.0419 97.7361 32.9734 97.6675C32.8981 97.5922 32.7861 97.6023 32.7092 97.6675Z" fill="black"/>
<path d="M119.717 65.2304C119.717 65.2304 128.634 65.996 132.228 63.5654C135.779 61.1649 137.244 60.6384 133.922 57.6763C127.506 51.9526 122.107 49.7444 118.888 49.1175C117.365 48.82 117.219 48.3937 114.538 49.2679C113.731 49.5304 111.07 49.6976 111.019 49.2044C110.981 48.8417 113.569 47.8604 113.593 47.6565C113.593 47.6565 109.75 46.3493 109.901 45.5653C110.047 44.7997 113.779 45.8528 113.779 45.8528C113.796 45.7074 110.709 44.8047 110.639 44.3166C110.551 43.683 113.939 44.1143 114.049 43.8903C114.257 43.4707 110.371 43.6045 110.389 43.2501C110.498 41.0953 115.928 43.0261 116.438 43.24C117.491 43.678 118.274 43.7666 119.171 44.0825C125.296 46.2306 138.572 51.5297 143.655 59.8962C145.263 62.5424 140.83 64.8476 139.093 66.128C130.73 72.2897 119.545 71.8901 119.545 71.8901L119.717 65.2304Z" fill="white" stroke="black" stroke-miterlimit="10"/>
<path d="M88.1809 100.068L86.1725 117.861L102.929 117.594L103.192 112.24L104.446 117.571H123.241L119.685 102.602L88.1809 100.068Z" fill="white" stroke="black" stroke-miterlimit="10"/>
<path d="M86.2209 72.1405L82.4681 100.932C82.4328 101.203 82.3686 101.47 82.2788 101.728L77.4382 116.89C76.7964 118.15 78.104 117.807 80.5379 117.847L83.6233 117.854C85.2406 117.881 85.9016 113.143 86.3188 111.495L89.011 100.853C89.0383 100.746 89.0608 100.638 89.0784 100.53L93.5339 73.3738C93.8484 71.4622 92.7125 69.6166 90.9283 69.1395L90.577 69.0448C88.5393 68.5018 86.5065 69.9465 86.2209 72.1405Z" fill="white" stroke="black" stroke-miterlimit="10"/>
<path d="M32.4304 110.748L31.2703 117.621L43.016 117.41L43.5259 114.057V117.401H54.5135L53.1476 109.486L32.4304 110.748Z" fill="white" stroke="black" stroke-miterlimit="10"/>
<path d="M111.006 54.2183C111.006 54.2183 110.922 59.7015 115.087 60.2462C118.962 60.7539 122.726 60.5448 125.15 62.0121C125.968 62.508 125.968 64.704 126.198 67.4818C126.308 68.8143 125.401 74.7596 125.401 74.7596C125.496 75.5287 122.557 74.3076 120.14 73.7763C119.603 73.6582 117.473 73.611 117.506 74.4003C117.589 76.4091 118.031 78.6135 118.631 82.5754C119.93 91.1518 120.496 98.185 120.623 101.717C120.783 106.223 88.5479 104.517 88.3377 101.975C87.7235 94.5352 93.0178 76.7279 92.2362 75.3617C91.2377 73.6177 85.7891 75.3296 84.8153 74.1338C84.1272 73.8825 86.4771 67.5156 86.7858 66.8342C88.024 64.0985 88.3935 61.3645 96.8014 60.533C98.4829 60.366 100.163 60.0742 101.171 58.6827C101.823 57.7838 102.413 56.5559 102.675 54.9064C103.431 50.1991 111.006 54.2183 111.006 54.2183Z" fill="white" stroke="black" stroke-miterlimit="10"/>
<path d="M99.2109 41.9956C99.2109 41.9956 96.5457 36.6641 101.209 36.7544C101.209 36.7544 102.224 36.7093 103.237 36.997C103.237 36.997 110.02 33.9222 111.988 37.9974C111.988 37.9974 112.413 38.3303 112.381 40.664C112.354 42.6731 112.351 50.6177 112.351 52.7824C112.351 53.2174 112.199 53.6373 111.92 53.9702C111.478 54.4971 110.666 55.2098 109.323 55.541C107.052 56.1015 104.75 55.7836 104.75 55.7836C104.75 55.7836 102.996 55.5143 101.481 53.8765C101.085 53.4466 100.871 52.8778 100.864 52.2939L100.798 45.6793C100.801 45.6777 96.5758 44.525 99.2109 41.9956Z" fill="black" stroke="black" stroke-miterlimit="10"/>
<path d="M101.909 43.4452C103.207 43.8032 106.024 44.2833 108.624 42.7593C109.005 42.5352 109.487 42.8012 109.495 43.2445L109.626 50.0247C109.626 50.0247 109.868 51.2058 107.325 51.2058C105.4 51.2058 102.867 51.189 101.751 51.1807C101.433 51.179 101.179 50.9197 101.179 50.6035V44.004C101.179 43.6209 101.542 43.3432 101.909 43.4452Z" fill="white" stroke="black" stroke-miterlimit="10"/>
<path d="M16.4828 117.861H139.552" stroke="black" stroke-miterlimit="10"/>
<path opacity="0.76" d="M115.889 72.2581C115.664 72.7719 116.18 73.617 117.017 74.0887C117.811 74.5366 118.526 74.4346 118.644 73.912C118.753 73.4211 118.297 72.7018 117.602 72.2619C116.875 71.8011 116.1 71.778 115.889 72.2581Z" fill="#FDAE46" fill-opacity="0.5"/>
<path opacity="0.76" d="M93.7071 91.2434C91.9938 90.818 89.4781 92.3368 88.2613 94.5543C87.1044 96.6618 87.6734 98.4232 89.3773 98.5753C90.9787 98.7176 93.1129 97.3832 94.2777 95.528C95.4976 93.5855 95.3069 91.6413 93.7071 91.2434Z" fill="#FDAE46" fill-opacity="0.5"/>
<path opacity="0.76" d="M140.621 58.9294C139.722 58.3421 137.729 58.4493 136.299 59.1729C134.941 59.8604 134.732 60.79 135.713 61.252C136.634 61.6862 138.34 61.5735 139.623 61.0015C140.967 60.4031 141.462 59.4791 140.621 58.9294Z" fill="#FDAE46" fill-opacity="0.5"/>
<path d="M85.9636 55.4403C86.2863 55.4403 86.2863 54.9385 85.9636 54.9385C85.6409 54.9385 85.6409 55.4403 85.9636 55.4403Z" fill="#A4BFE0"/>
<path d="M116.965 73.7565C117.155 73.9357 117.446 74.0576 117.79 74.0998C117.864 74.1087 117.964 74.0767 118.003 74.0181C118.04 73.9636 118.023 73.9007 117.944 73.8915C117.865 73.8817 117.788 73.8681 117.716 73.8495C117.707 73.8472 117.699 73.8456 117.691 73.8431C117.678 73.8392 117.672 73.8396 117.689 73.8428C117.67 73.8393 117.653 73.8321 117.637 73.8266C117.604 73.8154 117.57 73.8028 117.538 73.7899C117.507 73.7773 117.478 73.7632 117.449 73.7489C117.434 73.7412 117.419 73.7335 117.405 73.7255C117.399 73.7221 117.393 73.718 117.386 73.7146C117.382 73.7121 117.356 73.6987 117.381 73.7117C117.322 73.6828 117.277 73.6373 117.234 73.5982C117.193 73.5599 117.088 73.563 117.019 73.6068C116.946 73.652 116.921 73.7156 116.965 73.7565Z" fill="black"/>
<path d="M73.9409 51.996C74.2636 51.996 74.2636 51.4941 73.9409 51.4941C73.6182 51.4941 73.6165 51.996 73.9409 51.996Z" fill="#A4BFE0"/>
<path d="M117.68 73.5374C117.813 73.6834 117.945 73.8285 118.078 73.9746C118.148 74.0516 118.261 74.0857 118.309 74.0337C118.357 73.9817 118.346 73.8796 118.27 73.7967C118.137 73.6506 118.005 73.5055 117.872 73.3594C117.802 73.2824 117.69 73.2483 117.641 73.3003C117.592 73.3513 117.603 73.4535 117.68 73.5374Z" fill="black"/>
<path d="M135.98 59.5824C136.56 59.38 137.183 59.3114 137.79 59.4085C137.924 59.4302 138.06 59.375 138.1 59.2328C138.133 59.114 138.06 58.9451 137.924 58.9233C137.227 58.8129 136.515 58.8648 135.846 59.0973C135.719 59.1425 135.634 59.2696 135.67 59.4068C135.705 59.5322 135.851 59.6276 135.98 59.5824Z" fill="black"/>
<path d="M135.525 60.6294C135.727 60.8068 135.93 60.9858 136.132 61.1631C136.182 61.2066 136.241 61.2367 136.309 61.2367C136.371 61.2367 136.445 61.2099 136.486 61.1631C136.53 61.1146 136.563 61.0527 136.56 60.9858C136.557 60.9222 136.536 60.8519 136.486 60.8084C136.284 60.6311 136.082 60.4521 135.879 60.2748C135.829 60.2313 135.771 60.2012 135.702 60.2012C135.64 60.2012 135.567 60.2279 135.525 60.2748C135.481 60.3233 135.448 60.3852 135.451 60.4521C135.453 60.5157 135.475 60.5859 135.525 60.6294Z" fill="black"/>
<g opacity="0.79">
<g opacity="0.79">
<path opacity="0.79" d="M71.1521 27.9345C71.4748 27.9345 71.4748 27.4326 71.1521 27.4326C70.8294 27.4326 70.8277 27.9345 71.1521 27.9345Z" fill="#A4BFE0"/>
</g>
</g>
<path d="M105.82 44.9298C107.052 45.4572 108.38 45.7779 109.757 45.886C109.941 45.9012 110.097 45.7456 110.097 45.6014C110.097 45.4364 109.941 45.332 109.757 45.3168C108.507 45.2182 107.281 44.9165 106.162 44.4384C105.775 44.2715 105.43 44.7628 105.82 44.9298Z" fill="black"/>
<path d="M101.274 45.881C102.172 45.9344 103.081 45.6319 103.83 45.0269C103.953 44.9268 104.007 44.7333 103.929 44.5709C103.858 44.4219 103.675 44.3507 103.552 44.4508C102.877 44.9958 102.086 45.2605 101.276 45.2138C101.127 45.2049 101 45.3739 101 45.5474C100.998 45.7342 101.125 45.8721 101.274 45.881Z" fill="black"/>
<path d="M103.972 48.4408C103.989 48.5035 103.97 48.4005 103.977 48.4631C103.979 48.4798 103.982 48.4965 103.982 48.5118C103.984 48.548 103.984 48.5842 103.984 48.6204C103.982 48.6872 103.975 48.7526 103.972 48.8194C103.968 48.9683 103.986 49.1158 104.083 49.2536C104.263 49.5097 104.714 49.7226 105.192 49.6335C105.365 49.6015 105.492 49.486 105.434 49.3761C105.379 49.2717 105.194 49.1965 105.007 49.2299C105 49.2313 104.991 49.2327 104.984 49.2341C104.954 49.2383 104.952 49.2383 104.984 49.2355C105.009 49.2341 105.014 49.2341 104.995 49.2341C104.988 49.2341 104.979 49.2341 104.972 49.2341C104.894 49.2369 104.984 49.2313 104.984 49.2383C104.984 49.2383 104.942 49.2327 104.94 49.2327C104.922 49.2299 104.882 49.2105 104.917 49.2285C104.949 49.2452 104.919 49.2285 104.905 49.223C104.896 49.2202 104.859 49.2105 104.855 49.2035C104.857 49.2105 104.905 49.2299 104.866 49.2091C104.838 49.1938 104.813 49.1771 104.788 49.1604C104.76 49.1437 104.822 49.1924 104.788 49.1604C104.778 49.152 104.769 49.1437 104.76 49.1339C104.748 49.1228 104.739 49.1116 104.728 49.1005C104.723 49.0963 104.721 49.0908 104.716 49.0866C104.704 49.0727 104.709 49.0768 104.725 49.1005C104.718 49.1005 104.691 49.0379 104.691 49.0351C104.686 49.0254 104.684 49.0156 104.679 49.0059C104.677 48.9975 104.672 48.9572 104.677 48.9947C104.674 48.9655 104.67 48.9363 104.668 48.9057C104.665 48.8458 104.67 48.786 104.672 48.7275C104.681 48.5912 104.679 48.4603 104.642 48.3253C104.612 48.2168 104.381 48.1472 104.215 48.1792C104.021 48.2224 103.94 48.3253 103.972 48.4408Z" fill="black"/>
<path d="M104.383 53.0677C105.132 52.6411 106.078 52.5842 106.867 52.9406C106.991 52.9958 107.137 52.9757 107.21 52.8502C107.274 52.7432 107.244 52.5625 107.12 52.5073C106.163 52.074 105.045 52.1125 104.129 52.6344C103.849 52.795 104.102 53.2283 104.383 53.0677Z" fill="white"/>
<path d="M59.9999 46.4999L68.9999 48.0001L59.4999 52.5L59.9999 46.4999Z" fill="white"/>
<path d="M53.8292 42.8489C53.8292 42.8489 53.8291 42.8488 53.8291 42.8488L54.1775 42.4941M53.8292 42.8489L54.1775 42.4941M53.8292 42.8489C55.1137 44.1106 56.6104 45.1358 58.2141 45.9279L53.8292 42.8489ZM54.1775 42.4941C55.4141 43.7092 56.8722 44.7098 58.4345 45.4795L53.1502 41.3707C53.4716 41.7633 53.8151 42.1379 54.1775 42.4941ZM84.2961 32.5903C84.3035 32.6462 84.3105 32.7021 84.3171 32.758C84.3378 32.9422 84.3537 33.1269 84.3651 33.3118C84.2875 33.341 84.2119 33.3839 84.1433 33.4428C83.9829 33.5804 83.8909 33.7805 83.8906 34.0027C83.8906 34.0031 83.8905 34.0035 83.8905 34.0039C83.8905 34.005 83.8905 34.0062 83.8905 34.0073C83.8905 34.0277 83.8904 34.048 83.8902 34.0684M84.2961 32.5903L83.801 32.6543C83.801 32.6542 83.801 32.6541 83.801 32.654M84.2961 32.5903L83.801 32.654M84.2961 32.5903L77.565 23.7711C79.2174 24.7936 80.6992 26.1095 81.8099 27.6856L81.81 27.6857C82.854 29.1664 83.5701 30.8688 83.801 32.654M83.8902 34.0684C83.8884 34.0483 83.8874 34.0279 83.8872 34.0073L83.8872 34.0039C83.8856 33.551 83.8583 33.1001 83.801 32.654M83.8902 34.0684C83.9074 34.2655 83.9974 34.4405 84.1421 34.5645C84.2114 34.624 84.2879 34.6673 84.3665 34.6967L60.5565 49.3083C60.4889 49.8971 60.389 50.4804 60.256 51.0564M83.8902 34.0684C83.8654 36.9243 82.6346 39.6232 80.6704 41.7149L80.6702 41.7151C78.4749 44.0554 75.5124 45.6144 72.3861 46.3985M72.3861 46.3985C71.1337 46.712 69.8531 46.9009 68.564 46.972M72.3861 46.3985C72.3862 46.3984 72.3863 46.3984 72.3863 46.3984L72.5078 46.8834L72.3861 46.3985ZM68.564 46.972L68.5569 46.9598L68.5474 46.9729M68.564 46.972L68.7277 47.2549L66.1961 46.9719M68.564 46.972C68.5584 46.9723 68.5529 46.9726 68.5474 46.9729M68.5474 46.9729C67.7653 47.0154 66.9801 47.0146 66.1961 46.9719M68.5474 46.9729L68.3402 47.2591C67.6464 47.2518 66.9603 47.1635 66.2841 46.994L66.1961 46.9719M66.1961 46.9719L65.7406 46.8578L65.713 47.0655M65.713 47.0655C65.5024 47.1935 65.3864 47.4232 65.361 47.6173C65.3358 47.8107 65.3874 48.0617 65.556 48.2421M65.713 47.0655L65.6669 47.4133C65.658 47.4807 65.6474 47.558 65.6366 47.6369C65.6239 47.7292 65.6109 47.8238 65.6 47.9074L65.556 48.2421M65.713 47.0655C65.8246 46.9977 65.9628 46.9585 66.1281 46.9681C66.128 46.9681 66.1279 46.9681 66.1278 46.9681L65.9098 48.4456C65.758 48.4073 65.6419 48.3338 65.556 48.2421M65.556 48.2421L65.5299 48.4409L65.9995 48.4678M65.9995 48.4678C66.2852 48.5373 66.5735 48.5946 66.8636 48.6394M65.9995 48.4678L66.0671 48.4717C66.4055 48.4911 66.7446 48.503 67.084 48.5074C67.0121 48.5528 66.9386 48.5967 66.8636 48.6394M65.9995 48.4678C65.9697 48.4606 65.9399 48.4532 65.9101 48.4457L67.5312 48.811M66.8636 48.6394C66.4075 48.899 65.8966 49.112 65.3686 49.3162L65.3684 49.3163C64.0343 49.833 62.6759 50.2895 61.3027 50.7264L61.3022 50.7266C60.9536 50.8378 60.605 50.9475 60.256 51.0564M66.8636 48.6394C67.1227 48.6795 67.3832 48.7097 67.6447 48.7299C67.6073 48.7574 67.5695 48.7844 67.5312 48.811M60.256 51.0564C60.2121 51.2465 60.1646 51.4358 60.1134 51.6243M60.256 51.0564C60.0708 51.1141 59.8855 51.1716 59.7 51.229C59.7344 51.0922 59.7669 50.9549 59.7975 50.8172L60.1134 51.6243M60.1134 51.6243C60.5606 51.4855 61.0074 51.3455 61.4543 51.2029C62.832 50.7646 64.2013 50.3045 65.549 49.7826C66.2234 49.5218 66.926 49.2283 67.5312 48.811M60.1134 51.6243L67.5312 48.811" fill="white" stroke="black"/>
<path d="M55.2532 31.9411C57.0138 31.3371 58.7995 30.8068 60.6052 30.3585C61.06 30.2447 61.5164 30.1377 61.9729 30.0356C62.3524 29.9503 62.7336 29.8499 63.1199 29.8014C63.6432 29.7345 64.4257 29.7261 64.633 30.3334C64.8253 30.8938 64.6765 31.665 65.3553 31.9327C65.7348 32.0816 66.198 31.9845 66.5926 31.9561C67.0775 31.9226 67.5607 31.8892 68.0455 31.8574C69.0002 31.7922 69.9549 31.7269 70.9096 31.6617C71.3912 31.6282 71.8744 31.5948 72.3559 31.563C72.8157 31.5329 73.2655 31.5245 73.7152 31.6383C74.1399 31.7436 74.5512 31.8541 74.9909 31.8825C75.4156 31.9093 75.8453 31.8741 76.2617 31.7871C77.1077 31.6132 77.8952 31.2067 78.5322 30.6228C78.7713 30.4037 78.4152 30.0507 78.1777 30.2682C77.6193 30.7801 76.9305 31.1264 76.1914 31.2886C75.414 31.4593 74.68 31.3706 73.9192 31.1715C73.0414 30.9423 72.1335 31.0762 71.2407 31.1364C70.286 31.2016 69.3313 31.2669 68.3766 31.3321C67.9068 31.3639 67.4353 31.3957 66.9654 31.4291C66.7297 31.4459 66.4956 31.4609 66.2598 31.4777C66.0525 31.491 65.8168 31.5362 65.6128 31.4894C65.3085 31.4208 65.27 31.0912 65.2316 30.8302C65.1881 30.5291 65.1614 30.223 65.0092 29.952C64.6999 29.4016 64.0361 29.2561 63.4509 29.2745C62.6584 29.2996 61.8625 29.5421 61.0951 29.7245C59.0753 30.2046 57.0807 30.7834 55.1194 31.4593C54.8168 31.5613 54.9472 32.0464 55.2532 31.9411Z" fill="black"/>
<path d="M57.7942 40.9233C58.2205 40.388 58.7188 39.7389 59.4544 39.6653C59.7771 39.6335 60.0814 39.7238 60.2971 39.9731C60.5178 40.2257 60.6733 40.5168 60.9325 40.7376C61.9123 41.5724 63.3552 41.564 64.5239 41.1859C65.2679 40.945 65.9635 40.582 66.6691 40.2491C67.398 39.9045 68.1387 39.6335 68.9329 39.488C69.7505 39.3374 70.5848 39.2889 71.4141 39.2353C72.2384 39.1818 73.0711 39.155 73.8787 39.3658C74.3033 39.4762 74.7163 39.59 75.156 39.4896C75.5991 39.3893 76.0071 39.13 76.405 38.9208C77.2845 38.4625 78.1623 38.0024 79.0417 37.5441C79.3277 37.3952 79.0752 36.9619 78.7893 37.1108C78.0085 37.519 77.226 37.9271 76.4451 38.3353C76.069 38.5311 75.6961 38.7586 75.3032 38.9175C74.8952 39.0831 74.5357 39.0212 74.1228 38.9108C73.3102 38.6933 72.4876 38.6699 71.6516 38.7184C70.8407 38.7636 70.0247 38.8188 69.2205 38.9359C68.4113 39.053 67.6422 39.2722 66.8914 39.5984C66.1591 39.9179 65.4569 40.3093 64.7078 40.5904C63.5909 41.0086 62.0611 41.1893 61.1415 40.2458C60.874 39.9697 60.7168 39.6067 60.3891 39.3859C60.0781 39.1768 59.6902 39.1266 59.3257 39.1785C58.4964 39.2972 57.9329 39.9497 57.4397 40.5686C57.2391 40.8179 57.5919 41.1759 57.7942 40.9233Z" fill="black"/>
<path d="M123.206 41.6554C122.756 40.6667 122.962 39.4087 123.702 38.6158C124.147 38.1407 124.756 37.8379 125.361 37.6187C125.7 37.4949 126.013 37.4448 126.349 37.6037C126.62 37.7325 126.876 37.9148 127.105 38.1072C127.635 38.5489 128.058 39.0942 128.364 39.7132C128.394 39.5994 128.424 39.484 128.454 39.3703C127.546 39.8989 126.289 39.397 125.446 38.9453C124.568 38.4753 123.794 37.8061 123.219 36.9914C123.084 36.8007 122.96 36.6033 122.846 36.3992C122.801 36.3189 122.671 36.1483 122.707 36.0512C122.744 35.9576 122.955 35.8689 123.04 35.8154C123.533 35.5042 124.068 35.2549 124.645 35.1529C125.583 34.9839 126.765 35.3101 127.157 36.2654C127.329 36.6836 127.337 37.1955 127.111 37.597C126.857 38.0503 126.347 38.2477 125.876 38.3966C124.739 38.7563 123.492 38.9504 122.331 38.5806C121.428 38.2929 120.333 37.52 120.312 36.4678C120.288 35.4256 121.688 35.0224 122.519 34.9655C123.584 34.8936 124.685 35.2466 125.463 35.9877C125.612 36.1282 125.913 36.4025 125.74 36.62C125.603 36.7907 125.337 36.7689 125.172 36.6652C124.66 36.3423 124.6 35.5711 124.301 35.091C124.13 34.8166 123.697 35.0692 123.868 35.3436C124.211 35.8957 124.271 36.6083 124.818 37.0265C125.239 37.3494 125.948 37.326 126.214 36.804C126.521 36.1984 125.869 35.6397 125.441 35.3168C124.98 34.9689 124.441 34.723 123.881 34.5858C122.758 34.3098 121.408 34.4436 120.47 35.1696C119.955 35.5694 119.723 36.155 119.848 36.799C119.97 37.4213 120.39 37.9717 120.877 38.3632C121.957 39.2297 123.368 39.402 124.7 39.1946C125.394 39.0859 126.142 38.9102 126.765 38.5773C127.295 38.2946 127.67 37.8161 127.757 37.2156C127.944 35.9475 126.991 34.9137 125.792 34.6711C125.154 34.5423 124.495 34.6176 123.885 34.8367C123.557 34.9555 123.241 35.1077 122.94 35.285C122.689 35.4339 122.316 35.6113 122.221 35.9107C122.122 36.2168 122.343 36.538 122.49 36.789C122.646 37.055 122.823 37.3076 123.012 37.5485C123.393 38.0336 123.839 38.4602 124.333 38.8299C124.826 39.1996 125.369 39.4957 125.943 39.7216C126.521 39.9491 127.163 40.1281 127.79 40.0779C128.115 40.0511 128.422 39.9658 128.703 39.8019C128.827 39.7299 128.854 39.5794 128.793 39.4589C128.481 38.8266 128.043 38.2544 127.506 37.7944C126.951 37.3176 126.291 36.8626 125.525 37.0399C125.15 37.1269 124.776 37.2992 124.433 37.4715C124.097 37.6405 123.778 37.8496 123.5 38.1039C123.022 38.5405 122.692 39.1394 122.55 39.7701C122.388 40.4911 122.462 41.2355 122.768 41.908C122.906 42.2025 123.338 41.9465 123.206 41.6554Z" fill="black"/>
<path d="M88.7462 94.5547C89.9232 94.6267 91.0903 94.0027 91.7005 92.9956C91.8677 92.7179 91.4347 92.4653 91.2675 92.743C90.7458 93.6062 89.751 94.1148 88.7462 94.0529C88.4235 94.0328 88.4251 94.5347 88.7462 94.5547Z" fill="black"/>
<path d="M88.2948 97.5524C89.1024 97.4286 89.8615 97.0221 90.4216 96.4282C90.6423 96.194 90.2895 95.8377 90.0671 96.0736C89.5605 96.6122 88.8917 96.9569 88.1611 97.0689C88.0273 97.089 87.9537 97.258 87.9855 97.3784C88.0256 97.5189 88.1594 97.5725 88.2948 97.5524Z" fill="black"/>
<path d="M99.5172 62.5512L101.474 61.1386L106.25 64.9243L112.574 60.0337L112.862 61.7352L106.878 67.4475L99.5172 62.5512Z" fill="black" stroke="black" stroke-miterlimit="10"/>
</svg>
