<svg width="160" height="162" viewBox="0 0 160 162" fill="none" xmlns="http://www.w3.org/2000/svg">
<rect y="2" width="160" height="160" rx="8" fill="white"/>
<path d="M44.1948 43.48L37.5564 45.8659C36.095 41.8 35.3824 40.4737 37.1981 38.1414C42.161 31.7664 37.2541 28.8784 35.2197 29.6096C30.9664 30.5584 31.8631 34.1185 32.8432 35.7799L25.3482 38.4738C21.346 28.0114 30.9072 23.8902 35.7361 23.1413C38.7301 22.6693 45.21 22.9259 47.1778 27.7281C49.1456 32.5302 45.2482 38.4497 43.2141 40.7515L44.1948 43.48Z" stroke="black"/>
<rect x="39.1703" y="49.6039" width="6.39676" height="5.80286" transform="rotate(-19.7694 39.1703 49.6039)" stroke="black"/>
<path d="M23.2847 25.6871L14.657 21.6968M16.1803 29.375L21.3564 30.2026M43.9115 20.3164L47.8664 11.9322" stroke="black" stroke-linecap="round"/>
<path d="M63.3857 37.3102L60.2693 37.1084C60.3929 35.1996 60.3374 34.5353 61.486 33.9084C64.6255 32.1949 63.1423 30.1569 62.1872 30.095C60.2927 29.7302 60.0291 31.334 60.134 32.1815L56.6154 31.9537C56.8353 26.9994 61.4446 27.012 63.5376 27.5595C64.8366 27.8958 67.4227 29.1427 67.3749 31.4398C67.3271 33.7369 64.7006 35.4533 63.4687 36.0293L63.3857 37.3102Z" fill="white"/>
<rect x="60.0588" y="38.6758" width="3.27466" height="3.01173" transform="rotate(3.70495 60.0588 38.6758)" fill="white"/>
<path d="M63.3857 36.3102L60.2693 36.1084C60.3929 34.1996 60.3374 33.5353 61.486 32.9084C64.6255 31.1949 63.1423 29.1569 62.1872 29.095C60.2927 28.7302 60.0291 30.334 60.134 31.1815L56.6154 30.9537C56.8353 25.9994 61.4446 26.012 63.5376 26.5595C64.8366 26.8958 67.4227 28.1427 67.3749 30.4398C67.3271 32.7369 64.7006 34.4533 63.4687 35.0293L63.3857 36.3102Z" stroke="black" stroke-width="0.5"/>
<rect x="60.2921" y="37.9414" width="2.77466" height="2.51173" transform="rotate(3.70495 60.2921 37.9414)" stroke="black" stroke-width="0.5"/>
<path d="M30.2359 66.0255L31.4453 64.178C30.3137 63.4372 29.9618 63.1238 29.1196 63.5069C26.8176 64.554 26.2954 62.85 26.666 62.2838C27.2643 61.0579 28.2829 61.5899 28.7175 62.0092L30.0829 59.9233C27.1888 57.9436 25.2384 60.5547 24.6591 61.9704C24.2976 62.8476 23.9043 64.8392 25.2231 65.7876C26.542 66.7361 28.6278 65.9802 29.4766 65.5284L30.2359 66.0255Z" fill="white"/>
<rect width="2.31539" height="2.12948" transform="matrix(-0.547698 0.836676 0.836676 0.547698 32.4208 64.7244)" fill="white"/>
<path d="M30.2359 65.0255L31.4453 63.178C30.3137 62.4372 29.9618 62.1238 29.1196 62.5069C26.8176 63.554 26.2954 61.85 26.666 61.2838C27.2643 60.0579 28.2829 60.5899 28.7175 61.0092L30.0829 58.9233C27.1888 56.9436 25.2384 59.5547 24.6591 60.9704C24.2976 61.8476 23.9043 63.8392 25.2231 64.7876C26.542 65.7361 28.6278 64.9802 29.4766 64.5284L30.2359 65.0255Z" stroke="black" stroke-width="0.5"/>
<rect x="0.0722447" y="0.346093" width="1.81539" height="1.62948" transform="matrix(-0.547698 0.836676 0.836676 0.547698 32.2431 63.8205)" stroke="black" stroke-width="0.5"/>
<line x1="68.6464" y1="25.6464" x2="73.6464" y2="20.6464" stroke="black"/>
<line x1="71.9178" y1="29.5068" x2="77.9178" y2="28.5068" stroke="black"/>
<line x1="21.1213" y1="65.4851" x2="17.1213" y2="66.4851" stroke="black"/>
<line x1="26.4903" y1="68.0981" x2="25.4903" y2="73.0981" stroke="black"/>
<path d="M68.9629 47.5388C70.895 46.485 74.8646 45.3257 75.2861 49.1196C75.7077 52.9135 78.2721 59.8339 79.5016 62.8198C76.8669 65.9814 72.9676 74.9393 78.4477 85.478C83.9278 96.0167 83.1901 100.408 82.1363 101.286L97.4173 97.0705L102.687 93.382L106.375 98.6513C110.064 104.623 116.703 116.672 113.752 117.094C110.801 117.516 101.633 123.944 97.4173 127.106C97.7686 128.687 98.2604 131.954 97.4173 132.375C96.3635 132.902 96.3635 134.483 93.7288 131.321C91.6211 128.792 86.5274 128.862 84.244 129.213C82.8388 128.511 80.8716 126.895 84.244 126.052C87.2176 125.308 88.4979 124.784 88.8794 124.549L54.7357 125.525L65.8013 82.8433C67.2065 82.6677 70.0168 80.6302 70.0168 73.8854C69.6655 73.0072 68.5414 71.1454 66.8552 70.7238C64.7475 70.1969 63.1667 65.4545 64.2205 60.7121C63.6936 58.0775 63.9044 51.7543 68.9629 47.5388Z" fill="white"/>
<path d="M69.3105 73.3855C69.8243 78.6559 68.5685 80.6683 66.5704 82.4411" stroke="black" stroke-linecap="round"/>
<path d="M93.0511 106.107C93.637 106.82 97.2268 110.424 97.6186 110.642" stroke="black" stroke-linecap="round"/>
<path d="M66.6877 67.603C67.4049 67.5914 67.8503 67.286 68.4402 67.3068C68.9768 67.3256 69.5805 67.916 69.8871 68.098" stroke="black" stroke-linecap="round"/>
<path d="M67.2717 54.9854C67.2717 54.9854 66.6458 54.7709 66.2283 54.7273C65.7789 54.6804 65.0724 54.7793 65.0724 54.7793" stroke="black" stroke-linecap="round"/>
<path d="M71.8719 57.0484C71.8719 57.0484 73.4692 57.0227 74.3924 57.3892C75.3538 57.7708 76.5299 58.9532 76.5299 58.9532" stroke="black" stroke-linecap="round"/>
<path d="M67.2618 70.9848C66.6989 70.7999 65.3915 70.1245 64.6653 68.9019C63.9391 67.6793 63.6565 64.6551 63.5302 63.2794C63.4094 60.3821 64.2386 54.1839 64.8818 52.6729C65.5249 51.1618 67.1611 48.9448 67.8988 48.0252" stroke="black" stroke-linecap="round"/>
<path d="M99.5818 96.906L98.2825 93.6019C100.667 97.6755 105.302 96.0043 107.729 94.4193C108.028 94.2243 108.176 93.8697 108.036 93.5419C107.729 92.8266 106.958 91.6443 105.338 90.2375C103.178 88.3632 102.461 85.8258 102.372 84.7913L102.061 81.3199C102.051 81.2087 102.063 81.0974 102.075 80.9864C102.15 80.279 101.785 78.8014 99.7606 77.407C97.6583 75.9585 97.5438 74.3084 97.7674 73.5735C97.787 73.5091 97.8058 73.4449 97.817 73.3785L98.1602 71.3497C98.1889 71.18 98.1746 71.0092 98.1162 70.8473C96.6294 66.7266 93.3679 57.794 91.5184 53.1035C89.6316 48.3183 85.6979 44.3448 83.9669 42.9563C83.2888 42.4716 80.945 41.4923 76.9941 41.4524C74.1932 41.4241 71.0926 44.0866 68.8908 46.5873C68.2252 47.3433 69.0229 48.3196 69.9367 47.8962C70.9333 47.4345 72.1156 47.8657 72.5808 48.8607L79.0562 62.7098C73.1182 73.1045 74.8499 82.1393 79.3843 88.8439C82.2142 93.0281 81.3124 98.0042 79.9692 101.254C79.6211 102.096 80.4012 103.113 81.2824 102.881L98.9059 98.239C99.4847 98.0865 99.8009 97.4631 99.5818 96.906Z" fill="black"/>
<path d="M98.2825 93.6019L99.5818 96.906C99.8009 97.4631 99.4847 98.0865 98.9059 98.239L81.2824 102.881C80.4012 103.113 79.6211 102.096 79.9691 101.254C81.3124 98.0042 82.2142 93.0281 79.3844 88.8439C74.8499 82.1393 73.1182 73.1045 79.0562 62.7098M98.2825 93.6019C93.853 79.8396 83.8066 54.394 79.0562 62.7098M98.2825 93.6019C100.667 97.6755 105.302 96.0043 107.729 94.4193C108.028 94.2243 108.176 93.8697 108.036 93.5419C107.729 92.8266 106.958 91.6443 105.338 90.2375C103.178 88.3632 102.461 85.8258 102.372 84.7913L102.061 81.3199C102.051 81.2087 102.063 81.0974 102.075 80.9864C102.15 80.279 101.785 78.8014 99.7606 77.407C97.6583 75.9585 97.5438 74.3084 97.7674 73.5735C97.787 73.5091 97.8058 73.4449 97.817 73.3785L98.1602 71.3497C98.1889 71.18 98.1746 71.0092 98.1162 70.8473C96.6294 66.7266 93.3679 57.794 91.5184 53.1035C89.6316 48.3183 85.6979 44.3448 83.9669 42.9563C83.2888 42.4716 80.9449 41.4923 76.9941 41.4524C74.1932 41.4241 71.0926 44.0866 68.8908 46.5873C68.2252 47.3433 69.0229 48.3196 69.9367 47.8962V47.8962C70.9333 47.4345 72.1156 47.8657 72.5808 48.8607L79.0562 62.7098" stroke="black" stroke-linecap="round"/>
<path d="M65.3334 56.9263C65.2259 57.0848 65.2097 57.2615 65.3682 57.369C65.5266 57.4766 65.6275 57.3574 65.7351 57.199C65.8426 57.0405 65.8772 56.9602 65.7187 56.8526C65.5603 56.7451 65.441 56.7679 65.3334 56.9263Z" fill="black"/>
<path d="M68.2001 59.1237L66.9731 60.931C66.516 61.5427 65.8064 62.8966 66.6253 63.419C67.4442 63.9413 67.808 64.2079 67.8876 64.2759" stroke="black" stroke-linecap="round"/>
<path d="M71.7458 59.5803C71.6383 59.7387 71.6222 59.9154 71.7806 60.023C71.939 60.1305 72.0973 60.0503 72.2048 59.8919C72.3124 59.7334 72.3285 59.5567 72.1701 59.4492C72.0116 59.3416 71.8534 59.4218 71.7458 59.5803Z" fill="black"/>
<path d="M108.248 101.189C107.684 100.246 105.958 97.0636 104.113 94.3757C102.777 92.4466 98.1216 83.4619 90.8678 84.279C84.2626 84.8506 88.5078 76.7687 92.7352 70.8931" stroke="black" stroke-linecap="round"/>
<path d="M76.1973 100.634C78.381 97.716 82.2977 91.4294 82.887 83.0935" stroke="black" stroke-linecap="round"/>
<path d="M108.169 101.183L97.6063 110.609" stroke="black" stroke-linecap="round"/>
<path d="M11 127.632L87.9323 124.998" stroke="black" stroke-linecap="round"/>
<path d="M100.101 125.353L148.56 125.353" stroke="black" stroke-linecap="round"/>
<path d="M97.4892 110.57C98.0799 111.234 99.3367 112.618 99.639 112.834" stroke="black" stroke-linecap="round"/>
<ellipse cx="90.5064" cy="114.579" rx="4.48832" ry="2.52569" transform="rotate(57.801 90.5064 114.579)" fill="#FDAE46" fill-opacity="0.5"/>
<ellipse cx="61.5026" cy="116.477" rx="4.05118" ry="2.10008" transform="rotate(-161.155 61.5026 116.477)" fill="#FDAE46" fill-opacity="0.5"/>
<ellipse cx="58.0233" cy="117.868" rx="2.25438" ry="0.896693" transform="rotate(149.618 58.0233 117.868)" fill="#FDAE46" fill-opacity="0.5"/>
<path d="M57.8515 114.629L61.7747 116.486M57.6157 116.009L61.4294 119.077" stroke="black" stroke-linecap="round"/>
<path d="M92.1933 113.465L88.6316 111.849M92.0612 114.865C91.4172 114.835 89.9245 114.642 89.1048 114.111M92.4353 116.653L89.5506 116.241" stroke="black" stroke-linecap="round"/>
<path d="M67.295 87.518C66.244 87.905 62.5214 97.2378 62.2956 105.886C61.6601 112.341 57.9528 122.183 53.0076 115.638C48.3453 109.466 49.1644 106.222 51.425 100.048C56.4462 89.0413 58.1349 88.1658 55.7509 85.4541C55.3865 85.0397 55.9584 85.5723 54.5571 83.9989C53.1558 82.4255 54.9595 80.7194 55.7509 81.4192L56.3573 81.7416C57.1496 82.0686 57.9708 82.2169 56.8529 80.5478C55.7349 78.8787 57.029 78.8519 57.8158 79.0471L58.6472 79.4847C58.4312 78.8707 58.412 79.0969 57.3938 75.0101C56.3756 70.9233 58.8521 72.1061 60.2176 73.2083C61.8336 75.5334 65.363 80.5044 66.5525 81.7875C68.0394 83.3914 68.5031 82.4574 70.5636 81.639C72.6242 80.8206 73.4855 83.0008 72.5249 84.7128C71.5643 86.4248 68.6089 87.0342 67.295 87.518Z" fill="white" stroke="black" stroke-linecap="round"/>
<rect x="86.8359" y="117.012" width="8.98003" height="2.28849" rx="1.14425" transform="rotate(11.4662 86.8359 117.012)" fill="white"/>
<rect x="92.7444" y="118.369" width="9.36483" height="2.28849" rx="1.14425" transform="rotate(-96.197 92.7444 118.369)" fill="white"/>
<path d="M93.2478 103.571C92.6437 104.995 91.4942 108.302 91.7289 110.134C91.8429 111.024 92.0305 112.79 92.6722 117.766" stroke="black"/>
<path d="M97.5935 127.362C96.6026 128.065 98.8848 129.751 98.1137 131.627C97.3425 133.503 95.0045 134.894 94.4161 132.655C93.8277 130.417 92.4026 129.457 91.4186 129.207C89.7531 128.782 87.1787 129.141 84.3858 129.241C82.7035 128.786 80.2939 127.451 84.1139 125.748C87.934 124.045 88.0831 125.721 88.0928 124.414L83.8761 122.692C83.2524 122.155 82.5001 121.054 84.4798 120.947C86.4596 120.839 88.7739 122.247 88.9339 121.375L85.3618 118.975C84.9229 118.15 84.5635 116.548 86.6374 116.738C88.7113 116.928 93.3021 118.398 93.9322 118.026" stroke="black" stroke-linecap="round"/>
<path d="M108.583 101.807L112.847 110.175C113.371 111.332 115.947 114.537 114.688 116.787C113.429 119.036 101.864 122.977 97.6283 127.328M94.0549 117.953C95.1625 117.56 102.24 111.516 102.24 111.516" stroke="black" stroke-linecap="round"/>
<path d="M97.5934 127.362L97.6274 127.328" stroke="black"/>
<path d="M56.2914 118.337L55.0676 125.353" stroke="black" stroke-linecap="round"/>
<path d="M99.5248 113.405L92.6746 106.555C92.6746 106.555 92.1305 108.688 92.1476 109.717C92.199 112.81 93.2016 117.094 93.2016 117.094L93.7285 117.621L99.5248 113.405Z" fill="white"/>
<g opacity="0.5">
<path d="M45.6426 44.7378L39.0041 47.1237C37.5428 43.0578 36.8301 41.7315 38.6458 39.3992C43.6087 33.0242 38.7018 30.1363 36.6675 30.8674C32.4142 31.8162 33.3109 35.3763 34.2909 37.0377L26.7959 39.7316C22.7937 29.2692 32.355 25.148 37.1839 24.3991C40.1779 23.9272 46.6578 24.1837 48.6256 28.9859C50.5934 33.788 46.696 39.7075 44.6619 42.0093L45.6426 44.7378Z" fill="#FDAE46"/>
<rect x="39.9784" y="50.5601" width="7.39676" height="6.80286" transform="rotate(-19.7694 39.9784 50.5601)" fill="#FDAE46"/>
</g>
</svg>
