<svg width="72" height="72" viewBox="0 0 72 72" fill="none" xmlns="http://www.w3.org/2000/svg">
<circle cx="36" cy="36" r="36" fill="#FDAE46"/>
<path d="M15.5578 28.7212C15.5578 28.7212 2.59855 31.1355 7.76004 43.9337C7.76004 43.9337 9.68034 50.1386 18.9655 50.3051C18.9655 50.3051 21.7516 49.2728 21.796 47.3692C21.8348 45.46 21.8792 32.2122 21.8792 32.2122C21.8792 32.2122 23.2667 21.312 33.6896 20.0355C33.6896 20.0355 42.6029 18.5647 47.1594 25.9962C47.1594 25.9962 49.5903 29.143 49.3961 34.6986L49.4349 47.3858C49.4349 47.3858 49.5848 49.5836 46.7987 50.6825C46.7987 50.6825 45.7275 51.2653 44.2013 51.2819C44.2013 51.2819 42.8415 48.6956 39.123 49.1674C35.4045 49.6391 34.5554 53.3354 34.5554 53.3354C34.5554 53.3354 33.8394 58.0585 37.4414 59.2462C37.4414 59.2462 39.6447 60.9611 43.0302 58.7689L43.9016 58.0807C43.9016 58.0807 50.3396 57.9364 53.4087 54.2068C53.4087 54.2068 55.44 52.0645 55.8507 49.7945C55.8507 49.7945 61.5505 48.8344 63.715 43.4398C63.715 43.4398 66.49 38.1285 62.655 33.0613C62.655 33.0613 59.3583 28.5769 55.44 28.588C55.44 28.588 54.835 24.6586 52.0878 21.2731C52.0878 21.2731 48.0863 15.4901 40.6104 13.6586C33.1346 11.8271 26.6522 15.0128 26.6522 15.0128C26.6522 15.0128 21.8459 17.5935 19.4095 20.9346C16.973 24.2757 16.5623 25.6798 15.5578 28.7212Z" fill="white"/>
</svg>
