<svg width="16" height="16" viewBox="0 0 16 16" fill="none" xmlns="http://www.w3.org/2000/svg">
<path d="M8.38672 0.921875C12.5299 0.921875 15.8867 4.27873 15.8867 8.42188C15.8867 12.565 12.5299 15.9219 8.38672 15.9219C4.24357 15.9219 0.886719 12.565 0.886719 8.42188C0.886719 4.27873 4.24357 0.921875 8.38672 0.921875ZM5.58964 10.3876L6.19448 11.1436C6.23417 11.1933 6.28325 11.2346 6.33891 11.2653C6.39458 11.2959 6.45573 11.3153 6.51889 11.3223C6.58205 11.3293 6.64597 11.3239 6.70701 11.3062C6.76804 11.2885 6.825 11.259 6.87462 11.2193L8.90083 9.71562C9.04241 9.60227 9.15668 9.45854 9.2352 9.29506C9.31373 9.13158 9.35448 8.95253 9.35446 8.77117V4.06704C9.35446 3.93871 9.30348 3.81563 9.21274 3.72489C9.12199 3.63414 8.99892 3.58317 8.87059 3.58317H7.90285C7.77452 3.58317 7.65144 3.63414 7.5607 3.72489C7.46996 3.81563 7.41898 3.93871 7.41898 4.06704V8.42188L5.66494 9.70716C5.6153 9.74687 5.57397 9.79599 5.54331 9.85169C5.51265 9.90738 5.49327 9.96858 5.48628 10.0318C5.47929 10.095 5.48482 10.1589 5.50255 10.22C5.52029 10.281 5.54988 10.338 5.58964 10.3876Z" fill="#4F4F4F"/>
</svg>
