<svg width="35" height="35" viewBox="0 0 35 35" fill="none" xmlns="http://www.w3.org/2000/svg">
<path d="M17.5 0C7.84 0 0 7.84 0 17.5C0 27.16 7.84 35 17.5 35C27.16 35 35 27.16 35 17.5C35 7.84 27.16 0 17.5 0ZM17.5 28.875C16.0475 28.875 14.875 27.7025 14.875 26.25H20.125C20.125 27.7025 18.9525 28.875 17.5 28.875ZM26.25 24.5H8.75V22.75L10.5 21V16.4325C10.5 12.7225 12.3025 9.5725 15.75 8.75V7.875C15.75 6.8775 16.5025 6.125 17.5 6.125C18.4975 6.125 19.25 6.8775 19.25 7.875V8.75C22.6975 9.5725 24.5 12.74 24.5 16.4325V21L26.25 22.75V24.5Z" fill="#9AC5BE"/>
</svg>
