<svg width="34" height="34" viewBox="0 0 34 34" fill="none" xmlns="http://www.w3.org/2000/svg">
<circle cx="17" cy="17" r="17" fill="#9AC5BE"/>
<path d="M25.8 25.38L22.2 25.94L21 24.52C20.4267 24.8667 19.7933 25.1133 19.1 25.26C18.42 25.42 17.6733 25.5 16.86 25.5C14.4467 25.5 12.4533 24.7267 10.88 23.18C9.30667 21.6333 8.52 19.64 8.52 17.2C8.52 14.92 9.36667 13.06 11.06 11.62C12.7533 10.1667 14.6867 9.44 16.86 9.44C19.2067 9.44 21.18 10.1733 22.78 11.64C24.3933 13.1067 25.2 15.0667 25.2 17.52C25.2 18.52 25.0333 19.46 24.7 20.34C24.3667 21.2067 23.8867 22.0333 23.26 22.82L25.8 25.38ZM19.36 18.64L20.42 19.74C20.5933 19.5133 20.7333 19.26 20.84 18.98C20.9467 18.7 21.0267 18.4133 21.08 18.12C21.0933 18.0267 21.1 17.9333 21.1 17.84C21.1133 17.7333 21.12 17.6333 21.12 17.54C21.12 16.4067 20.7067 15.4067 19.88 14.54C19.0667 13.6733 18.0667 13.24 16.88 13.24C15.7067 13.24 14.7 13.6467 13.86 14.46C13.02 15.26 12.6 16.18 12.6 17.22C12.6 18.5133 13.02 19.5867 13.86 20.44C14.7 21.2933 15.7067 21.72 16.88 21.72C17.08 21.72 17.28 21.7067 17.48 21.68C17.68 21.64 17.88 21.5867 18.08 21.52L15.66 19.1L19.36 18.64Z" fill="white"/>
</svg>
