<svg width="35" height="35" viewBox="0 0 35 35" fill="none" xmlns="http://www.w3.org/2000/svg">
<path fill-rule="evenodd" clip-rule="evenodd" d="M17.5 35C27.165 35 35 27.165 35 17.5C35 7.83502 27.165 0 17.5 0C7.83502 0 0 7.83502 0 17.5C0 27.165 7.83502 35 17.5 35ZM21.8959 22.8234C22.4617 22.312 23.2017 21.9856 24.0286 21.9856C25.7805 21.9856 27.2059 23.411 27.2059 25.1628C27.2059 26.9147 25.7805 28.3401 24.0286 28.3401C22.2768 28.3401 20.8513 26.9147 20.8513 25.1628C20.8513 24.9234 20.884 24.6841 20.9384 24.4555L13.1911 19.929C12.6035 20.4731 11.831 20.8104 10.9714 20.8104C9.1651 20.8104 7.70704 19.3523 7.70704 17.5461C7.70704 15.7398 9.1651 14.2818 10.9714 14.2818C11.831 14.2818 12.6035 14.6191 13.1911 15.1631L20.8622 10.691C20.8078 10.4408 20.7643 10.1905 20.7643 9.92935C20.7643 8.1231 22.2224 6.66504 24.0286 6.66504C25.8349 6.66504 27.2929 8.1231 27.2929 9.92935C27.2929 11.7356 25.8349 13.1937 24.0286 13.1937C23.169 13.1937 22.3965 12.8564 21.8089 12.3123L14.1377 16.7844C14.1921 17.0347 14.2357 17.2849 14.2357 17.5461C14.2357 17.8072 14.1921 18.0575 14.1377 18.3078L21.8959 22.8234Z" fill="#9AC5BE"/>
</svg>
