<svg width="350" height="438" viewBox="0 0 350 438" fill="none" xmlns="http://www.w3.org/2000/svg">
<path d="M2 0H344V438H2V0Z" fill="white"/>
<path d="M117.574 414.94C116.214 413.28 114.534 412.45 112.534 412.45C111.654 412.45 110.834 412.61 110.074 412.93C109.334 413.25 108.694 413.69 108.154 414.25C107.614 414.79 107.184 415.44 106.864 416.2C106.564 416.96 106.414 417.78 106.414 418.66C106.414 419.56 106.564 420.39 106.864 421.15C107.184 421.91 107.614 422.57 108.154 423.13C108.714 423.69 109.364 424.13 110.104 424.45C110.844 424.77 111.644 424.93 112.504 424.93C114.384 424.93 116.074 424.13 117.574 422.53V429.49L116.974 429.7C116.074 430.02 115.234 430.25 114.454 430.39C113.674 430.55 112.904 430.63 112.144 430.63C110.584 430.63 109.084 430.34 107.644 429.76C106.224 429.16 104.964 428.33 103.864 427.27C102.784 426.19 101.914 424.92 101.254 423.46C100.594 421.98 100.264 420.37 100.264 418.63C100.264 416.89 100.584 415.3 101.224 413.86C101.884 412.4 102.754 411.15 103.834 410.11C104.934 409.05 106.204 408.23 107.644 407.65C109.084 407.05 110.594 406.75 112.174 406.75C113.074 406.75 113.954 406.85 114.814 407.05C115.694 407.23 116.614 407.52 117.574 407.92V414.94ZM126.199 422.26C126.199 422.76 126.289 423.23 126.469 423.67C126.649 424.09 126.889 424.46 127.189 424.78C127.509 425.1 127.879 425.35 128.299 425.53C128.739 425.71 129.209 425.8 129.709 425.8C130.189 425.8 130.639 425.71 131.059 425.53C131.499 425.35 131.869 425.1 132.169 424.78C132.489 424.46 132.739 424.09 132.919 423.67C133.119 423.25 133.219 422.8 133.219 422.32C133.219 421.84 133.119 421.39 132.919 420.97C132.739 420.53 132.489 420.15 132.169 419.83C131.869 419.51 131.499 419.26 131.059 419.08C130.639 418.9 130.189 418.81 129.709 418.81C129.209 418.81 128.739 418.9 128.299 419.08C127.879 419.26 127.509 419.51 127.189 419.83C126.889 420.15 126.649 420.52 126.469 420.94C126.289 421.34 126.199 421.78 126.199 422.26ZM133.039 414.61H138.499V430H133.039V428.29C131.879 429.75 130.309 430.48 128.329 430.48C127.209 430.48 126.179 430.28 125.239 429.88C124.299 429.46 123.479 428.88 122.779 428.14C122.079 427.4 121.529 426.53 121.129 425.53C120.749 424.53 120.559 423.44 120.559 422.26C120.559 421.16 120.749 420.12 121.129 419.14C121.509 418.14 122.039 417.27 122.719 416.53C123.399 415.79 124.209 415.21 125.149 414.79C126.089 414.35 127.129 414.13 128.269 414.13C130.189 414.13 131.779 414.8 133.039 416.14V414.61ZM147.999 405.1V430H142.569V405.1H147.999ZM163.335 420.07C163.155 419.31 162.785 418.7 162.225 418.24C161.665 417.78 160.985 417.55 160.185 417.55C159.345 417.55 158.655 417.77 158.115 418.21C157.595 418.65 157.265 419.27 157.125 420.07H163.335ZM156.975 423.22C156.975 425.56 158.075 426.73 160.275 426.73C161.455 426.73 162.345 426.25 162.945 425.29H168.195C167.135 428.81 164.485 430.57 160.245 430.57C158.945 430.57 157.755 430.38 156.675 430C155.595 429.6 154.665 429.04 153.885 428.32C153.125 427.6 152.535 426.74 152.115 425.74C151.695 424.74 151.485 423.62 151.485 422.38C151.485 421.1 151.685 419.95 152.085 418.93C152.485 417.89 153.055 417.01 153.795 416.29C154.535 415.57 155.425 415.02 156.465 414.64C157.525 414.24 158.715 414.04 160.035 414.04C161.335 414.04 162.505 414.24 163.545 414.64C164.585 415.02 165.465 415.58 166.185 416.32C166.905 417.06 167.455 417.97 167.835 419.05C168.215 420.11 168.405 421.31 168.405 422.65V423.22H156.975ZM171.883 414.61H177.313V416.56C178.053 415.66 178.803 415.06 179.563 414.76C180.323 414.44 181.213 414.28 182.233 414.28C183.313 414.28 184.233 414.46 184.993 414.82C185.773 415.16 186.433 415.65 186.973 416.29C187.413 416.81 187.713 417.39 187.873 418.03C188.033 418.67 188.113 419.4 188.113 420.22V430H182.683V422.23C182.683 421.47 182.623 420.86 182.503 420.4C182.403 419.92 182.213 419.54 181.933 419.26C181.693 419.02 181.423 418.85 181.123 418.75C180.823 418.65 180.503 418.6 180.163 418.6C179.243 418.6 178.533 418.88 178.033 419.44C177.553 419.98 177.313 420.76 177.313 421.78V430H171.883V414.61ZM197.22 422.26C197.22 422.76 197.31 423.23 197.49 423.67C197.67 424.09 197.91 424.46 198.21 424.78C198.53 425.1 198.9 425.35 199.32 425.53C199.76 425.71 200.23 425.8 200.73 425.8C201.21 425.8 201.66 425.71 202.08 425.53C202.52 425.35 202.89 425.1 203.19 424.78C203.51 424.46 203.76 424.09 203.94 423.67C204.14 423.25 204.24 422.8 204.24 422.32C204.24 421.84 204.14 421.39 203.94 420.97C203.76 420.53 203.51 420.15 203.19 419.83C202.89 419.51 202.52 419.26 202.08 419.08C201.66 418.9 201.21 418.81 200.73 418.81C200.25 418.81 199.79 418.9 199.35 419.08C198.93 419.26 198.56 419.51 198.24 419.83C197.94 420.15 197.69 420.52 197.49 420.94C197.31 421.34 197.22 421.78 197.22 422.26ZM204.06 405.1H209.52V430H204.06V428.29C202.9 429.75 201.33 430.48 199.35 430.48C198.23 430.48 197.2 430.27 196.26 429.85C195.32 429.43 194.5 428.85 193.8 428.11C193.1 427.37 192.55 426.5 192.15 425.5C191.77 424.5 191.58 423.42 191.58 422.26C191.58 421.16 191.76 420.12 192.12 419.14C192.5 418.14 193.03 417.27 193.71 416.53C194.39 415.79 195.2 415.21 196.14 414.79C197.1 414.35 198.15 414.13 199.29 414.13C201.21 414.13 202.8 414.8 204.06 416.14V405.1ZM218.63 422.26C218.63 422.76 218.72 423.23 218.9 423.67C219.08 424.09 219.32 424.46 219.62 424.78C219.94 425.1 220.31 425.35 220.73 425.53C221.17 425.71 221.64 425.8 222.14 425.8C222.62 425.8 223.07 425.71 223.49 425.53C223.93 425.35 224.3 425.1 224.6 424.78C224.92 424.46 225.17 424.09 225.35 423.67C225.55 423.25 225.65 422.8 225.65 422.32C225.65 421.84 225.55 421.39 225.35 420.97C225.17 420.53 224.92 420.15 224.6 419.83C224.3 419.51 223.93 419.26 223.49 419.08C223.07 418.9 222.62 418.81 222.14 418.81C221.64 418.81 221.17 418.9 220.73 419.08C220.31 419.26 219.94 419.51 219.62 419.83C219.32 420.15 219.08 420.52 218.9 420.94C218.72 421.34 218.63 421.78 218.63 422.26ZM225.47 414.61H230.93V430H225.47V428.29C224.31 429.75 222.74 430.48 220.76 430.48C219.64 430.48 218.61 430.28 217.67 429.88C216.73 429.46 215.91 428.88 215.21 428.14C214.51 427.4 213.96 426.53 213.56 425.53C213.18 424.53 212.99 423.44 212.99 422.26C212.99 421.16 213.18 420.12 213.56 419.14C213.94 418.14 214.47 417.27 215.15 416.53C215.83 415.79 216.64 415.21 217.58 414.79C218.52 414.35 219.56 414.13 220.7 414.13C222.62 414.13 224.21 414.8 225.47 416.14V414.61ZM235.001 414.61H240.431V417.13C241.011 416.21 241.721 415.51 242.561 415.03C243.401 414.53 244.381 414.28 245.501 414.28C245.641 414.28 245.791 414.28 245.951 414.28C246.131 414.28 246.331 414.3 246.551 414.34V419.53C245.831 419.17 245.051 418.99 244.211 418.99C242.951 418.99 242.001 419.37 241.361 420.13C240.741 420.87 240.431 421.96 240.431 423.4V430H235.001V414.61Z" fill="#333333"/>
<path d="M11.3579 297.574C16.8649 330.867 135.356 360.662 135.356 360.662C135.356 360.662 232.651 388.565 284.547 336.089C336.443 283.613 337.455 268.326 335.372 242.826C333.289 217.325 326.761 180.784 308.738 146.165C290.715 111.546 254.849 62.5583 189.966 57.4762C125.083 52.394 88.6567 53.0617 62.8437 68.2484C37.0307 83.4351 -23.4266 110.59 34.107 175.781C76.5112 223.862 6.07113 265.626 11.3579 297.574Z" fill="#DCEBE9"/>
<path d="M139.051 226.853C136.317 226.857 133.644 226.085 131.368 224.637C129.093 223.188 127.319 221.128 126.27 218.715C125.221 216.303 124.945 213.648 125.475 211.085C126.006 208.523 127.321 206.168 129.252 204.32C131.184 202.471 133.646 201.212 136.327 200.7C139.008 200.189 141.788 200.45 144.314 201.449C146.84 202.447 148.999 204.14 150.519 206.311C152.038 208.483 152.849 211.037 152.849 213.649C152.843 217.146 151.389 220.498 148.803 222.973C146.217 225.447 142.711 226.842 139.051 226.853V226.853Z" fill="white"/>
<path d="M139.03 201.134C141.399 201.134 143.714 201.834 145.684 203.146C147.653 204.458 149.188 206.323 150.094 208.505C151.001 210.687 151.238 213.088 150.776 215.404C150.314 217.72 149.173 219.848 147.498 221.518C145.824 223.188 143.69 224.325 141.367 224.786C139.044 225.246 136.636 225.01 134.447 224.106C132.259 223.202 130.389 221.672 129.073 219.708C127.757 217.745 127.054 215.436 127.054 213.074C127.054 209.907 128.316 206.87 130.562 204.631C132.808 202.392 135.854 201.134 139.03 201.134ZM139.03 198.148C136.07 198.148 133.175 199.024 130.714 200.664C128.252 202.304 126.333 204.635 125.2 207.362C124.067 210.09 123.771 213.091 124.348 215.986C124.926 218.882 126.352 221.541 128.445 223.629C130.539 225.716 133.206 227.138 136.11 227.713C139.014 228.289 142.024 227.994 144.759 226.864C147.494 225.734 149.832 223.821 151.477 221.367C153.122 218.912 154 216.026 154 213.074C154 209.116 152.423 205.319 149.615 202.52C146.808 199.721 143 198.148 139.03 198.148Z" fill="#81B7AE"/>
<path d="M138.031 217.357C140.215 217.357 141.508 215.668 141.508 212.829C141.508 211.766 141.302 210.875 140.9 210.178C140.334 209.092 139.318 208.49 138.067 208.49C136.225 208.49 134.885 209.736 134.885 211.459C134.885 213.077 136.095 214.275 137.712 214.275C138.816 214.275 139.69 213.714 140.021 212.882H140.027H140.032C140.038 212.882 140.044 212.882 140.044 212.882C140.068 214.942 139.312 216.123 138.055 216.123C137.311 216.123 136.703 215.698 136.514 215.054H135.003C135.245 216.424 136.467 217.357 138.031 217.357ZM138.073 213.083C137.104 213.083 136.384 212.374 136.384 211.412C136.384 210.479 137.134 209.741 138.084 209.741C139.041 209.741 139.785 210.485 139.785 211.436C139.785 212.374 139.047 213.083 138.073 213.083Z" fill="#333333"/>
<path d="M110.544 184.037H111.479V176.287H110.533L108.471 177.769V178.79L110.523 177.312H110.544V184.037Z" fill="#333333"/>
<path d="M139.61 178.521V178.526H140.545V178.521C140.545 177.656 141.232 177.001 142.14 177.001C142.994 177.001 143.676 177.597 143.676 178.344C143.676 178.988 143.429 179.402 142.387 180.498L139.659 183.371V184.037H144.772V183.178H140.996V183.156L142.957 181.131C144.251 179.794 144.643 179.149 144.643 178.285C144.643 177.098 143.553 176.158 142.167 176.158C140.706 176.158 139.61 177.167 139.61 178.521Z" fill="#333333"/>
<path d="M171.177 180.46H172.149C173.256 180.46 173.943 181.024 173.943 181.937C173.943 182.748 173.208 183.328 172.182 183.328C171.14 183.328 170.479 182.78 170.393 181.985H169.464C169.534 183.269 170.57 184.166 172.192 184.166C173.712 184.166 174.926 183.237 174.926 181.905C174.926 180.814 174.174 180.089 173.003 180.02V179.998C173.97 179.826 174.593 179.128 174.593 178.156C174.593 176.99 173.546 176.158 172.16 176.158C170.705 176.158 169.727 177.001 169.62 178.317H170.549C170.635 177.506 171.226 176.996 172.117 176.996C173.1 176.996 173.621 177.517 173.621 178.285C173.621 179.069 172.998 179.644 172.106 179.644H171.177V180.46Z" fill="#333333"/>
<path d="M203.222 184.037H204.157V182.426H205.252V181.577H204.157V176.287H202.728C200.896 178.913 199.989 180.326 199.328 181.55V182.426H203.222V184.037ZM200.284 181.556C200.896 180.481 201.74 179.187 203.206 177.092H203.222V181.577H200.284V181.556Z" fill="#333333"/>
<path d="M233.292 184.166C234.909 184.166 236.053 183.076 236.053 181.518C236.053 180.014 234.979 178.924 233.491 178.924C232.75 178.924 232.105 179.203 231.756 179.67H231.735L231.971 177.146H235.613V176.287H231.176L230.752 180.626H231.66C231.977 180.084 232.594 179.756 233.319 179.756C234.351 179.756 235.086 180.503 235.086 181.545C235.086 182.587 234.356 183.317 233.303 183.317C232.374 183.317 231.67 182.748 231.584 181.921H230.634C230.714 183.242 231.81 184.166 233.292 184.166Z" fill="#333333"/>
<path d="M262.22 184.171C263.81 184.171 264.965 183.054 264.965 181.523C264.965 180.052 263.869 178.961 262.392 178.961C261.431 178.961 260.577 179.461 260.228 180.218H260.211C260.244 178.156 260.979 177.006 262.274 177.006C263.042 177.006 263.665 177.458 263.875 178.161H264.857C264.61 176.942 263.601 176.152 262.285 176.152C260.389 176.152 259.277 177.683 259.277 180.293C259.277 181.131 259.4 181.83 259.658 182.426C260.136 183.543 261.06 184.171 262.22 184.171ZM262.209 183.312C261.216 183.312 260.442 182.522 260.442 181.529C260.442 180.541 261.2 179.81 262.226 179.81C263.251 179.81 263.982 180.541 263.982 181.556C263.982 182.533 263.198 183.312 262.209 183.312Z" fill="#333333"/>
<path d="M109.255 217.327C111.062 217.327 112.349 216.312 112.349 214.883C112.349 213.827 111.617 212.953 110.513 212.693V212.67C111.439 212.374 112 211.654 112 210.769C112 209.47 110.849 208.525 109.255 208.525C107.673 208.525 106.504 209.476 106.504 210.763C106.504 211.66 107.077 212.386 107.998 212.67V212.693C106.9 212.947 106.168 213.821 106.168 214.883C106.168 216.306 107.455 217.327 109.255 217.327ZM109.255 216.4C108.086 216.4 107.248 215.733 107.248 214.807C107.248 213.874 108.086 213.207 109.255 213.207C110.43 213.207 111.262 213.868 111.262 214.807C111.262 215.733 110.43 216.4 109.255 216.4ZM109.255 212.274C108.258 212.274 107.561 211.69 107.561 210.863C107.561 210.031 108.258 209.44 109.255 209.44C110.253 209.44 110.949 210.025 110.949 210.863C110.949 211.69 110.247 212.274 109.255 212.274Z" fill="#333333"/>
<path d="M168.378 217.186H169.405V208.667H168.366L166.1 210.296V211.418L168.355 209.795H168.378V217.186ZM174.547 217.327C176.531 217.327 177.676 215.609 177.676 212.917C177.676 210.243 176.525 208.525 174.547 208.525C172.57 208.525 171.407 210.255 171.407 212.923C171.407 215.615 172.558 217.327 174.547 217.327ZM174.547 216.4C173.213 216.4 172.475 215.043 172.475 212.917C172.475 210.839 173.231 209.458 174.547 209.458C175.864 209.458 176.607 210.828 176.607 212.923C176.607 215.049 175.875 216.4 174.547 216.4Z" fill="#333333"/>
<path d="M204.075 217.186H205.102V208.667H204.063L201.796 210.296V211.418L204.051 209.795H204.075V217.186ZM209.435 217.186H210.462V208.667H209.423L207.157 210.296V211.418L209.412 209.795H209.435V217.186Z" fill="#333333"/>
<path d="M229.409 217.186H230.436V208.667H229.397L227.13 210.296V211.418L229.385 209.795H229.409V217.186ZM232.543 211.123V211.129H233.57V211.123C233.57 210.172 234.326 209.452 235.324 209.452C236.262 209.452 237.012 210.107 237.012 210.928C237.012 211.636 236.74 212.091 235.595 213.295L232.596 216.454V217.186H238.216V216.241H234.066V216.217L236.221 213.992C237.644 212.522 238.075 211.814 238.075 210.863C238.075 209.558 236.876 208.525 235.353 208.525C233.747 208.525 232.543 209.635 232.543 211.123Z" fill="#333333"/>
<path d="M259.348 217.186H260.375V208.667H259.336L257.069 210.296V211.418L259.324 209.795H259.348V217.186ZM264.271 213.254H265.34C266.556 213.254 267.312 213.874 267.312 214.877C267.312 215.769 266.503 216.406 265.375 216.406C264.23 216.406 263.504 215.804 263.409 214.93H262.388C262.465 216.341 263.604 217.327 265.387 217.327C267.058 217.327 268.392 216.306 268.392 214.842C268.392 213.644 267.565 212.847 266.278 212.77V212.746C267.341 212.557 268.026 211.79 268.026 210.721C268.026 209.44 266.875 208.525 265.352 208.525C263.752 208.525 262.677 209.452 262.559 210.899H263.581C263.675 210.007 264.324 209.446 265.304 209.446C266.385 209.446 266.957 210.019 266.957 210.863C266.957 211.725 266.273 212.357 265.293 212.357H264.271V213.254Z" fill="#333333"/>
<path d="M108.241 249.48H109.176V241.73H108.231L106.168 243.212V244.233L108.22 242.756H108.241V249.48ZM113.806 249.609C115.423 249.609 116.567 248.519 116.567 246.961C116.567 245.458 115.492 244.367 114.005 244.367C113.263 244.367 112.619 244.646 112.27 245.114H112.248L112.485 242.589H116.126V241.73H111.69L111.265 246.07H112.173C112.49 245.527 113.108 245.2 113.833 245.2C114.864 245.2 115.6 245.946 115.6 246.988C115.6 248.03 114.869 248.761 113.817 248.761C112.887 248.761 112.184 248.191 112.098 247.364H111.147C111.228 248.686 112.323 249.609 113.806 249.609Z" fill="#333333"/>
<path d="M138.181 249.48H139.115V241.73H138.17L136.107 243.212V244.233L138.159 242.756H138.181V249.48ZM143.885 249.615C145.475 249.615 146.629 248.498 146.629 246.967C146.629 245.495 145.534 244.405 144.057 244.405C143.095 244.405 142.241 244.904 141.892 245.662H141.876C141.908 243.599 142.644 242.45 143.938 242.45C144.707 242.45 145.33 242.901 145.539 243.604H146.522C146.275 242.385 145.265 241.596 143.949 241.596C142.053 241.596 140.941 243.126 140.941 245.737C140.941 246.575 141.065 247.273 141.323 247.869C141.801 248.986 142.725 249.615 143.885 249.615ZM143.874 248.755C142.88 248.755 142.107 247.966 142.107 246.972C142.107 245.984 142.864 245.253 143.89 245.253C144.916 245.253 145.646 245.984 145.646 246.999C145.646 247.977 144.862 248.755 143.874 248.755Z" fill="#333333"/>
<path d="M169.271 249.48H170.206V241.73H169.261L167.198 243.212V244.233L169.25 242.756H169.271V249.48ZM172.618 249.48H173.633L177.081 242.627V241.73H171.952V242.589H176.125V242.611L172.618 249.48Z" fill="#333333"/>
<path d="M202.666 249.48H203.6V241.73H202.655L200.592 243.212V244.233L202.644 242.756H202.666V249.48ZM208.23 249.609C209.874 249.609 211.044 248.686 211.044 247.386C211.044 246.424 210.378 245.629 209.374 245.393V245.372C210.217 245.103 210.728 244.448 210.728 243.642C210.728 242.46 209.68 241.601 208.23 241.601C206.791 241.601 205.727 242.466 205.727 243.637C205.727 244.453 206.248 245.114 207.086 245.372V245.393C206.087 245.624 205.421 246.419 205.421 247.386C205.421 248.68 206.592 249.609 208.23 249.609ZM208.23 248.766C207.167 248.766 206.404 248.159 206.404 247.316C206.404 246.467 207.167 245.86 208.23 245.86C209.299 245.86 210.056 246.462 210.056 247.316C210.056 248.159 209.299 248.766 208.23 248.766ZM208.23 245.012C207.322 245.012 206.688 244.48 206.688 243.728C206.688 242.971 207.322 242.434 208.23 242.434C209.138 242.434 209.771 242.965 209.771 243.728C209.771 244.48 209.132 245.012 208.23 245.012Z" fill="#333333"/>
<path d="M229.15 249.48H230.085V241.73H229.14L227.077 243.212V244.233L229.129 242.756H229.15V249.48ZM234.516 249.609C236.412 249.609 237.519 248.084 237.519 245.474C237.519 244.63 237.395 243.932 237.137 243.336C236.665 242.224 235.741 241.596 234.575 241.596C232.985 241.596 231.831 242.713 231.831 244.244C231.831 245.715 232.926 246.806 234.403 246.806C235.392 246.806 236.24 246.306 236.568 245.538C236.573 245.538 236.573 245.538 236.579 245.538H236.584C236.557 247.595 235.816 248.766 234.527 248.766C233.759 248.766 233.13 248.304 232.926 247.601H231.943C232.18 248.814 233.195 249.609 234.516 249.609ZM234.57 245.957C233.555 245.957 232.808 245.221 232.808 244.211C232.808 243.239 233.592 242.466 234.586 242.466C235.585 242.466 236.358 243.245 236.358 244.238C236.358 245.227 235.596 245.957 234.57 245.957Z" fill="#333333"/>
<path d="M254.762 243.964V243.97H255.696V243.964C255.696 243.1 256.384 242.444 257.292 242.444C258.146 242.444 258.828 243.041 258.828 243.787C258.828 244.432 258.581 244.845 257.539 245.941L254.81 248.814V249.48H259.923V248.621H256.147V248.6L258.108 246.575C259.402 245.237 259.794 244.593 259.794 243.728C259.794 242.541 258.704 241.601 257.318 241.601C255.857 241.601 254.762 242.611 254.762 243.964ZM263.753 249.609C265.558 249.609 266.6 248.046 266.6 245.597C266.6 243.164 265.552 241.601 263.753 241.601C261.954 241.601 260.896 243.175 260.896 245.603C260.896 248.052 261.943 249.609 263.753 249.609ZM263.753 248.766C262.539 248.766 261.868 247.531 261.868 245.597C261.868 243.707 262.555 242.45 263.753 242.45C264.951 242.45 265.627 243.696 265.627 245.603C265.627 247.536 264.961 248.766 263.753 248.766Z" fill="#333333"/>
<path d="M105.065 276.113V276.118H105.999V276.113C105.999 275.248 106.687 274.593 107.594 274.593C108.448 274.593 109.131 275.189 109.131 275.936C109.131 276.58 108.884 276.994 107.842 278.089L105.113 280.963V281.629H110.226V280.77H106.45V280.748L108.411 278.723C109.705 277.386 110.097 276.741 110.097 275.876C110.097 274.689 109.007 273.75 107.621 273.75C106.16 273.75 105.065 274.759 105.065 276.113ZM111.295 276.113V276.118H112.23V276.113C112.23 275.248 112.917 274.593 113.825 274.593C114.679 274.593 115.361 275.189 115.361 275.936C115.361 276.58 115.114 276.994 114.072 278.089L111.344 280.963V281.629H116.457V280.77H112.681V280.748L114.641 278.723C115.936 277.386 116.328 276.741 116.328 275.876C116.328 274.689 115.238 273.75 113.852 273.75C112.391 273.75 111.295 274.759 111.295 276.113Z" fill="#333333"/>
<path d="M78.0288 217.186H79.1445L82.9345 209.653V208.667H77.2968V209.612H81.8837V209.635L78.0288 217.186Z" fill="#333333"/>
<path d="M114.024 147.148V138.63H112.265L109.656 145.059H109.609L106.999 138.63H105.234V147.148H106.61V141.103H106.651L109.113 147.078H110.152L112.613 141.103H112.655V147.148H114.024Z" fill="#333333"/>
<path d="M142.23 147.148V139.917H144.774V138.63H138.162V139.917H140.713V147.148H142.23Z" fill="#333333"/>
<path d="M174.684 140.985H174.743L176.485 147.148H177.919L180.204 138.63H178.622L177.146 145.082H177.099L175.387 138.63H174.041L172.329 145.082H172.281L170.806 138.63H169.224L171.508 147.148H172.943L174.684 140.985Z" fill="#333333"/>
<path d="M206.715 147.148V139.917H209.259V138.63H202.647V139.917H205.197V147.148H206.715Z" fill="#333333"/>
<path d="M235.727 147.148V143.671H239.299V142.432H235.727V139.917H239.635V138.63H234.204V147.148H235.727Z" fill="#333333"/>
<path d="M262.644 144.752C262.709 146.322 263.995 147.29 265.955 147.29C268.016 147.29 269.314 146.275 269.314 144.657C269.314 143.388 268.582 142.674 266.853 142.278L265.873 142.054C264.828 141.806 264.397 141.475 264.397 140.909C264.397 140.2 265.046 139.728 266.009 139.728C266.983 139.728 267.65 140.206 267.72 141.003H269.173C269.137 139.504 267.898 138.488 266.02 138.488C264.167 138.488 262.85 139.51 262.85 141.021C262.85 142.237 263.594 142.992 265.164 143.353L266.268 143.612C267.343 143.866 267.78 144.22 267.78 144.834C267.78 145.543 267.065 146.05 266.038 146.05C264.999 146.05 264.214 145.537 264.119 144.752H262.644Z" fill="#333333"/>
<path d="M78.4014 144.752C78.4664 146.322 79.7533 147.29 81.7132 147.29C83.7734 147.29 85.0722 146.275 85.0722 144.657C85.0722 143.388 84.3402 142.674 82.6105 142.278L81.6305 142.054C80.5857 141.806 80.1547 141.475 80.1547 140.909C80.1547 140.2 80.8041 139.728 81.7663 139.728C82.7404 139.728 83.4074 140.206 83.4783 141.003H84.9305C84.8951 139.504 83.6554 138.488 81.7781 138.488C79.9245 138.488 78.608 139.51 78.608 141.021C78.608 142.237 79.3519 142.992 80.9221 143.353L82.0261 143.612C83.1005 143.866 83.5373 144.22 83.5373 144.834C83.5373 145.543 82.823 146.05 81.7958 146.05C80.7569 146.05 79.9717 145.537 79.8773 144.752H78.4014Z" fill="#333333"/>
<path d="M78.302 249.48H79.2366V241.73H78.2913L76.2288 243.212V244.233L78.2805 242.756H78.302V249.48ZM84.887 249.48H85.8215V247.869H86.9172V247.021H85.8215V241.73H84.3928C82.5613 244.356 81.6536 245.769 80.9929 246.994V247.869H84.887V249.48ZM81.949 246.999C82.5613 245.925 83.4045 244.63 84.8708 242.536H84.887V247.021H81.949V246.999Z" fill="#333333"/>
<path d="M77.4282 277.261V277.267H78.3628V277.261C78.3628 276.396 79.0503 275.741 79.958 275.741C80.812 275.741 81.4941 276.337 81.4941 277.084C81.4941 277.729 81.2471 278.142 80.2051 279.238L77.4766 282.111V282.777H82.5898V281.918H78.814V281.896L80.7744 279.872C82.0688 278.534 82.4609 277.89 82.4609 277.025C82.4609 275.838 81.3706 274.898 79.9849 274.898C78.5239 274.898 77.4282 275.908 77.4282 277.261ZM85.6836 282.777H86.6182V275.027H85.6729L83.6104 276.509V277.53L85.6621 276.053H85.6836V282.777Z" fill="#333333"/>
<path d="M75.1257 310.558V310.563H76.0603V310.558C76.0603 309.693 76.7478 309.038 77.6555 309.038C78.5095 309.038 79.1917 309.634 79.1917 310.381C79.1917 311.025 78.9446 311.439 77.9026 312.535L75.1741 315.408V316.074H80.2874V315.215H76.5115V315.193L78.4719 313.168C79.7664 311.831 80.1584 311.187 80.1584 310.322C80.1584 309.135 79.0681 308.195 77.6824 308.195C76.2214 308.195 75.1257 309.205 75.1257 310.558ZM84.0686 316.203C85.7122 316.203 86.8831 315.279 86.8831 313.979C86.8831 313.018 86.217 312.223 85.2126 311.987V311.965C86.0559 311.697 86.5662 311.042 86.5662 310.236C86.5662 309.054 85.5188 308.195 84.0686 308.195C82.6292 308.195 81.5657 309.06 81.5657 310.23C81.5657 311.047 82.0867 311.708 82.9246 311.965V311.987C81.9255 312.218 81.2595 313.013 81.2595 313.979C81.2595 315.274 82.4304 316.203 84.0686 316.203ZM84.0686 315.36C83.0051 315.36 82.2424 314.753 82.2424 313.91C82.2424 313.061 83.0051 312.454 84.0686 312.454C85.1375 312.454 85.8948 313.056 85.8948 313.91C85.8948 314.753 85.1375 315.36 84.0686 315.36ZM84.0686 311.605C83.1609 311.605 82.5271 311.074 82.5271 310.322C82.5271 309.564 83.1609 309.027 84.0686 309.027C84.9763 309.027 85.6101 309.559 85.6101 310.322C85.6101 311.074 84.9709 311.605 84.0686 311.605Z" fill="#333333"/>
<path d="M135.004 276.113V276.118H135.939V276.113C135.939 275.248 136.626 274.593 137.534 274.593C138.388 274.593 139.07 275.189 139.07 275.936C139.07 276.58 138.823 276.994 137.781 278.089L135.053 280.963V281.629H140.166V280.77H136.39V280.748L138.351 278.723C139.645 277.386 140.037 276.741 140.037 275.876C140.037 274.689 138.947 273.75 137.561 273.75C136.1 273.75 135.004 274.759 135.004 276.113ZM142.862 278.052H143.834C144.941 278.052 145.628 278.616 145.628 279.529C145.628 280.34 144.893 280.92 143.867 280.92C142.825 280.92 142.164 280.372 142.078 279.577H141.149C141.219 280.861 142.255 281.758 143.877 281.758C145.397 281.758 146.611 280.829 146.611 279.497C146.611 278.406 145.859 277.681 144.688 277.611V277.59C145.655 277.418 146.278 276.72 146.278 275.748C146.278 274.582 145.231 273.75 143.845 273.75C142.39 273.75 141.412 274.593 141.305 275.909H142.234C142.32 275.098 142.911 274.587 143.802 274.587C144.785 274.587 145.306 275.108 145.306 275.876C145.306 276.661 144.683 277.235 143.792 277.235H142.862V278.052Z" fill="#333333"/>
<path d="M164.943 276.113V276.118H165.878V276.113C165.878 275.248 166.565 274.593 167.473 274.593C168.327 274.593 169.009 275.189 169.009 275.936C169.009 276.58 168.762 276.994 167.72 278.089L164.992 280.963V281.629H170.105V280.77H166.329V280.748L168.29 278.723C169.584 277.386 169.976 276.741 169.976 275.876C169.976 274.689 168.886 273.75 167.5 273.75C166.039 273.75 164.943 274.759 164.943 276.113ZM174.638 281.629H175.573V280.018H176.668V279.169H175.573V273.878H174.144C172.312 276.505 171.405 277.917 170.744 279.142V280.018H174.638V281.629ZM171.7 279.147C172.312 278.073 173.156 276.779 174.622 274.684H174.638V279.169H171.7V279.147Z" fill="#333333"/>
<path d="M199.489 276.113V276.118H200.424V276.113C200.424 275.248 201.111 274.593 202.019 274.593C202.873 274.593 203.555 275.189 203.555 275.936C203.555 276.58 203.308 276.994 202.266 278.089L199.538 280.963V281.629H204.651V280.77H200.875V280.748L202.835 278.723C204.13 277.386 204.522 276.741 204.522 275.876C204.522 274.689 203.432 273.75 202.046 273.75C200.585 273.75 199.489 274.759 199.489 276.113ZM208.432 281.758C210.049 281.758 211.193 280.667 211.193 279.11C211.193 277.606 210.119 276.516 208.631 276.516C207.89 276.516 207.245 276.795 206.896 277.262H206.875L207.111 274.738H210.752V273.878H206.316L205.892 278.218H206.799C207.116 277.676 207.734 277.348 208.459 277.348C209.49 277.348 210.226 278.095 210.226 279.137C210.226 280.179 209.496 280.909 208.443 280.909C207.514 280.909 206.81 280.34 206.724 279.513H205.773C205.854 280.834 206.95 281.758 208.432 281.758Z" fill="#333333"/>
<path d="M224.823 276.113V276.118H225.757V276.113C225.757 275.248 226.445 274.593 227.353 274.593C228.207 274.593 228.889 275.189 228.889 275.936C228.889 276.58 228.642 276.994 227.6 278.089L224.871 280.963V281.629H229.984V280.77H226.208V280.748L228.169 278.723C229.463 277.386 229.855 276.741 229.855 275.876C229.855 274.689 228.765 273.75 227.379 273.75C225.918 273.75 224.823 274.759 224.823 276.113ZM233.905 281.763C235.495 281.763 236.65 280.646 236.65 279.115C236.65 277.644 235.554 276.553 234.077 276.553C233.116 276.553 232.262 277.053 231.913 277.81H231.896C231.929 275.748 232.665 274.598 233.959 274.598C234.727 274.598 235.35 275.049 235.56 275.753H236.542C236.295 274.534 235.286 273.744 233.97 273.744C232.074 273.744 230.962 275.275 230.962 277.885C230.962 278.723 231.085 279.421 231.343 280.018C231.821 281.135 232.745 281.763 233.905 281.763ZM233.895 280.904C232.901 280.904 232.127 280.114 232.127 279.121C232.127 278.132 232.885 277.402 233.911 277.402C234.937 277.402 235.667 278.132 235.667 279.147C235.667 280.125 234.883 280.904 233.895 280.904Z" fill="#333333"/>
<path d="M254.762 276.113V276.118H255.696V276.113C255.696 275.248 256.384 274.593 257.292 274.593C258.146 274.593 258.828 275.189 258.828 275.936C258.828 276.58 258.581 276.994 257.539 278.089L254.81 280.963V281.629H259.923V280.77H256.147V280.748L258.108 278.723C259.402 277.386 259.794 276.741 259.794 275.876C259.794 274.689 258.704 273.75 257.318 273.75C255.857 273.75 254.762 274.759 254.762 276.113ZM261.486 281.629H262.501L265.95 274.775V273.878H260.82V274.738H264.994V274.759L261.486 281.629Z" fill="#333333"/>
<path d="M59.2947 207.333C53.4483 204.764 47.4277 202.611 41.278 200.89L40.8196 200.75L40.4309 200.85C33.2048 202.604 25.5887 201.712 18.9643 198.336C12.3399 194.96 7.14588 189.323 4.32455 182.447C1.50322 175.572 1.24141 167.914 3.58662 160.862C5.93183 153.81 10.7287 147.832 17.1071 144.012C23.4855 140.192 31.0229 138.782 38.352 140.04C45.6811 141.297 52.3165 145.138 57.0544 150.866C61.7923 156.593 64.319 163.828 64.1761 171.257C64.0331 178.687 61.2301 185.819 56.2753 191.36L55.7671 191.928L55.9265 192.665C57.3715 199.406 58.5075 204.325 59.2947 207.333Z" fill="white"/>
<g filter="url(#filter0_d)">
<path d="M33.9973 137.297V140.284C39.7074 140.287 45.2947 141.94 50.0853 145.045C54.8758 148.15 58.6651 152.574 60.996 157.782C63.3269 162.991 64.0999 168.762 63.2218 174.4C62.3437 180.038 59.852 185.301 56.0472 189.556L55.0508 190.691L55.3696 192.174C56.366 197.053 57.2926 200.995 58.01 203.952C52.9798 201.915 47.8445 200.147 42.626 198.656H42.5263L41.7591 198.427L40.972 198.616C38.6895 199.176 36.3478 199.46 33.9973 199.462C26.2417 199.313 18.8542 196.129 13.4243 190.594C7.99437 185.058 4.95583 177.614 4.96235 169.863C4.96888 162.112 8.01996 154.674 13.4592 149.147C18.8985 143.621 26.2912 140.449 34.0471 140.314V137.327L33.9973 137.297ZM34.0471 137.327C25.5031 137.469 17.3569 140.959 11.3629 147.045C5.36887 153.13 2.00654 161.325 2.00001 169.863C1.99348 178.402 5.34327 186.601 11.328 192.696C17.3127 198.791 25.4535 202.293 33.9973 202.449C36.5702 202.432 39.1321 202.111 41.6296 201.493V201.493C48.1143 203.279 54.4451 205.583 60.5608 208.382C60.6872 208.447 60.8272 208.481 60.9693 208.482C61.1121 208.472 61.2512 208.432 61.377 208.364C61.5029 208.296 61.6126 208.201 61.6986 208.087C61.7847 207.973 61.845 207.841 61.8756 207.702C61.9063 207.562 61.9064 207.417 61.876 207.277C60.9394 203.982 59.4946 197.56 58.2093 191.547C62.3946 186.861 65.1345 181.066 66.0989 174.859C67.0633 168.653 66.2111 162.301 63.6449 156.567C61.0787 150.834 56.908 145.964 51.6354 142.545C46.3628 139.126 40.2132 137.303 33.9276 137.297L34.0471 137.327Z" fill="#333333"/>
</g>
<path d="M41.777 152.959C39.8314 151.616 37.655 150.648 35.3582 150.103C31.7971 149.582 28.1635 150.219 24.988 151.922C21.9158 153.702 19.5246 156.465 18.1957 159.77C17.3969 161.66 17.0599 163.714 17.2127 165.761C14.3818 166.542 12.8876 170.466 12.8876 170.466C12.3842 171.759 12.2399 173.165 12.4702 174.533C12.7005 175.902 13.2967 177.182 14.195 178.236C15.0289 179.266 16.0959 180.079 17.3067 180.609C18.5175 181.139 19.8369 181.369 21.1544 181.281C21.8015 182.393 22.7093 183.33 23.7986 184.009C26.7475 186.105 31.4559 184.918 31.4559 184.918L32.2226 185.245C35.1125 186.164 36.3609 184.474 36.3609 184.474C38.7298 182.882 37.275 179.59 37.275 179.59C36.8667 178.869 36.257 178.284 35.5214 177.908C34.7858 177.532 33.9567 177.382 33.1367 177.475C32.4006 177.516 31.6945 177.782 31.113 178.238C30.5315 178.694 30.1024 179.317 29.8831 180.025C29.242 180.198 28.5712 180.228 27.9172 180.114C27.347 180.12 26.7901 179.941 26.3283 179.605C25.8665 179.269 25.5242 178.792 25.3517 178.246L22.8549 169.003C22.0851 166.812 22.0437 164.429 22.737 162.212C24.5456 155.895 31.2986 155.174 31.2986 155.174C39.0935 154.007 42.2783 161.668 42.2783 161.668C42.2783 161.668 44.952 171.306 45.355 172.68C45.758 174.055 47.9894 174.252 47.9894 174.252C54.6833 172.275 54.8701 167.333 54.8701 167.333C56.0595 156.973 46.1905 157.823 46.1905 157.823C45.0584 155.921 43.5575 154.267 41.777 152.959Z" fill="#333333"/>
<path d="M221.398 105.148C216.464 105.156 211.652 103.621 207.638 100.76C203.623 97.8999 200.609 93.857 199.018 89.2001C197.427 84.5431 197.34 79.5061 198.768 74.7971C200.197 70.0881 203.069 65.9437 206.982 62.9465C210.895 59.9493 215.651 58.2499 220.582 58.0871C225.514 57.9244 230.373 59.3064 234.475 62.0391C238.578 64.7718 241.719 68.7177 243.457 73.3222C245.195 77.9267 245.442 82.9584 244.163 87.7101C242.837 92.7175 239.883 97.1453 235.764 100.301C231.645 103.456 226.593 105.161 221.398 105.148V105.148Z" fill="white"/>
<g filter="url(#filter1_d)">
<path d="M220.793 58.7654C225.456 58.764 230.003 60.2194 233.795 62.927C237.586 65.6347 240.431 69.4586 241.931 73.8615C243.43 78.2644 243.509 83.0251 242.155 87.4748C240.802 91.9245 238.084 95.8397 234.384 98.6702C230.684 101.501 226.188 103.104 221.527 103.256C216.866 103.408 212.275 102.099 208.397 99.5153C204.52 96.9312 201.553 93.201 199.911 88.8487C198.27 84.4964 198.037 79.7407 199.246 75.2497C200.524 70.5246 203.327 66.3504 207.221 63.3713C211.115 60.3921 215.885 58.7736 220.793 58.7654V58.7654ZM220.793 55.7773C214.362 55.7759 208.171 58.2134 203.475 62.5955C198.78 66.9776 195.932 72.9762 195.509 79.3748C195.086 85.7733 197.119 92.0928 201.197 97.0516C205.275 102.01 211.091 105.237 217.467 106.078C223.843 106.918 230.3 105.31 235.53 101.578C240.76 97.8461 244.371 92.2707 245.63 85.9824C246.89 79.694 245.703 73.1636 242.311 67.7154C238.92 62.2672 233.577 58.3091 227.366 56.6439C225.223 56.0689 223.013 55.7776 220.793 55.7773V55.7773Z" fill="#333333"/>
</g>
<path d="M230.535 86.9485C230.478 86.8931 230.433 86.827 230.402 86.754C230.371 86.681 230.355 86.6026 230.355 86.5235V79.1397C230.355 74.7411 228.176 71.0146 224.357 69.7099C224.142 69.6431 223.953 69.5125 223.815 69.3357C223.677 69.1588 223.598 68.9444 223.588 68.7214V68.504C223.608 68.1974 223.565 67.89 223.46 67.6007C223.356 67.3114 223.193 67.0464 222.98 66.8221C222.768 66.5977 222.511 66.4189 222.226 66.2967C221.941 66.1744 221.634 66.1113 221.323 66.1113C221.013 66.1113 220.705 66.1744 220.42 66.2967C220.135 66.4189 219.879 66.5977 219.666 66.8221C219.454 67.0464 219.291 67.3114 219.186 67.6007C219.082 67.89 219.039 68.1974 219.059 68.504V68.7115C219.06 68.9443 218.986 69.1713 218.847 69.3597C218.709 69.548 218.514 69.688 218.289 69.7593C214.431 71.0542 212.291 74.7707 212.291 79.1891V86.5729C212.291 86.7307 212.231 86.8827 212.121 86.9979L209.592 89.558C209.39 89.7573 209.275 90.0271 209.272 90.3092C209.272 90.5976 209.388 90.8742 209.595 91.0781C209.801 91.282 210.08 91.3965 210.372 91.3965H232.365C232.509 91.3965 232.651 91.3683 232.784 91.3136C232.917 91.2588 233.037 91.1786 233.139 91.0775C233.24 90.9764 233.32 90.8564 233.374 90.7246C233.428 90.5927 233.456 90.4515 233.454 90.3092V90.3092C233.455 90.0283 233.344 89.7583 233.144 89.558L230.535 86.9485ZM222.808 85.6833C222.809 85.8256 222.782 85.9668 222.728 86.0986C222.674 86.2305 222.594 86.3504 222.492 86.4515C222.391 86.5526 222.27 86.6329 222.138 86.6876C222.005 86.7424 221.862 86.7706 221.718 86.7706H220.889C220.597 86.7706 220.317 86.656 220.111 86.4521C219.905 86.2482 219.789 85.9716 219.789 85.6833V84.8036C219.789 84.5152 219.905 84.2386 220.111 84.0347C220.317 83.8308 220.597 83.7162 220.889 83.7162H221.718C221.862 83.7162 222.005 83.7444 222.138 83.7992C222.27 83.854 222.391 83.9342 222.492 84.0353C222.594 84.1364 222.674 84.2563 222.728 84.3882C222.782 84.5201 222.809 84.6612 222.808 84.8036V85.6833ZM222.808 79.5845C222.808 79.8703 222.693 80.1443 222.489 80.3464C222.284 80.5484 222.007 80.6619 221.718 80.6619H220.889C220.745 80.6632 220.602 80.6363 220.468 80.5828C220.335 80.5292 220.214 80.4501 220.112 80.3499C220.009 80.2497 219.928 80.1305 219.873 79.9991C219.817 79.8678 219.789 79.7268 219.789 79.5845V75.6307C219.789 75.4884 219.817 75.3475 219.873 75.2161C219.928 75.0847 220.009 74.9655 220.112 74.8653C220.214 74.7652 220.335 74.686 220.468 74.6325C220.602 74.5789 220.745 74.552 220.889 74.5533H221.718C222.007 74.5533 222.284 74.6668 222.489 74.8689C222.693 75.0709 222.808 75.345 222.808 75.6307V79.5845ZM221.288 95.9632C221.827 95.9619 222.356 95.8171 222.818 95.544C223.281 95.2709 223.661 94.8797 223.917 94.4113C224.012 94.2589 224.062 94.0841 224.064 93.9055C224.065 93.727 224.018 93.5513 223.927 93.3972C223.835 93.2431 223.704 93.1164 223.545 93.0304C223.387 92.9444 223.208 92.9024 223.028 92.9089H219.549C219.368 92.9024 219.19 92.9444 219.031 93.0304C218.873 93.1164 218.741 93.2431 218.65 93.3972C218.559 93.5513 218.512 93.727 218.513 93.9055C218.515 94.0841 218.565 94.2589 218.659 94.4113C218.916 94.8797 219.296 95.2709 219.758 95.544C220.221 95.8171 220.75 95.9619 221.288 95.9632Z" fill="#333333"/>
<path d="M177.049 76.4446C173.679 76.4485 170.393 75.362 167.653 73.338C164.912 71.3139 162.854 68.4539 161.769 65.1599C160.683 61.8659 160.624 58.3034 161.601 54.9731C162.577 51.6429 164.539 48.7121 167.211 46.5928C169.884 44.4735 173.132 43.2721 176.499 43.1575C179.867 43.0428 183.185 44.0207 185.986 45.9537C188.788 47.8867 190.933 50.6777 192.119 53.9343C193.306 57.191 193.474 60.7497 192.601 64.1104C191.7 67.6564 189.684 70.7926 186.868 73.0255C184.053 75.2584 180.598 76.4611 177.049 76.4446Z" fill="white"/>
<g filter="url(#filter2_d)">
<path d="M177.054 44.9661C180.253 44.9658 183.371 45.9344 185.97 47.7354C188.569 49.5364 190.518 52.0792 191.542 55.006C192.566 57.9328 192.615 61.0962 191.681 64.051C190.747 67.0058 188.877 69.6033 186.334 71.478C183.792 73.3526 180.705 74.41 177.508 74.5014C174.311 74.5928 171.164 73.7135 168.512 71.9873C165.859 70.2611 163.833 67.775 162.72 64.8786C161.606 61.9823 161.461 58.8217 162.305 55.8416C163.198 52.7227 165.123 49.9716 167.786 48.008C170.449 46.0445 173.704 44.9762 177.054 44.9661V44.9661ZM177.054 42C172.377 41.9941 167.872 43.707 164.453 46.7913C161.035 49.8756 158.959 54.1003 158.647 58.6085C158.335 63.1167 159.81 67.5709 162.772 71.0674C165.735 74.564 169.963 76.8412 174.6 77.4371C179.237 78.033 183.935 76.903 187.741 74.2763C191.547 71.6495 194.176 67.7228 195.095 63.2926C196.014 58.8624 195.154 54.2603 192.69 50.42C190.225 46.5797 186.341 43.7887 181.824 42.613C180.269 42.2075 178.665 42.0014 177.054 42V42Z" fill="#333333"/>
</g>
<path d="M167.832 65.993C167.824 66.0044 167.819 66.0177 167.818 66.0315C167.818 66.0453 167.821 66.059 167.827 66.0711C167.834 66.0832 167.844 66.0933 167.856 66.1001C167.867 66.107 167.881 66.1103 167.895 66.1098H186.155C186.169 66.1127 186.184 66.1111 186.198 66.1052C186.212 66.0993 186.223 66.0894 186.231 66.0768C186.239 66.0642 186.243 66.0494 186.243 66.0345C186.242 66.0196 186.237 66.0051 186.228 65.993L177.093 50.0731C177.086 50.0621 177.077 50.0531 177.066 50.0467C177.055 50.0404 177.043 50.0371 177.03 50.0371C177.017 50.0371 177.005 50.0404 176.994 50.0467C176.983 50.0531 176.974 50.0621 176.967 50.0731L167.832 65.993ZM177.87 63.0744C177.87 63.2011 177.82 63.3225 177.732 63.4121C177.643 63.5017 177.523 63.552 177.398 63.552H176.662C176.537 63.552 176.417 63.5017 176.328 63.4121C176.24 63.3225 176.19 63.2011 176.19 63.0744V62.3209C176.19 62.1942 176.24 62.0727 176.328 61.9831C176.417 61.8936 176.537 61.8433 176.662 61.8433H177.398C177.523 61.8433 177.643 61.8936 177.732 61.9831C177.82 62.0727 177.87 62.1942 177.87 62.3209V63.0744ZM177.87 59.6675C177.87 59.7942 177.82 59.9157 177.732 60.0052C177.643 60.0948 177.523 60.1451 177.398 60.1451H176.662C176.537 60.1451 176.417 60.0948 176.328 60.0052C176.24 59.9157 176.19 59.7942 176.19 59.6675V57.1734C176.19 57.0467 176.24 56.9253 176.328 56.8357C176.417 56.7461 176.537 56.6958 176.662 56.6958H177.398C177.523 56.6958 177.643 56.7461 177.732 56.8357C177.82 56.9253 177.87 57.0467 177.87 57.1734V59.6675Z" fill="#333333"/>
<path d="M316.588 192.267C311.876 192.255 307.249 191.028 303.17 188.708C299.091 186.388 295.702 183.056 293.342 179.045L292.856 178.208L291.842 178.298C284.222 179.075 278.537 179.732 274.909 180.29C281.115 172.783 286.681 164.784 291.548 156.377L291.599 156.297L291.66 156.157C293.587 151.438 296.858 147.366 301.08 144.428C305.302 141.491 310.296 139.814 315.464 139.597C315.839 139.597 316.224 139.597 316.599 139.597C323.721 139.456 330.608 142.102 335.746 146.954C340.884 151.806 343.851 158.466 343.995 165.469C344.138 172.472 341.447 179.244 336.513 184.296C331.578 189.348 324.805 192.265 317.683 192.407L316.588 192.267Z" fill="white"/>
<g filter="url(#filter3_d)">
<path d="M316.417 138.455V141.411C319.717 141.346 322.999 141.919 326.073 143.097C329.148 144.275 331.956 146.035 334.336 148.276C336.717 150.518 338.624 153.196 339.948 156.16C341.272 159.123 341.987 162.313 342.053 165.548C342.119 168.782 341.535 171.998 340.333 175.011C339.13 178.023 337.335 180.775 335.047 183.108C332.76 185.441 330.026 187.309 327.002 188.607C323.978 189.904 320.723 190.605 317.422 190.67H316.366C311.956 190.658 307.626 189.513 303.808 187.348C299.99 185.184 296.819 182.076 294.61 178.335L293.605 176.67L291.664 176.867C286.303 177.406 281.926 177.889 278.534 178.316C283.809 171.66 288.586 164.64 292.831 157.312V157.312L292.921 157.154L292.992 156.977C294.792 152.573 297.853 148.772 301.805 146.031C305.757 143.291 310.433 141.728 315.27 141.529C315.622 141.529 315.984 141.529 316.336 141.529V138.573L316.417 138.455ZM316.336 138.573C315.944 138.573 315.542 138.573 315.15 138.573C309.756 138.803 304.544 140.548 300.134 143.599C295.724 146.651 292.302 150.881 290.277 155.785C285.218 164.524 279.378 172.806 272.824 180.532C272.715 180.653 272.643 180.802 272.617 180.961C272.591 181.12 272.612 181.283 272.678 181.431C272.743 181.579 272.85 181.706 272.987 181.796C273.123 181.886 273.283 181.937 273.447 181.941H273.598C277.62 181.291 285.15 180.453 292.047 179.764C294.516 183.955 298.066 187.435 302.342 189.856C306.618 192.277 311.468 193.553 316.407 193.556H317.593C324.842 193.116 331.637 189.946 336.558 184.711C341.478 179.475 344.143 172.578 343.995 165.462C343.847 158.346 340.897 151.562 335.764 146.527C330.63 141.492 323.708 138.596 316.447 138.445L316.336 138.573Z" fill="#333333"/>
</g>
<path d="M302.899 161.675L303.018 166.094L300.242 166.178L300.322 169.131L303.098 169.046L303.217 173.465L305.993 173.38L306.072 176.333L308.848 176.249L308.65 168.867L325.298 168.371L325.496 175.753L328.272 175.669L328.193 172.716L330.969 172.632L330.85 168.213L333.636 168.129L333.557 165.176L330.781 165.26L330.662 160.831L327.885 160.916L327.806 157.963L325.03 158.047L325.218 165.429L308.571 165.935L308.382 158.553L305.596 158.638L305.676 161.591L302.899 161.675Z" fill="#333333"/>
<path d="M211.326 225.13C211.326 226.577 210.15 227.751 208.697 227.751C207.245 227.751 206.068 226.577 206.068 225.13C206.068 223.684 207.245 222.51 208.697 222.51C210.15 222.51 211.326 223.684 211.326 225.13Z" fill="#81B7AE" stroke="white" stroke-width="0.5"/>
<path d="M265.447 192.982C265.447 194.428 264.271 195.602 262.818 195.602C261.366 195.602 260.189 194.428 260.189 192.982C260.189 191.535 261.366 190.361 262.818 190.361C264.271 190.361 265.447 191.535 265.447 192.982Z" fill="#FDAE46" stroke="white" stroke-width="0.5"/>
<path d="M176.781 257.279C176.781 258.725 175.604 259.899 174.152 259.899C172.699 259.899 171.523 258.725 171.523 257.279C171.523 255.832 172.699 254.658 174.152 254.658C175.604 254.658 176.781 255.832 176.781 257.279Z" fill="#BE0707" stroke="white" stroke-width="0.5"/>
<path d="M82.356 226.279C82.356 227.725 81.1797 228.899 79.7272 228.899C78.2746 228.899 77.0984 227.725 77.0984 226.279C77.0984 224.832 78.2746 223.658 79.7272 223.658C81.1797 223.658 82.356 224.832 82.356 226.279Z" fill="#FDAE46" stroke="white" stroke-width="0.5"/>
<defs>
<filter id="filter0_d" x="0" y="135.297" width="72.4848" height="79.1852" filterUnits="userSpaceOnUse" color-interpolation-filters="sRGB">
<feFlood flood-opacity="0" result="BackgroundImageFix"/>
<feColorMatrix in="SourceAlpha" type="matrix" values="0 0 0 0 0 0 0 0 0 0 0 0 0 0 0 0 0 0 127 0"/>
<feOffset dx="2" dy="2"/>
<feGaussianBlur stdDeviation="2"/>
<feColorMatrix type="matrix" values="0 0 0 0 0 0 0 0 0 0 0 0 0 0 0 0 0 0 0.25 0"/>
<feBlend mode="normal" in2="BackgroundImageFix" result="effect1_dropShadow"/>
<feBlend mode="normal" in="SourceGraphic" in2="effect1_dropShadow" result="shape"/>
</filter>
<filter id="filter1_d" x="193.454" y="53.7773" width="58.6667" height="58.5185" filterUnits="userSpaceOnUse" color-interpolation-filters="sRGB">
<feFlood flood-opacity="0" result="BackgroundImageFix"/>
<feColorMatrix in="SourceAlpha" type="matrix" values="0 0 0 0 0 0 0 0 0 0 0 0 0 0 0 0 0 0 127 0"/>
<feOffset dx="2" dy="2"/>
<feGaussianBlur stdDeviation="2"/>
<feColorMatrix type="matrix" values="0 0 0 0 0 0 0 0 0 0 0 0 0 0 0 0 0 0 0.25 0"/>
<feBlend mode="normal" in2="BackgroundImageFix" result="effect1_dropShadow"/>
<feBlend mode="normal" in="SourceGraphic" in2="effect1_dropShadow" result="shape"/>
</filter>
<filter id="filter2_d" x="156.606" y="40" width="44.8485" height="43.5926" filterUnits="userSpaceOnUse" color-interpolation-filters="sRGB">
<feFlood flood-opacity="0" result="BackgroundImageFix"/>
<feColorMatrix in="SourceAlpha" type="matrix" values="0 0 0 0 0 0 0 0 0 0 0 0 0 0 0 0 0 0 127 0"/>
<feOffset dx="2" dy="2"/>
<feGaussianBlur stdDeviation="2"/>
<feColorMatrix type="matrix" values="0 0 0 0 0 0 0 0 0 0 0 0 0 0 0 0 0 0 0.25 0"/>
<feBlend mode="normal" in2="BackgroundImageFix" result="effect1_dropShadow"/>
<feBlend mode="normal" in="SourceGraphic" in2="effect1_dropShadow" result="shape"/>
</filter>
<filter id="filter3_d" x="270.606" y="136.445" width="79.3939" height="63.1111" filterUnits="userSpaceOnUse" color-interpolation-filters="sRGB">
<feFlood flood-opacity="0" result="BackgroundImageFix"/>
<feColorMatrix in="SourceAlpha" type="matrix" values="0 0 0 0 0 0 0 0 0 0 0 0 0 0 0 0 0 0 127 0"/>
<feOffset dx="2" dy="2"/>
<feGaussianBlur stdDeviation="2"/>
<feColorMatrix type="matrix" values="0 0 0 0 0 0 0 0 0 0 0 0 0 0 0 0 0 0 0.25 0"/>
<feBlend mode="normal" in2="BackgroundImageFix" result="effect1_dropShadow"/>
<feBlend mode="normal" in="SourceGraphic" in2="effect1_dropShadow" result="shape"/>
</filter>
</defs>
</svg>
