<svg width="29" height="35" viewBox="0 0 29 35" fill="none" xmlns="http://www.w3.org/2000/svg">
<path d="M28.8182 6.36364L14.5001 0L0.181885 6.36364V15.9091C0.181885 24.7386 6.29098 32.9955 14.5001 35C18.1592 34.1091 21.3887 31.9773 23.8546 29.0977L18.891 24.1341C15.8046 26.1864 11.6046 25.8364 8.88416 23.1159C5.78189 20.0136 5.78189 14.9705 8.88416 11.8682C11.9864 8.76591 17.0296 8.76591 20.1319 11.8682C22.8523 14.5886 23.1864 18.7886 21.1501 21.875L25.7637 26.4886C27.6887 23.3705 28.8182 19.6955 28.8182 15.9091V6.36364Z" fill="#9AC5BE"/>
<path d="M14.5 22.272C17.1359 22.272 19.2727 20.1352 19.2727 17.4993C19.2727 14.8634 17.1359 12.7266 14.5 12.7266C11.8641 12.7266 9.72729 14.8634 9.72729 17.4993C9.72729 20.1352 11.8641 22.272 14.5 22.272Z" fill="#9AC5BE"/>
</svg>
