<svg width="343" height="438" viewBox="0 0 343 438" fill="none" xmlns="http://www.w3.org/2000/svg">
<path d="M0 0H343V438H0V0Z" fill="white"/>
<path d="M25.2363 416.49H26.3463C27.5063 416.49 28.3963 416.25 29.0163 415.77C29.6363 415.29 29.9463 414.6 29.9463 413.7C29.9463 412.8 29.6363 412.11 29.0163 411.63C28.3963 411.15 27.5063 410.91 26.3463 410.91H25.2363V416.49ZM38.1663 429H30.8463L25.2363 420.3V429H19.3563V406.38H28.5063C29.7663 406.38 30.8663 406.57 31.8063 406.95C32.7463 407.31 33.5163 407.81 34.1163 408.45C34.7363 409.09 35.1963 409.83 35.4963 410.67C35.8163 411.51 35.9763 412.41 35.9763 413.37C35.9763 415.09 35.5563 416.49 34.7163 417.57C33.8963 418.63 32.6763 419.35 31.0563 419.73L38.1663 429ZM51.0436 419.07C50.8636 418.31 50.4936 417.7 49.9336 417.24C49.3736 416.78 48.6936 416.55 47.8936 416.55C47.0536 416.55 46.3636 416.77 45.8236 417.21C45.3036 417.65 44.9736 418.27 44.8336 419.07H51.0436ZM44.6836 422.22C44.6836 424.56 45.7836 425.73 47.9836 425.73C49.1636 425.73 50.0536 425.25 50.6536 424.29H55.9036C54.8436 427.81 52.1936 429.57 47.9536 429.57C46.6536 429.57 45.4636 429.38 44.3836 429C43.3036 428.6 42.3736 428.04 41.5936 427.32C40.8336 426.6 40.2436 425.74 39.8236 424.74C39.4036 423.74 39.1936 422.62 39.1936 421.38C39.1936 420.1 39.3936 418.95 39.7936 417.93C40.1936 416.89 40.7636 416.01 41.5036 415.29C42.2436 414.57 43.1336 414.02 44.1736 413.64C45.2336 413.24 46.4236 413.04 47.7436 413.04C49.0436 413.04 50.2136 413.24 51.2536 413.64C52.2936 414.02 53.1736 414.58 53.8936 415.32C54.6136 416.06 55.1636 416.97 55.5436 418.05C55.9236 419.11 56.1136 420.31 56.1136 421.65V422.22H44.6836ZM64.2574 421.26C64.2574 421.76 64.3474 422.23 64.5274 422.67C64.7074 423.09 64.9474 423.46 65.2474 423.78C65.5674 424.1 65.9374 424.35 66.3574 424.53C66.7974 424.71 67.2674 424.8 67.7674 424.8C68.2474 424.8 68.6974 424.71 69.1174 424.53C69.5574 424.35 69.9274 424.1 70.2274 423.78C70.5474 423.46 70.7974 423.09 70.9774 422.67C71.1774 422.23 71.2774 421.77 71.2774 421.29C71.2774 420.81 71.1774 420.36 70.9774 419.94C70.7974 419.52 70.5474 419.15 70.2274 418.83C69.9274 418.51 69.5574 418.26 69.1174 418.08C68.6974 417.9 68.2474 417.81 67.7674 417.81C67.2874 417.81 66.8274 417.9 66.3874 418.08C65.9674 418.26 65.5974 418.51 65.2774 418.83C64.9774 419.15 64.7274 419.52 64.5274 419.94C64.3474 420.34 64.2574 420.78 64.2574 421.26ZM71.0974 436.68V427.5C69.8374 428.82 68.2474 429.48 66.3274 429.48C65.2274 429.48 64.2074 429.27 63.2674 428.85C62.3274 428.43 61.5074 427.85 60.8074 427.11C60.1274 426.37 59.5874 425.51 59.1874 424.53C58.8074 423.53 58.6174 422.47 58.6174 421.35C58.6174 420.19 58.8174 419.11 59.2174 418.11C59.6174 417.11 60.1674 416.24 60.8674 415.5C61.5674 414.76 62.3874 414.18 63.3274 413.76C64.2674 413.34 65.2874 413.13 66.3874 413.13C68.3674 413.13 69.9374 413.86 71.0974 415.32V413.61H76.5574V436.68H71.0974ZM86.1806 413.61V422.28C86.1806 424.18 87.1006 425.13 88.9406 425.13C90.7806 425.13 91.7006 424.18 91.7006 422.28V413.61H97.1306V423.33C97.1306 425.41 96.4406 426.97 95.0606 428.01C93.7006 429.05 91.6606 429.57 88.9406 429.57C86.2206 429.57 84.1706 429.05 82.7906 428.01C81.4306 426.97 80.7506 425.41 80.7506 423.33V413.61H86.1806ZM112.069 419.07C111.889 418.31 111.519 417.7 110.959 417.24C110.399 416.78 109.719 416.55 108.919 416.55C108.079 416.55 107.389 416.77 106.849 417.21C106.329 417.65 105.999 418.27 105.859 419.07H112.069ZM105.709 422.22C105.709 424.56 106.809 425.73 109.009 425.73C110.189 425.73 111.079 425.25 111.679 424.29H116.929C115.869 427.81 113.219 429.57 108.979 429.57C107.679 429.57 106.489 429.38 105.409 429C104.329 428.6 103.399 428.04 102.619 427.32C101.859 426.6 101.269 425.74 100.849 424.74C100.429 423.74 100.219 422.62 100.219 421.38C100.219 420.1 100.419 418.95 100.819 417.93C101.219 416.89 101.789 416.01 102.529 415.29C103.269 414.57 104.159 414.02 105.199 413.64C106.259 413.24 107.449 413.04 108.769 413.04C110.069 413.04 111.239 413.24 112.279 413.64C113.319 414.02 114.199 414.58 114.919 415.32C115.639 416.06 116.189 416.97 116.569 418.05C116.949 419.11 117.139 420.31 117.139 421.65V422.22H105.709ZM130.443 417.57C129.443 417.05 128.463 416.79 127.503 416.79C127.003 416.79 126.593 416.89 126.273 417.09C125.973 417.29 125.823 417.56 125.823 417.9C125.823 418.08 125.843 418.23 125.883 418.35C125.943 418.45 126.053 418.55 126.213 418.65C126.393 418.75 126.643 418.84 126.963 418.92C127.303 419 127.743 419.1 128.283 419.22C129.783 419.52 130.903 420.06 131.643 420.84C132.383 421.6 132.753 422.58 132.753 423.78C132.753 424.68 132.573 425.49 132.213 426.21C131.853 426.93 131.353 427.54 130.713 428.04C130.073 428.52 129.303 428.89 128.403 429.15C127.503 429.43 126.513 429.57 125.433 429.57C123.353 429.57 121.303 428.98 119.283 427.8L121.263 423.96C122.783 425 124.223 425.52 125.583 425.52C126.083 425.52 126.493 425.41 126.813 425.19C127.133 424.97 127.293 424.69 127.293 424.35C127.293 424.15 127.263 423.99 127.203 423.87C127.163 423.73 127.063 423.61 126.903 423.51C126.743 423.39 126.503 423.29 126.183 423.21C125.883 423.11 125.483 423.01 124.983 422.91C123.303 422.57 122.123 422.07 121.443 421.41C120.783 420.73 120.453 419.8 120.453 418.62C120.453 417.76 120.613 416.99 120.933 416.31C121.253 415.61 121.713 415.02 122.313 414.54C122.913 414.06 123.633 413.69 124.473 413.43C125.333 413.17 126.283 413.04 127.323 413.04C129.023 413.04 130.673 413.37 132.273 414.03L130.443 417.57ZM141.977 418.14V429H136.547V418.14H134.747V413.61H136.547V408.99H141.977V413.61H145.067V418.14H141.977ZM167.443 414.63C168.843 413.79 169.543 412.85 169.543 411.81C169.543 411.25 169.353 410.77 168.973 410.37C168.613 409.95 168.143 409.74 167.563 409.74C167.023 409.74 166.573 409.92 166.213 410.28C165.853 410.64 165.673 411.09 165.673 411.63C165.673 412.35 166.263 413.35 167.443 414.63ZM165.013 419.55C163.593 420.43 162.883 421.31 162.883 422.19C162.883 422.51 162.953 422.81 163.093 423.09C163.233 423.35 163.423 423.58 163.663 423.78C163.903 423.96 164.173 424.11 164.473 424.23C164.793 424.33 165.133 424.38 165.493 424.38C166.493 424.38 167.523 424.05 168.583 423.39L165.013 419.55ZM172.873 420.36C174.073 419.22 175.053 418.14 175.813 417.12L179.143 420.33C178.803 420.79 178.413 421.26 177.973 421.74C177.553 422.2 177.063 422.69 176.503 423.21L176.053 423.63L181.093 429H173.773L171.793 426.93C169.093 428.73 166.503 429.63 164.023 429.63C162.963 429.63 161.993 429.47 161.113 429.15C160.233 428.83 159.473 428.38 158.833 427.8C158.193 427.22 157.693 426.54 157.333 425.76C156.973 424.96 156.793 424.09 156.793 423.15C156.793 422.31 156.903 421.57 157.123 420.93C157.363 420.27 157.763 419.64 158.323 419.04C158.743 418.58 159.203 418.19 159.703 417.87C160.223 417.53 160.853 417.19 161.593 416.85L162.223 416.55L161.833 416.1C160.673 414.64 160.093 413.25 160.093 411.93C160.093 411.05 160.273 410.23 160.633 409.47C160.993 408.71 161.483 408.06 162.103 407.52C162.743 406.96 163.493 406.53 164.353 406.23C165.213 405.91 166.143 405.75 167.143 405.75C168.163 405.75 169.103 405.91 169.963 406.23C170.823 406.53 171.563 406.96 172.183 407.52C172.823 408.08 173.313 408.74 173.653 409.5C174.013 410.24 174.193 411.05 174.193 411.93C174.193 412.53 174.123 413.08 173.983 413.58C173.843 414.06 173.603 414.52 173.263 414.96C172.943 415.38 172.513 415.79 171.973 416.19C171.453 416.57 170.803 416.96 170.023 417.36L172.873 420.36ZM199.553 424.44H200.843C202.323 424.44 203.383 424.25 204.023 423.87C204.663 423.49 204.983 422.88 204.983 422.04C204.983 421.2 204.663 420.59 204.023 420.21C203.383 419.83 202.323 419.64 200.843 419.64H199.553V424.44ZM199.553 415.26H200.633C202.473 415.26 203.393 414.53 203.393 413.07C203.393 411.61 202.473 410.88 200.633 410.88H199.553V415.26ZM193.673 406.38H202.433C204.513 406.38 206.093 406.88 207.173 407.88C208.253 408.88 208.793 410.32 208.793 412.2C208.793 413.34 208.583 414.29 208.163 415.05C207.763 415.79 207.143 416.42 206.303 416.94C207.143 417.1 207.853 417.35 208.433 417.69C209.033 418.01 209.513 418.41 209.873 418.89C210.253 419.37 210.523 419.91 210.683 420.51C210.843 421.11 210.923 421.75 210.923 422.43C210.923 423.49 210.733 424.43 210.353 425.25C209.993 426.07 209.473 426.76 208.793 427.32C208.133 427.88 207.323 428.3 206.363 428.58C205.403 428.86 204.323 429 203.123 429H193.673V406.38ZM219.064 421.23C219.064 421.75 219.154 422.23 219.334 422.67C219.534 423.09 219.784 423.46 220.084 423.78C220.404 424.1 220.774 424.35 221.194 424.53C221.634 424.71 222.094 424.8 222.574 424.8C223.054 424.8 223.504 424.71 223.924 424.53C224.364 424.35 224.734 424.1 225.034 423.78C225.354 423.46 225.604 423.09 225.784 422.67C225.984 422.23 226.084 421.76 226.084 421.26C226.084 420.78 225.984 420.33 225.784 419.91C225.604 419.47 225.354 419.09 225.034 418.77C224.734 418.45 224.364 418.2 223.924 418.02C223.504 417.84 223.054 417.75 222.574 417.75C222.094 417.75 221.634 417.84 221.194 418.02C220.774 418.2 220.404 418.45 220.084 418.77C219.784 419.09 219.534 419.46 219.334 419.88C219.154 420.3 219.064 420.75 219.064 421.23ZM213.334 421.17C213.334 420.03 213.564 418.97 214.024 417.99C214.484 416.99 215.124 416.13 215.944 415.41C216.764 414.67 217.734 414.09 218.854 413.67C219.994 413.25 221.234 413.04 222.574 413.04C223.894 413.04 225.114 413.25 226.234 413.67C227.374 414.07 228.354 414.64 229.174 415.38C230.014 416.1 230.664 416.97 231.124 417.99C231.584 418.99 231.814 420.1 231.814 421.32C231.814 422.54 231.574 423.66 231.094 424.68C230.634 425.68 229.994 426.55 229.174 427.29C228.354 428.01 227.364 428.57 226.204 428.97C225.064 429.37 223.824 429.57 222.484 429.57C221.164 429.57 219.944 429.37 218.824 428.97C217.704 428.57 216.734 428 215.914 427.26C215.114 426.52 214.484 425.64 214.024 424.62C213.564 423.58 213.334 422.43 213.334 421.17ZM240.07 421.23C240.07 421.75 240.16 422.23 240.34 422.67C240.54 423.09 240.79 423.46 241.09 423.78C241.41 424.1 241.78 424.35 242.2 424.53C242.64 424.71 243.1 424.8 243.58 424.8C244.06 424.8 244.51 424.71 244.93 424.53C245.37 424.35 245.74 424.1 246.04 423.78C246.36 423.46 246.61 423.09 246.79 422.67C246.99 422.23 247.09 421.76 247.09 421.26C247.09 420.78 246.99 420.33 246.79 419.91C246.61 419.47 246.36 419.09 246.04 418.77C245.74 418.45 245.37 418.2 244.93 418.02C244.51 417.84 244.06 417.75 243.58 417.75C243.1 417.75 242.64 417.84 242.2 418.02C241.78 418.2 241.41 418.45 241.09 418.77C240.79 419.09 240.54 419.46 240.34 419.88C240.16 420.3 240.07 420.75 240.07 421.23ZM234.34 421.17C234.34 420.03 234.57 418.97 235.03 417.99C235.49 416.99 236.13 416.13 236.95 415.41C237.77 414.67 238.74 414.09 239.86 413.67C241 413.25 242.24 413.04 243.58 413.04C244.9 413.04 246.12 413.25 247.24 413.67C248.38 414.07 249.36 414.64 250.18 415.38C251.02 416.1 251.67 416.97 252.13 417.99C252.59 418.99 252.82 420.1 252.82 421.32C252.82 422.54 252.58 423.66 252.1 424.68C251.64 425.68 251 426.55 250.18 427.29C249.36 428.01 248.37 428.57 247.21 428.97C246.07 429.37 244.83 429.57 243.49 429.57C242.17 429.57 240.95 429.37 239.83 428.97C238.71 428.57 237.74 428 236.92 427.26C236.12 426.52 235.49 425.64 235.03 424.62C234.57 423.58 234.34 422.43 234.34 421.17ZM261.376 404.1V419.16L267.076 413.61H274.516L266.806 420.72L274.966 429H267.346L261.376 422.73V429H255.946V404.1H261.376ZM282.323 413.61V429H276.893V413.61H282.323ZM276.533 407.7C276.533 407.28 276.613 406.89 276.773 406.53C276.933 406.15 277.153 405.82 277.433 405.54C277.713 405.26 278.033 405.04 278.393 404.88C278.773 404.72 279.173 404.64 279.593 404.64C280.013 404.64 280.403 404.72 280.763 404.88C281.143 405.04 281.473 405.26 281.753 405.54C282.033 405.82 282.253 406.15 282.413 406.53C282.573 406.89 282.653 407.28 282.653 407.7C282.653 408.12 282.573 408.52 282.413 408.9C282.253 409.26 282.033 409.58 281.753 409.86C281.473 410.14 281.143 410.36 280.763 410.52C280.403 410.68 280.013 410.76 279.593 410.76C279.173 410.76 278.773 410.68 278.393 410.52C278.033 410.36 277.713 410.14 277.433 409.86C277.153 409.58 276.933 409.26 276.773 408.9C276.613 408.52 276.533 408.12 276.533 407.7ZM286.034 413.61H291.464V415.56C292.204 414.66 292.954 414.06 293.714 413.76C294.474 413.44 295.364 413.28 296.384 413.28C297.464 413.28 298.384 413.46 299.144 413.82C299.924 414.16 300.584 414.65 301.124 415.29C301.564 415.81 301.864 416.39 302.024 417.03C302.184 417.67 302.264 418.4 302.264 419.22V429H296.834V421.23C296.834 420.47 296.774 419.86 296.654 419.4C296.554 418.92 296.364 418.54 296.084 418.26C295.844 418.02 295.574 417.85 295.274 417.75C294.974 417.65 294.654 417.6 294.314 417.6C293.394 417.6 292.684 417.88 292.184 418.44C291.704 418.98 291.464 419.76 291.464 420.78V429H286.034V413.61ZM310.996 421.23C310.996 421.73 311.086 422.2 311.266 422.64C311.446 423.06 311.686 423.43 311.986 423.75C312.306 424.07 312.676 424.32 313.096 424.5C313.536 424.68 314.006 424.77 314.506 424.77C314.986 424.77 315.436 424.68 315.856 424.5C316.296 424.32 316.666 424.07 316.966 423.75C317.286 423.43 317.536 423.06 317.716 422.64C317.916 422.2 318.016 421.74 318.016 421.26C318.016 420.76 317.916 420.3 317.716 419.88C317.536 419.46 317.286 419.09 316.966 418.77C316.646 418.45 316.266 418.2 315.826 418.02C315.406 417.84 314.966 417.75 314.506 417.75C314.026 417.75 313.576 417.85 313.156 418.05C312.736 418.23 312.366 418.48 312.046 418.8C311.726 419.1 311.466 419.46 311.266 419.88C311.086 420.3 310.996 420.75 310.996 421.23ZM323.176 413.61V427.95C323.176 428.81 323.126 429.58 323.026 430.26C322.926 430.94 322.786 431.54 322.606 432.06C322.366 432.72 321.986 433.33 321.466 433.89C320.966 434.47 320.356 434.97 319.636 435.39C318.916 435.81 318.096 436.14 317.176 436.38C316.276 436.62 315.296 436.74 314.236 436.74C313.036 436.74 311.936 436.59 310.936 436.29C309.936 435.99 309.056 435.57 308.296 435.03C307.556 434.51 306.946 433.89 306.466 433.17C305.986 432.47 305.666 431.7 305.506 430.86H311.626C312.006 431.88 312.866 432.39 314.206 432.39C315.346 432.39 316.216 432.07 316.816 431.43C317.436 430.79 317.746 429.9 317.746 428.76V427.29C317.346 427.67 316.956 427.99 316.576 428.25C316.216 428.49 315.846 428.69 315.466 428.85C315.086 429.01 314.686 429.12 314.266 429.18C313.846 429.26 313.386 429.3 312.886 429.3C311.786 429.3 310.776 429.11 309.856 428.73C308.936 428.35 308.136 427.82 307.456 427.14C306.796 426.46 306.276 425.65 305.896 424.71C305.536 423.75 305.356 422.69 305.356 421.53C305.356 420.35 305.556 419.26 305.956 418.26C306.356 417.24 306.896 416.36 307.576 415.62C308.276 414.86 309.096 414.27 310.036 413.85C310.996 413.41 312.036 413.19 313.156 413.19C314.976 413.19 316.506 413.87 317.746 415.23V413.61H323.176Z" fill="#333333"/>
<path d="M162.037 104.077C119.25 106.496 66.4352 129.393 57.12 134.853C47.8047 140.313 -1.47263 160.663 0.0338176 216.294C1.96546 287.621 8.19181 298.581 27.6357 314.107C47.0796 329.633 77.3976 349.428 114.118 359.852C150.839 370.276 209.887 377.82 257.531 335.729C305.175 293.637 329.423 267.717 336.189 239.484C342.954 211.251 362.064 182.503 279.593 142.673C201.748 100.603 210.224 101.353 162.037 104.077Z" fill="#FFDCAD"/>
<path d="M192.032 332.73C245.256 318.469 276.842 263.761 262.58 210.537C248.319 157.313 193.611 125.728 140.388 139.989C87.1636 154.25 55.5782 208.958 69.8395 262.182C84.1008 315.406 138.808 346.991 192.032 332.73Z" stroke="#333333" stroke-width="3" stroke-linecap="round" stroke-linejoin="round" stroke-dasharray="14.25 14.25"/>
<path d="M268 352.069C265.459 352.069 262.933 351.664 260.52 350.869L207.9 333.609C204.902 332.628 202.127 331.066 199.733 329.012C197.339 326.959 195.374 324.453 193.949 321.639C192.524 318.825 191.668 315.757 191.43 312.612C191.192 309.467 191.576 306.306 192.56 303.309L232.56 181.309C233.54 178.31 235.103 175.534 237.157 173.139C239.212 170.745 241.719 168.779 244.534 167.354C247.349 165.929 250.418 165.073 253.564 164.836C256.71 164.598 259.873 164.983 262.87 165.969L315.51 183.229C318.507 184.211 321.281 185.773 323.674 187.828C326.066 189.882 328.031 192.388 329.454 195.202C330.878 198.016 331.733 201.083 331.971 204.228C332.209 207.372 331.824 210.533 330.84 213.529L290.84 335.529C289.265 340.344 286.208 344.536 282.105 347.507C278.003 350.478 273.065 352.075 268 352.069V352.069Z" fill="white"/>
<path d="M255.37 163.29V166.29C257.748 166.293 260.111 166.674 262.37 167.42L315 184.68C320.672 186.543 325.372 190.582 328.068 195.909C330.765 201.236 331.236 207.415 329.38 213.09L289.38 335.09C287.906 339.596 285.044 343.521 281.204 346.302C277.363 349.082 272.741 350.576 268 350.57C265.622 350.563 263.26 350.186 261 349.45L208.36 332.19C202.691 330.322 197.996 326.281 195.304 320.955C192.611 315.628 192.142 309.451 194 303.78L234 181.78C235.47 177.266 238.332 173.335 242.174 170.548C246.017 167.762 250.643 166.264 255.39 166.27V163.27L255.37 163.29ZM255.39 163.27C250.014 163.272 244.776 164.972 240.423 168.127C236.07 171.282 232.825 175.731 231.15 180.84L191.15 302.84C189.041 309.271 189.574 316.277 192.631 322.315C195.688 328.354 201.018 332.931 207.45 335.04L260.09 352.3C266.521 354.408 273.527 353.875 279.566 350.818C285.604 347.761 290.181 342.431 292.29 336L332.29 214C334.395 207.568 333.861 200.564 330.805 194.526C327.748 188.488 322.42 183.91 315.99 181.8L263.35 164.55C260.785 163.702 258.101 163.269 255.4 163.27H255.39Z" fill="#333333"/>
<path d="M250.77 184.34C251.868 184.336 252.95 184.594 253.929 185.091C254.907 185.589 255.753 186.312 256.397 187.201C257.041 188.09 257.464 189.119 257.631 190.204C257.799 191.289 257.706 192.398 257.36 193.44L257.08 194.31C256.796 195.176 256.344 195.977 255.75 196.669C255.155 197.36 254.431 197.928 253.618 198.339C252.804 198.75 251.918 198.998 251.009 199.066C250.1 199.135 249.186 199.024 248.32 198.74C247.454 198.456 246.652 198.003 245.961 197.409C245.27 196.815 244.702 196.091 244.291 195.277C243.879 194.464 243.632 193.577 243.564 192.668C243.495 191.759 243.606 190.846 243.89 189.98L244.17 189.12C244.624 187.728 245.507 186.516 246.693 185.657C247.879 184.798 249.306 184.337 250.77 184.34V184.34ZM250.77 181.34C248.677 181.348 246.64 182.012 244.944 183.239C243.249 184.466 241.981 186.194 241.32 188.18L241.04 189.05C240.632 190.29 240.473 191.599 240.572 192.9C240.67 194.202 241.025 195.472 241.615 196.637C242.204 197.801 243.018 198.838 244.009 199.688C245 200.538 246.149 201.184 247.39 201.59V201.59C248.63 201.999 249.939 202.159 251.241 202.061C252.544 201.963 253.814 201.609 254.979 201.019C256.144 200.429 257.181 199.615 258.031 198.623C258.88 197.631 259.526 196.482 259.93 195.24L260.22 194.38C261.027 191.873 260.813 189.149 259.624 186.8C258.435 184.45 256.368 182.664 253.87 181.83C252.868 181.507 251.822 181.342 250.77 181.34V181.34Z" fill="#333333"/>
<path d="M270.37 191.529C271.107 191.531 271.84 191.649 272.54 191.879C273.406 192.163 274.208 192.615 274.899 193.21C275.591 193.804 276.158 194.528 276.57 195.342C276.981 196.155 277.228 197.042 277.297 197.951C277.365 198.86 277.254 199.773 276.97 200.639L276.68 201.509C276.106 203.258 274.86 204.708 273.217 205.539C271.575 206.369 269.669 206.513 267.92 205.939C266.171 205.365 264.721 204.12 263.891 202.477C263.06 200.834 262.916 198.928 263.49 197.179L263.78 196.309C264.232 194.918 265.114 193.706 266.298 192.848C267.482 191.989 268.907 191.527 270.37 191.529V191.529ZM270.37 188.529C268.275 188.531 266.235 189.194 264.54 190.424C262.844 191.654 261.581 193.389 260.93 195.379L260.64 196.249C260.233 197.49 260.075 198.799 260.175 200.101C260.274 201.403 260.629 202.673 261.219 203.838C261.809 205.003 262.623 206.04 263.614 206.891C264.605 207.741 265.754 208.388 266.995 208.794C268.236 209.201 269.545 209.359 270.847 209.259C272.149 209.16 273.419 208.805 274.584 208.215C275.748 207.625 276.786 206.811 277.636 205.82C278.487 204.829 279.133 203.68 279.54 202.439L279.82 201.569C280.289 200.079 280.402 198.499 280.15 196.957C279.898 195.415 279.288 193.953 278.369 192.689C277.451 191.425 276.248 190.394 274.859 189.679C273.47 188.963 271.932 188.583 270.37 188.569V188.529Z" fill="#333333"/>
<path d="M290 198.729C291.093 198.742 292.167 199.011 293.138 199.514C294.108 200.017 294.947 200.741 295.587 201.626C296.228 202.512 296.652 203.535 296.826 204.614C297 205.693 296.919 206.797 296.59 207.839L296.31 208.699C295.856 210.089 294.975 211.3 293.791 212.159C292.607 213.018 291.182 213.48 289.72 213.479C288.982 213.483 288.249 213.364 287.55 213.129C285.811 212.559 284.368 211.325 283.534 209.695C282.701 208.066 282.545 206.173 283.1 204.429L283.38 203.559C283.834 202.168 284.717 200.955 285.903 200.097C287.089 199.238 288.516 198.777 289.98 198.779L290 198.729ZM289.98 195.779C287.887 195.787 285.85 196.451 284.154 197.679C282.459 198.906 281.191 200.634 280.53 202.619L280.25 203.489C279.443 205.996 279.657 208.72 280.846 211.069C282.035 213.419 284.102 215.205 286.6 216.039V216.039C287.601 216.363 288.647 216.529 289.7 216.529C291.793 216.528 293.833 215.867 295.528 214.638C297.223 213.41 298.487 211.678 299.14 209.689L299.42 208.819C299.828 207.579 299.987 206.271 299.888 204.969C299.79 203.667 299.435 202.397 298.845 201.232C298.256 200.068 297.442 199.031 296.451 198.181C295.46 197.331 294.311 196.685 293.07 196.279C292.073 195.948 291.03 195.779 289.98 195.779V195.779Z" fill="#333333"/>
<path d="M309.58 205.92C310.678 205.919 311.761 206.178 312.739 206.677C313.718 207.175 314.564 207.899 315.208 208.788C315.852 209.678 316.276 210.707 316.445 211.792C316.614 212.877 316.523 213.987 316.18 215.03L315.89 215.9C315.316 217.649 314.07 219.098 312.427 219.929C310.785 220.76 308.879 220.904 307.13 220.33C305.381 219.756 303.931 218.51 303.101 216.867C302.27 215.225 302.126 213.319 302.7 211.57L302.99 210.71C303.44 209.317 304.321 208.103 305.505 207.242C306.689 206.382 308.116 205.919 309.58 205.92V205.92ZM309.58 202.92C307.488 202.931 305.451 203.597 303.758 204.826C302.064 206.055 300.799 207.784 300.14 209.77L299.85 210.64C299.029 213.145 299.237 215.873 300.428 218.225C301.619 220.577 303.695 222.359 306.2 223.18C307.44 223.589 308.749 223.749 310.051 223.651C311.353 223.553 312.624 223.199 313.789 222.609C314.954 222.019 315.991 221.205 316.841 220.213C317.69 219.221 318.336 218.072 318.74 216.83L319.03 215.97C319.834 213.465 319.618 210.743 318.43 208.396C317.241 206.049 315.175 204.264 312.68 203.43V203.43C311.68 203.099 310.633 202.93 309.58 202.93V202.92Z" fill="#333333"/>
<path d="M242.46 209.66C243.197 209.662 243.93 209.78 244.63 210.01C246.37 210.597 247.809 211.845 248.638 213.484C249.466 215.122 249.618 217.021 249.06 218.77L248.78 219.64C248.161 221.333 246.908 222.719 245.286 223.505C243.664 224.292 241.8 224.417 240.087 223.856C238.374 223.294 236.947 222.088 236.106 220.494C235.265 218.9 235.076 217.041 235.58 215.31L235.87 214.44C236.324 213.05 237.205 211.839 238.389 210.98C239.573 210.122 240.998 209.66 242.46 209.66V209.66ZM242.46 206.66C240.365 206.662 238.325 207.325 236.63 208.555C234.934 209.785 233.671 211.519 233.02 213.51L232.73 214.38C231.926 216.885 232.141 219.607 233.33 221.954C234.519 224.301 236.585 226.086 239.08 226.92V226.92C240.321 227.329 241.63 227.49 242.933 227.392C244.236 227.294 245.507 226.94 246.673 226.35C247.839 225.76 248.877 224.946 249.728 223.954C250.578 222.962 251.225 221.812 251.63 220.57L251.91 219.7C252.379 218.21 252.492 216.63 252.24 215.088C251.988 213.546 251.378 212.084 250.459 210.82C249.541 209.556 248.338 208.525 246.949 207.809C245.56 207.094 244.022 206.714 242.46 206.7V206.66Z" fill="#333333"/>
<path d="M261.79 233.109C260.459 233.104 259.147 232.784 257.963 232.175C256.778 231.567 255.755 230.687 254.975 229.608C254.195 228.529 253.681 227.281 253.475 225.966C253.269 224.65 253.377 223.305 253.79 222.039L254.08 221.169C254.367 220.049 254.881 219.001 255.59 218.088C256.298 217.175 257.187 216.417 258.201 215.862C259.215 215.307 260.331 214.966 261.482 214.86C262.633 214.754 263.794 214.885 264.892 215.246C265.99 215.607 267.002 216.19 267.865 216.958C268.729 217.726 269.425 218.664 269.912 219.712C270.398 220.76 270.664 221.898 270.693 223.053C270.722 224.208 270.513 225.357 270.08 226.429L269.8 227.299C269.249 228.989 268.177 230.461 266.739 231.505C265.3 232.548 263.567 233.11 261.79 233.109V233.109Z" fill="#FDAE46"/>
<path d="M262.07 216.859C263.167 216.86 264.249 217.12 265.226 217.62C266.203 218.119 267.048 218.843 267.691 219.732C268.334 220.621 268.757 221.65 268.926 222.734C269.094 223.818 269.003 224.927 268.66 225.969L268.38 226.829C267.926 228.219 267.044 229.431 265.861 230.289C264.677 231.148 263.252 231.61 261.79 231.609C261.052 231.613 260.319 231.495 259.62 231.259C257.882 230.672 256.445 229.426 255.616 227.79C254.788 226.154 254.635 224.257 255.19 222.509L255.47 221.639C255.924 220.248 256.807 219.035 257.993 218.177C259.179 217.318 260.606 216.857 262.07 216.859ZM262.07 213.859C259.976 213.868 257.937 214.534 256.242 215.763C254.546 216.992 253.279 218.722 252.62 220.709L252.34 221.569C251.533 224.076 251.747 226.8 252.936 229.149C254.124 231.499 256.192 233.285 258.69 234.119C259.691 234.443 260.737 234.608 261.79 234.609C263.883 234.608 265.923 233.947 267.618 232.719C269.313 231.49 270.577 229.758 271.23 227.769L271.52 226.899C272.34 224.394 272.132 221.666 270.942 219.314C269.751 216.963 267.675 215.18 265.17 214.359C264.17 214.029 263.123 213.86 262.07 213.859V213.859Z" fill="#333333"/>
<path d="M281.67 224.061C282.407 224.059 283.139 224.174 283.84 224.401C284.706 224.685 285.508 225.137 286.199 225.731C286.891 226.325 287.459 227.049 287.87 227.863C288.281 228.676 288.528 229.563 288.597 230.472C288.666 231.381 288.555 232.294 288.27 233.161L287.98 234.031C287.406 235.78 286.161 237.229 284.518 238.06C282.875 238.891 280.969 239.035 279.22 238.461C277.471 237.886 276.022 236.641 275.191 234.998C274.36 233.355 274.216 231.45 274.79 229.701L275.08 228.841C275.534 227.45 276.416 226.239 277.599 225.381C278.783 224.522 280.208 224.06 281.67 224.061V224.061ZM281.67 221.061C279.577 221.06 277.536 221.721 275.841 222.949C274.145 224.178 272.882 225.911 272.23 227.901L271.94 228.771C271.534 230.012 271.376 231.32 271.475 232.622C271.575 233.925 271.929 235.194 272.52 236.359C273.11 237.524 273.923 238.561 274.914 239.412C275.905 240.262 277.054 240.909 278.295 241.316C279.536 241.722 280.845 241.88 282.147 241.781C283.449 241.681 284.719 241.326 285.884 240.736C287.049 240.146 288.086 239.332 288.936 238.341C289.787 237.35 290.434 236.202 290.84 234.961L291.12 234.101C291.927 231.594 291.713 228.87 290.524 226.521C289.336 224.171 287.268 222.385 284.77 221.551C283.769 221.227 282.723 221.062 281.67 221.061V221.061Z" fill="#333333"/>
<path d="M301.28 231.25C302.373 231.263 303.447 231.532 304.417 232.035C305.388 232.538 306.227 233.261 306.867 234.147C307.508 235.032 307.932 236.055 308.106 237.134C308.28 238.213 308.199 239.318 307.87 240.36L307.59 241.22C307.312 242.094 306.865 242.904 306.272 243.603C305.68 244.303 304.955 244.879 304.139 245.297C303.324 245.715 302.433 245.967 301.519 246.039C300.605 246.11 299.686 246 298.815 245.715C297.944 245.43 297.138 244.975 296.444 244.376C295.749 243.778 295.181 243.048 294.77 242.228C294.359 241.408 294.115 240.515 294.052 239.601C293.988 238.687 294.107 237.769 294.4 236.9L294.68 236.03C295.134 234.638 296.017 233.426 297.203 232.567C298.389 231.709 299.816 231.247 301.28 231.25V231.25ZM301.28 228.25C299.186 228.259 297.147 228.924 295.452 230.153C293.756 231.382 292.489 233.113 291.83 235.1L291.55 235.96C290.743 238.467 290.957 241.19 292.146 243.54C293.334 245.89 295.402 247.676 297.9 248.51V248.51C299.14 248.919 300.449 249.079 301.751 248.981C303.053 248.883 304.323 248.529 305.488 247.939C306.654 247.349 307.691 246.535 308.54 245.543C309.39 244.552 310.036 243.402 310.44 242.16L310.72 241.29C311.541 238.786 311.334 236.059 310.145 233.708C308.957 231.356 306.883 229.573 304.38 228.75V228.75C303.38 228.419 302.333 228.251 301.28 228.25V228.25Z" fill="#333333"/>
<path d="M263.789 167.268L315.919 184.357C315.246 186.411 313.784 188.113 311.855 189.089C309.927 190.066 307.69 190.236 305.636 189.562L268.994 177.551C266.94 176.878 265.238 175.416 264.262 173.487C263.285 171.559 263.115 169.322 263.789 167.268V167.268V167.268Z" fill="#333333"/>
<path d="M216.91 325.709L261.04 340.179" stroke="#333333" stroke-width="2" stroke-miterlimit="10" stroke-linecap="round"/>
<path d="M266.891 318.999L227.779 306.177C223.917 304.911 219.759 307.016 218.493 310.879C217.227 314.741 219.332 318.899 223.194 320.165L262.306 332.987C266.169 334.253 270.326 332.148 271.593 328.286C272.859 324.423 270.754 320.265 266.891 318.999Z" fill="#FDAE46" stroke="#F1F2F2" stroke-miterlimit="10"/>
<path d="M239.615 319.089C240.39 319.343 240.988 319.105 241.198 318.466C241.355 317.986 241.127 317.519 240.65 317.309L240.656 317.289C241.048 317.351 241.448 317.106 241.576 316.716C241.757 316.166 241.448 315.672 240.789 315.456L239.283 314.963L238.094 318.59L239.615 319.089ZM239.766 315.68L240.46 315.908C240.847 316.035 241.008 316.285 240.904 316.602C240.793 316.939 240.477 317.047 240.024 316.898L239.431 316.704L239.766 315.68ZM238.909 318.298L239.28 317.164L239.977 317.392C240.474 317.555 240.672 317.835 240.551 318.204C240.429 318.576 240.11 318.692 239.633 318.535L238.909 318.298ZM244.13 316.485C243.072 316.138 242.172 316.642 241.793 317.795C241.415 318.949 241.843 319.886 242.901 320.233C243.957 320.579 244.857 320.078 245.235 318.924C245.613 317.77 245.186 316.831 244.13 316.485ZM243.949 317.038C244.595 317.249 244.839 317.897 244.574 318.707C244.309 319.514 243.729 319.892 243.083 319.68C242.434 319.467 242.192 318.82 242.457 318.013C242.722 317.204 243.3 316.825 243.949 317.038ZM247.967 317.742C246.908 317.395 246.008 317.899 245.63 319.053C245.251 320.207 245.679 321.144 246.738 321.491C247.794 321.837 248.693 321.335 249.071 320.181C249.45 319.027 249.022 318.088 247.967 317.742ZM247.785 318.295C248.431 318.507 248.675 319.155 248.41 319.965C248.146 320.772 247.565 321.149 246.919 320.937C246.27 320.725 246.029 320.078 246.293 319.271C246.559 318.461 247.137 318.083 247.785 318.295ZM249.644 322.376L250.026 321.21L250.52 320.91L251.18 322.88L251.969 323.139L251.125 320.626L253.05 319.476L252.304 319.231L250.299 320.453L250.277 320.446L250.833 318.749L250.184 318.536L248.995 322.164L249.644 322.376Z" fill="#333333"/>
<path d="M282.62 343.32C271.62 343.32 267.37 337.18 249.28 311.38C245.7 306.27 241.64 300.47 236.88 293.81C236.55 293.33 228.67 282.11 236.35 275.81C237.139 275.148 238.14 274.793 239.17 274.81C243.36 274.81 248.31 280.24 249.67 283.03C252.02 287.83 260.61 300.58 260.98 301.12C261.116 301.323 261.301 301.49 261.517 301.605C261.733 301.72 261.975 301.78 262.22 301.78C262.412 301.777 262.601 301.74 262.78 301.67C263.097 301.542 263.361 301.31 263.529 301.012C263.696 300.714 263.756 300.367 263.7 300.03C263.7 300.03 253.6 238.88 253.59 238.85C253.58 238.82 252.41 233.6 254.74 230.08C255.356 229.21 256.148 228.478 257.064 227.932C257.98 227.386 259.001 227.038 260.06 226.91C260.63 226.804 261.209 226.751 261.79 226.75C268.79 226.75 269.42 236.03 269.44 236.43C269.44 236.43 269.44 236.52 269.44 236.57L274.6 270.72C274.653 271.074 274.831 271.398 275.103 271.631C275.375 271.864 275.722 271.992 276.08 271.99H276.24C276.624 271.947 276.978 271.758 277.227 271.462C277.476 271.167 277.603 270.786 277.58 270.4C277.28 265.54 278.68 262.74 281.76 262.09C282.374 261.954 283.001 261.884 283.63 261.88C288.3 261.88 289.69 266.43 289.86 267.02L290.32 270.09C290.372 270.445 290.551 270.77 290.822 271.005C291.094 271.239 291.441 271.369 291.8 271.37H292C292.389 271.322 292.745 271.124 292.989 270.817C293.234 270.511 293.349 270.12 293.31 269.73C292.91 265.73 293.65 260.79 299.44 259.92C299.899 259.845 300.364 259.808 300.83 259.81C306.26 259.81 307.67 265.7 308.02 268.23C308.068 268.588 308.245 268.916 308.517 269.153C308.789 269.391 309.139 269.521 309.5 269.52H309.66C310.046 269.482 310.403 269.294 310.653 268.997C310.903 268.7 311.028 268.317 311 267.93C310.8 264.93 311.19 259.87 316 259.14C316.434 259.078 316.871 259.045 317.31 259.04C322.4 259.04 324.42 264.04 324.71 264.8C325.05 266.74 329.31 291.17 329.96 299.51C331.03 313.2 325.46 337.51 297.79 341.67L297.14 341.77C290.88 342.63 286.37 343.32 282.62 343.32Z" fill="white"/>
<path d="M261.79 228.189C267.41 228.189 267.93 236.109 267.95 236.439C267.94 236.539 267.94 236.639 267.95 236.739L273.09 270.739C273.195 272.263 273.429 273.775 273.79 275.259C273.96 275.898 274.336 276.464 274.861 276.867C275.385 277.27 276.028 277.489 276.69 277.489C276.895 277.49 277.1 277.467 277.3 277.419C278.051 277.264 278.714 276.827 279.153 276.198C279.591 275.57 279.773 274.797 279.66 274.039L279.06 270.099C278.73 264.179 281.23 263.649 282.06 263.469C282.573 263.362 283.096 263.305 283.62 263.299C287.05 263.299 288.18 266.569 288.38 267.249L288.82 270.159C288.879 270.815 288.98 271.466 289.12 272.109C289.273 272.768 289.646 273.357 290.176 273.778C290.706 274.199 291.363 274.428 292.04 274.429C292.23 274.443 292.42 274.443 292.61 274.429C293.372 274.283 294.048 273.847 294.495 273.213C294.943 272.579 295.127 271.796 295.01 271.029L294.8 269.429C294.34 264.609 295.98 261.879 299.68 261.319C300.064 261.26 300.452 261.23 300.84 261.229C304.89 261.229 306.14 265.579 306.53 268.229C306.554 268.648 306.601 269.065 306.67 269.479C306.784 270.18 307.143 270.819 307.683 271.28C308.223 271.741 308.91 271.996 309.62 271.999C309.726 272.009 309.834 272.009 309.94 271.999C310.698 271.918 311.397 271.552 311.895 270.974C312.393 270.396 312.652 269.651 312.62 268.889C312.604 268.467 312.564 268.046 312.5 267.629C312.32 264.629 312.82 261.039 316.19 260.529C316.55 260.471 316.915 260.44 317.28 260.439C321.18 260.439 322.89 264.249 323.22 265.099C323.7 267.839 327.8 291.419 328.43 299.519C329.068 307.767 327.333 316.025 323.43 323.319C318.18 332.649 309.48 338.319 297.57 340.089L296.92 340.189C290.75 341.119 286.3 341.799 282.66 341.799C272.8 341.799 269.01 336.799 250.55 310.499C246.97 305.379 242.91 299.589 238.15 292.919C237.84 292.489 230.74 282.359 237.34 276.919C237.857 276.465 238.522 276.215 239.21 276.219C242.59 276.219 247.12 281.069 248.37 283.599C250.76 288.489 259.37 301.319 259.77 301.869C260.045 302.276 260.416 302.609 260.85 302.839C261.285 303.07 261.769 303.19 262.26 303.189C262.64 303.188 263.016 303.117 263.37 302.979C264.007 302.726 264.537 302.262 264.874 301.665C265.21 301.069 265.333 300.375 265.22 299.699L255.13 238.609V238.419C254.83 237.139 254.43 233.269 256.07 230.799C256.574 230.102 257.219 229.518 257.963 229.088C258.708 228.657 259.535 228.388 260.39 228.299C260.875 228.211 261.367 228.164 261.86 228.159L261.79 228.189ZM261.86 225.159C261.189 225.163 260.52 225.223 259.86 225.339C249.37 227.169 252.19 239.099 252.19 239.099L262.28 300.189C262.28 300.189 253.41 287.039 251.08 282.279C249.52 279.109 244.2 273.219 239.23 273.219C237.846 273.213 236.505 273.703 235.45 274.599C228.16 280.599 232.85 290.599 235.72 294.649C264.92 335.549 268.66 344.789 282.72 344.789C286.72 344.789 291.57 344.029 298.08 343.049C327.08 338.649 332.62 313.329 331.52 299.279C330.83 290.469 326.23 264.279 326.23 264.279C326.23 264.279 323.98 257.399 317.38 257.399C316.864 257.401 316.35 257.441 315.84 257.519C309.62 258.459 309.44 265.219 309.62 267.889C309.71 268.559 309.73 268.979 309.73 268.979C309.73 268.979 309.66 268.569 309.62 267.889C309.23 265.149 307.62 258.179 300.94 258.179C300.401 258.181 299.863 258.221 299.33 258.299C291.8 259.439 291.6 266.489 291.92 269.749L292.17 271.389C292.055 270.848 291.971 270.3 291.92 269.749L291.45 266.599C291.45 266.599 289.92 260.259 283.75 260.259C283.014 260.261 282.279 260.341 281.56 260.499C276.61 261.549 275.97 266.649 276.21 270.369L276.82 274.449C276.496 273.11 276.292 271.744 276.21 270.369L271.04 236.229C271.04 236.229 270.49 225.129 261.89 225.129L261.86 225.159Z" fill="#333333"/>
<path d="M52.67 342.309C47.7755 342.301 43.0197 340.682 39.1373 337.702C35.2549 334.721 32.462 330.545 31.19 325.819L12.27 255.319C10.7423 249.617 11.5409 243.541 14.4905 238.428C17.4401 233.315 22.2992 229.581 28 228.049L104 207.659C106.827 206.893 109.777 206.694 112.681 207.074C115.585 207.453 118.385 208.403 120.921 209.868C123.456 211.334 125.677 213.287 127.455 215.614C129.233 217.941 130.533 220.597 131.28 223.429L150.19 293.929C150.948 296.752 151.142 299.696 150.761 302.594C150.381 305.492 149.433 308.286 147.972 310.818C146.512 313.349 144.566 315.568 142.248 317.348C139.929 319.127 137.283 320.432 134.46 321.189L58.46 341.579C56.5704 342.075 54.6237 342.32 52.67 342.309Z" fill="white"/>
<path d="M109.8 204.891V208.891C114.253 208.899 118.58 210.372 122.113 213.083C125.646 215.794 128.189 219.591 129.35 223.891L148.26 294.431C149.646 299.609 148.924 305.125 146.251 309.771C143.578 314.418 139.173 317.815 134 319.221L58.0002 339.611C56.2857 340.077 54.5168 340.312 52.7402 340.311C48.2862 340.306 43.9579 338.834 40.4242 336.122C36.8905 333.411 34.3482 329.611 33.1902 325.311L14.2802 254.811C13.5891 252.242 13.4111 249.562 13.7563 246.925C14.1016 244.287 14.9634 241.744 16.2925 239.439C17.6215 237.135 19.3917 235.116 21.5018 233.496C23.612 231.876 26.0207 230.689 28.5902 230.001L104.59 209.601C106.309 209.14 108.081 208.904 109.86 208.901V204.901L109.8 204.891ZM109.86 204.901C107.732 204.9 105.614 205.183 103.56 205.741L27.5602 226.131C24.4783 226.948 21.5878 228.365 19.054 230.301C16.5202 232.236 14.3928 234.653 12.7935 237.411C11.1942 240.169 10.1543 243.216 9.73335 246.377C9.3124 249.537 9.51861 252.75 10.3402 255.831L29.2602 326.331C30.6363 331.49 33.6766 336.05 37.9094 339.305C42.1422 342.559 47.3308 344.326 52.6702 344.331C54.7973 344.328 56.9151 344.049 58.9702 343.501L134.97 323.101C138.047 322.276 140.93 320.853 143.457 318.913C145.983 316.973 148.103 314.555 149.695 311.796C151.286 309.037 152.319 305.992 152.733 302.834C153.148 299.676 152.936 296.467 152.11 293.391L133.2 222.891C131.821 217.733 128.78 213.175 124.548 209.921C120.316 206.666 115.129 204.899 109.79 204.891L109.86 204.901Z" fill="#333333"/>
<path d="M55.2 236.769C54.2013 236.77 53.2299 236.443 52.4337 235.84C51.6376 235.237 51.0604 234.391 50.79 233.429L47.19 220.039C46.8781 218.868 47.0429 217.622 47.6483 216.572C48.2537 215.523 49.2503 214.756 50.42 214.439C50.8074 214.332 51.2078 214.278 51.61 214.279C52.6052 214.283 53.5721 214.612 54.3642 215.214C55.1563 215.817 55.7305 216.661 56 217.619L59.59 231.009C59.9018 232.18 59.737 233.427 59.1316 234.476C58.5263 235.526 57.5296 236.293 56.36 236.609C55.9822 236.714 55.592 236.768 55.2 236.769V236.769Z" fill="white"/>
<path d="M51.6098 215.23C52.3961 215.232 53.16 215.492 53.7835 215.971C54.4071 216.45 54.8556 217.121 55.0598 217.88L58.6498 231.27C58.7723 231.723 58.8044 232.195 58.7444 232.66C58.6843 233.125 58.5333 233.574 58.2998 233.98C58.067 234.388 57.7551 234.745 57.3825 235.03C57.0098 235.315 56.5839 235.522 56.1298 235.64C55.8276 235.728 55.5144 235.772 55.1998 235.77C54.4136 235.769 53.6497 235.509 53.0262 235.03C52.4026 234.551 51.9541 233.88 51.7498 233.12L48.1598 219.73C47.9178 218.816 48.0468 217.842 48.5187 217.022C48.9906 216.202 49.7673 215.601 50.6798 215.35C50.9835 215.271 51.296 215.231 51.6098 215.23ZM51.6098 213.23C51.1236 213.23 50.6394 213.294 50.1698 213.42C49.4623 213.61 48.799 213.936 48.2179 214.382C47.6368 214.828 47.1493 215.384 46.7833 216.018C46.4173 216.653 46.1801 217.353 46.0851 218.079C45.9901 218.805 46.0393 219.543 46.2298 220.25L49.8198 233.64C50.2041 235.068 51.1392 236.285 52.4198 237.023C53.7003 237.762 55.2217 237.962 56.6498 237.58V237.58C57.3565 237.39 58.0187 237.063 58.5987 236.616C59.1787 236.17 59.6651 235.614 60.0301 234.98C60.3951 234.346 60.6315 233.646 60.7258 232.92C60.8201 232.194 60.7705 231.457 60.5798 230.75L56.9998 217.36C56.6813 216.177 55.9817 215.131 55.0093 214.384C54.0369 213.638 52.8457 213.232 51.6198 213.23H51.6098Z" fill="#333333"/>
<path d="M83.8201 229.089C82.8131 229.088 81.8345 228.756 81.0355 228.143C80.2365 227.53 79.6617 226.671 79.4001 225.699L75.8101 212.309C75.4982 211.138 75.663 209.891 76.2684 208.842C76.8738 207.792 77.8704 207.025 79.0401 206.709C79.4285 206.606 79.8283 206.552 80.2301 206.549C81.2353 206.552 82.2117 206.885 83.0087 207.498C83.8056 208.11 84.3789 208.968 84.6401 209.939L88.2401 223.329C88.5516 224.501 88.3854 225.749 87.778 226.799C87.1706 227.849 86.1716 228.615 85.0001 228.929C84.6159 229.036 84.2189 229.09 83.8201 229.089Z" fill="white"/>
<path d="M80.23 207.549C81.0163 207.551 81.7801 207.811 82.4037 208.29C83.0272 208.769 83.4758 209.44 83.68 210.199L87.27 223.589C87.3915 224.042 87.4225 224.515 87.3614 224.98C87.3002 225.445 87.1481 225.893 86.9136 226.3C86.6791 226.706 86.367 227.062 85.9949 227.348C85.6228 227.633 85.1981 227.843 84.745 227.964C83.83 228.21 82.855 228.081 82.0346 227.608C81.2141 227.134 80.6153 226.354 80.37 225.439L76.78 212.049C76.5355 211.136 76.6636 210.162 77.136 209.343C77.6085 208.524 78.3868 207.925 79.3 207.679C79.6033 207.597 79.9158 207.553 80.23 207.549ZM80.23 205.549C79.3787 205.556 78.5402 205.757 77.7778 206.136C77.0155 206.515 76.3494 207.062 75.8301 207.736C75.3107 208.411 74.9516 209.195 74.7801 210.029C74.6086 210.863 74.6291 211.725 74.84 212.549L78.44 225.939C78.6298 226.646 78.9568 227.308 79.4025 227.888C79.8482 228.468 80.4038 228.955 81.0376 229.32C81.6713 229.686 82.3708 229.923 83.0962 230.018C83.8215 230.113 84.5585 230.064 85.265 229.874C85.9715 229.685 86.6337 229.357 87.2139 228.912C87.794 228.466 88.2806 227.911 88.646 227.277C89.0114 226.643 89.2484 225.943 89.3435 225.218C89.4385 224.493 89.3898 223.756 89.2 223.049L85.61 209.659C85.2899 208.476 84.59 207.431 83.6179 206.685C82.6459 205.939 81.4555 205.533 80.23 205.529V205.549Z" fill="#333333"/>
<path d="M112.43 221.43C111.424 221.429 110.447 221.096 109.65 220.484C108.852 219.871 108.279 219.012 108.02 218.04L104.43 204.66C104.115 203.488 104.278 202.239 104.884 201.187C105.489 200.135 106.488 199.367 107.66 199.05C108.049 198.951 108.448 198.9 108.85 198.9C109.855 198.903 110.831 199.237 111.628 199.849C112.425 200.462 112.999 201.32 113.26 202.29L116.85 215.68C117.159 216.851 116.993 218.097 116.388 219.145C115.783 220.194 114.788 220.962 113.62 221.28C113.231 221.38 112.831 221.43 112.43 221.43V221.43Z" fill="white"/>
<path d="M108.85 199.88C109.634 199.882 110.395 200.141 111.017 200.618C111.639 201.095 112.086 201.764 112.29 202.52L115.89 215.91C116.135 216.826 116.005 217.802 115.531 218.623C115.057 219.445 114.276 220.044 113.36 220.29C113.057 220.37 112.744 220.41 112.43 220.41C111.646 220.408 110.884 220.148 110.26 219.671C109.637 219.194 109.188 218.527 108.98 217.77L105.39 204.43C105.268 203.976 105.236 203.503 105.297 203.037C105.358 202.571 105.511 202.122 105.746 201.715C105.981 201.308 106.294 200.951 106.667 200.666C107.04 200.38 107.466 200.171 107.92 200.05C108.224 199.97 108.536 199.93 108.85 199.93V199.88ZM108.85 197.93C107.996 197.929 107.153 198.124 106.387 198.501C105.621 198.878 104.951 199.425 104.43 200.102C103.909 200.779 103.551 201.566 103.383 202.403C103.214 203.24 103.241 204.105 103.46 204.93L107.05 218.32C107.433 219.748 108.368 220.966 109.649 221.705C110.93 222.444 112.452 222.643 113.88 222.26C115.308 221.877 116.526 220.942 117.265 219.661C118.004 218.38 118.203 216.858 117.82 215.43L114.23 202.04C113.912 200.856 113.212 199.81 112.24 199.064C111.267 198.317 110.076 197.912 108.85 197.91V197.93Z" fill="#333333"/>
<path d="M13.1201 256.57L131.18 224.9" stroke="#333333" stroke-width="2" stroke-miterlimit="10"/>
<path d="M119.26 238.27C120.66 238.273 122.02 238.737 123.129 239.59C124.239 240.443 125.037 241.638 125.4 242.99L140.93 300.86C141.367 302.492 141.138 304.229 140.294 305.692C139.45 307.155 138.06 308.222 136.43 308.66L51.2498 331.51C50.7122 331.658 50.1572 331.732 49.5998 331.73C48.1999 331.729 46.8395 331.267 45.7281 330.416C44.6168 329.565 43.8162 328.371 43.4498 327.02L27.9298 269.14C27.4925 267.511 27.7197 265.774 28.5615 264.312C29.4033 262.849 30.7909 261.781 32.4198 261.34L117.6 238.49C118.142 238.348 118.699 238.274 119.26 238.27V238.27ZM119.26 236.27C118.523 236.269 117.79 236.367 117.08 236.56L31.9098 259.43C29.7718 260.007 27.9495 261.407 26.8418 263.325C25.7341 265.242 25.4313 267.52 25.9998 269.66L41.5198 327.53C41.9956 329.31 43.0456 330.882 44.5067 332.003C45.9677 333.124 47.7581 333.731 49.5998 333.73C50.3321 333.73 51.0613 333.636 51.7698 333.45L137 310.59C138.061 310.307 139.056 309.818 139.927 309.15C140.799 308.481 141.53 307.648 142.079 306.697C142.628 305.745 142.984 304.695 143.127 303.606C143.269 302.517 143.195 301.411 142.91 300.35L127.33 242.43C126.853 240.654 125.804 239.084 124.345 237.963C122.887 236.842 121.099 236.234 119.26 236.23V236.27Z" fill="#333333"/>
<path d="M30.46 286.331L131.8 259.141" stroke="#333333" stroke-width="2" stroke-miterlimit="10"/>
<path d="M36.79 309.889L138.12 282.699" stroke="#333333" stroke-width="2" stroke-miterlimit="10"/>
<path d="M70.3201 328.05L50.5601 254.41" stroke="#333333" stroke-width="2" stroke-miterlimit="10"/>
<path d="M119.19 314.939L99.4399 241.289" stroke="#333333" stroke-width="2" stroke-miterlimit="10"/>
<path d="M93.8801 321.73L74.1201 248.09" stroke="#333333" stroke-width="2" stroke-miterlimit="10"/>
<path d="M72.6001 315.419L77.4001 316.859L82.9701 303.359" stroke="#FDAE46" stroke-width="3" stroke-linecap="round" stroke-linejoin="round"/>
<path d="M96.0098 309.14L100.8 310.58L106.37 297.08" stroke="#FDAE46" stroke-width="3" stroke-linecap="round" stroke-linejoin="round"/>
<path d="M89.5801 285.211L94.3801 286.641L99.9501 273.141" stroke="#FDAE46" stroke-width="3" stroke-linecap="round" stroke-linejoin="round"/>
<path d="M115.05 278.381L119.84 279.811L125.41 266.311" stroke="#FDAE46" stroke-width="3" stroke-linecap="round" stroke-linejoin="round"/>
<path d="M48.8301 321.8L53.6201 323.24L59.1901 309.73" stroke="#FDAE46" stroke-width="3" stroke-linecap="round" stroke-linejoin="round"/>
<path d="M0 86L0 368H343V86.5016L0 86ZM342.607 286.528C342.561 293.63 334.345 247.818 330.75 254.299C312.62 292.366 281.26 317.41 253.33 336.444C195.306 375.986 153.737 370.157 119.483 359.624C85.2286 349.091 56.8648 329.019 38.8093 313.401C20.7538 297.782 0 283.317 0 211.214L0 86L343 86.5016C343 86.5016 343 226.993 342.607 286.528Z" fill="white"/>
<g filter="url(#filter0_d)">
<path d="M152.11 179.19C177.013 179.19 197.2 159.002 197.2 134.1C197.2 109.197 177.013 89.0098 152.11 89.0098C127.207 89.0098 107.02 109.197 107.02 134.1C107.02 159.002 127.207 179.19 152.11 179.19Z" fill="white"/>
</g>
<path d="M152.11 91C160.634 91 168.967 93.5278 176.055 98.2637C183.143 103 188.667 109.731 191.929 117.606C195.191 125.482 196.045 134.148 194.382 142.508C192.719 150.869 188.614 158.549 182.586 164.576C176.559 170.604 168.879 174.709 160.518 176.372C152.158 178.035 143.492 177.181 135.616 173.919C127.741 170.657 121.01 165.133 116.274 158.045C111.538 150.957 109.01 142.624 109.01 134.1C109.023 122.673 113.568 111.718 121.648 103.638C129.728 95.5584 140.683 91.0132 152.11 91V91ZM152.11 87C142.794 86.998 133.687 89.7587 125.94 94.9329C118.193 100.107 112.155 107.462 108.588 116.069C105.022 124.675 104.088 134.145 105.904 143.283C107.72 152.42 112.205 160.813 118.792 167.401C125.378 173.989 133.771 178.476 142.908 180.294C152.044 182.112 161.515 181.18 170.122 177.616C178.729 174.051 186.086 168.014 191.262 160.268C196.437 152.523 199.2 143.416 199.2 134.1C199.2 121.61 194.239 109.631 185.408 100.799C176.577 91.9661 164.6 87.0027 152.11 87V87Z" fill="#333333"/>
<path d="M171.25 103.34L152.68 140.25L127.19 127.42" stroke="#333333" stroke-width="3" stroke-linecap="round" stroke-linejoin="round"/>
<path d="M152.11 144.17C155.612 144.17 158.45 141.332 158.45 137.83C158.45 134.329 155.612 131.49 152.11 131.49C148.609 131.49 145.77 134.329 145.77 137.83C145.77 141.332 148.609 144.17 152.11 144.17Z" fill="white"/>
<path d="M152 132.18C153.152 132.18 154.277 132.521 155.235 133.161C156.192 133.801 156.938 134.711 157.378 135.775C157.818 136.839 157.933 138.01 157.707 139.139C157.482 140.269 156.927 141.306 156.112 142.119C155.297 142.933 154.258 143.486 153.129 143.71C151.999 143.933 150.828 143.816 149.765 143.374C148.702 142.932 147.794 142.184 147.155 141.226C146.517 140.267 146.178 139.141 146.18 137.989C146.183 136.447 146.797 134.97 147.888 133.881C148.98 132.792 150.458 132.18 152 132.18ZM152 130C150.417 130 148.87 130.469 147.554 131.349C146.238 132.229 145.213 133.479 144.608 134.941C144.003 136.404 143.845 138.013 144.155 139.565C144.464 141.117 145.227 142.542 146.347 143.661C147.467 144.779 148.893 145.54 150.446 145.848C151.999 146.155 153.607 145.995 155.069 145.388C156.531 144.781 157.779 143.754 158.657 142.437C159.535 141.12 160.002 139.572 160 137.989C160 136.939 159.793 135.899 159.391 134.929C158.989 133.959 158.399 133.078 157.656 132.336C156.913 131.594 156.031 131.006 155.061 130.605C154.09 130.204 153.05 129.999 152 130Z" fill="#333333"/>
<defs>
<filter id="filter0_d" x="105.02" y="87.0098" width="98.18" height="98.18" filterUnits="userSpaceOnUse" color-interpolation-filters="sRGB">
<feFlood flood-opacity="0" result="BackgroundImageFix"/>
<feColorMatrix in="SourceAlpha" type="matrix" values="0 0 0 0 0 0 0 0 0 0 0 0 0 0 0 0 0 0 127 0"/>
<feOffset dx="2" dy="2"/>
<feGaussianBlur stdDeviation="2"/>
<feColorMatrix type="matrix" values="0 0 0 0 0 0 0 0 0 0 0 0 0 0 0 0 0 0 0.25 0"/>
<feBlend mode="normal" in2="BackgroundImageFix" result="effect1_dropShadow"/>
<feBlend mode="normal" in="SourceGraphic" in2="effect1_dropShadow" result="shape"/>
</filter>
</defs>
</svg>
